<?xml version="1.0" standalone="no"?>
<!DOCTYPE svg PUBLIC "-//W3C//DTD SVG 1.1//EN" 
  "http://www.w3.org/Graphics/SVG/1.1/DTD/svg11.dtd">
<svg width="296.000mm" height="196.000mm" version="1.1"
     viewBox="0 0 296.000 196.000"
     xmlns="http://www.w3.org/2000/svg"  xmlns:xlink="http://www.w3.org/1999/xlink" 
     xmlns:fpd="http://www.schaeffer-ag.de">
  <desc>Created with the Front Panel Designer by the export of the file '500-0950.fpd'.</desc>
  <defs>
    <pattern id="revside-fill" x="1" y="1" width="2.960" height="2.960" patternUnits="userSpaceOnUse">
      <line x1="0" y1="0" x2="2.960" y2="2.960" style="stroke-width:0.296; stroke:black; stroke-dasharray:none;" />
      <line x1="0" y1="2.960" x2="2.960" y2="0" style="stroke-width:0.296; stroke:black; stroke-dasharray:none;" />
    </pattern>
    <pattern id="revside-fill-silver" x="1" y="1" width="2.960" height="2.960" patternUnits="userSpaceOnUse">
      <line x1="0" y1="0" x2="2.960" y2="2.960" style="stroke-width:0.296; stroke:#e0e0e0; stroke-dasharray:none;" />
      <line x1="0" y1="2.960" x2="2.960" y2="0" style="stroke-width:0.296; stroke:#e0e0e0; stroke-dasharray:none;" />
    </pattern>
  </defs>
<g transform="scale(1,-1) translate( -0.000, -196.000)" 
   fill-rule="evenodd"
   style="stroke-linecap:round; stroke-linejoin:round; stroke-opacity:1.0; stroke-opacity:1.0;">
<path d="
M296.000 196.000
L296.000 0.000
L0.000 0.000
L0.000 196.000
L296.000 196.000
" 
fill="#c0c0c0" fill-opacity="1.000000" vector-effect="non-scaling-stroke" stroke="#000000" stroke-width="0.100mm" stroke-opacity="1.000000" fpd:visible="front back" />
<path d="
M296.000 105.000
L0.000 105.000
" 
fill="none" vector-effect="non-scaling-stroke" stroke="#6c85b8" stroke-width="0.200mm" stroke-opacity="1.000000" fpd:visible="front" fpd:print_element="0" fpd:engraving="1" />
<path d="
M381.000 51.500
A0.500,0.500 0 0,1 381.500,51.000
L402.500 51.000
A0.500,0.500 0 0,1 403.000,51.500
L403.000 127.500
A0.500,0.500 0 0,1 402.500,128.000
L381.500 128.000
A0.500,0.500 0 0,1 381.000,127.500
L381.000 51.500
" 
fill="url(#revside-fill-#d4dff2)" opacity="1.000000" vector-effect="non-scaling-stroke" stroke="#2952a3" stroke-width="0.100mm" stroke-opacity="1.000000"  stroke-dasharray="1.5 1.5" fpd:visible="back" fpd:print_element="0" />
<path d="
M336.125 69.500
A0.500,0.500 0 0,1 336.625,69.000
L363.375 69.000
A0.500,0.500 0 0,1 363.875,69.500
L363.875 96.500
A0.500,0.500 0 0,1 363.375,97.000
L336.625 97.000
A0.500,0.500 0 0,1 336.125,96.500
L336.125 69.500
" 
fill="url(#revside-fill-#d4dff2)" opacity="1.000000" vector-effect="non-scaling-stroke" stroke="#2952a3" stroke-width="0.100mm" stroke-opacity="1.000000"  stroke-dasharray="1.5 1.5" fpd:visible="back" fpd:print_element="0" />
<path d="
M0.000 0.500
A0.500,0.500 0 0,1 0.500,0.000
L24.500 0.000
A0.500,0.500 0 0,1 25.000,0.500
L25.000 76.500
A0.500,0.500 0 0,1 24.500,77.000
L0.500 77.000
A0.500,0.500 0 0,1 0.000,76.500
L0.000 0.500
" 
fill="url(#revside-fill-#d4dff2)" opacity="1.000000" vector-effect="non-scaling-stroke" stroke="#2952a3" stroke-width="0.100mm" stroke-opacity="1.000000"  stroke-dasharray="1.5 1.5" fpd:visible="back" fpd:print_element="0" />
<path d="
M337.500 129.500
A0.500,0.500 0 0,1 338.000,129.000
L362.000 129.000
A0.500,0.500 0 0,1 362.500,129.500
L362.500 153.500
A0.500,0.500 0 0,1 362.000,154.000
L338.000 154.000
A0.500,0.500 0 0,1 337.500,153.500
L337.500 129.500
" 
fill="url(#revside-fill-#d4dff2)" opacity="1.000000" vector-effect="non-scaling-stroke" stroke="#2952a3" stroke-width="0.100mm" stroke-opacity="1.000000"  stroke-dasharray="1.5 1.5" fpd:visible="back" fpd:print_element="0" />
<path d="
M335.000 35.000
A0.500,0.500 0 0,1 335.500,34.500
L364.500 34.500
A0.500,0.500 0 0,1 365.000,35.000
L365.000 64.000
A0.500,0.500 0 0,1 364.500,64.500
L335.500 64.500
A0.500,0.500 0 0,1 335.000,64.000
L335.000 35.000
" 
fill="url(#revside-fill-#d4dff2)" opacity="1.000000" vector-effect="non-scaling-stroke" stroke="#2952a3" stroke-width="0.100mm" stroke-opacity="1.000000"  stroke-dasharray="1.5 1.5" fpd:visible="back" fpd:print_element="0" />
<path d="
M25.000 79.000
A0.500,0.500 0 0,1 25.500,78.500
L49.500 78.500
A0.500,0.500 0 0,1 50.000,79.000
L50.000 103.000
A0.500,0.500 0 0,1 49.500,103.500
L25.500 103.500
A0.500,0.500 0 0,1 25.000,103.000
L25.000 79.000
" 
fill="url(#revside-fill-#d4dff2)" opacity="1.000000" vector-effect="non-scaling-stroke" stroke="#2952a3" stroke-width="0.100mm" stroke-opacity="1.000000"  stroke-dasharray="1.5 1.5" fpd:visible="back" fpd:print_element="0" />
<path d="
M0.000 79.000
A0.500,0.500 0 0,1 0.500,78.500
L24.500 78.500
A0.500,0.500 0 0,1 25.000,79.000
L25.000 103.000
A0.500,0.500 0 0,1 24.500,103.500
L0.500 103.500
A0.500,0.500 0 0,1 0.000,103.000
L0.000 79.000
" 
fill="url(#revside-fill-#d4dff2)" opacity="1.000000" vector-effect="non-scaling-stroke" stroke="#2952a3" stroke-width="0.100mm" stroke-opacity="1.000000"  stroke-dasharray="1.5 1.5" fpd:visible="back" fpd:print_element="0" />
<path d="
M50.000 79.000
A0.500,0.500 0 0,1 50.500,78.500
L74.500 78.500
A0.500,0.500 0 0,1 75.000,79.000
L75.000 103.000
A0.500,0.500 0 0,1 74.500,103.500
L50.500 103.500
A0.500,0.500 0 0,1 50.000,103.000
L50.000 79.000
" 
fill="url(#revside-fill-#d4dff2)" opacity="1.000000" vector-effect="non-scaling-stroke" stroke="#2952a3" stroke-width="0.100mm" stroke-opacity="1.000000"  stroke-dasharray="1.5 1.5" fpd:visible="back" fpd:print_element="0" />
<path d="
M339.500 160.500
A0.500,0.500 0 0,1 340.000,160.000
L360.000 160.000
A0.500,0.500 0 0,1 360.500,160.500
L360.500 180.500
A0.500,0.500 0 0,1 360.000,181.000
L340.000 181.000
A0.500,0.500 0 0,1 339.500,180.500
L339.500 160.500
" 
fill="url(#revside-fill-#d4dff2)" opacity="1.000000" vector-effect="non-scaling-stroke" stroke="#2952a3" stroke-width="0.100mm" stroke-opacity="1.000000"  stroke-dasharray="1.5 1.5" fpd:visible="back" fpd:print_element="0" />
<path d="
M336.000 186.500
A0.500,0.500 0 0,1 336.500,186.000
L363.500 186.000
A0.500,0.500 0 0,1 364.000,186.500
L364.000 213.500
A0.500,0.500 0 0,1 363.500,214.000
L336.500 214.000
A0.500,0.500 0 0,1 336.000,213.500
L336.000 186.500
" 
fill="url(#revside-fill-#d4dff2)" opacity="1.000000" vector-effect="non-scaling-stroke" stroke="#2952a3" stroke-width="0.100mm" stroke-opacity="1.000000"  stroke-dasharray="1.5 1.5" fpd:visible="back" fpd:print_element="0" />
<path d="
M339.500 102.500
A0.500,0.500 0 0,1 340.000,102.000
L360.000 102.000
A0.500,0.500 0 0,1 360.500,102.500
L360.500 122.500
A0.500,0.500 0 0,1 360.000,123.000
L340.000 123.000
A0.500,0.500 0 0,1 339.500,122.500
L339.500 102.500
" 
fill="url(#revside-fill-#d4dff2)" opacity="1.000000" vector-effect="non-scaling-stroke" stroke="#2952a3" stroke-width="0.100mm" stroke-opacity="1.000000"  stroke-dasharray="1.5 1.5" fpd:visible="back" fpd:print_element="0" />
<path d="
M312.750 103.750
A0.500,0.500 0 0,1 313.250,103.250
L330.750 103.250
A0.500,0.500 0 0,1 331.250,103.750
L331.250 121.250
A0.500,0.500 0 0,1 330.750,121.750
L313.250 121.750
A0.500,0.500 0 0,1 312.750,121.250
L312.750 103.750
" 
fill="url(#revside-fill-#d4dff2)" opacity="1.000000" vector-effect="non-scaling-stroke" stroke="#2952a3" stroke-width="0.100mm" stroke-opacity="1.000000"  stroke-dasharray="1.5 1.5" fpd:visible="back" fpd:print_element="0" />
<path d="
M277.504 85.750
A0.500,0.500 0 0,1 278.004,85.250
L295.504 85.250
A0.500,0.500 0 0,1 296.004,85.750
L296.004 103.250
A0.500,0.500 0 0,1 295.504,103.750
L278.004 103.750
A0.500,0.500 0 0,1 277.504,103.250
L277.504 85.750
" 
fill="url(#revside-fill-#d4dff2)" opacity="1.000000" vector-effect="non-scaling-stroke" stroke="#2952a3" stroke-width="0.100mm" stroke-opacity="1.000000"  stroke-dasharray="1.5 1.5" fpd:visible="back" fpd:print_element="0" />
<path d="
M259.004 85.750
A0.500,0.500 0 0,1 259.504,85.250
L277.004 85.250
A0.500,0.500 0 0,1 277.504,85.750
L277.504 103.250
A0.500,0.500 0 0,1 277.004,103.750
L259.504 103.750
A0.500,0.500 0 0,1 259.004,103.250
L259.004 85.750
" 
fill="url(#revside-fill-#d4dff2)" opacity="1.000000" vector-effect="non-scaling-stroke" stroke="#2952a3" stroke-width="0.100mm" stroke-opacity="1.000000"  stroke-dasharray="1.5 1.5" fpd:visible="back" fpd:print_element="0" />
<path d="
M240.504 85.750
A0.500,0.500 0 0,1 241.004,85.250
L258.504 85.250
A0.500,0.500 0 0,1 259.004,85.750
L259.004 103.250
A0.500,0.500 0 0,1 258.504,103.750
L241.004 103.750
A0.500,0.500 0 0,1 240.504,103.250
L240.504 85.750
" 
fill="url(#revside-fill-#d4dff2)" opacity="1.000000" vector-effect="non-scaling-stroke" stroke="#2952a3" stroke-width="0.100mm" stroke-opacity="1.000000"  stroke-dasharray="1.5 1.5" fpd:visible="back" fpd:print_element="0" />
<path d="
M222.004 85.750
A0.500,0.500 0 0,1 222.504,85.250
L240.004 85.250
A0.500,0.500 0 0,1 240.504,85.750
L240.504 103.250
A0.500,0.500 0 0,1 240.004,103.750
L222.504 103.750
A0.500,0.500 0 0,1 222.004,103.250
L222.004 85.750
" 
fill="url(#revside-fill-#d4dff2)" opacity="1.000000" vector-effect="non-scaling-stroke" stroke="#2952a3" stroke-width="0.100mm" stroke-opacity="1.000000"  stroke-dasharray="1.5 1.5" fpd:visible="back" fpd:print_element="0" />
<path d="
M203.504 85.750
A0.500,0.500 0 0,1 204.004,85.250
L221.504 85.250
A0.500,0.500 0 0,1 222.004,85.750
L222.004 103.250
A0.500,0.500 0 0,1 221.504,103.750
L204.004 103.750
A0.500,0.500 0 0,1 203.504,103.250
L203.504 85.750
" 
fill="url(#revside-fill-#d4dff2)" opacity="1.000000" vector-effect="non-scaling-stroke" stroke="#2952a3" stroke-width="0.100mm" stroke-opacity="1.000000"  stroke-dasharray="1.5 1.5" fpd:visible="back" fpd:print_element="0" />
<path d="
M185.004 85.750
A0.500,0.500 0 0,1 185.504,85.250
L203.004 85.250
A0.500,0.500 0 0,1 203.504,85.750
L203.504 103.250
A0.500,0.500 0 0,1 203.004,103.750
L185.504 103.750
A0.500,0.500 0 0,1 185.004,103.250
L185.004 85.750
" 
fill="url(#revside-fill-#d4dff2)" opacity="1.000000" vector-effect="non-scaling-stroke" stroke="#2952a3" stroke-width="0.100mm" stroke-opacity="1.000000"  stroke-dasharray="1.5 1.5" fpd:visible="back" fpd:print_element="0" />
<path d="
M-24.996 81.250
A0.500,0.500 0 0,1 -24.496,80.750
L-6.996 80.750
A0.500,0.500 0 0,1 -6.496,81.250
L-6.496 98.750
A0.500,0.500 0 0,1 -6.996,99.250
L-24.496 99.250
A0.500,0.500 0 0,1 -24.996,98.750
L-24.996 81.250
" 
fill="url(#revside-fill-#d4dff2)" opacity="1.000000" vector-effect="non-scaling-stroke" stroke="#2952a3" stroke-width="0.100mm" stroke-opacity="1.000000"  stroke-dasharray="1.5 1.5" fpd:visible="back" fpd:print_element="0" />
<path d="
M-43.496 81.250
A0.500,0.500 0 0,1 -42.996,80.750
L-25.496 80.750
A0.500,0.500 0 0,1 -24.996,81.250
L-24.996 98.750
A0.500,0.500 0 0,1 -25.496,99.250
L-42.996 99.250
A0.500,0.500 0 0,1 -43.496,98.750
L-43.496 81.250
" 
fill="url(#revside-fill-#d4dff2)" opacity="1.000000" vector-effect="non-scaling-stroke" stroke="#2952a3" stroke-width="0.100mm" stroke-opacity="1.000000"  stroke-dasharray="1.5 1.5" fpd:visible="back" fpd:print_element="0" />
<path d="
M-61.996 81.250
A0.500,0.500 0 0,1 -61.496,80.750
L-43.996 80.750
A0.500,0.500 0 0,1 -43.496,81.250
L-43.496 98.750
A0.500,0.500 0 0,1 -43.996,99.250
L-61.496 99.250
A0.500,0.500 0 0,1 -61.996,98.750
L-61.996 81.250
" 
fill="url(#revside-fill-#d4dff2)" opacity="1.000000" vector-effect="non-scaling-stroke" stroke="#2952a3" stroke-width="0.100mm" stroke-opacity="1.000000"  stroke-dasharray="1.5 1.5" fpd:visible="back" fpd:print_element="0" />
<path d="
M-80.496 81.250
A0.500,0.500 0 0,1 -79.996,80.750
L-62.496 80.750
A0.500,0.500 0 0,1 -61.996,81.250
L-61.996 98.750
A0.500,0.500 0 0,1 -62.496,99.250
L-79.996 99.250
A0.500,0.500 0 0,1 -80.496,98.750
L-80.496 81.250
" 
fill="url(#revside-fill-#d4dff2)" opacity="1.000000" vector-effect="non-scaling-stroke" stroke="#2952a3" stroke-width="0.100mm" stroke-opacity="1.000000"  stroke-dasharray="1.5 1.5" fpd:visible="back" fpd:print_element="0" />
<path d="
M166.504 85.750
A0.500,0.500 0 0,1 167.004,85.250
L184.504 85.250
A0.500,0.500 0 0,1 185.004,85.750
L185.004 103.250
A0.500,0.500 0 0,1 184.504,103.750
L167.004 103.750
A0.500,0.500 0 0,1 166.504,103.250
L166.504 85.750
" 
fill="url(#revside-fill-#d4dff2)" opacity="1.000000" vector-effect="non-scaling-stroke" stroke="#2952a3" stroke-width="0.100mm" stroke-opacity="1.000000"  stroke-dasharray="1.5 1.5" fpd:visible="back" fpd:print_element="0" />
<path d="
M148.004 85.750
A0.500,0.500 0 0,1 148.504,85.250
L166.004 85.250
A0.500,0.500 0 0,1 166.504,85.750
L166.504 103.250
A0.500,0.500 0 0,1 166.004,103.750
L148.504 103.750
A0.500,0.500 0 0,1 148.004,103.250
L148.004 85.750
" 
fill="url(#revside-fill-#d4dff2)" opacity="1.000000" vector-effect="non-scaling-stroke" stroke="#2952a3" stroke-width="0.100mm" stroke-opacity="1.000000"  stroke-dasharray="1.5 1.5" fpd:visible="back" fpd:print_element="0" />
<path d="
M268.250 0.495
A0.500,0.500 0 0,1 268.750,-0.005
L295.500 -0.005
A0.500,0.500 0 0,1 296.000,0.495
L296.000 27.495
A0.500,0.500 0 0,1 295.500,27.995
L268.750 27.995
A0.500,0.500 0 0,1 268.250,27.495
L268.250 0.495
" 
fill="url(#revside-fill-#d4dff2)" opacity="1.000000" vector-effect="non-scaling-stroke" stroke="#2952a3" stroke-width="0.100mm" stroke-opacity="1.000000"  stroke-dasharray="1.5 1.5" fpd:visible="back" fpd:print_element="0" />
<path d="
M268.250 28.495
A0.500,0.500 0 0,1 268.750,27.995
L295.500 27.995
A0.500,0.500 0 0,1 296.000,28.495
L296.000 55.495
A0.500,0.500 0 0,1 295.500,55.995
L268.750 55.995
A0.500,0.500 0 0,1 268.250,55.495
L268.250 28.495
" 
fill="url(#revside-fill-#d4dff2)" opacity="1.000000" vector-effect="non-scaling-stroke" stroke="#2952a3" stroke-width="0.100mm" stroke-opacity="1.000000"  stroke-dasharray="1.5 1.5" fpd:visible="back" fpd:print_element="0" />
<path d="
M268.250 56.495
A0.500,0.500 0 0,1 268.750,55.995
L295.500 55.995
A0.500,0.500 0 0,1 296.000,56.495
L296.000 83.495
A0.500,0.500 0 0,1 295.500,83.995
L268.750 83.995
A0.500,0.500 0 0,1 268.250,83.495
L268.250 56.495
" 
fill="url(#revside-fill-#d4dff2)" opacity="1.000000" vector-effect="non-scaling-stroke" stroke="#2952a3" stroke-width="0.100mm" stroke-opacity="1.000000"  stroke-dasharray="1.5 1.5" fpd:visible="back" fpd:print_element="0" />
<path d="
M240.491 0.495
A0.500,0.500 0 0,1 240.991,-0.005
L267.741 -0.005
A0.500,0.500 0 0,1 268.241,0.495
L268.241 27.495
A0.500,0.500 0 0,1 267.741,27.995
L240.991 27.995
A0.500,0.500 0 0,1 240.491,27.495
L240.491 0.495
" 
fill="url(#revside-fill-#d4dff2)" opacity="1.000000" vector-effect="non-scaling-stroke" stroke="#2952a3" stroke-width="0.100mm" stroke-opacity="1.000000"  stroke-dasharray="1.5 1.5" fpd:visible="back" fpd:print_element="0" />
<path d="
M240.491 28.495
A0.500,0.500 0 0,1 240.991,27.995
L267.741 27.995
A0.500,0.500 0 0,1 268.241,28.495
L268.241 55.495
A0.500,0.500 0 0,1 267.741,55.995
L240.991 55.995
A0.500,0.500 0 0,1 240.491,55.495
L240.491 28.495
" 
fill="url(#revside-fill-#d4dff2)" opacity="1.000000" vector-effect="non-scaling-stroke" stroke="#2952a3" stroke-width="0.100mm" stroke-opacity="1.000000"  stroke-dasharray="1.5 1.5" fpd:visible="back" fpd:print_element="0" />
<path d="
M240.491 56.495
A0.500,0.500 0 0,1 240.991,55.995
L267.741 55.995
A0.500,0.500 0 0,1 268.241,56.495
L268.241 83.495
A0.500,0.500 0 0,1 267.741,83.995
L240.991 83.995
A0.500,0.500 0 0,1 240.491,83.495
L240.491 56.495
" 
fill="url(#revside-fill-#d4dff2)" opacity="1.000000" vector-effect="non-scaling-stroke" stroke="#2952a3" stroke-width="0.100mm" stroke-opacity="1.000000"  stroke-dasharray="1.5 1.5" fpd:visible="back" fpd:print_element="0" />
<path d="
M212.750 0.495
A0.500,0.500 0 0,1 213.250,-0.005
L240.000 -0.005
A0.500,0.500 0 0,1 240.500,0.495
L240.500 27.495
A0.500,0.500 0 0,1 240.000,27.995
L213.250 27.995
A0.500,0.500 0 0,1 212.750,27.495
L212.750 0.495
" 
fill="url(#revside-fill-#d4dff2)" opacity="1.000000" vector-effect="non-scaling-stroke" stroke="#2952a3" stroke-width="0.100mm" stroke-opacity="1.000000"  stroke-dasharray="1.5 1.5" fpd:visible="back" fpd:print_element="0" />
<path d="
M212.750 28.495
A0.500,0.500 0 0,1 213.250,27.995
L240.000 27.995
A0.500,0.500 0 0,1 240.500,28.495
L240.500 55.495
A0.500,0.500 0 0,1 240.000,55.995
L213.250 55.995
A0.500,0.500 0 0,1 212.750,55.495
L212.750 28.495
" 
fill="url(#revside-fill-#d4dff2)" opacity="1.000000" vector-effect="non-scaling-stroke" stroke="#2952a3" stroke-width="0.100mm" stroke-opacity="1.000000"  stroke-dasharray="1.5 1.5" fpd:visible="back" fpd:print_element="0" />
<path d="
M212.750 56.495
A0.500,0.500 0 0,1 213.250,55.995
L240.000 55.995
A0.500,0.500 0 0,1 240.500,56.495
L240.500 83.495
A0.500,0.500 0 0,1 240.000,83.995
L213.250 83.995
A0.500,0.500 0 0,1 212.750,83.495
L212.750 56.495
" 
fill="url(#revside-fill-#d4dff2)" opacity="1.000000" vector-effect="non-scaling-stroke" stroke="#2952a3" stroke-width="0.100mm" stroke-opacity="1.000000"  stroke-dasharray="1.5 1.5" fpd:visible="back" fpd:print_element="0" />
<path d="
M184.991 0.495
A0.500,0.500 0 0,1 185.491,-0.005
L212.241 -0.005
A0.500,0.500 0 0,1 212.741,0.495
L212.741 27.495
A0.500,0.500 0 0,1 212.241,27.995
L185.491 27.995
A0.500,0.500 0 0,1 184.991,27.495
L184.991 0.495
" 
fill="url(#revside-fill-#d4dff2)" opacity="1.000000" vector-effect="non-scaling-stroke" stroke="#2952a3" stroke-width="0.100mm" stroke-opacity="1.000000"  stroke-dasharray="1.5 1.5" fpd:visible="back" fpd:print_element="0" />
<path d="
M184.991 28.495
A0.500,0.500 0 0,1 185.491,27.995
L212.241 27.995
A0.500,0.500 0 0,1 212.741,28.495
L212.741 55.495
A0.500,0.500 0 0,1 212.241,55.995
L185.491 55.995
A0.500,0.500 0 0,1 184.991,55.495
L184.991 28.495
" 
fill="url(#revside-fill-#d4dff2)" opacity="1.000000" vector-effect="non-scaling-stroke" stroke="#2952a3" stroke-width="0.100mm" stroke-opacity="1.000000"  stroke-dasharray="1.5 1.5" fpd:visible="back" fpd:print_element="0" />
<path d="
M184.991 56.495
A0.500,0.500 0 0,1 185.491,55.995
L212.241 55.995
A0.500,0.500 0 0,1 212.741,56.495
L212.741 83.495
A0.500,0.500 0 0,1 212.241,83.995
L185.491 83.995
A0.500,0.500 0 0,1 184.991,83.495
L184.991 56.495
" 
fill="url(#revside-fill-#d4dff2)" opacity="1.000000" vector-effect="non-scaling-stroke" stroke="#2952a3" stroke-width="0.100mm" stroke-opacity="1.000000"  stroke-dasharray="1.5 1.5" fpd:visible="back" fpd:print_element="0" />
<path d="
M157.250 0.495
A0.500,0.500 0 0,1 157.750,-0.005
L184.500 -0.005
A0.500,0.500 0 0,1 185.000,0.495
L185.000 27.495
A0.500,0.500 0 0,1 184.500,27.995
L157.750 27.995
A0.500,0.500 0 0,1 157.250,27.495
L157.250 0.495
" 
fill="url(#revside-fill-#d4dff2)" opacity="1.000000" vector-effect="non-scaling-stroke" stroke="#2952a3" stroke-width="0.100mm" stroke-opacity="1.000000"  stroke-dasharray="1.5 1.5" fpd:visible="back" fpd:print_element="0" />
<path d="
M157.250 28.495
A0.500,0.500 0 0,1 157.750,27.995
L184.500 27.995
A0.500,0.500 0 0,1 185.000,28.495
L185.000 55.495
A0.500,0.500 0 0,1 184.500,55.995
L157.750 55.995
A0.500,0.500 0 0,1 157.250,55.495
L157.250 28.495
" 
fill="url(#revside-fill-#d4dff2)" opacity="1.000000" vector-effect="non-scaling-stroke" stroke="#2952a3" stroke-width="0.100mm" stroke-opacity="1.000000"  stroke-dasharray="1.5 1.5" fpd:visible="back" fpd:print_element="0" />
<path d="
M157.250 56.495
A0.500,0.500 0 0,1 157.750,55.995
L184.500 55.995
A0.500,0.500 0 0,1 185.000,56.495
L185.000 83.495
A0.500,0.500 0 0,1 184.500,83.995
L157.750 83.995
A0.500,0.500 0 0,1 157.250,83.495
L157.250 56.495
" 
fill="url(#revside-fill-#d4dff2)" opacity="1.000000" vector-effect="non-scaling-stroke" stroke="#2952a3" stroke-width="0.100mm" stroke-opacity="1.000000"  stroke-dasharray="1.5 1.5" fpd:visible="back" fpd:print_element="0" />
<path d="
M129.491 0.495
A0.500,0.500 0 0,1 129.991,-0.005
L156.741 -0.005
A0.500,0.500 0 0,1 157.241,0.495
L157.241 27.495
A0.500,0.500 0 0,1 156.741,27.995
L129.991 27.995
A0.500,0.500 0 0,1 129.491,27.495
L129.491 0.495
" 
fill="url(#revside-fill-#d4dff2)" opacity="1.000000" vector-effect="non-scaling-stroke" stroke="#2952a3" stroke-width="0.100mm" stroke-opacity="1.000000"  stroke-dasharray="1.5 1.5" fpd:visible="back" fpd:print_element="0" />
<path d="
M129.491 28.495
A0.500,0.500 0 0,1 129.991,27.995
L156.741 27.995
A0.500,0.500 0 0,1 157.241,28.495
L157.241 55.495
A0.500,0.500 0 0,1 156.741,55.995
L129.991 55.995
A0.500,0.500 0 0,1 129.491,55.495
L129.491 28.495
" 
fill="url(#revside-fill-#d4dff2)" opacity="1.000000" vector-effect="non-scaling-stroke" stroke="#2952a3" stroke-width="0.100mm" stroke-opacity="1.000000"  stroke-dasharray="1.5 1.5" fpd:visible="back" fpd:print_element="0" />
<path d="
M129.491 56.495
A0.500,0.500 0 0,1 129.991,55.995
L156.741 55.995
A0.500,0.500 0 0,1 157.241,56.495
L157.241 83.495
A0.500,0.500 0 0,1 156.741,83.995
L129.991 83.995
A0.500,0.500 0 0,1 129.491,83.495
L129.491 56.495
" 
fill="url(#revside-fill-#d4dff2)" opacity="1.000000" vector-effect="non-scaling-stroke" stroke="#2952a3" stroke-width="0.100mm" stroke-opacity="1.000000"  stroke-dasharray="1.5 1.5" fpd:visible="back" fpd:print_element="0" />
<path d="
M101.750 0.495
A0.500,0.500 0 0,1 102.250,-0.005
L129.000 -0.005
A0.500,0.500 0 0,1 129.500,0.495
L129.500 27.495
A0.500,0.500 0 0,1 129.000,27.995
L102.250 27.995
A0.500,0.500 0 0,1 101.750,27.495
L101.750 0.495
" 
fill="url(#revside-fill-#d4dff2)" opacity="1.000000" vector-effect="non-scaling-stroke" stroke="#2952a3" stroke-width="0.100mm" stroke-opacity="1.000000"  stroke-dasharray="1.5 1.5" fpd:visible="back" fpd:print_element="0" />
<path d="
M101.750 28.495
A0.500,0.500 0 0,1 102.250,27.995
L129.000 27.995
A0.500,0.500 0 0,1 129.500,28.495
L129.500 55.495
A0.500,0.500 0 0,1 129.000,55.995
L102.250 55.995
A0.500,0.500 0 0,1 101.750,55.495
L101.750 28.495
" 
fill="url(#revside-fill-#d4dff2)" opacity="1.000000" vector-effect="non-scaling-stroke" stroke="#2952a3" stroke-width="0.100mm" stroke-opacity="1.000000"  stroke-dasharray="1.5 1.5" fpd:visible="back" fpd:print_element="0" />
<path d="
M101.750 56.495
A0.500,0.500 0 0,1 102.250,55.995
L129.000 55.995
A0.500,0.500 0 0,1 129.500,56.495
L129.500 83.495
A0.500,0.500 0 0,1 129.000,83.995
L102.250 83.995
A0.500,0.500 0 0,1 101.750,83.495
L101.750 56.495
" 
fill="url(#revside-fill-#d4dff2)" opacity="1.000000" vector-effect="non-scaling-stroke" stroke="#2952a3" stroke-width="0.100mm" stroke-opacity="1.000000"  stroke-dasharray="1.5 1.5" fpd:visible="back" fpd:print_element="0" />
<path d="
M73.991 0.495
A0.500,0.500 0 0,1 74.491,-0.005
L101.241 -0.005
A0.500,0.500 0 0,1 101.741,0.495
L101.741 27.495
A0.500,0.500 0 0,1 101.241,27.995
L74.491 27.995
A0.500,0.500 0 0,1 73.991,27.495
L73.991 0.495
" 
fill="url(#revside-fill-#d4dff2)" opacity="1.000000" vector-effect="non-scaling-stroke" stroke="#2952a3" stroke-width="0.100mm" stroke-opacity="1.000000"  stroke-dasharray="1.5 1.5" fpd:visible="back" fpd:print_element="0" />
<path d="
M73.991 28.495
A0.500,0.500 0 0,1 74.491,27.995
L101.241 27.995
A0.500,0.500 0 0,1 101.741,28.495
L101.741 55.495
A0.500,0.500 0 0,1 101.241,55.995
L74.491 55.995
A0.500,0.500 0 0,1 73.991,55.495
L73.991 28.495
" 
fill="url(#revside-fill-#d4dff2)" opacity="1.000000" vector-effect="non-scaling-stroke" stroke="#2952a3" stroke-width="0.100mm" stroke-opacity="1.000000"  stroke-dasharray="1.5 1.5" fpd:visible="back" fpd:print_element="0" />
<path d="
M73.991 56.495
A0.500,0.500 0 0,1 74.491,55.995
L101.241 55.995
A0.500,0.500 0 0,1 101.741,56.495
L101.741 83.495
A0.500,0.500 0 0,1 101.241,83.995
L74.491 83.995
A0.500,0.500 0 0,1 73.991,83.495
L73.991 56.495
" 
fill="url(#revside-fill-#d4dff2)" opacity="1.000000" vector-effect="non-scaling-stroke" stroke="#2952a3" stroke-width="0.100mm" stroke-opacity="1.000000"  stroke-dasharray="1.5 1.5" fpd:visible="back" fpd:print_element="0" />
<path d="
M268.250 105.495
A0.500,0.500 0 0,1 268.750,104.995
L295.500 104.995
A0.500,0.500 0 0,1 296.000,105.495
L296.000 132.495
A0.500,0.500 0 0,1 295.500,132.995
L268.750 132.995
A0.500,0.500 0 0,1 268.250,132.495
L268.250 105.495
" 
fill="url(#revside-fill-#d4dff2)" opacity="1.000000" vector-effect="non-scaling-stroke" stroke="#2952a3" stroke-width="0.100mm" stroke-opacity="1.000000"  stroke-dasharray="1.5 1.5" fpd:visible="back" fpd:print_element="0" />
<path d="
M240.491 105.495
A0.500,0.500 0 0,1 240.991,104.995
L267.741 104.995
A0.500,0.500 0 0,1 268.241,105.495
L268.241 132.495
A0.500,0.500 0 0,1 267.741,132.995
L240.991 132.995
A0.500,0.500 0 0,1 240.491,132.495
L240.491 105.495
" 
fill="url(#revside-fill-#d4dff2)" opacity="1.000000" vector-effect="non-scaling-stroke" stroke="#2952a3" stroke-width="0.100mm" stroke-opacity="1.000000"  stroke-dasharray="1.5 1.5" fpd:visible="back" fpd:print_element="0" />
<path d="
M212.750 105.495
A0.500,0.500 0 0,1 213.250,104.995
L240.000 104.995
A0.500,0.500 0 0,1 240.500,105.495
L240.500 132.495
A0.500,0.500 0 0,1 240.000,132.995
L213.250 132.995
A0.500,0.500 0 0,1 212.750,132.495
L212.750 105.495
" 
fill="url(#revside-fill-#d4dff2)" opacity="1.000000" vector-effect="non-scaling-stroke" stroke="#2952a3" stroke-width="0.100mm" stroke-opacity="1.000000"  stroke-dasharray="1.5 1.5" fpd:visible="back" fpd:print_element="0" />
<path d="
M184.991 105.495
A0.500,0.500 0 0,1 185.491,104.995
L212.241 104.995
A0.500,0.500 0 0,1 212.741,105.495
L212.741 132.495
A0.500,0.500 0 0,1 212.241,132.995
L185.491 132.995
A0.500,0.500 0 0,1 184.991,132.495
L184.991 105.495
" 
fill="url(#revside-fill-#d4dff2)" opacity="1.000000" vector-effect="non-scaling-stroke" stroke="#2952a3" stroke-width="0.100mm" stroke-opacity="1.000000"  stroke-dasharray="1.5 1.5" fpd:visible="back" fpd:print_element="0" />
<path d="
M25.000 0.500
A0.500,0.500 0 0,1 25.500,0.000
L49.500 0.000
A0.500,0.500 0 0,1 50.000,0.500
L50.000 76.500
A0.500,0.500 0 0,1 49.500,77.000
L25.500 77.000
A0.500,0.500 0 0,1 25.000,76.500
L25.000 0.500
" 
fill="url(#revside-fill-#d4dff2)" opacity="1.000000" vector-effect="non-scaling-stroke" stroke="#2952a3" stroke-width="0.100mm" stroke-opacity="1.000000"  stroke-dasharray="1.5 1.5" fpd:visible="back" fpd:print_element="0" />
<path d="
M50.000 0.500
A0.500,0.500 0 0,1 50.500,0.000
L74.500 0.000
A0.500,0.500 0 0,1 75.000,0.500
L75.000 76.500
A0.500,0.500 0 0,1 74.500,77.000
L50.500 77.000
A0.500,0.500 0 0,1 50.000,76.500
L50.000 0.500
" 
fill="url(#revside-fill-#d4dff2)" opacity="1.000000" vector-effect="non-scaling-stroke" stroke="#2952a3" stroke-width="0.100mm" stroke-opacity="1.000000"  stroke-dasharray="1.5 1.5" fpd:visible="back" fpd:print_element="0" />
<path d="
M268.250 168.495
A0.500,0.500 0 0,1 268.750,167.995
L295.500 167.995
A0.500,0.500 0 0,1 296.000,168.495
L296.000 195.495
A0.500,0.500 0 0,1 295.500,195.995
L268.750 195.995
A0.500,0.500 0 0,1 268.250,195.495
L268.250 168.495
" 
fill="url(#revside-fill-#d4dff2)" opacity="1.000000" vector-effect="non-scaling-stroke" stroke="#2952a3" stroke-width="0.100mm" stroke-opacity="1.000000"  stroke-dasharray="1.5 1.5" fpd:visible="back" fpd:print_element="0" />
<path d="
M240.491 168.495
A0.500,0.500 0 0,1 240.991,167.995
L267.741 167.995
A0.500,0.500 0 0,1 268.241,168.495
L268.241 195.495
A0.500,0.500 0 0,1 267.741,195.995
L240.991 195.995
A0.500,0.500 0 0,1 240.491,195.495
L240.491 168.495
" 
fill="url(#revside-fill-#d4dff2)" opacity="1.000000" vector-effect="non-scaling-stroke" stroke="#2952a3" stroke-width="0.100mm" stroke-opacity="1.000000"  stroke-dasharray="1.5 1.5" fpd:visible="back" fpd:print_element="0" />
<path d="
M212.750 168.495
A0.500,0.500 0 0,1 213.250,167.995
L240.000 167.995
A0.500,0.500 0 0,1 240.500,168.495
L240.500 195.495
A0.500,0.500 0 0,1 240.000,195.995
L213.250 195.995
A0.500,0.500 0 0,1 212.750,195.495
L212.750 168.495
" 
fill="url(#revside-fill-#d4dff2)" opacity="1.000000" vector-effect="non-scaling-stroke" stroke="#2952a3" stroke-width="0.100mm" stroke-opacity="1.000000"  stroke-dasharray="1.5 1.5" fpd:visible="back" fpd:print_element="0" />
<path d="
M184.991 168.495
A0.500,0.500 0 0,1 185.491,167.995
L212.241 167.995
A0.500,0.500 0 0,1 212.741,168.495
L212.741 195.495
A0.500,0.500 0 0,1 212.241,195.995
L185.491 195.995
A0.500,0.500 0 0,1 184.991,195.495
L184.991 168.495
" 
fill="url(#revside-fill-#d4dff2)" opacity="1.000000" vector-effect="non-scaling-stroke" stroke="#2952a3" stroke-width="0.100mm" stroke-opacity="1.000000"  stroke-dasharray="1.5 1.5" fpd:visible="back" fpd:print_element="0" />
<path d="
M268.250 136.995
A0.500,0.500 0 0,1 268.750,136.495
L295.500 136.495
A0.500,0.500 0 0,1 296.000,136.995
L296.000 163.995
A0.500,0.500 0 0,1 295.500,164.495
L268.750 164.495
A0.500,0.500 0 0,1 268.250,163.995
L268.250 136.995
" 
fill="url(#revside-fill-#d4dff2)" opacity="1.000000" vector-effect="non-scaling-stroke" stroke="#2952a3" stroke-width="0.100mm" stroke-opacity="1.000000"  stroke-dasharray="1.5 1.5" fpd:visible="back" fpd:print_element="0" />
<path d="
M240.491 136.995
A0.500,0.500 0 0,1 240.991,136.495
L267.741 136.495
A0.500,0.500 0 0,1 268.241,136.995
L268.241 163.995
A0.500,0.500 0 0,1 267.741,164.495
L240.991 164.495
A0.500,0.500 0 0,1 240.491,163.995
L240.491 136.995
" 
fill="url(#revside-fill-#d4dff2)" opacity="1.000000" vector-effect="non-scaling-stroke" stroke="#2952a3" stroke-width="0.100mm" stroke-opacity="1.000000"  stroke-dasharray="1.5 1.5" fpd:visible="back" fpd:print_element="0" />
<path d="
M212.750 136.995
A0.500,0.500 0 0,1 213.250,136.495
L240.000 136.495
A0.500,0.500 0 0,1 240.500,136.995
L240.500 163.995
A0.500,0.500 0 0,1 240.000,164.495
L213.250 164.495
A0.500,0.500 0 0,1 212.750,163.995
L212.750 136.995
" 
fill="url(#revside-fill-#d4dff2)" opacity="1.000000" vector-effect="non-scaling-stroke" stroke="#2952a3" stroke-width="0.100mm" stroke-opacity="1.000000"  stroke-dasharray="1.5 1.5" fpd:visible="back" fpd:print_element="0" />
<path d="
M184.991 136.995
A0.500,0.500 0 0,1 185.491,136.495
L212.241 136.495
A0.500,0.500 0 0,1 212.741,136.995
L212.741 163.995
A0.500,0.500 0 0,1 212.241,164.495
L185.491 164.495
A0.500,0.500 0 0,1 184.991,163.995
L184.991 136.995
" 
fill="url(#revside-fill-#d4dff2)" opacity="1.000000" vector-effect="non-scaling-stroke" stroke="#2952a3" stroke-width="0.100mm" stroke-opacity="1.000000"  stroke-dasharray="1.5 1.5" fpd:visible="back" fpd:print_element="0" />
<path d="
M114.500 160.500
A0.500,0.500 0 0,1 115.000,160.000
L144.000 160.000
A0.500,0.500 0 0,1 144.500,160.500
L144.500 189.500
A0.500,0.500 0 0,1 144.000,190.000
L115.000 190.000
A0.500,0.500 0 0,1 114.500,189.500
L114.500 160.500
" 
fill="url(#revside-fill-#d4dff2)" opacity="1.000000" vector-effect="non-scaling-stroke" stroke="#2952a3" stroke-width="0.100mm" stroke-opacity="1.000000"  stroke-dasharray="1.5 1.5" fpd:visible="back" fpd:print_element="0" />
<path d="
M150.500 160.500
A0.500,0.500 0 0,1 151.000,160.000
L180.000 160.000
A0.500,0.500 0 0,1 180.500,160.500
L180.500 189.500
A0.500,0.500 0 0,1 180.000,190.000
L151.000 190.000
A0.500,0.500 0 0,1 150.500,189.500
L150.500 160.500
" 
fill="url(#revside-fill-#d4dff2)" opacity="1.000000" vector-effect="non-scaling-stroke" stroke="#2952a3" stroke-width="0.100mm" stroke-opacity="1.000000"  stroke-dasharray="1.5 1.5" fpd:visible="back" fpd:print_element="0" />
<path d="
M129.504 85.750
A0.500,0.500 0 0,1 130.004,85.250
L147.504 85.250
A0.500,0.500 0 0,1 148.004,85.750
L148.004 103.250
A0.500,0.500 0 0,1 147.504,103.750
L130.004 103.750
A0.500,0.500 0 0,1 129.504,103.250
L129.504 85.750
" 
fill="url(#revside-fill-#d4dff2)" opacity="1.000000" vector-effect="non-scaling-stroke" stroke="#2952a3" stroke-width="0.100mm" stroke-opacity="1.000000"  stroke-dasharray="1.5 1.5" fpd:visible="back" fpd:print_element="0" />
<path d="
M111.004 85.750
A0.500,0.500 0 0,1 111.504,85.250
L129.004 85.250
A0.500,0.500 0 0,1 129.504,85.750
L129.504 103.250
A0.500,0.500 0 0,1 129.004,103.750
L111.504 103.750
A0.500,0.500 0 0,1 111.004,103.250
L111.004 85.750
" 
fill="url(#revside-fill-#d4dff2)" opacity="1.000000" vector-effect="non-scaling-stroke" stroke="#2952a3" stroke-width="0.100mm" stroke-opacity="1.000000"  stroke-dasharray="1.5 1.5" fpd:visible="back" fpd:print_element="0" />
<path d="
M92.504 85.750
A0.500,0.500 0 0,1 93.004,85.250
L110.504 85.250
A0.500,0.500 0 0,1 111.004,85.750
L111.004 103.250
A0.500,0.500 0 0,1 110.504,103.750
L93.004 103.750
A0.500,0.500 0 0,1 92.504,103.250
L92.504 85.750
" 
fill="url(#revside-fill-#d4dff2)" opacity="1.000000" vector-effect="non-scaling-stroke" stroke="#2952a3" stroke-width="0.100mm" stroke-opacity="1.000000"  stroke-dasharray="1.5 1.5" fpd:visible="back" fpd:print_element="0" />
<path d="
M74.004 85.750
A0.500,0.500 0 0,1 74.504,85.250
L92.004 85.250
A0.500,0.500 0 0,1 92.504,85.750
L92.504 103.250
A0.500,0.500 0 0,1 92.004,103.750
L74.504 103.750
A0.500,0.500 0 0,1 74.004,103.250
L74.004 85.750
" 
fill="url(#revside-fill-#d4dff2)" opacity="1.000000" vector-effect="non-scaling-stroke" stroke="#2952a3" stroke-width="0.100mm" stroke-opacity="1.000000"  stroke-dasharray="1.5 1.5" fpd:visible="back" fpd:print_element="0" />
<path d="
M390.500 56.500
A0.500,0.500 0 0,1 391.000,56.000
L393.000 56.000
A0.500,0.500 0 0,1 393.500,56.500
L393.500 122.500
A0.500,0.500 0 0,1 393.000,123.000
L391.000 123.000
A0.500,0.500 0 0,1 390.500,122.500
L390.500 56.500
" 
fill="#d4dff2" fill-opacity="1.000000" vector-effect="non-scaling-stroke" stroke="#2952a3" stroke-width="0.100mm" stroke-opacity="1.000000" fpd:visible="front back" fpd:print_element="0" />
<path d="
M11.000 5.500
A0.500,0.500 0 0,1 11.500,5.000
L13.500 5.000
A0.500,0.500 0 0,1 14.000,5.500
L14.000 71.500
A0.500,0.500 0 0,1 13.500,72.000
L11.500 72.000
A0.500,0.500 0 0,1 11.000,71.500
L11.000 5.500
" 
fill="#d4dff2" fill-opacity="1.000000" vector-effect="non-scaling-stroke" stroke="#2952a3" stroke-width="0.100mm" stroke-opacity="1.000000" fpd:visible="front back" fpd:print_element="0" />
<path d="
M36.000 5.500
A0.500,0.500 0 0,1 36.500,5.000
L38.500 5.000
A0.500,0.500 0 0,1 39.000,5.500
L39.000 71.500
A0.500,0.500 0 0,1 38.500,72.000
L36.500 72.000
A0.500,0.500 0 0,1 36.000,71.500
L36.000 5.500
" 
fill="#d4dff2" fill-opacity="1.000000" vector-effect="non-scaling-stroke" stroke="#2952a3" stroke-width="0.100mm" stroke-opacity="1.000000" fpd:visible="front back" fpd:print_element="0" />
<path d="
M61.000 5.500
A0.500,0.500 0 0,1 61.500,5.000
L63.500 5.000
A0.500,0.500 0 0,1 64.000,5.500
L64.000 71.500
A0.500,0.500 0 0,1 63.500,72.000
L61.500 72.000
A0.500,0.500 0 0,1 61.000,71.500
L61.000 5.500
" 
fill="#d4dff2" fill-opacity="1.000000" vector-effect="non-scaling-stroke" stroke="#2952a3" stroke-width="0.100mm" stroke-opacity="1.000000" fpd:visible="front back" fpd:print_element="0" />
<path d="
M340.500 83.000
A9.500,9.500 0 1,0 359.500,83.000
A9.500,9.500 0 1,0 340.500,83.000
" 
fill="#ffffff" fill-opacity="1.000000" vector-effect="non-scaling-stroke" stroke="#000000" stroke-width="0.100mm" stroke-opacity="1.000000" fpd:visible="front back" fpd:print_element="0" />
<path d="
M346.500 141.500
A3.500,3.500 0 1,0 353.500,141.500
A3.500,3.500 0 1,0 346.500,141.500
" 
fill="#ffffff" fill-opacity="1.000000" vector-effect="non-scaling-stroke" stroke="#000000" stroke-width="0.100mm" stroke-opacity="1.000000" fpd:visible="front back" fpd:print_element="0" />
<path d="
M34.000 91.000
A3.500,3.500 0 1,0 41.000,91.000
A3.500,3.500 0 1,0 34.000,91.000
" 
fill="#ffffff" fill-opacity="1.000000" vector-effect="non-scaling-stroke" stroke="#000000" stroke-width="0.100mm" stroke-opacity="1.000000" fpd:visible="front back" fpd:print_element="0" />
<path d="
M9.000 91.000
A3.500,3.500 0 1,0 16.000,91.000
A3.500,3.500 0 1,0 9.000,91.000
" 
fill="#ffffff" fill-opacity="1.000000" vector-effect="non-scaling-stroke" stroke="#000000" stroke-width="0.100mm" stroke-opacity="1.000000" fpd:visible="front back" fpd:print_element="0" />
<path d="
M59.000 91.000
A3.500,3.500 0 1,0 66.000,91.000
A3.500,3.500 0 1,0 59.000,91.000
" 
fill="#ffffff" fill-opacity="1.000000" vector-effect="non-scaling-stroke" stroke="#000000" stroke-width="0.100mm" stroke-opacity="1.000000" fpd:visible="front back" fpd:print_element="0" />
<path d="
M342.000 170.500
A8.000,8.000 0 1,0 358.000,170.500
A8.000,8.000 0 1,0 342.000,170.500
" 
fill="#ffffff" fill-opacity="1.000000" vector-effect="non-scaling-stroke" stroke="#000000" stroke-width="0.100mm" stroke-opacity="1.000000" fpd:visible="front back" fpd:print_element="0" />
<path d="
M342.000 200.000
A8.000,8.000 0 1,0 358.000,200.000
A8.000,8.000 0 1,0 342.000,200.000
" 
fill="#ffffff" fill-opacity="1.000000" vector-effect="non-scaling-stroke" stroke="#000000" stroke-width="0.100mm" stroke-opacity="1.000000" fpd:visible="front back" fpd:print_element="0" />
<path d="
M344.000 112.500
A6.000,6.000 0 1,0 356.000,112.500
A6.000,6.000 0 1,0 344.000,112.500
" 
fill="#ffffff" fill-opacity="1.000000" vector-effect="non-scaling-stroke" stroke="#000000" stroke-width="0.100mm" stroke-opacity="1.000000" fpd:visible="front back" fpd:print_element="0" />
<path d="
M316.000 112.500
A6.000,6.000 0 1,0 328.000,112.500
A6.000,6.000 0 1,0 316.000,112.500
" 
fill="#ffffff" fill-opacity="1.000000" vector-effect="non-scaling-stroke" stroke="#000000" stroke-width="0.100mm" stroke-opacity="1.000000" fpd:visible="front back" fpd:print_element="0" />
<path d="
M280.754 94.500
A6.000,6.000 0 1,0 292.754,94.500
A6.000,6.000 0 1,0 280.754,94.500
" 
fill="#ffffff" fill-opacity="1.000000" vector-effect="non-scaling-stroke" stroke="#000000" stroke-width="0.100mm" stroke-opacity="1.000000" fpd:visible="front back" fpd:print_element="0" />
<path d="
M262.254 94.500
A6.000,6.000 0 1,0 274.254,94.500
A6.000,6.000 0 1,0 262.254,94.500
" 
fill="#ffffff" fill-opacity="1.000000" vector-effect="non-scaling-stroke" stroke="#000000" stroke-width="0.100mm" stroke-opacity="1.000000" fpd:visible="front back" fpd:print_element="0" />
<path d="
M243.754 94.500
A6.000,6.000 0 1,0 255.754,94.500
A6.000,6.000 0 1,0 243.754,94.500
" 
fill="#ffffff" fill-opacity="1.000000" vector-effect="non-scaling-stroke" stroke="#000000" stroke-width="0.100mm" stroke-opacity="1.000000" fpd:visible="front back" fpd:print_element="0" />
<path d="
M225.254 94.500
A6.000,6.000 0 1,0 237.254,94.500
A6.000,6.000 0 1,0 225.254,94.500
" 
fill="#ffffff" fill-opacity="1.000000" vector-effect="non-scaling-stroke" stroke="#000000" stroke-width="0.100mm" stroke-opacity="1.000000" fpd:visible="front back" fpd:print_element="0" />
<path d="
M206.754 94.500
A6.000,6.000 0 1,0 218.754,94.500
A6.000,6.000 0 1,0 206.754,94.500
" 
fill="#ffffff" fill-opacity="1.000000" vector-effect="non-scaling-stroke" stroke="#000000" stroke-width="0.100mm" stroke-opacity="1.000000" fpd:visible="front back" fpd:print_element="0" />
<path d="
M188.254 94.500
A6.000,6.000 0 1,0 200.254,94.500
A6.000,6.000 0 1,0 188.254,94.500
" 
fill="#ffffff" fill-opacity="1.000000" vector-effect="non-scaling-stroke" stroke="#000000" stroke-width="0.100mm" stroke-opacity="1.000000" fpd:visible="front back" fpd:print_element="0" />
<path d="
M-21.746 90.000
A6.000,6.000 0 1,0 -9.746,90.000
A6.000,6.000 0 1,0 -21.746,90.000
" 
fill="#ffffff" fill-opacity="1.000000" vector-effect="non-scaling-stroke" stroke="#000000" stroke-width="0.100mm" stroke-opacity="1.000000" fpd:visible="front back" fpd:print_element="0" />
<path d="
M-40.246 90.000
A6.000,6.000 0 1,0 -28.246,90.000
A6.000,6.000 0 1,0 -40.246,90.000
" 
fill="#ffffff" fill-opacity="1.000000" vector-effect="non-scaling-stroke" stroke="#000000" stroke-width="0.100mm" stroke-opacity="1.000000" fpd:visible="front back" fpd:print_element="0" />
<path d="
M-58.746 90.000
A6.000,6.000 0 1,0 -46.746,90.000
A6.000,6.000 0 1,0 -58.746,90.000
" 
fill="#ffffff" fill-opacity="1.000000" vector-effect="non-scaling-stroke" stroke="#000000" stroke-width="0.100mm" stroke-opacity="1.000000" fpd:visible="front back" fpd:print_element="0" />
<path d="
M-77.246 90.000
A6.000,6.000 0 1,0 -65.246,90.000
A6.000,6.000 0 1,0 -77.246,90.000
" 
fill="#ffffff" fill-opacity="1.000000" vector-effect="non-scaling-stroke" stroke="#000000" stroke-width="0.100mm" stroke-opacity="1.000000" fpd:visible="front back" fpd:print_element="0" />
<path d="
M169.754 94.500
A6.000,6.000 0 1,0 181.754,94.500
A6.000,6.000 0 1,0 169.754,94.500
" 
fill="#ffffff" fill-opacity="1.000000" vector-effect="non-scaling-stroke" stroke="#000000" stroke-width="0.100mm" stroke-opacity="1.000000" fpd:visible="front back" fpd:print_element="0" />
<path d="
M151.254 94.500
A6.000,6.000 0 1,0 163.254,94.500
A6.000,6.000 0 1,0 151.254,94.500
" 
fill="#ffffff" fill-opacity="1.000000" vector-effect="non-scaling-stroke" stroke="#000000" stroke-width="0.100mm" stroke-opacity="1.000000" fpd:visible="front back" fpd:print_element="0" />
<path d="
M272.625 13.995
A9.500,9.500 0 1,0 291.625,13.995
A9.500,9.500 0 1,0 272.625,13.995
" 
fill="#ffffff" fill-opacity="1.000000" vector-effect="non-scaling-stroke" stroke="#000000" stroke-width="0.100mm" stroke-opacity="1.000000" fpd:visible="front back" fpd:print_element="0" />
<path d="
M272.625 41.995
A9.500,9.500 0 1,0 291.625,41.995
A9.500,9.500 0 1,0 272.625,41.995
" 
fill="#ffffff" fill-opacity="1.000000" vector-effect="non-scaling-stroke" stroke="#000000" stroke-width="0.100mm" stroke-opacity="1.000000" fpd:visible="front back" fpd:print_element="0" />
<path d="
M272.625 69.995
A9.500,9.500 0 1,0 291.625,69.995
A9.500,9.500 0 1,0 272.625,69.995
" 
fill="#ffffff" fill-opacity="1.000000" vector-effect="non-scaling-stroke" stroke="#000000" stroke-width="0.100mm" stroke-opacity="1.000000" fpd:visible="front back" fpd:print_element="0" />
<path d="
M244.866 13.995
A9.500,9.500 0 1,0 263.866,13.995
A9.500,9.500 0 1,0 244.866,13.995
" 
fill="#ffffff" fill-opacity="1.000000" vector-effect="non-scaling-stroke" stroke="#000000" stroke-width="0.100mm" stroke-opacity="1.000000" fpd:visible="front back" fpd:print_element="0" />
<path d="
M244.866 41.995
A9.500,9.500 0 1,0 263.866,41.995
A9.500,9.500 0 1,0 244.866,41.995
" 
fill="#ffffff" fill-opacity="1.000000" vector-effect="non-scaling-stroke" stroke="#000000" stroke-width="0.100mm" stroke-opacity="1.000000" fpd:visible="front back" fpd:print_element="0" />
<path d="
M244.866 69.995
A9.500,9.500 0 1,0 263.866,69.995
A9.500,9.500 0 1,0 244.866,69.995
" 
fill="#ffffff" fill-opacity="1.000000" vector-effect="non-scaling-stroke" stroke="#000000" stroke-width="0.100mm" stroke-opacity="1.000000" fpd:visible="front back" fpd:print_element="0" />
<path d="
M217.125 13.995
A9.500,9.500 0 1,0 236.125,13.995
A9.500,9.500 0 1,0 217.125,13.995
" 
fill="#ffffff" fill-opacity="1.000000" vector-effect="non-scaling-stroke" stroke="#000000" stroke-width="0.100mm" stroke-opacity="1.000000" fpd:visible="front back" fpd:print_element="0" />
<path d="
M217.125 41.995
A9.500,9.500 0 1,0 236.125,41.995
A9.500,9.500 0 1,0 217.125,41.995
" 
fill="#ffffff" fill-opacity="1.000000" vector-effect="non-scaling-stroke" stroke="#000000" stroke-width="0.100mm" stroke-opacity="1.000000" fpd:visible="front back" fpd:print_element="0" />
<path d="
M217.125 69.995
A9.500,9.500 0 1,0 236.125,69.995
A9.500,9.500 0 1,0 217.125,69.995
" 
fill="#ffffff" fill-opacity="1.000000" vector-effect="non-scaling-stroke" stroke="#000000" stroke-width="0.100mm" stroke-opacity="1.000000" fpd:visible="front back" fpd:print_element="0" />
<path d="
M189.366 13.995
A9.500,9.500 0 1,0 208.366,13.995
A9.500,9.500 0 1,0 189.366,13.995
" 
fill="#ffffff" fill-opacity="1.000000" vector-effect="non-scaling-stroke" stroke="#000000" stroke-width="0.100mm" stroke-opacity="1.000000" fpd:visible="front back" fpd:print_element="0" />
<path d="
M189.366 41.995
A9.500,9.500 0 1,0 208.366,41.995
A9.500,9.500 0 1,0 189.366,41.995
" 
fill="#ffffff" fill-opacity="1.000000" vector-effect="non-scaling-stroke" stroke="#000000" stroke-width="0.100mm" stroke-opacity="1.000000" fpd:visible="front back" fpd:print_element="0" />
<path d="
M189.366 69.995
A9.500,9.500 0 1,0 208.366,69.995
A9.500,9.500 0 1,0 189.366,69.995
" 
fill="#ffffff" fill-opacity="1.000000" vector-effect="non-scaling-stroke" stroke="#000000" stroke-width="0.100mm" stroke-opacity="1.000000" fpd:visible="front back" fpd:print_element="0" />
<path d="
M161.625 13.995
A9.500,9.500 0 1,0 180.625,13.995
A9.500,9.500 0 1,0 161.625,13.995
" 
fill="#ffffff" fill-opacity="1.000000" vector-effect="non-scaling-stroke" stroke="#000000" stroke-width="0.100mm" stroke-opacity="1.000000" fpd:visible="front back" fpd:print_element="0" />
<path d="
M161.625 41.995
A9.500,9.500 0 1,0 180.625,41.995
A9.500,9.500 0 1,0 161.625,41.995
" 
fill="#ffffff" fill-opacity="1.000000" vector-effect="non-scaling-stroke" stroke="#000000" stroke-width="0.100mm" stroke-opacity="1.000000" fpd:visible="front back" fpd:print_element="0" />
<path d="
M161.625 69.995
A9.500,9.500 0 1,0 180.625,69.995
A9.500,9.500 0 1,0 161.625,69.995
" 
fill="#ffffff" fill-opacity="1.000000" vector-effect="non-scaling-stroke" stroke="#000000" stroke-width="0.100mm" stroke-opacity="1.000000" fpd:visible="front back" fpd:print_element="0" />
<path d="
M133.866 13.995
A9.500,9.500 0 1,0 152.866,13.995
A9.500,9.500 0 1,0 133.866,13.995
" 
fill="#ffffff" fill-opacity="1.000000" vector-effect="non-scaling-stroke" stroke="#000000" stroke-width="0.100mm" stroke-opacity="1.000000" fpd:visible="front back" fpd:print_element="0" />
<path d="
M133.866 41.995
A9.500,9.500 0 1,0 152.866,41.995
A9.500,9.500 0 1,0 133.866,41.995
" 
fill="#ffffff" fill-opacity="1.000000" vector-effect="non-scaling-stroke" stroke="#000000" stroke-width="0.100mm" stroke-opacity="1.000000" fpd:visible="front back" fpd:print_element="0" />
<path d="
M133.866 69.995
A9.500,9.500 0 1,0 152.866,69.995
A9.500,9.500 0 1,0 133.866,69.995
" 
fill="#ffffff" fill-opacity="1.000000" vector-effect="non-scaling-stroke" stroke="#000000" stroke-width="0.100mm" stroke-opacity="1.000000" fpd:visible="front back" fpd:print_element="0" />
<path d="
M106.125 13.995
A9.500,9.500 0 1,0 125.125,13.995
A9.500,9.500 0 1,0 106.125,13.995
" 
fill="#ffffff" fill-opacity="1.000000" vector-effect="non-scaling-stroke" stroke="#000000" stroke-width="0.100mm" stroke-opacity="1.000000" fpd:visible="front back" fpd:print_element="0" />
<path d="
M106.125 41.995
A9.500,9.500 0 1,0 125.125,41.995
A9.500,9.500 0 1,0 106.125,41.995
" 
fill="#ffffff" fill-opacity="1.000000" vector-effect="non-scaling-stroke" stroke="#000000" stroke-width="0.100mm" stroke-opacity="1.000000" fpd:visible="front back" fpd:print_element="0" />
<path d="
M106.125 69.995
A9.500,9.500 0 1,0 125.125,69.995
A9.500,9.500 0 1,0 106.125,69.995
" 
fill="#ffffff" fill-opacity="1.000000" vector-effect="non-scaling-stroke" stroke="#000000" stroke-width="0.100mm" stroke-opacity="1.000000" fpd:visible="front back" fpd:print_element="0" />
<path d="
M78.366 13.995
A9.500,9.500 0 1,0 97.366,13.995
A9.500,9.500 0 1,0 78.366,13.995
" 
fill="#ffffff" fill-opacity="1.000000" vector-effect="non-scaling-stroke" stroke="#000000" stroke-width="0.100mm" stroke-opacity="1.000000" fpd:visible="front back" fpd:print_element="0" />
<path d="
M78.366 41.995
A9.500,9.500 0 1,0 97.366,41.995
A9.500,9.500 0 1,0 78.366,41.995
" 
fill="#ffffff" fill-opacity="1.000000" vector-effect="non-scaling-stroke" stroke="#000000" stroke-width="0.100mm" stroke-opacity="1.000000" fpd:visible="front back" fpd:print_element="0" />
<path d="
M78.366 69.995
A9.500,9.500 0 1,0 97.366,69.995
A9.500,9.500 0 1,0 78.366,69.995
" 
fill="#ffffff" fill-opacity="1.000000" vector-effect="non-scaling-stroke" stroke="#000000" stroke-width="0.100mm" stroke-opacity="1.000000" fpd:visible="front back" fpd:print_element="0" />
<path d="
M272.625 118.995
A9.500,9.500 0 1,0 291.625,118.995
A9.500,9.500 0 1,0 272.625,118.995
" 
fill="#ffffff" fill-opacity="1.000000" vector-effect="non-scaling-stroke" stroke="#000000" stroke-width="0.100mm" stroke-opacity="1.000000" fpd:visible="front back" fpd:print_element="0" />
<path d="
M244.866 118.995
A9.500,9.500 0 1,0 263.866,118.995
A9.500,9.500 0 1,0 244.866,118.995
" 
fill="#ffffff" fill-opacity="1.000000" vector-effect="non-scaling-stroke" stroke="#000000" stroke-width="0.100mm" stroke-opacity="1.000000" fpd:visible="front back" fpd:print_element="0" />
<path d="
M217.125 118.995
A9.500,9.500 0 1,0 236.125,118.995
A9.500,9.500 0 1,0 217.125,118.995
" 
fill="#ffffff" fill-opacity="1.000000" vector-effect="non-scaling-stroke" stroke="#000000" stroke-width="0.100mm" stroke-opacity="1.000000" fpd:visible="front back" fpd:print_element="0" />
<path d="
M189.366 118.995
A9.500,9.500 0 1,0 208.366,118.995
A9.500,9.500 0 1,0 189.366,118.995
" 
fill="#ffffff" fill-opacity="1.000000" vector-effect="non-scaling-stroke" stroke="#000000" stroke-width="0.100mm" stroke-opacity="1.000000" fpd:visible="front back" fpd:print_element="0" />
<path d="
M274.125 181.995
A8.000,8.000 0 1,0 290.125,181.995
A8.000,8.000 0 1,0 274.125,181.995
" 
fill="#ffffff" fill-opacity="1.000000" vector-effect="non-scaling-stroke" stroke="#000000" stroke-width="0.100mm" stroke-opacity="1.000000" fpd:visible="front back" fpd:print_element="0" />
<path d="
M246.366 181.995
A8.000,8.000 0 1,0 262.366,181.995
A8.000,8.000 0 1,0 246.366,181.995
" 
fill="#ffffff" fill-opacity="1.000000" vector-effect="non-scaling-stroke" stroke="#000000" stroke-width="0.100mm" stroke-opacity="1.000000" fpd:visible="front back" fpd:print_element="0" />
<path d="
M218.625 181.995
A8.000,8.000 0 1,0 234.625,181.995
A8.000,8.000 0 1,0 218.625,181.995
" 
fill="#ffffff" fill-opacity="1.000000" vector-effect="non-scaling-stroke" stroke="#000000" stroke-width="0.100mm" stroke-opacity="1.000000" fpd:visible="front back" fpd:print_element="0" />
<path d="
M190.866 181.995
A8.000,8.000 0 1,0 206.866,181.995
A8.000,8.000 0 1,0 190.866,181.995
" 
fill="#ffffff" fill-opacity="1.000000" vector-effect="non-scaling-stroke" stroke="#000000" stroke-width="0.100mm" stroke-opacity="1.000000" fpd:visible="front back" fpd:print_element="0" />
<path d="
M274.125 150.495
A8.000,8.000 0 1,0 290.125,150.495
A8.000,8.000 0 1,0 274.125,150.495
" 
fill="#ffffff" fill-opacity="1.000000" vector-effect="non-scaling-stroke" stroke="#000000" stroke-width="0.100mm" stroke-opacity="1.000000" fpd:visible="front back" fpd:print_element="0" />
<path d="
M246.366 150.495
A8.000,8.000 0 1,0 262.366,150.495
A8.000,8.000 0 1,0 246.366,150.495
" 
fill="#ffffff" fill-opacity="1.000000" vector-effect="non-scaling-stroke" stroke="#000000" stroke-width="0.100mm" stroke-opacity="1.000000" fpd:visible="front back" fpd:print_element="0" />
<path d="
M218.625 150.495
A8.000,8.000 0 1,0 234.625,150.495
A8.000,8.000 0 1,0 218.625,150.495
" 
fill="#ffffff" fill-opacity="1.000000" vector-effect="non-scaling-stroke" stroke="#000000" stroke-width="0.100mm" stroke-opacity="1.000000" fpd:visible="front back" fpd:print_element="0" />
<path d="
M190.866 150.495
A8.000,8.000 0 1,0 206.866,150.495
A8.000,8.000 0 1,0 190.866,150.495
" 
fill="#ffffff" fill-opacity="1.000000" vector-effect="non-scaling-stroke" stroke="#000000" stroke-width="0.100mm" stroke-opacity="1.000000" fpd:visible="front back" fpd:print_element="0" />
<path d="
M116.000 175.000
A13.500,13.500 0 1,0 143.000,175.000
A13.500,13.500 0 1,0 116.000,175.000
" 
fill="#ffffff" fill-opacity="1.000000" vector-effect="non-scaling-stroke" stroke="#000000" stroke-width="0.100mm" stroke-opacity="1.000000" fpd:visible="front back" fpd:print_element="0" />
<path d="
M151.500 175.000
A14.000,14.000 0 1,0 179.500,175.000
A14.000,14.000 0 1,0 151.500,175.000
" 
fill="#ffffff" fill-opacity="1.000000" vector-effect="non-scaling-stroke" stroke="#000000" stroke-width="0.100mm" stroke-opacity="1.000000" fpd:visible="front back" fpd:print_element="0" />
<path d="
M132.754 94.500
A6.000,6.000 0 1,0 144.754,94.500
A6.000,6.000 0 1,0 132.754,94.500
" 
fill="#ffffff" fill-opacity="1.000000" vector-effect="non-scaling-stroke" stroke="#000000" stroke-width="0.100mm" stroke-opacity="1.000000" fpd:visible="front back" fpd:print_element="0" />
<path d="
M114.254 94.500
A6.000,6.000 0 1,0 126.254,94.500
A6.000,6.000 0 1,0 114.254,94.500
" 
fill="#ffffff" fill-opacity="1.000000" vector-effect="non-scaling-stroke" stroke="#000000" stroke-width="0.100mm" stroke-opacity="1.000000" fpd:visible="front back" fpd:print_element="0" />
<path d="
M95.754 94.500
A6.000,6.000 0 1,0 107.754,94.500
A6.000,6.000 0 1,0 95.754,94.500
" 
fill="#ffffff" fill-opacity="1.000000" vector-effect="non-scaling-stroke" stroke="#000000" stroke-width="0.100mm" stroke-opacity="1.000000" fpd:visible="front back" fpd:print_element="0" />
<path d="
M77.254 94.500
A6.000,6.000 0 1,0 89.254,94.500
A6.000,6.000 0 1,0 77.254,94.500
" 
fill="#ffffff" fill-opacity="1.000000" vector-effect="non-scaling-stroke" stroke="#000000" stroke-width="0.100mm" stroke-opacity="1.000000" fpd:visible="front back" fpd:print_element="0" />
<path d="
M110.000 108.000
A1.500,1.500 0 0,1 111.500,106.500
L133.500 106.500
A1.500,1.500 0 0,1 135.000,108.000
L135.000 154.000
A1.500,1.500 0 0,1 133.500,155.500
L111.500 155.500
A1.500,1.500 0 0,1 110.000,154.000
L110.000 108.000
" 
fill="#ffffff" fill-opacity="1.000000" vector-effect="non-scaling-stroke" stroke="#000000" stroke-width="0.100mm" stroke-opacity="1.000000" fpd:visible="front back" fpd:print_element="0" />
<path d="
M135.000 108.000
A1.500,1.500 0 0,1 136.500,106.500
L158.500 106.500
A1.500,1.500 0 0,1 160.000,108.000
L160.000 154.000
A1.500,1.500 0 0,1 158.500,155.500
L136.500 155.500
A1.500,1.500 0 0,1 135.000,154.000
L135.000 108.000
" 
fill="#ffffff" fill-opacity="1.000000" vector-effect="non-scaling-stroke" stroke="#000000" stroke-width="0.100mm" stroke-opacity="1.000000" fpd:visible="front back" fpd:print_element="0" />
<path d="
M160.000 108.000
A1.500,1.500 0 0,1 161.500,106.500
L183.500 106.500
A1.500,1.500 0 0,1 185.000,108.000
L185.000 154.000
A1.500,1.500 0 0,1 183.500,155.500
L161.500 155.500
A1.500,1.500 0 0,1 160.000,154.000
L160.000 108.000
" 
fill="#ffffff" fill-opacity="1.000000" vector-effect="non-scaling-stroke" stroke="#000000" stroke-width="0.100mm" stroke-opacity="1.000000" fpd:visible="front back" fpd:print_element="0" />
<path d="
M3.000 115.500
A10.000,10.000 0 0,1 13.000,105.500
L44.000 105.500
A10.000,10.000 0 0,1 54.000,115.500
L54.000 146.500
A10.000,10.000 0 0,1 44.000,156.500
L13.000 156.500
A10.000,10.000 0 0,1 3.000,146.500
L3.000 115.500
" 
fill="#ffffff" fill-opacity="1.000000" vector-effect="non-scaling-stroke" stroke="#000000" stroke-width="0.100mm" stroke-opacity="1.000000" fpd:visible="front back" fpd:print_element="0" />
<path d="
M57.000 115.500
A10.000,10.000 0 0,1 67.000,105.500
L98.000 105.500
A10.000,10.000 0 0,1 108.000,115.500
L108.000 146.500
A10.000,10.000 0 0,1 98.000,156.500
L67.000 156.500
A10.000,10.000 0 0,1 57.000,146.500
L57.000 115.500
" 
fill="#ffffff" fill-opacity="1.000000" vector-effect="non-scaling-stroke" stroke="#000000" stroke-width="0.100mm" stroke-opacity="1.000000" fpd:visible="front back" fpd:print_element="0" />
<path d="
M296.000 196.000
L296.000 0.000
L0.000 0.000
L0.000 196.000
L296.000 196.000
" 
fill="none" vector-effect="non-scaling-stroke" stroke="#000000" stroke-width="0.100mm" stroke-opacity="1.000000" fpd:visible="front back" />
</g>
  <defs>
    <pattern id="revside-fill-#d4dff2" x="0" y="0" width="2.960" height="2.960" patternUnits="userSpaceOnUse">
      <line x1="0" y1="0" x2="2.960" y2="2.960000" style="stroke-width:0.296; stroke:#d4dff2; stroke-dasharray:none;" />
      <line x1="0" y1="2.960" x2="2.960" y2="0" style="stroke-width:0.296; stroke:#d4dff2; stroke-dasharray:none;" />
    </pattern>
  </defs>
</svg>
