<?xml version="1.0" standalone="no"?>
<!DOCTYPE svg PUBLIC "-//W3C//DTD SVG 1.1//EN" 
  "http://www.w3.org/Graphics/SVG/1.1/DTD/svg11.dtd">
<svg width="296.000mm" height="196.000mm" version="1.1"
     viewBox="0 0 296.000 196.000"
     xmlns="http://www.w3.org/2000/svg"  xmlns:xlink="http://www.w3.org/1999/xlink" 
     xmlns:fpd="http://www.schaeffer-ag.de">
  <desc>Created with the Front Panel Designer by the export of the file '500-0950.fpd'.</desc>
  <defs>
    <pattern id="revside-fill" x="1" y="1" width="2.960" height="2.960" patternUnits="userSpaceOnUse">
      <line x1="0" y1="0" x2="2.960" y2="2.960" style="stroke-width:0.296; stroke:black; stroke-dasharray:none;" />
      <line x1="0" y1="2.960" x2="2.960" y2="0" style="stroke-width:0.296; stroke:black; stroke-dasharray:none;" />
    </pattern>
    <pattern id="revside-fill-silver" x="1" y="1" width="2.960" height="2.960" patternUnits="userSpaceOnUse">
      <line x1="0" y1="0" x2="2.960" y2="2.960" style="stroke-width:0.296; stroke:#e0e0e0; stroke-dasharray:none;" />
      <line x1="0" y1="2.960" x2="2.960" y2="0" style="stroke-width:0.296; stroke:#e0e0e0; stroke-dasharray:none;" />
    </pattern>
  </defs>
<g transform="scale(1,-1) translate( -0.000, -196.000)" 
   fill-rule="evenodd"
   style="stroke-linecap:round; stroke-linejoin:round; stroke-opacity:1.0; stroke-opacity:1.0;">
<path d="
M296.000 196.000
L296.000 0.000
L0.000 0.000
L0.000 196.000
L296.000 196.000
" 
fill="#c0c0c0" fill-opacity="1.000000" vector-effect="non-scaling-stroke" stroke="#000000" stroke-width="0.100mm" stroke-opacity="1.000000" fpd:visible="front back" />
<path d="
M296.000 105.000
L0.000 105.000
" 
fill="none" vector-effect="non-scaling-stroke" stroke="#6c85b8" stroke-width="0.200mm" stroke-opacity="1.000000" fpd:visible="front" fpd:print_element="0" fpd:engraving="1" />
<path d="
M381.000 51.500
A0.500,0.500 0 0,1 381.500,51.000
L402.500 51.000
A0.500,0.500 0 0,1 403.000,51.500
L403.000 127.500
A0.500,0.500 0 0,1 402.500,128.000
L381.500 128.000
A0.500,0.500 0 0,1 381.000,127.500
L381.000 51.500
" 
fill="url(#revside-fill-#d4dff2)" opacity="1.000000" vector-effect="non-scaling-stroke" stroke="#2952a3" stroke-width="0.100mm" stroke-opacity="1.000000"  stroke-dasharray="1.5 1.5" fpd:visible="back" fpd:print_element="0" />
<path d="
M336.125 69.500
A0.500,0.500 0 0,1 336.625,69.000
L363.375 69.000
A0.500,0.500 0 0,1 363.875,69.500
L363.875 96.500
A0.500,0.500 0 0,1 363.375,97.000
L336.625 97.000
A0.500,0.500 0 0,1 336.125,96.500
L336.125 69.500
" 
fill="url(#revside-fill-#d4dff2)" opacity="1.000000" vector-effect="non-scaling-stroke" stroke="#2952a3" stroke-width="0.100mm" stroke-opacity="1.000000"  stroke-dasharray="1.5 1.5" fpd:visible="back" fpd:print_element="0" />
<path d="
M110.000 0.500
A0.500,0.500 0 0,1 110.500,0.000
L134.500 0.000
A0.500,0.500 0 0,1 135.000,0.500
L135.000 76.500
A0.500,0.500 0 0,1 134.500,77.000
L110.500 77.000
A0.500,0.500 0 0,1 110.000,76.500
L110.000 0.500
" 
fill="url(#revside-fill-#d4dff2)" opacity="1.000000" vector-effect="non-scaling-stroke" stroke="#2952a3" stroke-width="0.100mm" stroke-opacity="1.000000"  stroke-dasharray="1.5 1.5" fpd:visible="back" fpd:print_element="0" />
<path d="
M337.500 129.500
A0.500,0.500 0 0,1 338.000,129.000
L362.000 129.000
A0.500,0.500 0 0,1 362.500,129.500
L362.500 153.500
A0.500,0.500 0 0,1 362.000,154.000
L338.000 154.000
A0.500,0.500 0 0,1 337.500,153.500
L337.500 129.500
" 
fill="url(#revside-fill-#d4dff2)" opacity="1.000000" vector-effect="non-scaling-stroke" stroke="#2952a3" stroke-width="0.100mm" stroke-opacity="1.000000"  stroke-dasharray="1.5 1.5" fpd:visible="back" fpd:print_element="0" />
<path d="
M335.000 35.000
A0.500,0.500 0 0,1 335.500,34.500
L364.500 34.500
A0.500,0.500 0 0,1 365.000,35.000
L365.000 64.000
A0.500,0.500 0 0,1 364.500,64.500
L335.500 64.500
A0.500,0.500 0 0,1 335.000,64.000
L335.000 35.000
" 
fill="url(#revside-fill-#d4dff2)" opacity="1.000000" vector-effect="non-scaling-stroke" stroke="#2952a3" stroke-width="0.100mm" stroke-opacity="1.000000"  stroke-dasharray="1.5 1.5" fpd:visible="back" fpd:print_element="0" />
<path d="
M-92.000 136.500
A0.500,0.500 0 0,1 -91.500,136.000
L-67.500 136.000
A0.500,0.500 0 0,1 -67.000,136.500
L-67.000 160.500
A0.500,0.500 0 0,1 -67.500,161.000
L-91.500 161.000
A0.500,0.500 0 0,1 -92.000,160.500
L-92.000 136.500
" 
fill="url(#revside-fill-#d4dff2)" opacity="1.000000" vector-effect="non-scaling-stroke" stroke="#2952a3" stroke-width="0.100mm" stroke-opacity="1.000000"  stroke-dasharray="1.5 1.5" fpd:visible="back" fpd:print_element="0" />
<path d="
M-119.500 136.500
A0.500,0.500 0 0,1 -119.000,136.000
L-95.000 136.000
A0.500,0.500 0 0,1 -94.500,136.500
L-94.500 160.500
A0.500,0.500 0 0,1 -95.000,161.000
L-119.000 161.000
A0.500,0.500 0 0,1 -119.500,160.500
L-119.500 136.500
" 
fill="url(#revside-fill-#d4dff2)" opacity="1.000000" vector-effect="non-scaling-stroke" stroke="#2952a3" stroke-width="0.100mm" stroke-opacity="1.000000"  stroke-dasharray="1.5 1.5" fpd:visible="back" fpd:print_element="0" />
<path d="
M-60.000 135.500
A0.500,0.500 0 0,1 -59.500,135.000
L-35.500 135.000
A0.500,0.500 0 0,1 -35.000,135.500
L-35.000 159.500
A0.500,0.500 0 0,1 -35.500,160.000
L-59.500 160.000
A0.500,0.500 0 0,1 -60.000,159.500
L-60.000 135.500
" 
fill="url(#revside-fill-#d4dff2)" opacity="1.000000" vector-effect="non-scaling-stroke" stroke="#2952a3" stroke-width="0.100mm" stroke-opacity="1.000000"  stroke-dasharray="1.5 1.5" fpd:visible="back" fpd:print_element="0" />
<path d="
M339.500 160.500
A0.500,0.500 0 0,1 340.000,160.000
L360.000 160.000
A0.500,0.500 0 0,1 360.500,160.500
L360.500 180.500
A0.500,0.500 0 0,1 360.000,181.000
L340.000 181.000
A0.500,0.500 0 0,1 339.500,180.500
L339.500 160.500
" 
fill="url(#revside-fill-#d4dff2)" opacity="1.000000" vector-effect="non-scaling-stroke" stroke="#2952a3" stroke-width="0.100mm" stroke-opacity="1.000000"  stroke-dasharray="1.5 1.5" fpd:visible="back" fpd:print_element="0" />
<path d="
M336.000 186.500
A0.500,0.500 0 0,1 336.500,186.000
L363.500 186.000
A0.500,0.500 0 0,1 364.000,186.500
L364.000 213.500
A0.500,0.500 0 0,1 363.500,214.000
L336.500 214.000
A0.500,0.500 0 0,1 336.000,213.500
L336.000 186.500
" 
fill="url(#revside-fill-#d4dff2)" opacity="1.000000" vector-effect="non-scaling-stroke" stroke="#2952a3" stroke-width="0.100mm" stroke-opacity="1.000000"  stroke-dasharray="1.5 1.5" fpd:visible="back" fpd:print_element="0" />
<path d="
M339.500 102.500
A0.500,0.500 0 0,1 340.000,102.000
L360.000 102.000
A0.500,0.500 0 0,1 360.500,102.500
L360.500 122.500
A0.500,0.500 0 0,1 360.000,123.000
L340.000 123.000
A0.500,0.500 0 0,1 339.500,122.500
L339.500 102.500
" 
fill="url(#revside-fill-#d4dff2)" opacity="1.000000" vector-effect="non-scaling-stroke" stroke="#2952a3" stroke-width="0.100mm" stroke-opacity="1.000000"  stroke-dasharray="1.5 1.5" fpd:visible="back" fpd:print_element="0" />
<path d="
M312.750 103.750
A0.500,0.500 0 0,1 313.250,103.250
L330.750 103.250
A0.500,0.500 0 0,1 331.250,103.750
L331.250 121.250
A0.500,0.500 0 0,1 330.750,121.750
L313.250 121.750
A0.500,0.500 0 0,1 312.750,121.250
L312.750 103.750
" 
fill="url(#revside-fill-#d4dff2)" opacity="1.000000" vector-effect="non-scaling-stroke" stroke="#2952a3" stroke-width="0.100mm" stroke-opacity="1.000000"  stroke-dasharray="1.5 1.5" fpd:visible="back" fpd:print_element="0" />
<path d="
M277.504 85.750
A0.500,0.500 0 0,1 278.004,85.250
L295.504 85.250
A0.500,0.500 0 0,1 296.004,85.750
L296.004 103.250
A0.500,0.500 0 0,1 295.504,103.750
L278.004 103.750
A0.500,0.500 0 0,1 277.504,103.250
L277.504 85.750
" 
fill="url(#revside-fill-#d4dff2)" opacity="1.000000" vector-effect="non-scaling-stroke" stroke="#2952a3" stroke-width="0.100mm" stroke-opacity="1.000000"  stroke-dasharray="1.5 1.5" fpd:visible="back" fpd:print_element="0" />
<path d="
M259.004 85.750
A0.500,0.500 0 0,1 259.504,85.250
L277.004 85.250
A0.500,0.500 0 0,1 277.504,85.750
L277.504 103.250
A0.500,0.500 0 0,1 277.004,103.750
L259.504 103.750
A0.500,0.500 0 0,1 259.004,103.250
L259.004 85.750
" 
fill="url(#revside-fill-#d4dff2)" opacity="1.000000" vector-effect="non-scaling-stroke" stroke="#2952a3" stroke-width="0.100mm" stroke-opacity="1.000000"  stroke-dasharray="1.5 1.5" fpd:visible="back" fpd:print_element="0" />
<path d="
M240.504 85.750
A0.500,0.500 0 0,1 241.004,85.250
L258.504 85.250
A0.500,0.500 0 0,1 259.004,85.750
L259.004 103.250
A0.500,0.500 0 0,1 258.504,103.750
L241.004 103.750
A0.500,0.500 0 0,1 240.504,103.250
L240.504 85.750
" 
fill="url(#revside-fill-#d4dff2)" opacity="1.000000" vector-effect="non-scaling-stroke" stroke="#2952a3" stroke-width="0.100mm" stroke-opacity="1.000000"  stroke-dasharray="1.5 1.5" fpd:visible="back" fpd:print_element="0" />
<path d="
M222.004 85.750
A0.500,0.500 0 0,1 222.504,85.250
L240.004 85.250
A0.500,0.500 0 0,1 240.504,85.750
L240.504 103.250
A0.500,0.500 0 0,1 240.004,103.750
L222.504 103.750
A0.500,0.500 0 0,1 222.004,103.250
L222.004 85.750
" 
fill="url(#revside-fill-#d4dff2)" opacity="1.000000" vector-effect="non-scaling-stroke" stroke="#2952a3" stroke-width="0.100mm" stroke-opacity="1.000000"  stroke-dasharray="1.5 1.5" fpd:visible="back" fpd:print_element="0" />
<path d="
M203.504 85.750
A0.500,0.500 0 0,1 204.004,85.250
L221.504 85.250
A0.500,0.500 0 0,1 222.004,85.750
L222.004 103.250
A0.500,0.500 0 0,1 221.504,103.750
L204.004 103.750
A0.500,0.500 0 0,1 203.504,103.250
L203.504 85.750
" 
fill="url(#revside-fill-#d4dff2)" opacity="1.000000" vector-effect="non-scaling-stroke" stroke="#2952a3" stroke-width="0.100mm" stroke-opacity="1.000000"  stroke-dasharray="1.5 1.5" fpd:visible="back" fpd:print_element="0" />
<path d="
M185.004 85.750
A0.500,0.500 0 0,1 185.504,85.250
L203.004 85.250
A0.500,0.500 0 0,1 203.504,85.750
L203.504 103.250
A0.500,0.500 0 0,1 203.004,103.750
L185.504 103.750
A0.500,0.500 0 0,1 185.004,103.250
L185.004 85.750
" 
fill="url(#revside-fill-#d4dff2)" opacity="1.000000" vector-effect="non-scaling-stroke" stroke="#2952a3" stroke-width="0.100mm" stroke-opacity="1.000000"  stroke-dasharray="1.5 1.5" fpd:visible="back" fpd:print_element="0" />
<path d="
M-24.496 69.750
A0.500,0.500 0 0,1 -23.996,69.250
L-6.496 69.250
A0.500,0.500 0 0,1 -5.996,69.750
L-5.996 87.250
A0.500,0.500 0 0,1 -6.496,87.750
L-23.996 87.750
A0.500,0.500 0 0,1 -24.496,87.250
L-24.496 69.750
" 
fill="url(#revside-fill-#d4dff2)" opacity="1.000000" vector-effect="non-scaling-stroke" stroke="#2952a3" stroke-width="0.100mm" stroke-opacity="1.000000"  stroke-dasharray="1.5 1.5" fpd:visible="back" fpd:print_element="0" />
<path d="
M-42.996 69.750
A0.500,0.500 0 0,1 -42.496,69.250
L-24.996 69.250
A0.500,0.500 0 0,1 -24.496,69.750
L-24.496 87.250
A0.500,0.500 0 0,1 -24.996,87.750
L-42.496 87.750
A0.500,0.500 0 0,1 -42.996,87.250
L-42.996 69.750
" 
fill="url(#revside-fill-#d4dff2)" opacity="1.000000" vector-effect="non-scaling-stroke" stroke="#2952a3" stroke-width="0.100mm" stroke-opacity="1.000000"  stroke-dasharray="1.5 1.5" fpd:visible="back" fpd:print_element="0" />
<path d="
M-61.496 69.750
A0.500,0.500 0 0,1 -60.996,69.250
L-43.496 69.250
A0.500,0.500 0 0,1 -42.996,69.750
L-42.996 87.250
A0.500,0.500 0 0,1 -43.496,87.750
L-60.996 87.750
A0.500,0.500 0 0,1 -61.496,87.250
L-61.496 69.750
" 
fill="url(#revside-fill-#d4dff2)" opacity="1.000000" vector-effect="non-scaling-stroke" stroke="#2952a3" stroke-width="0.100mm" stroke-opacity="1.000000"  stroke-dasharray="1.5 1.5" fpd:visible="back" fpd:print_element="0" />
<path d="
M-79.996 69.750
A0.500,0.500 0 0,1 -79.496,69.250
L-61.996 69.250
A0.500,0.500 0 0,1 -61.496,69.750
L-61.496 87.250
A0.500,0.500 0 0,1 -61.996,87.750
L-79.496 87.750
A0.500,0.500 0 0,1 -79.996,87.250
L-79.996 69.750
" 
fill="url(#revside-fill-#d4dff2)" opacity="1.000000" vector-effect="non-scaling-stroke" stroke="#2952a3" stroke-width="0.100mm" stroke-opacity="1.000000"  stroke-dasharray="1.5 1.5" fpd:visible="back" fpd:print_element="0" />
<path d="
M92.504 85.750
A0.500,0.500 0 0,1 93.004,85.250
L110.504 85.250
A0.500,0.500 0 0,1 111.004,85.750
L111.004 103.250
A0.500,0.500 0 0,1 110.504,103.750
L93.004 103.750
A0.500,0.500 0 0,1 92.504,103.250
L92.504 85.750
" 
fill="url(#revside-fill-#d4dff2)" opacity="1.000000" vector-effect="non-scaling-stroke" stroke="#2952a3" stroke-width="0.100mm" stroke-opacity="1.000000"  stroke-dasharray="1.5 1.5" fpd:visible="back" fpd:print_element="0" />
<path d="
M74.004 85.750
A0.500,0.500 0 0,1 74.504,85.250
L92.004 85.250
A0.500,0.500 0 0,1 92.504,85.750
L92.504 103.250
A0.500,0.500 0 0,1 92.004,103.750
L74.504 103.750
A0.500,0.500 0 0,1 74.004,103.250
L74.004 85.750
" 
fill="url(#revside-fill-#d4dff2)" opacity="1.000000" vector-effect="non-scaling-stroke" stroke="#2952a3" stroke-width="0.100mm" stroke-opacity="1.000000"  stroke-dasharray="1.5 1.5" fpd:visible="back" fpd:print_element="0" />
<path d="
M268.250 0.495
A0.500,0.500 0 0,1 268.750,-0.005
L295.500 -0.005
A0.500,0.500 0 0,1 296.000,0.495
L296.000 27.495
A0.500,0.500 0 0,1 295.500,27.995
L268.750 27.995
A0.500,0.500 0 0,1 268.250,27.495
L268.250 0.495
" 
fill="url(#revside-fill-#d4dff2)" opacity="1.000000" vector-effect="non-scaling-stroke" stroke="#2952a3" stroke-width="0.100mm" stroke-opacity="1.000000"  stroke-dasharray="1.5 1.5" fpd:visible="back" fpd:print_element="0" />
<path d="
M268.250 28.495
A0.500,0.500 0 0,1 268.750,27.995
L295.500 27.995
A0.500,0.500 0 0,1 296.000,28.495
L296.000 55.495
A0.500,0.500 0 0,1 295.500,55.995
L268.750 55.995
A0.500,0.500 0 0,1 268.250,55.495
L268.250 28.495
" 
fill="url(#revside-fill-#d4dff2)" opacity="1.000000" vector-effect="non-scaling-stroke" stroke="#2952a3" stroke-width="0.100mm" stroke-opacity="1.000000"  stroke-dasharray="1.5 1.5" fpd:visible="back" fpd:print_element="0" />
<path d="
M268.250 56.495
A0.500,0.500 0 0,1 268.750,55.995
L295.500 55.995
A0.500,0.500 0 0,1 296.000,56.495
L296.000 83.495
A0.500,0.500 0 0,1 295.500,83.995
L268.750 83.995
A0.500,0.500 0 0,1 268.250,83.495
L268.250 56.495
" 
fill="url(#revside-fill-#d4dff2)" opacity="1.000000" vector-effect="non-scaling-stroke" stroke="#2952a3" stroke-width="0.100mm" stroke-opacity="1.000000"  stroke-dasharray="1.5 1.5" fpd:visible="back" fpd:print_element="0" />
<path d="
M240.491 0.495
A0.500,0.500 0 0,1 240.991,-0.005
L267.741 -0.005
A0.500,0.500 0 0,1 268.241,0.495
L268.241 27.495
A0.500,0.500 0 0,1 267.741,27.995
L240.991 27.995
A0.500,0.500 0 0,1 240.491,27.495
L240.491 0.495
" 
fill="url(#revside-fill-#d4dff2)" opacity="1.000000" vector-effect="non-scaling-stroke" stroke="#2952a3" stroke-width="0.100mm" stroke-opacity="1.000000"  stroke-dasharray="1.5 1.5" fpd:visible="back" fpd:print_element="0" />
<path d="
M240.491 28.495
A0.500,0.500 0 0,1 240.991,27.995
L267.741 27.995
A0.500,0.500 0 0,1 268.241,28.495
L268.241 55.495
A0.500,0.500 0 0,1 267.741,55.995
L240.991 55.995
A0.500,0.500 0 0,1 240.491,55.495
L240.491 28.495
" 
fill="url(#revside-fill-#d4dff2)" opacity="1.000000" vector-effect="non-scaling-stroke" stroke="#2952a3" stroke-width="0.100mm" stroke-opacity="1.000000"  stroke-dasharray="1.5 1.5" fpd:visible="back" fpd:print_element="0" />
<path d="
M240.491 56.495
A0.500,0.500 0 0,1 240.991,55.995
L267.741 55.995
A0.500,0.500 0 0,1 268.241,56.495
L268.241 83.495
A0.500,0.500 0 0,1 267.741,83.995
L240.991 83.995
A0.500,0.500 0 0,1 240.491,83.495
L240.491 56.495
" 
fill="url(#revside-fill-#d4dff2)" opacity="1.000000" vector-effect="non-scaling-stroke" stroke="#2952a3" stroke-width="0.100mm" stroke-opacity="1.000000"  stroke-dasharray="1.5 1.5" fpd:visible="back" fpd:print_element="0" />
<path d="
M212.750 0.495
A0.500,0.500 0 0,1 213.250,-0.005
L240.000 -0.005
A0.500,0.500 0 0,1 240.500,0.495
L240.500 27.495
A0.500,0.500 0 0,1 240.000,27.995
L213.250 27.995
A0.500,0.500 0 0,1 212.750,27.495
L212.750 0.495
" 
fill="url(#revside-fill-#d4dff2)" opacity="1.000000" vector-effect="non-scaling-stroke" stroke="#2952a3" stroke-width="0.100mm" stroke-opacity="1.000000"  stroke-dasharray="1.5 1.5" fpd:visible="back" fpd:print_element="0" />
<path d="
M212.750 28.495
A0.500,0.500 0 0,1 213.250,27.995
L240.000 27.995
A0.500,0.500 0 0,1 240.500,28.495
L240.500 55.495
A0.500,0.500 0 0,1 240.000,55.995
L213.250 55.995
A0.500,0.500 0 0,1 212.750,55.495
L212.750 28.495
" 
fill="url(#revside-fill-#d4dff2)" opacity="1.000000" vector-effect="non-scaling-stroke" stroke="#2952a3" stroke-width="0.100mm" stroke-opacity="1.000000"  stroke-dasharray="1.5 1.5" fpd:visible="back" fpd:print_element="0" />
<path d="
M212.750 56.495
A0.500,0.500 0 0,1 213.250,55.995
L240.000 55.995
A0.500,0.500 0 0,1 240.500,56.495
L240.500 83.495
A0.500,0.500 0 0,1 240.000,83.995
L213.250 83.995
A0.500,0.500 0 0,1 212.750,83.495
L212.750 56.495
" 
fill="url(#revside-fill-#d4dff2)" opacity="1.000000" vector-effect="non-scaling-stroke" stroke="#2952a3" stroke-width="0.100mm" stroke-opacity="1.000000"  stroke-dasharray="1.5 1.5" fpd:visible="back" fpd:print_element="0" />
<path d="
M184.991 0.495
A0.500,0.500 0 0,1 185.491,-0.005
L212.241 -0.005
A0.500,0.500 0 0,1 212.741,0.495
L212.741 27.495
A0.500,0.500 0 0,1 212.241,27.995
L185.491 27.995
A0.500,0.500 0 0,1 184.991,27.495
L184.991 0.495
" 
fill="url(#revside-fill-#d4dff2)" opacity="1.000000" vector-effect="non-scaling-stroke" stroke="#2952a3" stroke-width="0.100mm" stroke-opacity="1.000000"  stroke-dasharray="1.5 1.5" fpd:visible="back" fpd:print_element="0" />
<path d="
M184.991 28.495
A0.500,0.500 0 0,1 185.491,27.995
L212.241 27.995
A0.500,0.500 0 0,1 212.741,28.495
L212.741 55.495
A0.500,0.500 0 0,1 212.241,55.995
L185.491 55.995
A0.500,0.500 0 0,1 184.991,55.495
L184.991 28.495
" 
fill="url(#revside-fill-#d4dff2)" opacity="1.000000" vector-effect="non-scaling-stroke" stroke="#2952a3" stroke-width="0.100mm" stroke-opacity="1.000000"  stroke-dasharray="1.5 1.5" fpd:visible="back" fpd:print_element="0" />
<path d="
M184.991 56.495
A0.500,0.500 0 0,1 185.491,55.995
L212.241 55.995
A0.500,0.500 0 0,1 212.741,56.495
L212.741 83.495
A0.500,0.500 0 0,1 212.241,83.995
L185.491 83.995
A0.500,0.500 0 0,1 184.991,83.495
L184.991 56.495
" 
fill="url(#revside-fill-#d4dff2)" opacity="1.000000" vector-effect="non-scaling-stroke" stroke="#2952a3" stroke-width="0.100mm" stroke-opacity="1.000000"  stroke-dasharray="1.5 1.5" fpd:visible="back" fpd:print_element="0" />
<path d="
M83.250 0.495
A0.500,0.500 0 0,1 83.750,-0.005
L110.500 -0.005
A0.500,0.500 0 0,1 111.000,0.495
L111.000 27.495
A0.500,0.500 0 0,1 110.500,27.995
L83.750 27.995
A0.500,0.500 0 0,1 83.250,27.495
L83.250 0.495
" 
fill="url(#revside-fill-#d4dff2)" opacity="1.000000" vector-effect="non-scaling-stroke" stroke="#2952a3" stroke-width="0.100mm" stroke-opacity="1.000000"  stroke-dasharray="1.5 1.5" fpd:visible="back" fpd:print_element="0" />
<path d="
M83.250 28.495
A0.500,0.500 0 0,1 83.750,27.995
L110.500 27.995
A0.500,0.500 0 0,1 111.000,28.495
L111.000 55.495
A0.500,0.500 0 0,1 110.500,55.995
L83.750 55.995
A0.500,0.500 0 0,1 83.250,55.495
L83.250 28.495
" 
fill="url(#revside-fill-#d4dff2)" opacity="1.000000" vector-effect="non-scaling-stroke" stroke="#2952a3" stroke-width="0.100mm" stroke-opacity="1.000000"  stroke-dasharray="1.5 1.5" fpd:visible="back" fpd:print_element="0" />
<path d="
M83.250 56.495
A0.500,0.500 0 0,1 83.750,55.995
L110.500 55.995
A0.500,0.500 0 0,1 111.000,56.495
L111.000 83.495
A0.500,0.500 0 0,1 110.500,83.995
L83.750 83.995
A0.500,0.500 0 0,1 83.250,83.495
L83.250 56.495
" 
fill="url(#revside-fill-#d4dff2)" opacity="1.000000" vector-effect="non-scaling-stroke" stroke="#2952a3" stroke-width="0.100mm" stroke-opacity="1.000000"  stroke-dasharray="1.5 1.5" fpd:visible="back" fpd:print_element="0" />
<path d="
M55.491 0.495
A0.500,0.500 0 0,1 55.991,-0.005
L82.741 -0.005
A0.500,0.500 0 0,1 83.241,0.495
L83.241 27.495
A0.500,0.500 0 0,1 82.741,27.995
L55.991 27.995
A0.500,0.500 0 0,1 55.491,27.495
L55.491 0.495
" 
fill="url(#revside-fill-#d4dff2)" opacity="1.000000" vector-effect="non-scaling-stroke" stroke="#2952a3" stroke-width="0.100mm" stroke-opacity="1.000000"  stroke-dasharray="1.5 1.5" fpd:visible="back" fpd:print_element="0" />
<path d="
M55.491 28.495
A0.500,0.500 0 0,1 55.991,27.995
L82.741 27.995
A0.500,0.500 0 0,1 83.241,28.495
L83.241 55.495
A0.500,0.500 0 0,1 82.741,55.995
L55.991 55.995
A0.500,0.500 0 0,1 55.491,55.495
L55.491 28.495
" 
fill="url(#revside-fill-#d4dff2)" opacity="1.000000" vector-effect="non-scaling-stroke" stroke="#2952a3" stroke-width="0.100mm" stroke-opacity="1.000000"  stroke-dasharray="1.5 1.5" fpd:visible="back" fpd:print_element="0" />
<path d="
M55.491 56.495
A0.500,0.500 0 0,1 55.991,55.995
L82.741 55.995
A0.500,0.500 0 0,1 83.241,56.495
L83.241 83.495
A0.500,0.500 0 0,1 82.741,83.995
L55.991 83.995
A0.500,0.500 0 0,1 55.491,83.495
L55.491 56.495
" 
fill="url(#revside-fill-#d4dff2)" opacity="1.000000" vector-effect="non-scaling-stroke" stroke="#2952a3" stroke-width="0.100mm" stroke-opacity="1.000000"  stroke-dasharray="1.5 1.5" fpd:visible="back" fpd:print_element="0" />
<path d="
M27.750 0.495
A0.500,0.500 0 0,1 28.250,-0.005
L55.000 -0.005
A0.500,0.500 0 0,1 55.500,0.495
L55.500 27.495
A0.500,0.500 0 0,1 55.000,27.995
L28.250 27.995
A0.500,0.500 0 0,1 27.750,27.495
L27.750 0.495
" 
fill="url(#revside-fill-#d4dff2)" opacity="1.000000" vector-effect="non-scaling-stroke" stroke="#2952a3" stroke-width="0.100mm" stroke-opacity="1.000000"  stroke-dasharray="1.5 1.5" fpd:visible="back" fpd:print_element="0" />
<path d="
M27.750 28.495
A0.500,0.500 0 0,1 28.250,27.995
L55.000 27.995
A0.500,0.500 0 0,1 55.500,28.495
L55.500 55.495
A0.500,0.500 0 0,1 55.000,55.995
L28.250 55.995
A0.500,0.500 0 0,1 27.750,55.495
L27.750 28.495
" 
fill="url(#revside-fill-#d4dff2)" opacity="1.000000" vector-effect="non-scaling-stroke" stroke="#2952a3" stroke-width="0.100mm" stroke-opacity="1.000000"  stroke-dasharray="1.5 1.5" fpd:visible="back" fpd:print_element="0" />
<path d="
M27.750 56.495
A0.500,0.500 0 0,1 28.250,55.995
L55.000 55.995
A0.500,0.500 0 0,1 55.500,56.495
L55.500 83.495
A0.500,0.500 0 0,1 55.000,83.995
L28.250 83.995
A0.500,0.500 0 0,1 27.750,83.495
L27.750 56.495
" 
fill="url(#revside-fill-#d4dff2)" opacity="1.000000" vector-effect="non-scaling-stroke" stroke="#2952a3" stroke-width="0.100mm" stroke-opacity="1.000000"  stroke-dasharray="1.5 1.5" fpd:visible="back" fpd:print_element="0" />
<path d="
M-0.009 0.495
A0.500,0.500 0 0,1 0.491,-0.005
L27.241 -0.005
A0.500,0.500 0 0,1 27.741,0.495
L27.741 27.495
A0.500,0.500 0 0,1 27.241,27.995
L0.491 27.995
A0.500,0.500 0 0,1 -0.009,27.495
L-0.009 0.495
" 
fill="url(#revside-fill-#d4dff2)" opacity="1.000000" vector-effect="non-scaling-stroke" stroke="#2952a3" stroke-width="0.100mm" stroke-opacity="1.000000"  stroke-dasharray="1.5 1.5" fpd:visible="back" fpd:print_element="0" />
<path d="
M-0.009 28.495
A0.500,0.500 0 0,1 0.491,27.995
L27.241 27.995
A0.500,0.500 0 0,1 27.741,28.495
L27.741 55.495
A0.500,0.500 0 0,1 27.241,55.995
L0.491 55.995
A0.500,0.500 0 0,1 -0.009,55.495
L-0.009 28.495
" 
fill="url(#revside-fill-#d4dff2)" opacity="1.000000" vector-effect="non-scaling-stroke" stroke="#2952a3" stroke-width="0.100mm" stroke-opacity="1.000000"  stroke-dasharray="1.5 1.5" fpd:visible="back" fpd:print_element="0" />
<path d="
M-0.009 56.495
A0.500,0.500 0 0,1 0.491,55.995
L27.241 55.995
A0.500,0.500 0 0,1 27.741,56.495
L27.741 83.495
A0.500,0.500 0 0,1 27.241,83.995
L0.491 83.995
A0.500,0.500 0 0,1 -0.009,83.495
L-0.009 56.495
" 
fill="url(#revside-fill-#d4dff2)" opacity="1.000000" vector-effect="non-scaling-stroke" stroke="#2952a3" stroke-width="0.100mm" stroke-opacity="1.000000"  stroke-dasharray="1.5 1.5" fpd:visible="back" fpd:print_element="0" />
<path d="
M27.750 105.995
A0.500,0.500 0 0,1 28.250,105.495
L55.000 105.495
A0.500,0.500 0 0,1 55.500,105.995
L55.500 132.995
A0.500,0.500 0 0,1 55.000,133.495
L28.250 133.495
A0.500,0.500 0 0,1 27.750,132.995
L27.750 105.995
" 
fill="url(#revside-fill-#d4dff2)" opacity="1.000000" vector-effect="non-scaling-stroke" stroke="#2952a3" stroke-width="0.100mm" stroke-opacity="1.000000"  stroke-dasharray="1.5 1.5" fpd:visible="back" fpd:print_element="0" />
<path d="
M-0.009 105.995
A0.500,0.500 0 0,1 0.491,105.495
L27.241 105.495
A0.500,0.500 0 0,1 27.741,105.995
L27.741 132.995
A0.500,0.500 0 0,1 27.241,133.495
L0.491 133.495
A0.500,0.500 0 0,1 -0.009,132.995
L-0.009 105.995
" 
fill="url(#revside-fill-#d4dff2)" opacity="1.000000" vector-effect="non-scaling-stroke" stroke="#2952a3" stroke-width="0.100mm" stroke-opacity="1.000000"  stroke-dasharray="1.5 1.5" fpd:visible="back" fpd:print_element="0" />
<path d="
M135.500 0.500
A0.500,0.500 0 0,1 136.000,0.000
L160.000 0.000
A0.500,0.500 0 0,1 160.500,0.500
L160.500 76.500
A0.500,0.500 0 0,1 160.000,77.000
L136.000 77.000
A0.500,0.500 0 0,1 135.500,76.500
L135.500 0.500
" 
fill="url(#revside-fill-#d4dff2)" opacity="1.000000" vector-effect="non-scaling-stroke" stroke="#2952a3" stroke-width="0.100mm" stroke-opacity="1.000000"  stroke-dasharray="1.5 1.5" fpd:visible="back" fpd:print_element="0" />
<path d="
M161.000 0.500
A0.500,0.500 0 0,1 161.500,0.000
L185.500 0.000
A0.500,0.500 0 0,1 186.000,0.500
L186.000 76.500
A0.500,0.500 0 0,1 185.500,77.000
L161.500 77.000
A0.500,0.500 0 0,1 161.000,76.500
L161.000 0.500
" 
fill="url(#revside-fill-#d4dff2)" opacity="1.000000" vector-effect="non-scaling-stroke" stroke="#2952a3" stroke-width="0.100mm" stroke-opacity="1.000000"  stroke-dasharray="1.5 1.5" fpd:visible="back" fpd:print_element="0" />
<path d="
M27.750 137.495
A0.500,0.500 0 0,1 28.250,136.995
L55.000 136.995
A0.500,0.500 0 0,1 55.500,137.495
L55.500 164.495
A0.500,0.500 0 0,1 55.000,164.995
L28.250 164.995
A0.500,0.500 0 0,1 27.750,164.495
L27.750 137.495
" 
fill="url(#revside-fill-#d4dff2)" opacity="1.000000" vector-effect="non-scaling-stroke" stroke="#2952a3" stroke-width="0.100mm" stroke-opacity="1.000000"  stroke-dasharray="1.5 1.5" fpd:visible="back" fpd:print_element="0" />
<path d="
M-0.009 137.495
A0.500,0.500 0 0,1 0.491,136.995
L27.241 136.995
A0.500,0.500 0 0,1 27.741,137.495
L27.741 164.495
A0.500,0.500 0 0,1 27.241,164.995
L0.491 164.995
A0.500,0.500 0 0,1 -0.009,164.495
L-0.009 137.495
" 
fill="url(#revside-fill-#d4dff2)" opacity="1.000000" vector-effect="non-scaling-stroke" stroke="#2952a3" stroke-width="0.100mm" stroke-opacity="1.000000"  stroke-dasharray="1.5 1.5" fpd:visible="back" fpd:print_element="0" />
<path d="
M27.750 168.495
A0.500,0.500 0 0,1 28.250,167.995
L55.000 167.995
A0.500,0.500 0 0,1 55.500,168.495
L55.500 195.495
A0.500,0.500 0 0,1 55.000,195.995
L28.250 195.995
A0.500,0.500 0 0,1 27.750,195.495
L27.750 168.495
" 
fill="url(#revside-fill-#d4dff2)" opacity="1.000000" vector-effect="non-scaling-stroke" stroke="#2952a3" stroke-width="0.100mm" stroke-opacity="1.000000"  stroke-dasharray="1.5 1.5" fpd:visible="back" fpd:print_element="0" />
<path d="
M-0.009 168.495
A0.500,0.500 0 0,1 0.491,167.995
L27.241 167.995
A0.500,0.500 0 0,1 27.741,168.495
L27.741 195.495
A0.500,0.500 0 0,1 27.241,195.995
L0.491 195.995
A0.500,0.500 0 0,1 -0.009,195.495
L-0.009 168.495
" 
fill="url(#revside-fill-#d4dff2)" opacity="1.000000" vector-effect="non-scaling-stroke" stroke="#2952a3" stroke-width="0.100mm" stroke-opacity="1.000000"  stroke-dasharray="1.5 1.5" fpd:visible="back" fpd:print_element="0" />
<path d="
M-117.500 177.500
A0.500,0.500 0 0,1 -117.000,177.000
L-88.000 177.000
A0.500,0.500 0 0,1 -87.500,177.500
L-87.500 206.500
A0.500,0.500 0 0,1 -88.000,207.000
L-117.000 207.000
A0.500,0.500 0 0,1 -117.500,206.500
L-117.500 177.500
" 
fill="url(#revside-fill-#d4dff2)" opacity="1.000000" vector-effect="non-scaling-stroke" stroke="#2952a3" stroke-width="0.100mm" stroke-opacity="1.000000"  stroke-dasharray="1.5 1.5" fpd:visible="back" fpd:print_element="0" />
<path d="
M-82.500 177.500
A0.500,0.500 0 0,1 -82.000,177.000
L-53.000 177.000
A0.500,0.500 0 0,1 -52.500,177.500
L-52.500 206.500
A0.500,0.500 0 0,1 -53.000,207.000
L-82.000 207.000
A0.500,0.500 0 0,1 -82.500,206.500
L-82.500 177.500
" 
fill="url(#revside-fill-#d4dff2)" opacity="1.000000" vector-effect="non-scaling-stroke" stroke="#2952a3" stroke-width="0.100mm" stroke-opacity="1.000000"  stroke-dasharray="1.5 1.5" fpd:visible="back" fpd:print_element="0" />
<path d="
M55.504 85.750
A0.500,0.500 0 0,1 56.004,85.250
L73.504 85.250
A0.500,0.500 0 0,1 74.004,85.750
L74.004 103.250
A0.500,0.500 0 0,1 73.504,103.750
L56.004 103.750
A0.500,0.500 0 0,1 55.504,103.250
L55.504 85.750
" 
fill="url(#revside-fill-#d4dff2)" opacity="1.000000" vector-effect="non-scaling-stroke" stroke="#2952a3" stroke-width="0.100mm" stroke-opacity="1.000000"  stroke-dasharray="1.5 1.5" fpd:visible="back" fpd:print_element="0" />
<path d="
M37.004 85.750
A0.500,0.500 0 0,1 37.504,85.250
L55.004 85.250
A0.500,0.500 0 0,1 55.504,85.750
L55.504 103.250
A0.500,0.500 0 0,1 55.004,103.750
L37.504 103.750
A0.500,0.500 0 0,1 37.004,103.250
L37.004 85.750
" 
fill="url(#revside-fill-#d4dff2)" opacity="1.000000" vector-effect="non-scaling-stroke" stroke="#2952a3" stroke-width="0.100mm" stroke-opacity="1.000000"  stroke-dasharray="1.5 1.5" fpd:visible="back" fpd:print_element="0" />
<path d="
M18.504 85.750
A0.500,0.500 0 0,1 19.004,85.250
L36.504 85.250
A0.500,0.500 0 0,1 37.004,85.750
L37.004 103.250
A0.500,0.500 0 0,1 36.504,103.750
L19.004 103.750
A0.500,0.500 0 0,1 18.504,103.250
L18.504 85.750
" 
fill="url(#revside-fill-#d4dff2)" opacity="1.000000" vector-effect="non-scaling-stroke" stroke="#2952a3" stroke-width="0.100mm" stroke-opacity="1.000000"  stroke-dasharray="1.5 1.5" fpd:visible="back" fpd:print_element="0" />
<path d="
M0.004 85.750
A0.500,0.500 0 0,1 0.504,85.250
L18.004 85.250
A0.500,0.500 0 0,1 18.504,85.750
L18.504 103.250
A0.500,0.500 0 0,1 18.004,103.750
L0.504 103.750
A0.500,0.500 0 0,1 0.004,103.250
L0.004 85.750
" 
fill="url(#revside-fill-#d4dff2)" opacity="1.000000" vector-effect="non-scaling-stroke" stroke="#2952a3" stroke-width="0.100mm" stroke-opacity="1.000000"  stroke-dasharray="1.5 1.5" fpd:visible="back" fpd:print_element="0" />
<path d="
M-32.500 135.500
A0.500,0.500 0 0,1 -32.000,135.000
L-8.000 135.000
A0.500,0.500 0 0,1 -7.500,135.500
L-7.500 159.500
A0.500,0.500 0 0,1 -8.000,160.000
L-32.000 160.000
A0.500,0.500 0 0,1 -32.500,159.500
L-32.500 135.500
" 
fill="url(#revside-fill-#d4dff2)" opacity="1.000000" vector-effect="non-scaling-stroke" stroke="#2952a3" stroke-width="0.100mm" stroke-opacity="1.000000"  stroke-dasharray="1.5 1.5" fpd:visible="back" fpd:print_element="0" />
<path d="
M110.000 79.000
A0.500,0.500 0 0,1 110.500,78.500
L134.500 78.500
A0.500,0.500 0 0,1 135.000,79.000
L135.000 103.000
A0.500,0.500 0 0,1 134.500,103.500
L110.500 103.500
A0.500,0.500 0 0,1 110.000,103.000
L110.000 79.000
" 
fill="url(#revside-fill-#d4dff2)" opacity="1.000000" vector-effect="non-scaling-stroke" stroke="#2952a3" stroke-width="0.100mm" stroke-opacity="1.000000"  stroke-dasharray="1.5 1.5" fpd:visible="back" fpd:print_element="0" />
<path d="
M135.500 79.000
A0.500,0.500 0 0,1 136.000,78.500
L160.000 78.500
A0.500,0.500 0 0,1 160.500,79.000
L160.500 103.000
A0.500,0.500 0 0,1 160.000,103.500
L136.000 103.500
A0.500,0.500 0 0,1 135.500,103.000
L135.500 79.000
" 
fill="url(#revside-fill-#d4dff2)" opacity="1.000000" vector-effect="non-scaling-stroke" stroke="#2952a3" stroke-width="0.100mm" stroke-opacity="1.000000"  stroke-dasharray="1.5 1.5" fpd:visible="back" fpd:print_element="0" />
<path d="
M161.000 79.000
A0.500,0.500 0 0,1 161.500,78.500
L185.500 78.500
A0.500,0.500 0 0,1 186.000,79.000
L186.000 103.000
A0.500,0.500 0 0,1 185.500,103.500
L161.500 103.500
A0.500,0.500 0 0,1 161.000,103.000
L161.000 79.000
" 
fill="url(#revside-fill-#d4dff2)" opacity="1.000000" vector-effect="non-scaling-stroke" stroke="#2952a3" stroke-width="0.100mm" stroke-opacity="1.000000"  stroke-dasharray="1.5 1.5" fpd:visible="back" fpd:print_element="0" />
<path d="
M268.250 137.495
A0.500,0.500 0 0,1 268.750,136.995
L295.500 136.995
A0.500,0.500 0 0,1 296.000,137.495
L296.000 164.495
A0.500,0.500 0 0,1 295.500,164.995
L268.750 164.995
A0.500,0.500 0 0,1 268.250,164.495
L268.250 137.495
" 
fill="url(#revside-fill-#d4dff2)" opacity="1.000000" vector-effect="non-scaling-stroke" stroke="#2952a3" stroke-width="0.100mm" stroke-opacity="1.000000"  stroke-dasharray="1.5 1.5" fpd:visible="back" fpd:print_element="0" />
<path d="
M240.491 137.495
A0.500,0.500 0 0,1 240.991,136.995
L267.741 136.995
A0.500,0.500 0 0,1 268.241,137.495
L268.241 164.495
A0.500,0.500 0 0,1 267.741,164.995
L240.991 164.995
A0.500,0.500 0 0,1 240.491,164.495
L240.491 137.495
" 
fill="url(#revside-fill-#d4dff2)" opacity="1.000000" vector-effect="non-scaling-stroke" stroke="#2952a3" stroke-width="0.100mm" stroke-opacity="1.000000"  stroke-dasharray="1.5 1.5" fpd:visible="back" fpd:print_element="0" />
<path d="
M268.250 168.495
A0.500,0.500 0 0,1 268.750,167.995
L295.500 167.995
A0.500,0.500 0 0,1 296.000,168.495
L296.000 195.495
A0.500,0.500 0 0,1 295.500,195.995
L268.750 195.995
A0.500,0.500 0 0,1 268.250,195.495
L268.250 168.495
" 
fill="url(#revside-fill-#d4dff2)" opacity="1.000000" vector-effect="non-scaling-stroke" stroke="#2952a3" stroke-width="0.100mm" stroke-opacity="1.000000"  stroke-dasharray="1.5 1.5" fpd:visible="back" fpd:print_element="0" />
<path d="
M240.491 168.495
A0.500,0.500 0 0,1 240.991,167.995
L267.741 167.995
A0.500,0.500 0 0,1 268.241,168.495
L268.241 195.495
A0.500,0.500 0 0,1 267.741,195.995
L240.991 195.995
A0.500,0.500 0 0,1 240.491,195.495
L240.491 168.495
" 
fill="url(#revside-fill-#d4dff2)" opacity="1.000000" vector-effect="non-scaling-stroke" stroke="#2952a3" stroke-width="0.100mm" stroke-opacity="1.000000"  stroke-dasharray="1.5 1.5" fpd:visible="back" fpd:print_element="0" />
<path d="
M268.250 105.995
A0.500,0.500 0 0,1 268.750,105.495
L295.500 105.495
A0.500,0.500 0 0,1 296.000,105.995
L296.000 132.995
A0.500,0.500 0 0,1 295.500,133.495
L268.750 133.495
A0.500,0.500 0 0,1 268.250,132.995
L268.250 105.995
" 
fill="url(#revside-fill-#d4dff2)" opacity="1.000000" vector-effect="non-scaling-stroke" stroke="#2952a3" stroke-width="0.100mm" stroke-opacity="1.000000"  stroke-dasharray="1.5 1.5" fpd:visible="back" fpd:print_element="0" />
<path d="
M240.491 105.995
A0.500,0.500 0 0,1 240.991,105.495
L267.741 105.495
A0.500,0.500 0 0,1 268.241,105.995
L268.241 132.995
A0.500,0.500 0 0,1 267.741,133.495
L240.991 133.495
A0.500,0.500 0 0,1 240.491,132.995
L240.491 105.995
" 
fill="url(#revside-fill-#d4dff2)" opacity="1.000000" vector-effect="non-scaling-stroke" stroke="#2952a3" stroke-width="0.100mm" stroke-opacity="1.000000"  stroke-dasharray="1.5 1.5" fpd:visible="back" fpd:print_element="0" />
<path d="
M390.500 56.500
A0.500,0.500 0 0,1 391.000,56.000
L393.000 56.000
A0.500,0.500 0 0,1 393.500,56.500
L393.500 122.500
A0.500,0.500 0 0,1 393.000,123.000
L391.000 123.000
A0.500,0.500 0 0,1 390.500,122.500
L390.500 56.500
" 
fill="#d4dff2" fill-opacity="1.000000" vector-effect="non-scaling-stroke" stroke="#2952a3" stroke-width="0.100mm" stroke-opacity="1.000000" fpd:visible="front back" fpd:print_element="0" />
<path d="
M121.000 5.500
A0.500,0.500 0 0,1 121.500,5.000
L123.500 5.000
A0.500,0.500 0 0,1 124.000,5.500
L124.000 71.500
A0.500,0.500 0 0,1 123.500,72.000
L121.500 72.000
A0.500,0.500 0 0,1 121.000,71.500
L121.000 5.500
" 
fill="#d4dff2" fill-opacity="1.000000" vector-effect="non-scaling-stroke" stroke="#2952a3" stroke-width="0.100mm" stroke-opacity="1.000000" fpd:visible="front back" fpd:print_element="0" />
<path d="
M146.500 5.500
A0.500,0.500 0 0,1 147.000,5.000
L149.000 5.000
A0.500,0.500 0 0,1 149.500,5.500
L149.500 71.500
A0.500,0.500 0 0,1 149.000,72.000
L147.000 72.000
A0.500,0.500 0 0,1 146.500,71.500
L146.500 5.500
" 
fill="#d4dff2" fill-opacity="1.000000" vector-effect="non-scaling-stroke" stroke="#2952a3" stroke-width="0.100mm" stroke-opacity="1.000000" fpd:visible="front back" fpd:print_element="0" />
<path d="
M172.000 5.500
A0.500,0.500 0 0,1 172.500,5.000
L174.500 5.000
A0.500,0.500 0 0,1 175.000,5.500
L175.000 71.500
A0.500,0.500 0 0,1 174.500,72.000
L172.500 72.000
A0.500,0.500 0 0,1 172.000,71.500
L172.000 5.500
" 
fill="#d4dff2" fill-opacity="1.000000" vector-effect="non-scaling-stroke" stroke="#2952a3" stroke-width="0.100mm" stroke-opacity="1.000000" fpd:visible="front back" fpd:print_element="0" />
<path d="
M340.500 83.000
A9.500,9.500 0 1,0 359.500,83.000
A9.500,9.500 0 1,0 340.500,83.000
" 
fill="#ffffff" fill-opacity="1.000000" vector-effect="non-scaling-stroke" stroke="#000000" stroke-width="0.100mm" stroke-opacity="1.000000" fpd:visible="front back" fpd:print_element="0" />
<path d="
M346.500 141.500
A3.500,3.500 0 1,0 353.500,141.500
A3.500,3.500 0 1,0 346.500,141.500
" 
fill="#ffffff" fill-opacity="1.000000" vector-effect="non-scaling-stroke" stroke="#000000" stroke-width="0.100mm" stroke-opacity="1.000000" fpd:visible="front back" fpd:print_element="0" />
<path d="
M-83.000 148.500
A3.500,3.500 0 1,0 -76.000,148.500
A3.500,3.500 0 1,0 -83.000,148.500
" 
fill="#ffffff" fill-opacity="1.000000" vector-effect="non-scaling-stroke" stroke="#000000" stroke-width="0.100mm" stroke-opacity="1.000000" fpd:visible="front back" fpd:print_element="0" />
<path d="
M-110.500 148.500
A3.500,3.500 0 1,0 -103.500,148.500
A3.500,3.500 0 1,0 -110.500,148.500
" 
fill="#ffffff" fill-opacity="1.000000" vector-effect="non-scaling-stroke" stroke="#000000" stroke-width="0.100mm" stroke-opacity="1.000000" fpd:visible="front back" fpd:print_element="0" />
<path d="
M-51.000 147.500
A3.500,3.500 0 1,0 -44.000,147.500
A3.500,3.500 0 1,0 -51.000,147.500
" 
fill="#ffffff" fill-opacity="1.000000" vector-effect="non-scaling-stroke" stroke="#000000" stroke-width="0.100mm" stroke-opacity="1.000000" fpd:visible="front back" fpd:print_element="0" />
<path d="
M342.000 170.500
A8.000,8.000 0 1,0 358.000,170.500
A8.000,8.000 0 1,0 342.000,170.500
" 
fill="#ffffff" fill-opacity="1.000000" vector-effect="non-scaling-stroke" stroke="#000000" stroke-width="0.100mm" stroke-opacity="1.000000" fpd:visible="front back" fpd:print_element="0" />
<path d="
M342.000 200.000
A8.000,8.000 0 1,0 358.000,200.000
A8.000,8.000 0 1,0 342.000,200.000
" 
fill="#ffffff" fill-opacity="1.000000" vector-effect="non-scaling-stroke" stroke="#000000" stroke-width="0.100mm" stroke-opacity="1.000000" fpd:visible="front back" fpd:print_element="0" />
<path d="
M344.000 112.500
A6.000,6.000 0 1,0 356.000,112.500
A6.000,6.000 0 1,0 344.000,112.500
" 
fill="#ffffff" fill-opacity="1.000000" vector-effect="non-scaling-stroke" stroke="#000000" stroke-width="0.100mm" stroke-opacity="1.000000" fpd:visible="front back" fpd:print_element="0" />
<path d="
M316.000 112.500
A6.000,6.000 0 1,0 328.000,112.500
A6.000,6.000 0 1,0 316.000,112.500
" 
fill="#ffffff" fill-opacity="1.000000" vector-effect="non-scaling-stroke" stroke="#000000" stroke-width="0.100mm" stroke-opacity="1.000000" fpd:visible="front back" fpd:print_element="0" />
<path d="
M280.754 94.500
A6.000,6.000 0 1,0 292.754,94.500
A6.000,6.000 0 1,0 280.754,94.500
" 
fill="#ffffff" fill-opacity="1.000000" vector-effect="non-scaling-stroke" stroke="#000000" stroke-width="0.100mm" stroke-opacity="1.000000" fpd:visible="front back" fpd:print_element="0" />
<path d="
M262.254 94.500
A6.000,6.000 0 1,0 274.254,94.500
A6.000,6.000 0 1,0 262.254,94.500
" 
fill="#ffffff" fill-opacity="1.000000" vector-effect="non-scaling-stroke" stroke="#000000" stroke-width="0.100mm" stroke-opacity="1.000000" fpd:visible="front back" fpd:print_element="0" />
<path d="
M243.754 94.500
A6.000,6.000 0 1,0 255.754,94.500
A6.000,6.000 0 1,0 243.754,94.500
" 
fill="#ffffff" fill-opacity="1.000000" vector-effect="non-scaling-stroke" stroke="#000000" stroke-width="0.100mm" stroke-opacity="1.000000" fpd:visible="front back" fpd:print_element="0" />
<path d="
M225.254 94.500
A6.000,6.000 0 1,0 237.254,94.500
A6.000,6.000 0 1,0 225.254,94.500
" 
fill="#ffffff" fill-opacity="1.000000" vector-effect="non-scaling-stroke" stroke="#000000" stroke-width="0.100mm" stroke-opacity="1.000000" fpd:visible="front back" fpd:print_element="0" />
<path d="
M206.754 94.500
A6.000,6.000 0 1,0 218.754,94.500
A6.000,6.000 0 1,0 206.754,94.500
" 
fill="#ffffff" fill-opacity="1.000000" vector-effect="non-scaling-stroke" stroke="#000000" stroke-width="0.100mm" stroke-opacity="1.000000" fpd:visible="front back" fpd:print_element="0" />
<path d="
M188.254 94.500
A6.000,6.000 0 1,0 200.254,94.500
A6.000,6.000 0 1,0 188.254,94.500
" 
fill="#ffffff" fill-opacity="1.000000" vector-effect="non-scaling-stroke" stroke="#000000" stroke-width="0.100mm" stroke-opacity="1.000000" fpd:visible="front back" fpd:print_element="0" />
<path d="
M-21.246 78.500
A6.000,6.000 0 1,0 -9.246,78.500
A6.000,6.000 0 1,0 -21.246,78.500
" 
fill="#ffffff" fill-opacity="1.000000" vector-effect="non-scaling-stroke" stroke="#000000" stroke-width="0.100mm" stroke-opacity="1.000000" fpd:visible="front back" fpd:print_element="0" />
<path d="
M-39.746 78.500
A6.000,6.000 0 1,0 -27.746,78.500
A6.000,6.000 0 1,0 -39.746,78.500
" 
fill="#ffffff" fill-opacity="1.000000" vector-effect="non-scaling-stroke" stroke="#000000" stroke-width="0.100mm" stroke-opacity="1.000000" fpd:visible="front back" fpd:print_element="0" />
<path d="
M-58.246 78.500
A6.000,6.000 0 1,0 -46.246,78.500
A6.000,6.000 0 1,0 -58.246,78.500
" 
fill="#ffffff" fill-opacity="1.000000" vector-effect="non-scaling-stroke" stroke="#000000" stroke-width="0.100mm" stroke-opacity="1.000000" fpd:visible="front back" fpd:print_element="0" />
<path d="
M-76.746 78.500
A6.000,6.000 0 1,0 -64.746,78.500
A6.000,6.000 0 1,0 -76.746,78.500
" 
fill="#ffffff" fill-opacity="1.000000" vector-effect="non-scaling-stroke" stroke="#000000" stroke-width="0.100mm" stroke-opacity="1.000000" fpd:visible="front back" fpd:print_element="0" />
<path d="
M95.754 94.500
A6.000,6.000 0 1,0 107.754,94.500
A6.000,6.000 0 1,0 95.754,94.500
" 
fill="#ffffff" fill-opacity="1.000000" vector-effect="non-scaling-stroke" stroke="#000000" stroke-width="0.100mm" stroke-opacity="1.000000" fpd:visible="front back" fpd:print_element="0" />
<path d="
M77.254 94.500
A6.000,6.000 0 1,0 89.254,94.500
A6.000,6.000 0 1,0 77.254,94.500
" 
fill="#ffffff" fill-opacity="1.000000" vector-effect="non-scaling-stroke" stroke="#000000" stroke-width="0.100mm" stroke-opacity="1.000000" fpd:visible="front back" fpd:print_element="0" />
<path d="
M272.625 13.995
A9.500,9.500 0 1,0 291.625,13.995
A9.500,9.500 0 1,0 272.625,13.995
" 
fill="#ffffff" fill-opacity="1.000000" vector-effect="non-scaling-stroke" stroke="#000000" stroke-width="0.100mm" stroke-opacity="1.000000" fpd:visible="front back" fpd:print_element="0" />
<path d="
M272.625 41.995
A9.500,9.500 0 1,0 291.625,41.995
A9.500,9.500 0 1,0 272.625,41.995
" 
fill="#ffffff" fill-opacity="1.000000" vector-effect="non-scaling-stroke" stroke="#000000" stroke-width="0.100mm" stroke-opacity="1.000000" fpd:visible="front back" fpd:print_element="0" />
<path d="
M272.625 69.995
A9.500,9.500 0 1,0 291.625,69.995
A9.500,9.500 0 1,0 272.625,69.995
" 
fill="#ffffff" fill-opacity="1.000000" vector-effect="non-scaling-stroke" stroke="#000000" stroke-width="0.100mm" stroke-opacity="1.000000" fpd:visible="front back" fpd:print_element="0" />
<path d="
M244.866 13.995
A9.500,9.500 0 1,0 263.866,13.995
A9.500,9.500 0 1,0 244.866,13.995
" 
fill="#ffffff" fill-opacity="1.000000" vector-effect="non-scaling-stroke" stroke="#000000" stroke-width="0.100mm" stroke-opacity="1.000000" fpd:visible="front back" fpd:print_element="0" />
<path d="
M244.866 41.995
A9.500,9.500 0 1,0 263.866,41.995
A9.500,9.500 0 1,0 244.866,41.995
" 
fill="#ffffff" fill-opacity="1.000000" vector-effect="non-scaling-stroke" stroke="#000000" stroke-width="0.100mm" stroke-opacity="1.000000" fpd:visible="front back" fpd:print_element="0" />
<path d="
M244.866 69.995
A9.500,9.500 0 1,0 263.866,69.995
A9.500,9.500 0 1,0 244.866,69.995
" 
fill="#ffffff" fill-opacity="1.000000" vector-effect="non-scaling-stroke" stroke="#000000" stroke-width="0.100mm" stroke-opacity="1.000000" fpd:visible="front back" fpd:print_element="0" />
<path d="
M217.125 13.995
A9.500,9.500 0 1,0 236.125,13.995
A9.500,9.500 0 1,0 217.125,13.995
" 
fill="#ffffff" fill-opacity="1.000000" vector-effect="non-scaling-stroke" stroke="#000000" stroke-width="0.100mm" stroke-opacity="1.000000" fpd:visible="front back" fpd:print_element="0" />
<path d="
M217.125 41.995
A9.500,9.500 0 1,0 236.125,41.995
A9.500,9.500 0 1,0 217.125,41.995
" 
fill="#ffffff" fill-opacity="1.000000" vector-effect="non-scaling-stroke" stroke="#000000" stroke-width="0.100mm" stroke-opacity="1.000000" fpd:visible="front back" fpd:print_element="0" />
<path d="
M217.125 69.995
A9.500,9.500 0 1,0 236.125,69.995
A9.500,9.500 0 1,0 217.125,69.995
" 
fill="#ffffff" fill-opacity="1.000000" vector-effect="non-scaling-stroke" stroke="#000000" stroke-width="0.100mm" stroke-opacity="1.000000" fpd:visible="front back" fpd:print_element="0" />
<path d="
M189.366 13.995
A9.500,9.500 0 1,0 208.366,13.995
A9.500,9.500 0 1,0 189.366,13.995
" 
fill="#ffffff" fill-opacity="1.000000" vector-effect="non-scaling-stroke" stroke="#000000" stroke-width="0.100mm" stroke-opacity="1.000000" fpd:visible="front back" fpd:print_element="0" />
<path d="
M189.366 41.995
A9.500,9.500 0 1,0 208.366,41.995
A9.500,9.500 0 1,0 189.366,41.995
" 
fill="#ffffff" fill-opacity="1.000000" vector-effect="non-scaling-stroke" stroke="#000000" stroke-width="0.100mm" stroke-opacity="1.000000" fpd:visible="front back" fpd:print_element="0" />
<path d="
M189.366 69.995
A9.500,9.500 0 1,0 208.366,69.995
A9.500,9.500 0 1,0 189.366,69.995
" 
fill="#ffffff" fill-opacity="1.000000" vector-effect="non-scaling-stroke" stroke="#000000" stroke-width="0.100mm" stroke-opacity="1.000000" fpd:visible="front back" fpd:print_element="0" />
<path d="
M87.625 13.995
A9.500,9.500 0 1,0 106.625,13.995
A9.500,9.500 0 1,0 87.625,13.995
" 
fill="#ffffff" fill-opacity="1.000000" vector-effect="non-scaling-stroke" stroke="#000000" stroke-width="0.100mm" stroke-opacity="1.000000" fpd:visible="front back" fpd:print_element="0" />
<path d="
M87.625 41.995
A9.500,9.500 0 1,0 106.625,41.995
A9.500,9.500 0 1,0 87.625,41.995
" 
fill="#ffffff" fill-opacity="1.000000" vector-effect="non-scaling-stroke" stroke="#000000" stroke-width="0.100mm" stroke-opacity="1.000000" fpd:visible="front back" fpd:print_element="0" />
<path d="
M87.625 69.995
A9.500,9.500 0 1,0 106.625,69.995
A9.500,9.500 0 1,0 87.625,69.995
" 
fill="#ffffff" fill-opacity="1.000000" vector-effect="non-scaling-stroke" stroke="#000000" stroke-width="0.100mm" stroke-opacity="1.000000" fpd:visible="front back" fpd:print_element="0" />
<path d="
M59.866 13.995
A9.500,9.500 0 1,0 78.866,13.995
A9.500,9.500 0 1,0 59.866,13.995
" 
fill="#ffffff" fill-opacity="1.000000" vector-effect="non-scaling-stroke" stroke="#000000" stroke-width="0.100mm" stroke-opacity="1.000000" fpd:visible="front back" fpd:print_element="0" />
<path d="
M59.866 41.995
A9.500,9.500 0 1,0 78.866,41.995
A9.500,9.500 0 1,0 59.866,41.995
" 
fill="#ffffff" fill-opacity="1.000000" vector-effect="non-scaling-stroke" stroke="#000000" stroke-width="0.100mm" stroke-opacity="1.000000" fpd:visible="front back" fpd:print_element="0" />
<path d="
M59.866 69.995
A9.500,9.500 0 1,0 78.866,69.995
A9.500,9.500 0 1,0 59.866,69.995
" 
fill="#ffffff" fill-opacity="1.000000" vector-effect="non-scaling-stroke" stroke="#000000" stroke-width="0.100mm" stroke-opacity="1.000000" fpd:visible="front back" fpd:print_element="0" />
<path d="
M32.125 13.995
A9.500,9.500 0 1,0 51.125,13.995
A9.500,9.500 0 1,0 32.125,13.995
" 
fill="#ffffff" fill-opacity="1.000000" vector-effect="non-scaling-stroke" stroke="#000000" stroke-width="0.100mm" stroke-opacity="1.000000" fpd:visible="front back" fpd:print_element="0" />
<path d="
M32.125 41.995
A9.500,9.500 0 1,0 51.125,41.995
A9.500,9.500 0 1,0 32.125,41.995
" 
fill="#ffffff" fill-opacity="1.000000" vector-effect="non-scaling-stroke" stroke="#000000" stroke-width="0.100mm" stroke-opacity="1.000000" fpd:visible="front back" fpd:print_element="0" />
<path d="
M32.125 69.995
A9.500,9.500 0 1,0 51.125,69.995
A9.500,9.500 0 1,0 32.125,69.995
" 
fill="#ffffff" fill-opacity="1.000000" vector-effect="non-scaling-stroke" stroke="#000000" stroke-width="0.100mm" stroke-opacity="1.000000" fpd:visible="front back" fpd:print_element="0" />
<path d="
M4.366 13.995
A9.500,9.500 0 1,0 23.366,13.995
A9.500,9.500 0 1,0 4.366,13.995
" 
fill="#ffffff" fill-opacity="1.000000" vector-effect="non-scaling-stroke" stroke="#000000" stroke-width="0.100mm" stroke-opacity="1.000000" fpd:visible="front back" fpd:print_element="0" />
<path d="
M4.366 41.995
A9.500,9.500 0 1,0 23.366,41.995
A9.500,9.500 0 1,0 4.366,41.995
" 
fill="#ffffff" fill-opacity="1.000000" vector-effect="non-scaling-stroke" stroke="#000000" stroke-width="0.100mm" stroke-opacity="1.000000" fpd:visible="front back" fpd:print_element="0" />
<path d="
M4.366 69.995
A9.500,9.500 0 1,0 23.366,69.995
A9.500,9.500 0 1,0 4.366,69.995
" 
fill="#ffffff" fill-opacity="1.000000" vector-effect="non-scaling-stroke" stroke="#000000" stroke-width="0.100mm" stroke-opacity="1.000000" fpd:visible="front back" fpd:print_element="0" />
<path d="
M32.125 119.495
A9.500,9.500 0 1,0 51.125,119.495
A9.500,9.500 0 1,0 32.125,119.495
" 
fill="#ffffff" fill-opacity="1.000000" vector-effect="non-scaling-stroke" stroke="#000000" stroke-width="0.100mm" stroke-opacity="1.000000" fpd:visible="front back" fpd:print_element="0" />
<path d="
M4.366 119.495
A9.500,9.500 0 1,0 23.366,119.495
A9.500,9.500 0 1,0 4.366,119.495
" 
fill="#ffffff" fill-opacity="1.000000" vector-effect="non-scaling-stroke" stroke="#000000" stroke-width="0.100mm" stroke-opacity="1.000000" fpd:visible="front back" fpd:print_element="0" />
<path d="
M33.625 150.995
A8.000,8.000 0 1,0 49.625,150.995
A8.000,8.000 0 1,0 33.625,150.995
" 
fill="#ffffff" fill-opacity="1.000000" vector-effect="non-scaling-stroke" stroke="#000000" stroke-width="0.100mm" stroke-opacity="1.000000" fpd:visible="front back" fpd:print_element="0" />
<path d="
M5.866 150.995
A8.000,8.000 0 1,0 21.866,150.995
A8.000,8.000 0 1,0 5.866,150.995
" 
fill="#ffffff" fill-opacity="1.000000" vector-effect="non-scaling-stroke" stroke="#000000" stroke-width="0.100mm" stroke-opacity="1.000000" fpd:visible="front back" fpd:print_element="0" />
<path d="
M33.625 181.995
A8.000,8.000 0 1,0 49.625,181.995
A8.000,8.000 0 1,0 33.625,181.995
" 
fill="#ffffff" fill-opacity="1.000000" vector-effect="non-scaling-stroke" stroke="#000000" stroke-width="0.100mm" stroke-opacity="1.000000" fpd:visible="front back" fpd:print_element="0" />
<path d="
M5.866 181.995
A8.000,8.000 0 1,0 21.866,181.995
A8.000,8.000 0 1,0 5.866,181.995
" 
fill="#ffffff" fill-opacity="1.000000" vector-effect="non-scaling-stroke" stroke="#000000" stroke-width="0.100mm" stroke-opacity="1.000000" fpd:visible="front back" fpd:print_element="0" />
<path d="
M-116.000 192.000
A13.500,13.500 0 1,0 -89.000,192.000
A13.500,13.500 0 1,0 -116.000,192.000
" 
fill="#ffffff" fill-opacity="1.000000" vector-effect="non-scaling-stroke" stroke="#000000" stroke-width="0.100mm" stroke-opacity="1.000000" fpd:visible="front back" fpd:print_element="0" />
<path d="
M-81.500 192.000
A14.000,14.000 0 1,0 -53.500,192.000
A14.000,14.000 0 1,0 -81.500,192.000
" 
fill="#ffffff" fill-opacity="1.000000" vector-effect="non-scaling-stroke" stroke="#000000" stroke-width="0.100mm" stroke-opacity="1.000000" fpd:visible="front back" fpd:print_element="0" />
<path d="
M58.754 94.500
A6.000,6.000 0 1,0 70.754,94.500
A6.000,6.000 0 1,0 58.754,94.500
" 
fill="#ffffff" fill-opacity="1.000000" vector-effect="non-scaling-stroke" stroke="#000000" stroke-width="0.100mm" stroke-opacity="1.000000" fpd:visible="front back" fpd:print_element="0" />
<path d="
M40.254 94.500
A6.000,6.000 0 1,0 52.254,94.500
A6.000,6.000 0 1,0 40.254,94.500
" 
fill="#ffffff" fill-opacity="1.000000" vector-effect="non-scaling-stroke" stroke="#000000" stroke-width="0.100mm" stroke-opacity="1.000000" fpd:visible="front back" fpd:print_element="0" />
<path d="
M21.754 94.500
A6.000,6.000 0 1,0 33.754,94.500
A6.000,6.000 0 1,0 21.754,94.500
" 
fill="#ffffff" fill-opacity="1.000000" vector-effect="non-scaling-stroke" stroke="#000000" stroke-width="0.100mm" stroke-opacity="1.000000" fpd:visible="front back" fpd:print_element="0" />
<path d="
M3.254 94.500
A6.000,6.000 0 1,0 15.254,94.500
A6.000,6.000 0 1,0 3.254,94.500
" 
fill="#ffffff" fill-opacity="1.000000" vector-effect="non-scaling-stroke" stroke="#000000" stroke-width="0.100mm" stroke-opacity="1.000000" fpd:visible="front back" fpd:print_element="0" />
<path d="
M62.500 146.500
A1.500,1.500 0 0,1 64.000,145.000
L86.000 145.000
A1.500,1.500 0 0,1 87.500,146.500
L87.500 192.500
A1.500,1.500 0 0,1 86.000,194.000
L64.000 194.000
A1.500,1.500 0 0,1 62.500,192.500
L62.500 146.500
" 
fill="#ffffff" fill-opacity="1.000000" vector-effect="non-scaling-stroke" stroke="#000000" stroke-width="0.100mm" stroke-opacity="1.000000" fpd:visible="front back" fpd:print_element="0" />
<path d="
M92.500 146.500
A1.500,1.500 0 0,1 94.000,145.000
L116.000 145.000
A1.500,1.500 0 0,1 117.500,146.500
L117.500 192.500
A1.500,1.500 0 0,1 116.000,194.000
L94.000 194.000
A1.500,1.500 0 0,1 92.500,192.500
L92.500 146.500
" 
fill="#ffffff" fill-opacity="1.000000" vector-effect="non-scaling-stroke" stroke="#000000" stroke-width="0.100mm" stroke-opacity="1.000000" fpd:visible="front back" fpd:print_element="0" />
<path d="
M178.500 146.500
A1.500,1.500 0 0,1 180.000,145.000
L202.000 145.000
A1.500,1.500 0 0,1 203.500,146.500
L203.500 192.500
A1.500,1.500 0 0,1 202.000,194.000
L180.000 194.000
A1.500,1.500 0 0,1 178.500,192.500
L178.500 146.500
" 
fill="#ffffff" fill-opacity="1.000000" vector-effect="non-scaling-stroke" stroke="#000000" stroke-width="0.100mm" stroke-opacity="1.000000" fpd:visible="front back" fpd:print_element="0" />
<path d="
M122.500 154.000
A10.000,10.000 0 0,1 132.500,144.000
L163.500 144.000
A10.000,10.000 0 0,1 173.500,154.000
L173.500 185.000
A10.000,10.000 0 0,1 163.500,195.000
L132.500 195.000
A10.000,10.000 0 0,1 122.500,185.000
L122.500 154.000
" 
fill="#ffffff" fill-opacity="1.000000" vector-effect="non-scaling-stroke" stroke="#000000" stroke-width="0.100mm" stroke-opacity="1.000000" fpd:visible="front back" fpd:print_element="0" />
<path d="
M208.500 146.500
A1.500,1.500 0 0,1 210.000,145.000
L232.000 145.000
A1.500,1.500 0 0,1 233.500,146.500
L233.500 192.500
A1.500,1.500 0 0,1 232.000,194.000
L210.000 194.000
A1.500,1.500 0 0,1 208.500,192.500
L208.500 146.500
" 
fill="#ffffff" fill-opacity="1.000000" vector-effect="non-scaling-stroke" stroke="#000000" stroke-width="0.100mm" stroke-opacity="1.000000" fpd:visible="front back" fpd:print_element="0" />
<path d="
M-23.500 147.500
A3.500,3.500 0 1,0 -16.500,147.500
A3.500,3.500 0 1,0 -23.500,147.500
" 
fill="#ffffff" fill-opacity="1.000000" vector-effect="non-scaling-stroke" stroke="#000000" stroke-width="0.100mm" stroke-opacity="1.000000" fpd:visible="front back" fpd:print_element="0" />
<path d="
M381.000 202.500
A10.000,10.000 0 0,1 391.000,192.500
L407.000 192.500
A10.000,10.000 0 0,1 417.000,202.500
L417.000 218.500
A10.000,10.000 0 0,1 407.000,228.500
L391.000 228.500
A10.000,10.000 0 0,1 381.000,218.500
L381.000 202.500
" 
fill="#ffffff" fill-opacity="1.000000" vector-effect="non-scaling-stroke" stroke="#000000" stroke-width="0.100mm" stroke-opacity="1.000000" fpd:visible="front back" fpd:print_element="0" />
<path d="
M377.000 145.000
A10.000,10.000 0 0,1 387.000,135.000
L418.000 135.000
A10.000,10.000 0 0,1 428.000,145.000
L428.000 176.000
A10.000,10.000 0 0,1 418.000,186.000
L387.000 186.000
A10.000,10.000 0 0,1 377.000,176.000
L377.000 145.000
" 
fill="#ffffff" fill-opacity="1.000000" vector-effect="non-scaling-stroke" stroke="#000000" stroke-width="0.100mm" stroke-opacity="1.000000" fpd:visible="front back" fpd:print_element="0" />
<path d="
M119.000 91.000
A3.500,3.500 0 1,0 126.000,91.000
A3.500,3.500 0 1,0 119.000,91.000
" 
fill="#ffffff" fill-opacity="1.000000" vector-effect="non-scaling-stroke" stroke="#000000" stroke-width="0.100mm" stroke-opacity="1.000000" fpd:visible="front back" fpd:print_element="0" />
<path d="
M144.500 91.000
A3.500,3.500 0 1,0 151.500,91.000
A3.500,3.500 0 1,0 144.500,91.000
" 
fill="#ffffff" fill-opacity="1.000000" vector-effect="non-scaling-stroke" stroke="#000000" stroke-width="0.100mm" stroke-opacity="1.000000" fpd:visible="front back" fpd:print_element="0" />
<path d="
M170.000 91.000
A3.500,3.500 0 1,0 177.000,91.000
A3.500,3.500 0 1,0 170.000,91.000
" 
fill="#ffffff" fill-opacity="1.000000" vector-effect="non-scaling-stroke" stroke="#000000" stroke-width="0.100mm" stroke-opacity="1.000000" fpd:visible="front back" fpd:print_element="0" />
<path d="
M272.625 119.495
A9.500,9.500 0 1,0 291.625,119.495
A9.500,9.500 0 1,0 272.625,119.495
" 
fill="#ffffff" fill-opacity="1.000000" vector-effect="non-scaling-stroke" stroke="#000000" stroke-width="0.100mm" stroke-opacity="1.000000" fpd:visible="front back" fpd:print_element="0" />
<path d="
M244.866 119.495
A9.500,9.500 0 1,0 263.866,119.495
A9.500,9.500 0 1,0 244.866,119.495
" 
fill="#ffffff" fill-opacity="1.000000" vector-effect="non-scaling-stroke" stroke="#000000" stroke-width="0.100mm" stroke-opacity="1.000000" fpd:visible="front back" fpd:print_element="0" />
<path d="
M274.125 150.995
A8.000,8.000 0 1,0 290.125,150.995
A8.000,8.000 0 1,0 274.125,150.995
" 
fill="#ffffff" fill-opacity="1.000000" vector-effect="non-scaling-stroke" stroke="#000000" stroke-width="0.100mm" stroke-opacity="1.000000" fpd:visible="front back" fpd:print_element="0" />
<path d="
M246.366 150.995
A8.000,8.000 0 1,0 262.366,150.995
A8.000,8.000 0 1,0 246.366,150.995
" 
fill="#ffffff" fill-opacity="1.000000" vector-effect="non-scaling-stroke" stroke="#000000" stroke-width="0.100mm" stroke-opacity="1.000000" fpd:visible="front back" fpd:print_element="0" />
<path d="
M274.125 181.995
A8.000,8.000 0 1,0 290.125,181.995
A8.000,8.000 0 1,0 274.125,181.995
" 
fill="#ffffff" fill-opacity="1.000000" vector-effect="non-scaling-stroke" stroke="#000000" stroke-width="0.100mm" stroke-opacity="1.000000" fpd:visible="front back" fpd:print_element="0" />
<path d="
M246.366 181.995
A8.000,8.000 0 1,0 262.366,181.995
A8.000,8.000 0 1,0 246.366,181.995
" 
fill="#ffffff" fill-opacity="1.000000" vector-effect="non-scaling-stroke" stroke="#000000" stroke-width="0.100mm" stroke-opacity="1.000000" fpd:visible="front back" fpd:print_element="0" />
<path d="
M296.000 196.000
L296.000 0.000
L0.000 0.000
L0.000 196.000
L296.000 196.000
" 
fill="none" vector-effect="non-scaling-stroke" stroke="#000000" stroke-width="0.100mm" stroke-opacity="1.000000" fpd:visible="front back" />
</g>
  <defs>
    <pattern id="revside-fill-#d4dff2" x="0" y="0" width="2.960" height="2.960" patternUnits="userSpaceOnUse">
      <line x1="0" y1="0" x2="2.960" y2="2.960000" style="stroke-width:0.296; stroke:#d4dff2; stroke-dasharray:none;" />
      <line x1="0" y1="2.960" x2="2.960" y2="0" style="stroke-width:0.296; stroke:#d4dff2; stroke-dasharray:none;" />
    </pattern>
  </defs>
</svg>
