  0
SECTION
  2
HEADER
  9
$MEASUREMENT
  70
  1
  9
$INSUNITS
  70
  4
  0
ENDSEC
  0
SECTION
  2
TABLES
  0
TABLE
  2
LTYPE
 70
     1
  0
LTYPE
  2
CONTINUOUS
 70
    64
  3
Ausgezogene Linie
 72
    65
 73
     0
 40
0.0
  0
ENDTAB
  0
TABLE
  2
LAYER
 70
     3
  0
LAYER
  2
Contour
 70
    64
 62
     7
  6
CONTINUOUS
  0
LAYER
  2
Engraving
 70
    64
 62
     7
  6
CONTINUOUS
  0
LAYER
  2
Reference_points
 70
    64
 62
     1
  6
CONTINUOUS
  0
ENDTAB
  0
TABLE
  2
STYLE
 70
     1
  0
STYLE
  2
TXT
 70
    64
 40
0.0
 41
1.0
 50
0.0
 71
     0
 42
3.500000
  3
TXT
  0
ENDTAB
  0
ENDSEC
  0
SECTION
  2
BLOCKS
  0
ENDSEC
  0
SECTION
  2
ENTITIES
  0
LINE
  8
Contour
 62
   7
 39
0.100
  6
CONTINUOUS
 10
296.00000
 20
196.00000
 30
 0
 11
296.00000
 21
0.00000
  0
LINE
  8
Contour
 62
   7
 39
0.100
  6
CONTINUOUS
 10
296.00000
 20
0.00000
 30
 0
 11
0.00000
 21
0.00000
  0
LINE
  8
Contour
 62
   7
 39
0.100
  6
CONTINUOUS
 10
0.00000
 20
0.00000
 30
 0
 11
0.00000
 21
196.00000
  0
LINE
  8
Contour
 62
   7
 39
0.100
  6
CONTINUOUS
 10
0.00000
 20
196.00000
 30
 0
 11
296.00000
 21
196.00000
  0
LINE
  8
Engraving
 62
   153
 39
0.200
  6
CONTINUOUS
 10
296.00000
 20
105.00000
 30
 0
 11
0.00000
 21
105.00000
  0
ARC
  8
Contour
 62
   7
 39
0.100
  6
CONTINUOUS
 10
110.48600
 20
112.56300
 30
 0
 40
0.50000
 50
180.00000
 51
270.00000
  0
LINE
  8
Contour
 62
   7
 39
0.100
  6
CONTINUOUS
 10
110.48600
 20
112.06300
 30
 0
 11
134.48600
 21
112.06300
  0
ARC
  8
Contour
 62
   7
 39
0.100
  6
CONTINUOUS
 10
134.48600
 20
112.56300
 30
 0
 40
0.50000
 50
270.00000
 51
360.00000
  0
LINE
  8
Contour
 62
   7
 39
0.100
  6
CONTINUOUS
 10
134.98600
 20
112.56300
 30
 0
 11
134.98600
 21
188.56300
  0
ARC
  8
Contour
 62
   7
 39
0.100
  6
CONTINUOUS
 10
134.48600
 20
188.56300
 30
 0
 40
0.50000
 50
0.00000
 51
90.00000
  0
LINE
  8
Contour
 62
   7
 39
0.100
  6
CONTINUOUS
 10
134.48600
 20
189.06300
 30
 0
 11
110.48600
 21
189.06300
  0
ARC
  8
Contour
 62
   7
 39
0.100
  6
CONTINUOUS
 10
110.48600
 20
188.56300
 30
 0
 40
0.50000
 50
90.00000
 51
180.00000
  0
LINE
  8
Contour
 62
   7
 39
0.100
  6
CONTINUOUS
 10
109.98600
 20
188.56300
 30
 0
 11
109.98600
 21
112.56300
  0
ARC
  8
Contour
 62
   7
 39
0.100
  6
CONTINUOUS
 10
278.00400
 20
85.75000
 30
 0
 40
0.50000
 50
180.00000
 51
270.00000
  0
LINE
  8
Contour
 62
   7
 39
0.100
  6
CONTINUOUS
 10
278.00400
 20
85.25000
 30
 0
 11
295.50400
 21
85.25000
  0
ARC
  8
Contour
 62
   7
 39
0.100
  6
CONTINUOUS
 10
295.50400
 20
85.75000
 30
 0
 40
0.50000
 50
270.00000
 51
360.00000
  0
LINE
  8
Contour
 62
   7
 39
0.100
  6
CONTINUOUS
 10
296.00400
 20
85.75000
 30
 0
 11
296.00400
 21
103.25000
  0
ARC
  8
Contour
 62
   7
 39
0.100
  6
CONTINUOUS
 10
295.50400
 20
103.25000
 30
 0
 40
0.50000
 50
0.00000
 51
90.00000
  0
LINE
  8
Contour
 62
   7
 39
0.100
  6
CONTINUOUS
 10
295.50400
 20
103.75000
 30
 0
 11
278.00400
 21
103.75000
  0
ARC
  8
Contour
 62
   7
 39
0.100
  6
CONTINUOUS
 10
278.00400
 20
103.25000
 30
 0
 40
0.50000
 50
90.00000
 51
180.00000
  0
LINE
  8
Contour
 62
   7
 39
0.100
  6
CONTINUOUS
 10
277.50400
 20
103.25000
 30
 0
 11
277.50400
 21
85.75000
  0
ARC
  8
Contour
 62
   7
 39
0.100
  6
CONTINUOUS
 10
259.50400
 20
85.75000
 30
 0
 40
0.50000
 50
180.00000
 51
270.00000
  0
LINE
  8
Contour
 62
   7
 39
0.100
  6
CONTINUOUS
 10
259.50400
 20
85.25000
 30
 0
 11
277.00400
 21
85.25000
  0
ARC
  8
Contour
 62
   7
 39
0.100
  6
CONTINUOUS
 10
277.00400
 20
85.75000
 30
 0
 40
0.50000
 50
270.00000
 51
360.00000
  0
LINE
  8
Contour
 62
   7
 39
0.100
  6
CONTINUOUS
 10
277.50400
 20
85.75000
 30
 0
 11
277.50400
 21
103.25000
  0
ARC
  8
Contour
 62
   7
 39
0.100
  6
CONTINUOUS
 10
277.00400
 20
103.25000
 30
 0
 40
0.50000
 50
0.00000
 51
90.00000
  0
LINE
  8
Contour
 62
   7
 39
0.100
  6
CONTINUOUS
 10
277.00400
 20
103.75000
 30
 0
 11
259.50400
 21
103.75000
  0
ARC
  8
Contour
 62
   7
 39
0.100
  6
CONTINUOUS
 10
259.50400
 20
103.25000
 30
 0
 40
0.50000
 50
90.00000
 51
180.00000
  0
LINE
  8
Contour
 62
   7
 39
0.100
  6
CONTINUOUS
 10
259.00400
 20
103.25000
 30
 0
 11
259.00400
 21
85.75000
  0
ARC
  8
Contour
 62
   7
 39
0.100
  6
CONTINUOUS
 10
241.00400
 20
85.75000
 30
 0
 40
0.50000
 50
180.00000
 51
270.00000
  0
LINE
  8
Contour
 62
   7
 39
0.100
  6
CONTINUOUS
 10
241.00400
 20
85.25000
 30
 0
 11
258.50400
 21
85.25000
  0
ARC
  8
Contour
 62
   7
 39
0.100
  6
CONTINUOUS
 10
258.50400
 20
85.75000
 30
 0
 40
0.50000
 50
270.00000
 51
360.00000
  0
LINE
  8
Contour
 62
   7
 39
0.100
  6
CONTINUOUS
 10
259.00400
 20
85.75000
 30
 0
 11
259.00400
 21
103.25000
  0
ARC
  8
Contour
 62
   7
 39
0.100
  6
CONTINUOUS
 10
258.50400
 20
103.25000
 30
 0
 40
0.50000
 50
0.00000
 51
90.00000
  0
LINE
  8
Contour
 62
   7
 39
0.100
  6
CONTINUOUS
 10
258.50400
 20
103.75000
 30
 0
 11
241.00400
 21
103.75000
  0
ARC
  8
Contour
 62
   7
 39
0.100
  6
CONTINUOUS
 10
241.00400
 20
103.25000
 30
 0
 40
0.50000
 50
90.00000
 51
180.00000
  0
LINE
  8
Contour
 62
   7
 39
0.100
  6
CONTINUOUS
 10
240.50400
 20
103.25000
 30
 0
 11
240.50400
 21
85.75000
  0
ARC
  8
Contour
 62
   7
 39
0.100
  6
CONTINUOUS
 10
222.50400
 20
85.75000
 30
 0
 40
0.50000
 50
180.00000
 51
270.00000
  0
LINE
  8
Contour
 62
   7
 39
0.100
  6
CONTINUOUS
 10
222.50400
 20
85.25000
 30
 0
 11
240.00400
 21
85.25000
  0
ARC
  8
Contour
 62
   7
 39
0.100
  6
CONTINUOUS
 10
240.00400
 20
85.75000
 30
 0
 40
0.50000
 50
270.00000
 51
360.00000
  0
LINE
  8
Contour
 62
   7
 39
0.100
  6
CONTINUOUS
 10
240.50400
 20
85.75000
 30
 0
 11
240.50400
 21
103.25000
  0
ARC
  8
Contour
 62
   7
 39
0.100
  6
CONTINUOUS
 10
240.00400
 20
103.25000
 30
 0
 40
0.50000
 50
0.00000
 51
90.00000
  0
LINE
  8
Contour
 62
   7
 39
0.100
  6
CONTINUOUS
 10
240.00400
 20
103.75000
 30
 0
 11
222.50400
 21
103.75000
  0
ARC
  8
Contour
 62
   7
 39
0.100
  6
CONTINUOUS
 10
222.50400
 20
103.25000
 30
 0
 40
0.50000
 50
90.00000
 51
180.00000
  0
LINE
  8
Contour
 62
   7
 39
0.100
  6
CONTINUOUS
 10
222.00400
 20
103.25000
 30
 0
 11
222.00400
 21
85.75000
  0
ARC
  8
Contour
 62
   7
 39
0.100
  6
CONTINUOUS
 10
204.00400
 20
85.75000
 30
 0
 40
0.50000
 50
180.00000
 51
270.00000
  0
LINE
  8
Contour
 62
   7
 39
0.100
  6
CONTINUOUS
 10
204.00400
 20
85.25000
 30
 0
 11
221.50400
 21
85.25000
  0
ARC
  8
Contour
 62
   7
 39
0.100
  6
CONTINUOUS
 10
221.50400
 20
85.75000
 30
 0
 40
0.50000
 50
270.00000
 51
360.00000
  0
LINE
  8
Contour
 62
   7
 39
0.100
  6
CONTINUOUS
 10
222.00400
 20
85.75000
 30
 0
 11
222.00400
 21
103.25000
  0
ARC
  8
Contour
 62
   7
 39
0.100
  6
CONTINUOUS
 10
221.50400
 20
103.25000
 30
 0
 40
0.50000
 50
0.00000
 51
90.00000
  0
LINE
  8
Contour
 62
   7
 39
0.100
  6
CONTINUOUS
 10
221.50400
 20
103.75000
 30
 0
 11
204.00400
 21
103.75000
  0
ARC
  8
Contour
 62
   7
 39
0.100
  6
CONTINUOUS
 10
204.00400
 20
103.25000
 30
 0
 40
0.50000
 50
90.00000
 51
180.00000
  0
LINE
  8
Contour
 62
   7
 39
0.100
  6
CONTINUOUS
 10
203.50400
 20
103.25000
 30
 0
 11
203.50400
 21
85.75000
  0
ARC
  8
Contour
 62
   7
 39
0.100
  6
CONTINUOUS
 10
185.50400
 20
85.75000
 30
 0
 40
0.50000
 50
180.00000
 51
270.00000
  0
LINE
  8
Contour
 62
   7
 39
0.100
  6
CONTINUOUS
 10
185.50400
 20
85.25000
 30
 0
 11
203.00400
 21
85.25000
  0
ARC
  8
Contour
 62
   7
 39
0.100
  6
CONTINUOUS
 10
203.00400
 20
85.75000
 30
 0
 40
0.50000
 50
270.00000
 51
360.00000
  0
LINE
  8
Contour
 62
   7
 39
0.100
  6
CONTINUOUS
 10
203.50400
 20
85.75000
 30
 0
 11
203.50400
 21
103.25000
  0
ARC
  8
Contour
 62
   7
 39
0.100
  6
CONTINUOUS
 10
203.00400
 20
103.25000
 30
 0
 40
0.50000
 50
0.00000
 51
90.00000
  0
LINE
  8
Contour
 62
   7
 39
0.100
  6
CONTINUOUS
 10
203.00400
 20
103.75000
 30
 0
 11
185.50400
 21
103.75000
  0
ARC
  8
Contour
 62
   7
 39
0.100
  6
CONTINUOUS
 10
185.50400
 20
103.25000
 30
 0
 40
0.50000
 50
90.00000
 51
180.00000
  0
LINE
  8
Contour
 62
   7
 39
0.100
  6
CONTINUOUS
 10
185.00400
 20
103.25000
 30
 0
 11
185.00400
 21
85.75000
  0
ARC
  8
Contour
 62
   7
 39
0.100
  6
CONTINUOUS
 10
167.00400
 20
85.75000
 30
 0
 40
0.50000
 50
180.00000
 51
270.00000
  0
LINE
  8
Contour
 62
   7
 39
0.100
  6
CONTINUOUS
 10
167.00400
 20
85.25000
 30
 0
 11
184.50400
 21
85.25000
  0
ARC
  8
Contour
 62
   7
 39
0.100
  6
CONTINUOUS
 10
184.50400
 20
85.75000
 30
 0
 40
0.50000
 50
270.00000
 51
360.00000
  0
LINE
  8
Contour
 62
   7
 39
0.100
  6
CONTINUOUS
 10
185.00400
 20
85.75000
 30
 0
 11
185.00400
 21
103.25000
  0
ARC
  8
Contour
 62
   7
 39
0.100
  6
CONTINUOUS
 10
184.50400
 20
103.25000
 30
 0
 40
0.50000
 50
0.00000
 51
90.00000
  0
LINE
  8
Contour
 62
   7
 39
0.100
  6
CONTINUOUS
 10
184.50400
 20
103.75000
 30
 0
 11
167.00400
 21
103.75000
  0
ARC
  8
Contour
 62
   7
 39
0.100
  6
CONTINUOUS
 10
167.00400
 20
103.25000
 30
 0
 40
0.50000
 50
90.00000
 51
180.00000
  0
LINE
  8
Contour
 62
   7
 39
0.100
  6
CONTINUOUS
 10
166.50400
 20
103.25000
 30
 0
 11
166.50400
 21
85.75000
  0
ARC
  8
Contour
 62
   7
 39
0.100
  6
CONTINUOUS
 10
148.50400
 20
85.75000
 30
 0
 40
0.50000
 50
180.00000
 51
270.00000
  0
LINE
  8
Contour
 62
   7
 39
0.100
  6
CONTINUOUS
 10
148.50400
 20
85.25000
 30
 0
 11
166.00400
 21
85.25000
  0
ARC
  8
Contour
 62
   7
 39
0.100
  6
CONTINUOUS
 10
166.00400
 20
85.75000
 30
 0
 40
0.50000
 50
270.00000
 51
360.00000
  0
LINE
  8
Contour
 62
   7
 39
0.100
  6
CONTINUOUS
 10
166.50400
 20
85.75000
 30
 0
 11
166.50400
 21
103.25000
  0
ARC
  8
Contour
 62
   7
 39
0.100
  6
CONTINUOUS
 10
166.00400
 20
103.25000
 30
 0
 40
0.50000
 50
0.00000
 51
90.00000
  0
LINE
  8
Contour
 62
   7
 39
0.100
  6
CONTINUOUS
 10
166.00400
 20
103.75000
 30
 0
 11
148.50400
 21
103.75000
  0
ARC
  8
Contour
 62
   7
 39
0.100
  6
CONTINUOUS
 10
148.50400
 20
103.25000
 30
 0
 40
0.50000
 50
90.00000
 51
180.00000
  0
LINE
  8
Contour
 62
   7
 39
0.100
  6
CONTINUOUS
 10
148.00400
 20
103.25000
 30
 0
 11
148.00400
 21
85.75000
  0
ARC
  8
Contour
 62
   7
 39
0.100
  6
CONTINUOUS
 10
130.00400
 20
85.75000
 30
 0
 40
0.50000
 50
180.00000
 51
270.00000
  0
LINE
  8
Contour
 62
   7
 39
0.100
  6
CONTINUOUS
 10
130.00400
 20
85.25000
 30
 0
 11
147.50400
 21
85.25000
  0
ARC
  8
Contour
 62
   7
 39
0.100
  6
CONTINUOUS
 10
147.50400
 20
85.75000
 30
 0
 40
0.50000
 50
270.00000
 51
360.00000
  0
LINE
  8
Contour
 62
   7
 39
0.100
  6
CONTINUOUS
 10
148.00400
 20
85.75000
 30
 0
 11
148.00400
 21
103.25000
  0
ARC
  8
Contour
 62
   7
 39
0.100
  6
CONTINUOUS
 10
147.50400
 20
103.25000
 30
 0
 40
0.50000
 50
0.00000
 51
90.00000
  0
LINE
  8
Contour
 62
   7
 39
0.100
  6
CONTINUOUS
 10
147.50400
 20
103.75000
 30
 0
 11
130.00400
 21
103.75000
  0
ARC
  8
Contour
 62
   7
 39
0.100
  6
CONTINUOUS
 10
130.00400
 20
103.25000
 30
 0
 40
0.50000
 50
90.00000
 51
180.00000
  0
LINE
  8
Contour
 62
   7
 39
0.100
  6
CONTINUOUS
 10
129.50400
 20
103.25000
 30
 0
 11
129.50400
 21
85.75000
  0
ARC
  8
Contour
 62
   7
 39
0.100
  6
CONTINUOUS
 10
111.50400
 20
85.75000
 30
 0
 40
0.50000
 50
180.00000
 51
270.00000
  0
LINE
  8
Contour
 62
   7
 39
0.100
  6
CONTINUOUS
 10
111.50400
 20
85.25000
 30
 0
 11
129.00400
 21
85.25000
  0
ARC
  8
Contour
 62
   7
 39
0.100
  6
CONTINUOUS
 10
129.00400
 20
85.75000
 30
 0
 40
0.50000
 50
270.00000
 51
360.00000
  0
LINE
  8
Contour
 62
   7
 39
0.100
  6
CONTINUOUS
 10
129.50400
 20
85.75000
 30
 0
 11
129.50400
 21
103.25000
  0
ARC
  8
Contour
 62
   7
 39
0.100
  6
CONTINUOUS
 10
129.00400
 20
103.25000
 30
 0
 40
0.50000
 50
0.00000
 51
90.00000
  0
LINE
  8
Contour
 62
   7
 39
0.100
  6
CONTINUOUS
 10
129.00400
 20
103.75000
 30
 0
 11
111.50400
 21
103.75000
  0
ARC
  8
Contour
 62
   7
 39
0.100
  6
CONTINUOUS
 10
111.50400
 20
103.25000
 30
 0
 40
0.50000
 50
90.00000
 51
180.00000
  0
LINE
  8
Contour
 62
   7
 39
0.100
  6
CONTINUOUS
 10
111.00400
 20
103.25000
 30
 0
 11
111.00400
 21
85.75000
  0
ARC
  8
Contour
 62
   7
 39
0.100
  6
CONTINUOUS
 10
93.00400
 20
85.75000
 30
 0
 40
0.50000
 50
180.00000
 51
270.00000
  0
LINE
  8
Contour
 62
   7
 39
0.100
  6
CONTINUOUS
 10
93.00400
 20
85.25000
 30
 0
 11
110.50400
 21
85.25000
  0
ARC
  8
Contour
 62
   7
 39
0.100
  6
CONTINUOUS
 10
110.50400
 20
85.75000
 30
 0
 40
0.50000
 50
270.00000
 51
360.00000
  0
LINE
  8
Contour
 62
   7
 39
0.100
  6
CONTINUOUS
 10
111.00400
 20
85.75000
 30
 0
 11
111.00400
 21
103.25000
  0
ARC
  8
Contour
 62
   7
 39
0.100
  6
CONTINUOUS
 10
110.50400
 20
103.25000
 30
 0
 40
0.50000
 50
0.00000
 51
90.00000
  0
LINE
  8
Contour
 62
   7
 39
0.100
  6
CONTINUOUS
 10
110.50400
 20
103.75000
 30
 0
 11
93.00400
 21
103.75000
  0
ARC
  8
Contour
 62
   7
 39
0.100
  6
CONTINUOUS
 10
93.00400
 20
103.25000
 30
 0
 40
0.50000
 50
90.00000
 51
180.00000
  0
LINE
  8
Contour
 62
   7
 39
0.100
  6
CONTINUOUS
 10
92.50400
 20
103.25000
 30
 0
 11
92.50400
 21
85.75000
  0
ARC
  8
Contour
 62
   7
 39
0.100
  6
CONTINUOUS
 10
74.50400
 20
85.75000
 30
 0
 40
0.50000
 50
180.00000
 51
270.00000
  0
LINE
  8
Contour
 62
   7
 39
0.100
  6
CONTINUOUS
 10
74.50400
 20
85.25000
 30
 0
 11
92.00400
 21
85.25000
  0
ARC
  8
Contour
 62
   7
 39
0.100
  6
CONTINUOUS
 10
92.00400
 20
85.75000
 30
 0
 40
0.50000
 50
270.00000
 51
360.00000
  0
LINE
  8
Contour
 62
   7
 39
0.100
  6
CONTINUOUS
 10
92.50400
 20
85.75000
 30
 0
 11
92.50400
 21
103.25000
  0
ARC
  8
Contour
 62
   7
 39
0.100
  6
CONTINUOUS
 10
92.00400
 20
103.25000
 30
 0
 40
0.50000
 50
0.00000
 51
90.00000
  0
LINE
  8
Contour
 62
   7
 39
0.100
  6
CONTINUOUS
 10
92.00400
 20
103.75000
 30
 0
 11
74.50400
 21
103.75000
  0
ARC
  8
Contour
 62
   7
 39
0.100
  6
CONTINUOUS
 10
74.50400
 20
103.25000
 30
 0
 40
0.50000
 50
90.00000
 51
180.00000
  0
LINE
  8
Contour
 62
   7
 39
0.100
  6
CONTINUOUS
 10
74.00400
 20
103.25000
 30
 0
 11
74.00400
 21
85.75000
  0
ARC
  8
Contour
 62
   7
 39
0.100
  6
CONTINUOUS
 10
268.75000
 20
0.49500
 30
 0
 40
0.50000
 50
180.00000
 51
270.00000
  0
LINE
  8
Contour
 62
   7
 39
0.100
  6
CONTINUOUS
 10
268.75000
 20
-0.00500
 30
 0
 11
295.50000
 21
-0.00500
  0
ARC
  8
Contour
 62
   7
 39
0.100
  6
CONTINUOUS
 10
295.50000
 20
0.49500
 30
 0
 40
0.50000
 50
270.00000
 51
360.00000
  0
LINE
  8
Contour
 62
   7
 39
0.100
  6
CONTINUOUS
 10
296.00000
 20
0.49500
 30
 0
 11
296.00000
 21
27.49500
  0
ARC
  8
Contour
 62
   7
 39
0.100
  6
CONTINUOUS
 10
295.50000
 20
27.49500
 30
 0
 40
0.50000
 50
0.00000
 51
90.00000
  0
LINE
  8
Contour
 62
   7
 39
0.100
  6
CONTINUOUS
 10
295.50000
 20
27.99500
 30
 0
 11
268.75000
 21
27.99500
  0
ARC
  8
Contour
 62
   7
 39
0.100
  6
CONTINUOUS
 10
268.75000
 20
27.49500
 30
 0
 40
0.50000
 50
90.00000
 51
180.00000
  0
LINE
  8
Contour
 62
   7
 39
0.100
  6
CONTINUOUS
 10
268.25000
 20
27.49500
 30
 0
 11
268.25000
 21
0.49500
  0
ARC
  8
Contour
 62
   7
 39
0.100
  6
CONTINUOUS
 10
268.75000
 20
28.49500
 30
 0
 40
0.50000
 50
180.00000
 51
270.00000
  0
LINE
  8
Contour
 62
   7
 39
0.100
  6
CONTINUOUS
 10
268.75000
 20
27.99500
 30
 0
 11
295.50000
 21
27.99500
  0
ARC
  8
Contour
 62
   7
 39
0.100
  6
CONTINUOUS
 10
295.50000
 20
28.49500
 30
 0
 40
0.50000
 50
270.00000
 51
360.00000
  0
LINE
  8
Contour
 62
   7
 39
0.100
  6
CONTINUOUS
 10
296.00000
 20
28.49500
 30
 0
 11
296.00000
 21
55.49500
  0
ARC
  8
Contour
 62
   7
 39
0.100
  6
CONTINUOUS
 10
295.50000
 20
55.49500
 30
 0
 40
0.50000
 50
0.00000
 51
90.00000
  0
LINE
  8
Contour
 62
   7
 39
0.100
  6
CONTINUOUS
 10
295.50000
 20
55.99500
 30
 0
 11
268.75000
 21
55.99500
  0
ARC
  8
Contour
 62
   7
 39
0.100
  6
CONTINUOUS
 10
268.75000
 20
55.49500
 30
 0
 40
0.50000
 50
90.00000
 51
180.00000
  0
LINE
  8
Contour
 62
   7
 39
0.100
  6
CONTINUOUS
 10
268.25000
 20
55.49500
 30
 0
 11
268.25000
 21
28.49500
  0
ARC
  8
Contour
 62
   7
 39
0.100
  6
CONTINUOUS
 10
268.75000
 20
56.49500
 30
 0
 40
0.50000
 50
180.00000
 51
270.00000
  0
LINE
  8
Contour
 62
   7
 39
0.100
  6
CONTINUOUS
 10
268.75000
 20
55.99500
 30
 0
 11
295.50000
 21
55.99500
  0
ARC
  8
Contour
 62
   7
 39
0.100
  6
CONTINUOUS
 10
295.50000
 20
56.49500
 30
 0
 40
0.50000
 50
270.00000
 51
360.00000
  0
LINE
  8
Contour
 62
   7
 39
0.100
  6
CONTINUOUS
 10
296.00000
 20
56.49500
 30
 0
 11
296.00000
 21
83.49500
  0
ARC
  8
Contour
 62
   7
 39
0.100
  6
CONTINUOUS
 10
295.50000
 20
83.49500
 30
 0
 40
0.50000
 50
0.00000
 51
90.00000
  0
LINE
  8
Contour
 62
   7
 39
0.100
  6
CONTINUOUS
 10
295.50000
 20
83.99500
 30
 0
 11
268.75000
 21
83.99500
  0
ARC
  8
Contour
 62
   7
 39
0.100
  6
CONTINUOUS
 10
268.75000
 20
83.49500
 30
 0
 40
0.50000
 50
90.00000
 51
180.00000
  0
LINE
  8
Contour
 62
   7
 39
0.100
  6
CONTINUOUS
 10
268.25000
 20
83.49500
 30
 0
 11
268.25000
 21
56.49500
  0
ARC
  8
Contour
 62
   7
 39
0.100
  6
CONTINUOUS
 10
240.99100
 20
0.49500
 30
 0
 40
0.50000
 50
180.00000
 51
270.00000
  0
LINE
  8
Contour
 62
   7
 39
0.100
  6
CONTINUOUS
 10
240.99100
 20
-0.00500
 30
 0
 11
267.74100
 21
-0.00500
  0
ARC
  8
Contour
 62
   7
 39
0.100
  6
CONTINUOUS
 10
267.74100
 20
0.49500
 30
 0
 40
0.50000
 50
270.00000
 51
360.00000
  0
LINE
  8
Contour
 62
   7
 39
0.100
  6
CONTINUOUS
 10
268.24100
 20
0.49500
 30
 0
 11
268.24100
 21
27.49500
  0
ARC
  8
Contour
 62
   7
 39
0.100
  6
CONTINUOUS
 10
267.74100
 20
27.49500
 30
 0
 40
0.50000
 50
0.00000
 51
90.00000
  0
LINE
  8
Contour
 62
   7
 39
0.100
  6
CONTINUOUS
 10
267.74100
 20
27.99500
 30
 0
 11
240.99100
 21
27.99500
  0
ARC
  8
Contour
 62
   7
 39
0.100
  6
CONTINUOUS
 10
240.99100
 20
27.49500
 30
 0
 40
0.50000
 50
90.00000
 51
180.00000
  0
LINE
  8
Contour
 62
   7
 39
0.100
  6
CONTINUOUS
 10
240.49100
 20
27.49500
 30
 0
 11
240.49100
 21
0.49500
  0
ARC
  8
Contour
 62
   7
 39
0.100
  6
CONTINUOUS
 10
240.99100
 20
28.49500
 30
 0
 40
0.50000
 50
180.00000
 51
270.00000
  0
LINE
  8
Contour
 62
   7
 39
0.100
  6
CONTINUOUS
 10
240.99100
 20
27.99500
 30
 0
 11
267.74100
 21
27.99500
  0
ARC
  8
Contour
 62
   7
 39
0.100
  6
CONTINUOUS
 10
267.74100
 20
28.49500
 30
 0
 40
0.50000
 50
270.00000
 51
360.00000
  0
LINE
  8
Contour
 62
   7
 39
0.100
  6
CONTINUOUS
 10
268.24100
 20
28.49500
 30
 0
 11
268.24100
 21
55.49500
  0
ARC
  8
Contour
 62
   7
 39
0.100
  6
CONTINUOUS
 10
267.74100
 20
55.49500
 30
 0
 40
0.50000
 50
0.00000
 51
90.00000
  0
LINE
  8
Contour
 62
   7
 39
0.100
  6
CONTINUOUS
 10
267.74100
 20
55.99500
 30
 0
 11
240.99100
 21
55.99500
  0
ARC
  8
Contour
 62
   7
 39
0.100
  6
CONTINUOUS
 10
240.99100
 20
55.49500
 30
 0
 40
0.50000
 50
90.00000
 51
180.00000
  0
LINE
  8
Contour
 62
   7
 39
0.100
  6
CONTINUOUS
 10
240.49100
 20
55.49500
 30
 0
 11
240.49100
 21
28.49500
  0
ARC
  8
Contour
 62
   7
 39
0.100
  6
CONTINUOUS
 10
240.99100
 20
56.49500
 30
 0
 40
0.50000
 50
180.00000
 51
270.00000
  0
LINE
  8
Contour
 62
   7
 39
0.100
  6
CONTINUOUS
 10
240.99100
 20
55.99500
 30
 0
 11
267.74100
 21
55.99500
  0
ARC
  8
Contour
 62
   7
 39
0.100
  6
CONTINUOUS
 10
267.74100
 20
56.49500
 30
 0
 40
0.50000
 50
270.00000
 51
360.00000
  0
LINE
  8
Contour
 62
   7
 39
0.100
  6
CONTINUOUS
 10
268.24100
 20
56.49500
 30
 0
 11
268.24100
 21
83.49500
  0
ARC
  8
Contour
 62
   7
 39
0.100
  6
CONTINUOUS
 10
267.74100
 20
83.49500
 30
 0
 40
0.50000
 50
0.00000
 51
90.00000
  0
LINE
  8
Contour
 62
   7
 39
0.100
  6
CONTINUOUS
 10
267.74100
 20
83.99500
 30
 0
 11
240.99100
 21
83.99500
  0
ARC
  8
Contour
 62
   7
 39
0.100
  6
CONTINUOUS
 10
240.99100
 20
83.49500
 30
 0
 40
0.50000
 50
90.00000
 51
180.00000
  0
LINE
  8
Contour
 62
   7
 39
0.100
  6
CONTINUOUS
 10
240.49100
 20
83.49500
 30
 0
 11
240.49100
 21
56.49500
  0
ARC
  8
Contour
 62
   7
 39
0.100
  6
CONTINUOUS
 10
213.25000
 20
0.49500
 30
 0
 40
0.50000
 50
180.00000
 51
270.00000
  0
LINE
  8
Contour
 62
   7
 39
0.100
  6
CONTINUOUS
 10
213.25000
 20
-0.00500
 30
 0
 11
240.00000
 21
-0.00500
  0
ARC
  8
Contour
 62
   7
 39
0.100
  6
CONTINUOUS
 10
240.00000
 20
0.49500
 30
 0
 40
0.50000
 50
270.00000
 51
360.00000
  0
LINE
  8
Contour
 62
   7
 39
0.100
  6
CONTINUOUS
 10
240.50000
 20
0.49500
 30
 0
 11
240.50000
 21
27.49500
  0
ARC
  8
Contour
 62
   7
 39
0.100
  6
CONTINUOUS
 10
240.00000
 20
27.49500
 30
 0
 40
0.50000
 50
0.00000
 51
90.00000
  0
LINE
  8
Contour
 62
   7
 39
0.100
  6
CONTINUOUS
 10
240.00000
 20
27.99500
 30
 0
 11
213.25000
 21
27.99500
  0
ARC
  8
Contour
 62
   7
 39
0.100
  6
CONTINUOUS
 10
213.25000
 20
27.49500
 30
 0
 40
0.50000
 50
90.00000
 51
180.00000
  0
LINE
  8
Contour
 62
   7
 39
0.100
  6
CONTINUOUS
 10
212.75000
 20
27.49500
 30
 0
 11
212.75000
 21
0.49500
  0
ARC
  8
Contour
 62
   7
 39
0.100
  6
CONTINUOUS
 10
213.25000
 20
28.49500
 30
 0
 40
0.50000
 50
180.00000
 51
270.00000
  0
LINE
  8
Contour
 62
   7
 39
0.100
  6
CONTINUOUS
 10
213.25000
 20
27.99500
 30
 0
 11
240.00000
 21
27.99500
  0
ARC
  8
Contour
 62
   7
 39
0.100
  6
CONTINUOUS
 10
240.00000
 20
28.49500
 30
 0
 40
0.50000
 50
270.00000
 51
360.00000
  0
LINE
  8
Contour
 62
   7
 39
0.100
  6
CONTINUOUS
 10
240.50000
 20
28.49500
 30
 0
 11
240.50000
 21
55.49500
  0
ARC
  8
Contour
 62
   7
 39
0.100
  6
CONTINUOUS
 10
240.00000
 20
55.49500
 30
 0
 40
0.50000
 50
0.00000
 51
90.00000
  0
LINE
  8
Contour
 62
   7
 39
0.100
  6
CONTINUOUS
 10
240.00000
 20
55.99500
 30
 0
 11
213.25000
 21
55.99500
  0
ARC
  8
Contour
 62
   7
 39
0.100
  6
CONTINUOUS
 10
213.25000
 20
55.49500
 30
 0
 40
0.50000
 50
90.00000
 51
180.00000
  0
LINE
  8
Contour
 62
   7
 39
0.100
  6
CONTINUOUS
 10
212.75000
 20
55.49500
 30
 0
 11
212.75000
 21
28.49500
  0
ARC
  8
Contour
 62
   7
 39
0.100
  6
CONTINUOUS
 10
213.25000
 20
56.49500
 30
 0
 40
0.50000
 50
180.00000
 51
270.00000
  0
LINE
  8
Contour
 62
   7
 39
0.100
  6
CONTINUOUS
 10
213.25000
 20
55.99500
 30
 0
 11
240.00000
 21
55.99500
  0
ARC
  8
Contour
 62
   7
 39
0.100
  6
CONTINUOUS
 10
240.00000
 20
56.49500
 30
 0
 40
0.50000
 50
270.00000
 51
360.00000
  0
LINE
  8
Contour
 62
   7
 39
0.100
  6
CONTINUOUS
 10
240.50000
 20
56.49500
 30
 0
 11
240.50000
 21
83.49500
  0
ARC
  8
Contour
 62
   7
 39
0.100
  6
CONTINUOUS
 10
240.00000
 20
83.49500
 30
 0
 40
0.50000
 50
0.00000
 51
90.00000
  0
LINE
  8
Contour
 62
   7
 39
0.100
  6
CONTINUOUS
 10
240.00000
 20
83.99500
 30
 0
 11
213.25000
 21
83.99500
  0
ARC
  8
Contour
 62
   7
 39
0.100
  6
CONTINUOUS
 10
213.25000
 20
83.49500
 30
 0
 40
0.50000
 50
90.00000
 51
180.00000
  0
LINE
  8
Contour
 62
   7
 39
0.100
  6
CONTINUOUS
 10
212.75000
 20
83.49500
 30
 0
 11
212.75000
 21
56.49500
  0
ARC
  8
Contour
 62
   7
 39
0.100
  6
CONTINUOUS
 10
185.49100
 20
0.49500
 30
 0
 40
0.50000
 50
180.00000
 51
270.00000
  0
LINE
  8
Contour
 62
   7
 39
0.100
  6
CONTINUOUS
 10
185.49100
 20
-0.00500
 30
 0
 11
212.24100
 21
-0.00500
  0
ARC
  8
Contour
 62
   7
 39
0.100
  6
CONTINUOUS
 10
212.24100
 20
0.49500
 30
 0
 40
0.50000
 50
270.00000
 51
360.00000
  0
LINE
  8
Contour
 62
   7
 39
0.100
  6
CONTINUOUS
 10
212.74100
 20
0.49500
 30
 0
 11
212.74100
 21
27.49500
  0
ARC
  8
Contour
 62
   7
 39
0.100
  6
CONTINUOUS
 10
212.24100
 20
27.49500
 30
 0
 40
0.50000
 50
0.00000
 51
90.00000
  0
LINE
  8
Contour
 62
   7
 39
0.100
  6
CONTINUOUS
 10
212.24100
 20
27.99500
 30
 0
 11
185.49100
 21
27.99500
  0
ARC
  8
Contour
 62
   7
 39
0.100
  6
CONTINUOUS
 10
185.49100
 20
27.49500
 30
 0
 40
0.50000
 50
90.00000
 51
180.00000
  0
LINE
  8
Contour
 62
   7
 39
0.100
  6
CONTINUOUS
 10
184.99100
 20
27.49500
 30
 0
 11
184.99100
 21
0.49500
  0
ARC
  8
Contour
 62
   7
 39
0.100
  6
CONTINUOUS
 10
185.49100
 20
28.49500
 30
 0
 40
0.50000
 50
180.00000
 51
270.00000
  0
LINE
  8
Contour
 62
   7
 39
0.100
  6
CONTINUOUS
 10
185.49100
 20
27.99500
 30
 0
 11
212.24100
 21
27.99500
  0
ARC
  8
Contour
 62
   7
 39
0.100
  6
CONTINUOUS
 10
212.24100
 20
28.49500
 30
 0
 40
0.50000
 50
270.00000
 51
360.00000
  0
LINE
  8
Contour
 62
   7
 39
0.100
  6
CONTINUOUS
 10
212.74100
 20
28.49500
 30
 0
 11
212.74100
 21
55.49500
  0
ARC
  8
Contour
 62
   7
 39
0.100
  6
CONTINUOUS
 10
212.24100
 20
55.49500
 30
 0
 40
0.50000
 50
0.00000
 51
90.00000
  0
LINE
  8
Contour
 62
   7
 39
0.100
  6
CONTINUOUS
 10
212.24100
 20
55.99500
 30
 0
 11
185.49100
 21
55.99500
  0
ARC
  8
Contour
 62
   7
 39
0.100
  6
CONTINUOUS
 10
185.49100
 20
55.49500
 30
 0
 40
0.50000
 50
90.00000
 51
180.00000
  0
LINE
  8
Contour
 62
   7
 39
0.100
  6
CONTINUOUS
 10
184.99100
 20
55.49500
 30
 0
 11
184.99100
 21
28.49500
  0
ARC
  8
Contour
 62
   7
 39
0.100
  6
CONTINUOUS
 10
185.49100
 20
56.49500
 30
 0
 40
0.50000
 50
180.00000
 51
270.00000
  0
LINE
  8
Contour
 62
   7
 39
0.100
  6
CONTINUOUS
 10
185.49100
 20
55.99500
 30
 0
 11
212.24100
 21
55.99500
  0
ARC
  8
Contour
 62
   7
 39
0.100
  6
CONTINUOUS
 10
212.24100
 20
56.49500
 30
 0
 40
0.50000
 50
270.00000
 51
360.00000
  0
LINE
  8
Contour
 62
   7
 39
0.100
  6
CONTINUOUS
 10
212.74100
 20
56.49500
 30
 0
 11
212.74100
 21
83.49500
  0
ARC
  8
Contour
 62
   7
 39
0.100
  6
CONTINUOUS
 10
212.24100
 20
83.49500
 30
 0
 40
0.50000
 50
0.00000
 51
90.00000
  0
LINE
  8
Contour
 62
   7
 39
0.100
  6
CONTINUOUS
 10
212.24100
 20
83.99500
 30
 0
 11
185.49100
 21
83.99500
  0
ARC
  8
Contour
 62
   7
 39
0.100
  6
CONTINUOUS
 10
185.49100
 20
83.49500
 30
 0
 40
0.50000
 50
90.00000
 51
180.00000
  0
LINE
  8
Contour
 62
   7
 39
0.100
  6
CONTINUOUS
 10
184.99100
 20
83.49500
 30
 0
 11
184.99100
 21
56.49500
  0
ARC
  8
Contour
 62
   7
 39
0.100
  6
CONTINUOUS
 10
83.75000
 20
0.49500
 30
 0
 40
0.50000
 50
180.00000
 51
270.00000
  0
LINE
  8
Contour
 62
   7
 39
0.100
  6
CONTINUOUS
 10
83.75000
 20
-0.00500
 30
 0
 11
110.50000
 21
-0.00500
  0
ARC
  8
Contour
 62
   7
 39
0.100
  6
CONTINUOUS
 10
110.50000
 20
0.49500
 30
 0
 40
0.50000
 50
270.00000
 51
360.00000
  0
LINE
  8
Contour
 62
   7
 39
0.100
  6
CONTINUOUS
 10
111.00000
 20
0.49500
 30
 0
 11
111.00000
 21
27.49500
  0
ARC
  8
Contour
 62
   7
 39
0.100
  6
CONTINUOUS
 10
110.50000
 20
27.49500
 30
 0
 40
0.50000
 50
0.00000
 51
90.00000
  0
LINE
  8
Contour
 62
   7
 39
0.100
  6
CONTINUOUS
 10
110.50000
 20
27.99500
 30
 0
 11
83.75000
 21
27.99500
  0
ARC
  8
Contour
 62
   7
 39
0.100
  6
CONTINUOUS
 10
83.75000
 20
27.49500
 30
 0
 40
0.50000
 50
90.00000
 51
180.00000
  0
LINE
  8
Contour
 62
   7
 39
0.100
  6
CONTINUOUS
 10
83.25000
 20
27.49500
 30
 0
 11
83.25000
 21
0.49500
  0
ARC
  8
Contour
 62
   7
 39
0.100
  6
CONTINUOUS
 10
83.75000
 20
28.49500
 30
 0
 40
0.50000
 50
180.00000
 51
270.00000
  0
LINE
  8
Contour
 62
   7
 39
0.100
  6
CONTINUOUS
 10
83.75000
 20
27.99500
 30
 0
 11
110.50000
 21
27.99500
  0
ARC
  8
Contour
 62
   7
 39
0.100
  6
CONTINUOUS
 10
110.50000
 20
28.49500
 30
 0
 40
0.50000
 50
270.00000
 51
360.00000
  0
LINE
  8
Contour
 62
   7
 39
0.100
  6
CONTINUOUS
 10
111.00000
 20
28.49500
 30
 0
 11
111.00000
 21
55.49500
  0
ARC
  8
Contour
 62
   7
 39
0.100
  6
CONTINUOUS
 10
110.50000
 20
55.49500
 30
 0
 40
0.50000
 50
0.00000
 51
90.00000
  0
LINE
  8
Contour
 62
   7
 39
0.100
  6
CONTINUOUS
 10
110.50000
 20
55.99500
 30
 0
 11
83.75000
 21
55.99500
  0
ARC
  8
Contour
 62
   7
 39
0.100
  6
CONTINUOUS
 10
83.75000
 20
55.49500
 30
 0
 40
0.50000
 50
90.00000
 51
180.00000
  0
LINE
  8
Contour
 62
   7
 39
0.100
  6
CONTINUOUS
 10
83.25000
 20
55.49500
 30
 0
 11
83.25000
 21
28.49500
  0
ARC
  8
Contour
 62
   7
 39
0.100
  6
CONTINUOUS
 10
83.75000
 20
56.49500
 30
 0
 40
0.50000
 50
180.00000
 51
270.00000
  0
LINE
  8
Contour
 62
   7
 39
0.100
  6
CONTINUOUS
 10
83.75000
 20
55.99500
 30
 0
 11
110.50000
 21
55.99500
  0
ARC
  8
Contour
 62
   7
 39
0.100
  6
CONTINUOUS
 10
110.50000
 20
56.49500
 30
 0
 40
0.50000
 50
270.00000
 51
360.00000
  0
LINE
  8
Contour
 62
   7
 39
0.100
  6
CONTINUOUS
 10
111.00000
 20
56.49500
 30
 0
 11
111.00000
 21
83.49500
  0
ARC
  8
Contour
 62
   7
 39
0.100
  6
CONTINUOUS
 10
110.50000
 20
83.49500
 30
 0
 40
0.50000
 50
0.00000
 51
90.00000
  0
LINE
  8
Contour
 62
   7
 39
0.100
  6
CONTINUOUS
 10
110.50000
 20
83.99500
 30
 0
 11
83.75000
 21
83.99500
  0
ARC
  8
Contour
 62
   7
 39
0.100
  6
CONTINUOUS
 10
83.75000
 20
83.49500
 30
 0
 40
0.50000
 50
90.00000
 51
180.00000
  0
LINE
  8
Contour
 62
   7
 39
0.100
  6
CONTINUOUS
 10
83.25000
 20
83.49500
 30
 0
 11
83.25000
 21
56.49500
  0
ARC
  8
Contour
 62
   7
 39
0.100
  6
CONTINUOUS
 10
55.99100
 20
0.49500
 30
 0
 40
0.50000
 50
180.00000
 51
270.00000
  0
LINE
  8
Contour
 62
   7
 39
0.100
  6
CONTINUOUS
 10
55.99100
 20
-0.00500
 30
 0
 11
82.74100
 21
-0.00500
  0
ARC
  8
Contour
 62
   7
 39
0.100
  6
CONTINUOUS
 10
82.74100
 20
0.49500
 30
 0
 40
0.50000
 50
270.00000
 51
360.00000
  0
LINE
  8
Contour
 62
   7
 39
0.100
  6
CONTINUOUS
 10
83.24100
 20
0.49500
 30
 0
 11
83.24100
 21
27.49500
  0
ARC
  8
Contour
 62
   7
 39
0.100
  6
CONTINUOUS
 10
82.74100
 20
27.49500
 30
 0
 40
0.50000
 50
0.00000
 51
90.00000
  0
LINE
  8
Contour
 62
   7
 39
0.100
  6
CONTINUOUS
 10
82.74100
 20
27.99500
 30
 0
 11
55.99100
 21
27.99500
  0
ARC
  8
Contour
 62
   7
 39
0.100
  6
CONTINUOUS
 10
55.99100
 20
27.49500
 30
 0
 40
0.50000
 50
90.00000
 51
180.00000
  0
LINE
  8
Contour
 62
   7
 39
0.100
  6
CONTINUOUS
 10
55.49100
 20
27.49500
 30
 0
 11
55.49100
 21
0.49500
  0
ARC
  8
Contour
 62
   7
 39
0.100
  6
CONTINUOUS
 10
55.99100
 20
28.49500
 30
 0
 40
0.50000
 50
180.00000
 51
270.00000
  0
LINE
  8
Contour
 62
   7
 39
0.100
  6
CONTINUOUS
 10
55.99100
 20
27.99500
 30
 0
 11
82.74100
 21
27.99500
  0
ARC
  8
Contour
 62
   7
 39
0.100
  6
CONTINUOUS
 10
82.74100
 20
28.49500
 30
 0
 40
0.50000
 50
270.00000
 51
360.00000
  0
LINE
  8
Contour
 62
   7
 39
0.100
  6
CONTINUOUS
 10
83.24100
 20
28.49500
 30
 0
 11
83.24100
 21
55.49500
  0
ARC
  8
Contour
 62
   7
 39
0.100
  6
CONTINUOUS
 10
82.74100
 20
55.49500
 30
 0
 40
0.50000
 50
0.00000
 51
90.00000
  0
LINE
  8
Contour
 62
   7
 39
0.100
  6
CONTINUOUS
 10
82.74100
 20
55.99500
 30
 0
 11
55.99100
 21
55.99500
  0
ARC
  8
Contour
 62
   7
 39
0.100
  6
CONTINUOUS
 10
55.99100
 20
55.49500
 30
 0
 40
0.50000
 50
90.00000
 51
180.00000
  0
LINE
  8
Contour
 62
   7
 39
0.100
  6
CONTINUOUS
 10
55.49100
 20
55.49500
 30
 0
 11
55.49100
 21
28.49500
  0
ARC
  8
Contour
 62
   7
 39
0.100
  6
CONTINUOUS
 10
55.99100
 20
56.49500
 30
 0
 40
0.50000
 50
180.00000
 51
270.00000
  0
LINE
  8
Contour
 62
   7
 39
0.100
  6
CONTINUOUS
 10
55.99100
 20
55.99500
 30
 0
 11
82.74100
 21
55.99500
  0
ARC
  8
Contour
 62
   7
 39
0.100
  6
CONTINUOUS
 10
82.74100
 20
56.49500
 30
 0
 40
0.50000
 50
270.00000
 51
360.00000
  0
LINE
  8
Contour
 62
   7
 39
0.100
  6
CONTINUOUS
 10
83.24100
 20
56.49500
 30
 0
 11
83.24100
 21
83.49500
  0
ARC
  8
Contour
 62
   7
 39
0.100
  6
CONTINUOUS
 10
82.74100
 20
83.49500
 30
 0
 40
0.50000
 50
0.00000
 51
90.00000
  0
LINE
  8
Contour
 62
   7
 39
0.100
  6
CONTINUOUS
 10
82.74100
 20
83.99500
 30
 0
 11
55.99100
 21
83.99500
  0
ARC
  8
Contour
 62
   7
 39
0.100
  6
CONTINUOUS
 10
55.99100
 20
83.49500
 30
 0
 40
0.50000
 50
90.00000
 51
180.00000
  0
LINE
  8
Contour
 62
   7
 39
0.100
  6
CONTINUOUS
 10
55.49100
 20
83.49500
 30
 0
 11
55.49100
 21
56.49500
  0
ARC
  8
Contour
 62
   7
 39
0.100
  6
CONTINUOUS
 10
28.25000
 20
0.49500
 30
 0
 40
0.50000
 50
180.00000
 51
270.00000
  0
LINE
  8
Contour
 62
   7
 39
0.100
  6
CONTINUOUS
 10
28.25000
 20
-0.00500
 30
 0
 11
55.00000
 21
-0.00500
  0
ARC
  8
Contour
 62
   7
 39
0.100
  6
CONTINUOUS
 10
55.00000
 20
0.49500
 30
 0
 40
0.50000
 50
270.00000
 51
360.00000
  0
LINE
  8
Contour
 62
   7
 39
0.100
  6
CONTINUOUS
 10
55.50000
 20
0.49500
 30
 0
 11
55.50000
 21
27.49500
  0
ARC
  8
Contour
 62
   7
 39
0.100
  6
CONTINUOUS
 10
55.00000
 20
27.49500
 30
 0
 40
0.50000
 50
0.00000
 51
90.00000
  0
LINE
  8
Contour
 62
   7
 39
0.100
  6
CONTINUOUS
 10
55.00000
 20
27.99500
 30
 0
 11
28.25000
 21
27.99500
  0
ARC
  8
Contour
 62
   7
 39
0.100
  6
CONTINUOUS
 10
28.25000
 20
27.49500
 30
 0
 40
0.50000
 50
90.00000
 51
180.00000
  0
LINE
  8
Contour
 62
   7
 39
0.100
  6
CONTINUOUS
 10
27.75000
 20
27.49500
 30
 0
 11
27.75000
 21
0.49500
  0
ARC
  8
Contour
 62
   7
 39
0.100
  6
CONTINUOUS
 10
28.25000
 20
28.49500
 30
 0
 40
0.50000
 50
180.00000
 51
270.00000
  0
LINE
  8
Contour
 62
   7
 39
0.100
  6
CONTINUOUS
 10
28.25000
 20
27.99500
 30
 0
 11
55.00000
 21
27.99500
  0
ARC
  8
Contour
 62
   7
 39
0.100
  6
CONTINUOUS
 10
55.00000
 20
28.49500
 30
 0
 40
0.50000
 50
270.00000
 51
360.00000
  0
LINE
  8
Contour
 62
   7
 39
0.100
  6
CONTINUOUS
 10
55.50000
 20
28.49500
 30
 0
 11
55.50000
 21
55.49500
  0
ARC
  8
Contour
 62
   7
 39
0.100
  6
CONTINUOUS
 10
55.00000
 20
55.49500
 30
 0
 40
0.50000
 50
0.00000
 51
90.00000
  0
LINE
  8
Contour
 62
   7
 39
0.100
  6
CONTINUOUS
 10
55.00000
 20
55.99500
 30
 0
 11
28.25000
 21
55.99500
  0
ARC
  8
Contour
 62
   7
 39
0.100
  6
CONTINUOUS
 10
28.25000
 20
55.49500
 30
 0
 40
0.50000
 50
90.00000
 51
180.00000
  0
LINE
  8
Contour
 62
   7
 39
0.100
  6
CONTINUOUS
 10
27.75000
 20
55.49500
 30
 0
 11
27.75000
 21
28.49500
  0
ARC
  8
Contour
 62
   7
 39
0.100
  6
CONTINUOUS
 10
28.25000
 20
56.49500
 30
 0
 40
0.50000
 50
180.00000
 51
270.00000
  0
LINE
  8
Contour
 62
   7
 39
0.100
  6
CONTINUOUS
 10
28.25000
 20
55.99500
 30
 0
 11
55.00000
 21
55.99500
  0
ARC
  8
Contour
 62
   7
 39
0.100
  6
CONTINUOUS
 10
55.00000
 20
56.49500
 30
 0
 40
0.50000
 50
270.00000
 51
360.00000
  0
LINE
  8
Contour
 62
   7
 39
0.100
  6
CONTINUOUS
 10
55.50000
 20
56.49500
 30
 0
 11
55.50000
 21
83.49500
  0
ARC
  8
Contour
 62
   7
 39
0.100
  6
CONTINUOUS
 10
55.00000
 20
83.49500
 30
 0
 40
0.50000
 50
0.00000
 51
90.00000
  0
LINE
  8
Contour
 62
   7
 39
0.100
  6
CONTINUOUS
 10
55.00000
 20
83.99500
 30
 0
 11
28.25000
 21
83.99500
  0
ARC
  8
Contour
 62
   7
 39
0.100
  6
CONTINUOUS
 10
28.25000
 20
83.49500
 30
 0
 40
0.50000
 50
90.00000
 51
180.00000
  0
LINE
  8
Contour
 62
   7
 39
0.100
  6
CONTINUOUS
 10
27.75000
 20
83.49500
 30
 0
 11
27.75000
 21
56.49500
  0
ARC
  8
Contour
 62
   7
 39
0.100
  6
CONTINUOUS
 10
0.49100
 20
0.49500
 30
 0
 40
0.50000
 50
180.00000
 51
270.00000
  0
LINE
  8
Contour
 62
   7
 39
0.100
  6
CONTINUOUS
 10
0.49100
 20
-0.00500
 30
 0
 11
27.24100
 21
-0.00500
  0
ARC
  8
Contour
 62
   7
 39
0.100
  6
CONTINUOUS
 10
27.24100
 20
0.49500
 30
 0
 40
0.50000
 50
270.00000
 51
360.00000
  0
LINE
  8
Contour
 62
   7
 39
0.100
  6
CONTINUOUS
 10
27.74100
 20
0.49500
 30
 0
 11
27.74100
 21
27.49500
  0
ARC
  8
Contour
 62
   7
 39
0.100
  6
CONTINUOUS
 10
27.24100
 20
27.49500
 30
 0
 40
0.50000
 50
0.00000
 51
90.00000
  0
LINE
  8
Contour
 62
   7
 39
0.100
  6
CONTINUOUS
 10
27.24100
 20
27.99500
 30
 0
 11
0.49100
 21
27.99500
  0
ARC
  8
Contour
 62
   7
 39
0.100
  6
CONTINUOUS
 10
0.49100
 20
27.49500
 30
 0
 40
0.50000
 50
90.00000
 51
180.00000
  0
LINE
  8
Contour
 62
   7
 39
0.100
  6
CONTINUOUS
 10
-0.00900
 20
27.49500
 30
 0
 11
-0.00900
 21
0.49500
  0
ARC
  8
Contour
 62
   7
 39
0.100
  6
CONTINUOUS
 10
0.49100
 20
28.49500
 30
 0
 40
0.50000
 50
180.00000
 51
270.00000
  0
LINE
  8
Contour
 62
   7
 39
0.100
  6
CONTINUOUS
 10
0.49100
 20
27.99500
 30
 0
 11
27.24100
 21
27.99500
  0
ARC
  8
Contour
 62
   7
 39
0.100
  6
CONTINUOUS
 10
27.24100
 20
28.49500
 30
 0
 40
0.50000
 50
270.00000
 51
360.00000
  0
LINE
  8
Contour
 62
   7
 39
0.100
  6
CONTINUOUS
 10
27.74100
 20
28.49500
 30
 0
 11
27.74100
 21
55.49500
  0
ARC
  8
Contour
 62
   7
 39
0.100
  6
CONTINUOUS
 10
27.24100
 20
55.49500
 30
 0
 40
0.50000
 50
0.00000
 51
90.00000
  0
LINE
  8
Contour
 62
   7
 39
0.100
  6
CONTINUOUS
 10
27.24100
 20
55.99500
 30
 0
 11
0.49100
 21
55.99500
  0
ARC
  8
Contour
 62
   7
 39
0.100
  6
CONTINUOUS
 10
0.49100
 20
55.49500
 30
 0
 40
0.50000
 50
90.00000
 51
180.00000
  0
LINE
  8
Contour
 62
   7
 39
0.100
  6
CONTINUOUS
 10
-0.00900
 20
55.49500
 30
 0
 11
-0.00900
 21
28.49500
  0
ARC
  8
Contour
 62
   7
 39
0.100
  6
CONTINUOUS
 10
0.49100
 20
56.49500
 30
 0
 40
0.50000
 50
180.00000
 51
270.00000
  0
LINE
  8
Contour
 62
   7
 39
0.100
  6
CONTINUOUS
 10
0.49100
 20
55.99500
 30
 0
 11
27.24100
 21
55.99500
  0
ARC
  8
Contour
 62
   7
 39
0.100
  6
CONTINUOUS
 10
27.24100
 20
56.49500
 30
 0
 40
0.50000
 50
270.00000
 51
360.00000
  0
LINE
  8
Contour
 62
   7
 39
0.100
  6
CONTINUOUS
 10
27.74100
 20
56.49500
 30
 0
 11
27.74100
 21
83.49500
  0
ARC
  8
Contour
 62
   7
 39
0.100
  6
CONTINUOUS
 10
27.24100
 20
83.49500
 30
 0
 40
0.50000
 50
0.00000
 51
90.00000
  0
LINE
  8
Contour
 62
   7
 39
0.100
  6
CONTINUOUS
 10
27.24100
 20
83.99500
 30
 0
 11
0.49100
 21
83.99500
  0
ARC
  8
Contour
 62
   7
 39
0.100
  6
CONTINUOUS
 10
0.49100
 20
83.49500
 30
 0
 40
0.50000
 50
90.00000
 51
180.00000
  0
LINE
  8
Contour
 62
   7
 39
0.100
  6
CONTINUOUS
 10
-0.00900
 20
83.49500
 30
 0
 11
-0.00900
 21
56.49500
  0
ARC
  8
Contour
 62
   7
 39
0.100
  6
CONTINUOUS
 10
28.25000
 20
105.99500
 30
 0
 40
0.50000
 50
180.00000
 51
270.00000
  0
LINE
  8
Contour
 62
   7
 39
0.100
  6
CONTINUOUS
 10
28.25000
 20
105.49500
 30
 0
 11
55.00000
 21
105.49500
  0
ARC
  8
Contour
 62
   7
 39
0.100
  6
CONTINUOUS
 10
55.00000
 20
105.99500
 30
 0
 40
0.50000
 50
270.00000
 51
360.00000
  0
LINE
  8
Contour
 62
   7
 39
0.100
  6
CONTINUOUS
 10
55.50000
 20
105.99500
 30
 0
 11
55.50000
 21
132.99500
  0
ARC
  8
Contour
 62
   7
 39
0.100
  6
CONTINUOUS
 10
55.00000
 20
132.99500
 30
 0
 40
0.50000
 50
0.00000
 51
90.00000
  0
LINE
  8
Contour
 62
   7
 39
0.100
  6
CONTINUOUS
 10
55.00000
 20
133.49500
 30
 0
 11
28.25000
 21
133.49500
  0
ARC
  8
Contour
 62
   7
 39
0.100
  6
CONTINUOUS
 10
28.25000
 20
132.99500
 30
 0
 40
0.50000
 50
90.00000
 51
180.00000
  0
LINE
  8
Contour
 62
   7
 39
0.100
  6
CONTINUOUS
 10
27.75000
 20
132.99500
 30
 0
 11
27.75000
 21
105.99500
  0
ARC
  8
Contour
 62
   7
 39
0.100
  6
CONTINUOUS
 10
0.49100
 20
105.99500
 30
 0
 40
0.50000
 50
180.00000
 51
270.00000
  0
LINE
  8
Contour
 62
   7
 39
0.100
  6
CONTINUOUS
 10
0.49100
 20
105.49500
 30
 0
 11
27.24100
 21
105.49500
  0
ARC
  8
Contour
 62
   7
 39
0.100
  6
CONTINUOUS
 10
27.24100
 20
105.99500
 30
 0
 40
0.50000
 50
270.00000
 51
360.00000
  0
LINE
  8
Contour
 62
   7
 39
0.100
  6
CONTINUOUS
 10
27.74100
 20
105.99500
 30
 0
 11
27.74100
 21
132.99500
  0
ARC
  8
Contour
 62
   7
 39
0.100
  6
CONTINUOUS
 10
27.24100
 20
132.99500
 30
 0
 40
0.50000
 50
0.00000
 51
90.00000
  0
LINE
  8
Contour
 62
   7
 39
0.100
  6
CONTINUOUS
 10
27.24100
 20
133.49500
 30
 0
 11
0.49100
 21
133.49500
  0
ARC
  8
Contour
 62
   7
 39
0.100
  6
CONTINUOUS
 10
0.49100
 20
132.99500
 30
 0
 40
0.50000
 50
90.00000
 51
180.00000
  0
LINE
  8
Contour
 62
   7
 39
0.100
  6
CONTINUOUS
 10
-0.00900
 20
132.99500
 30
 0
 11
-0.00900
 21
105.99500
  0
ARC
  8
Contour
 62
   7
 39
0.100
  6
CONTINUOUS
 10
135.98600
 20
112.56300
 30
 0
 40
0.50000
 50
180.00000
 51
270.00000
  0
LINE
  8
Contour
 62
   7
 39
0.100
  6
CONTINUOUS
 10
135.98600
 20
112.06300
 30
 0
 11
159.98600
 21
112.06300
  0
ARC
  8
Contour
 62
   7
 39
0.100
  6
CONTINUOUS
 10
159.98600
 20
112.56300
 30
 0
 40
0.50000
 50
270.00000
 51
360.00000
  0
LINE
  8
Contour
 62
   7
 39
0.100
  6
CONTINUOUS
 10
160.48600
 20
112.56300
 30
 0
 11
160.48600
 21
188.56300
  0
ARC
  8
Contour
 62
   7
 39
0.100
  6
CONTINUOUS
 10
159.98600
 20
188.56300
 30
 0
 40
0.50000
 50
0.00000
 51
90.00000
  0
LINE
  8
Contour
 62
   7
 39
0.100
  6
CONTINUOUS
 10
159.98600
 20
189.06300
 30
 0
 11
135.98600
 21
189.06300
  0
ARC
  8
Contour
 62
   7
 39
0.100
  6
CONTINUOUS
 10
135.98600
 20
188.56300
 30
 0
 40
0.50000
 50
90.00000
 51
180.00000
  0
LINE
  8
Contour
 62
   7
 39
0.100
  6
CONTINUOUS
 10
135.48600
 20
188.56300
 30
 0
 11
135.48600
 21
112.56300
  0
ARC
  8
Contour
 62
   7
 39
0.100
  6
CONTINUOUS
 10
161.48600
 20
112.56300
 30
 0
 40
0.50000
 50
180.00000
 51
270.00000
  0
LINE
  8
Contour
 62
   7
 39
0.100
  6
CONTINUOUS
 10
161.48600
 20
112.06300
 30
 0
 11
185.48600
 21
112.06300
  0
ARC
  8
Contour
 62
   7
 39
0.100
  6
CONTINUOUS
 10
185.48600
 20
112.56300
 30
 0
 40
0.50000
 50
270.00000
 51
360.00000
  0
LINE
  8
Contour
 62
   7
 39
0.100
  6
CONTINUOUS
 10
185.98600
 20
112.56300
 30
 0
 11
185.98600
 21
188.56300
  0
ARC
  8
Contour
 62
   7
 39
0.100
  6
CONTINUOUS
 10
185.48600
 20
188.56300
 30
 0
 40
0.50000
 50
0.00000
 51
90.00000
  0
LINE
  8
Contour
 62
   7
 39
0.100
  6
CONTINUOUS
 10
185.48600
 20
189.06300
 30
 0
 11
161.48600
 21
189.06300
  0
ARC
  8
Contour
 62
   7
 39
0.100
  6
CONTINUOUS
 10
161.48600
 20
188.56300
 30
 0
 40
0.50000
 50
90.00000
 51
180.00000
  0
LINE
  8
Contour
 62
   7
 39
0.100
  6
CONTINUOUS
 10
160.98600
 20
188.56300
 30
 0
 11
160.98600
 21
112.56300
  0
ARC
  8
Contour
 62
   7
 39
0.100
  6
CONTINUOUS
 10
83.75000
 20
168.49500
 30
 0
 40
0.50000
 50
180.00000
 51
270.00000
  0
LINE
  8
Contour
 62
   7
 39
0.100
  6
CONTINUOUS
 10
83.75000
 20
167.99500
 30
 0
 11
110.50000
 21
167.99500
  0
ARC
  8
Contour
 62
   7
 39
0.100
  6
CONTINUOUS
 10
110.50000
 20
168.49500
 30
 0
 40
0.50000
 50
270.00000
 51
360.00000
  0
LINE
  8
Contour
 62
   7
 39
0.100
  6
CONTINUOUS
 10
111.00000
 20
168.49500
 30
 0
 11
111.00000
 21
195.49500
  0
ARC
  8
Contour
 62
   7
 39
0.100
  6
CONTINUOUS
 10
110.50000
 20
195.49500
 30
 0
 40
0.50000
 50
0.00000
 51
90.00000
  0
LINE
  8
Contour
 62
   7
 39
0.100
  6
CONTINUOUS
 10
110.50000
 20
195.99500
 30
 0
 11
83.75000
 21
195.99500
  0
ARC
  8
Contour
 62
   7
 39
0.100
  6
CONTINUOUS
 10
83.75000
 20
195.49500
 30
 0
 40
0.50000
 50
90.00000
 51
180.00000
  0
LINE
  8
Contour
 62
   7
 39
0.100
  6
CONTINUOUS
 10
83.25000
 20
195.49500
 30
 0
 11
83.25000
 21
168.49500
  0
ARC
  8
Contour
 62
   7
 39
0.100
  6
CONTINUOUS
 10
55.99100
 20
168.49500
 30
 0
 40
0.50000
 50
180.00000
 51
270.00000
  0
LINE
  8
Contour
 62
   7
 39
0.100
  6
CONTINUOUS
 10
55.99100
 20
167.99500
 30
 0
 11
82.74100
 21
167.99500
  0
ARC
  8
Contour
 62
   7
 39
0.100
  6
CONTINUOUS
 10
82.74100
 20
168.49500
 30
 0
 40
0.50000
 50
270.00000
 51
360.00000
  0
LINE
  8
Contour
 62
   7
 39
0.100
  6
CONTINUOUS
 10
83.24100
 20
168.49500
 30
 0
 11
83.24100
 21
195.49500
  0
ARC
  8
Contour
 62
   7
 39
0.100
  6
CONTINUOUS
 10
82.74100
 20
195.49500
 30
 0
 40
0.50000
 50
0.00000
 51
90.00000
  0
LINE
  8
Contour
 62
   7
 39
0.100
  6
CONTINUOUS
 10
82.74100
 20
195.99500
 30
 0
 11
55.99100
 21
195.99500
  0
ARC
  8
Contour
 62
   7
 39
0.100
  6
CONTINUOUS
 10
55.99100
 20
195.49500
 30
 0
 40
0.50000
 50
90.00000
 51
180.00000
  0
LINE
  8
Contour
 62
   7
 39
0.100
  6
CONTINUOUS
 10
55.49100
 20
195.49500
 30
 0
 11
55.49100
 21
168.49500
  0
ARC
  8
Contour
 62
   7
 39
0.100
  6
CONTINUOUS
 10
28.25000
 20
168.49500
 30
 0
 40
0.50000
 50
180.00000
 51
270.00000
  0
LINE
  8
Contour
 62
   7
 39
0.100
  6
CONTINUOUS
 10
28.25000
 20
167.99500
 30
 0
 11
55.00000
 21
167.99500
  0
ARC
  8
Contour
 62
   7
 39
0.100
  6
CONTINUOUS
 10
55.00000
 20
168.49500
 30
 0
 40
0.50000
 50
270.00000
 51
360.00000
  0
LINE
  8
Contour
 62
   7
 39
0.100
  6
CONTINUOUS
 10
55.50000
 20
168.49500
 30
 0
 11
55.50000
 21
195.49500
  0
ARC
  8
Contour
 62
   7
 39
0.100
  6
CONTINUOUS
 10
55.00000
 20
195.49500
 30
 0
 40
0.50000
 50
0.00000
 51
90.00000
  0
LINE
  8
Contour
 62
   7
 39
0.100
  6
CONTINUOUS
 10
55.00000
 20
195.99500
 30
 0
 11
28.25000
 21
195.99500
  0
ARC
  8
Contour
 62
   7
 39
0.100
  6
CONTINUOUS
 10
28.25000
 20
195.49500
 30
 0
 40
0.50000
 50
90.00000
 51
180.00000
  0
LINE
  8
Contour
 62
   7
 39
0.100
  6
CONTINUOUS
 10
27.75000
 20
195.49500
 30
 0
 11
27.75000
 21
168.49500
  0
ARC
  8
Contour
 62
   7
 39
0.100
  6
CONTINUOUS
 10
0.49100
 20
168.49500
 30
 0
 40
0.50000
 50
180.00000
 51
270.00000
  0
LINE
  8
Contour
 62
   7
 39
0.100
  6
CONTINUOUS
 10
0.49100
 20
167.99500
 30
 0
 11
27.24100
 21
167.99500
  0
ARC
  8
Contour
 62
   7
 39
0.100
  6
CONTINUOUS
 10
27.24100
 20
168.49500
 30
 0
 40
0.50000
 50
270.00000
 51
360.00000
  0
LINE
  8
Contour
 62
   7
 39
0.100
  6
CONTINUOUS
 10
27.74100
 20
168.49500
 30
 0
 11
27.74100
 21
195.49500
  0
ARC
  8
Contour
 62
   7
 39
0.100
  6
CONTINUOUS
 10
27.24100
 20
195.49500
 30
 0
 40
0.50000
 50
0.00000
 51
90.00000
  0
LINE
  8
Contour
 62
   7
 39
0.100
  6
CONTINUOUS
 10
27.24100
 20
195.99500
 30
 0
 11
0.49100
 21
195.99500
  0
ARC
  8
Contour
 62
   7
 39
0.100
  6
CONTINUOUS
 10
0.49100
 20
195.49500
 30
 0
 40
0.50000
 50
90.00000
 51
180.00000
  0
LINE
  8
Contour
 62
   7
 39
0.100
  6
CONTINUOUS
 10
-0.00900
 20
195.49500
 30
 0
 11
-0.00900
 21
168.49500
  0
ARC
  8
Contour
 62
   7
 39
0.100
  6
CONTINUOUS
 10
56.00400
 20
85.75000
 30
 0
 40
0.50000
 50
180.00000
 51
270.00000
  0
LINE
  8
Contour
 62
   7
 39
0.100
  6
CONTINUOUS
 10
56.00400
 20
85.25000
 30
 0
 11
73.50400
 21
85.25000
  0
ARC
  8
Contour
 62
   7
 39
0.100
  6
CONTINUOUS
 10
73.50400
 20
85.75000
 30
 0
 40
0.50000
 50
270.00000
 51
360.00000
  0
LINE
  8
Contour
 62
   7
 39
0.100
  6
CONTINUOUS
 10
74.00400
 20
85.75000
 30
 0
 11
74.00400
 21
103.25000
  0
ARC
  8
Contour
 62
   7
 39
0.100
  6
CONTINUOUS
 10
73.50400
 20
103.25000
 30
 0
 40
0.50000
 50
0.00000
 51
90.00000
  0
LINE
  8
Contour
 62
   7
 39
0.100
  6
CONTINUOUS
 10
73.50400
 20
103.75000
 30
 0
 11
56.00400
 21
103.75000
  0
ARC
  8
Contour
 62
   7
 39
0.100
  6
CONTINUOUS
 10
56.00400
 20
103.25000
 30
 0
 40
0.50000
 50
90.00000
 51
180.00000
  0
LINE
  8
Contour
 62
   7
 39
0.100
  6
CONTINUOUS
 10
55.50400
 20
103.25000
 30
 0
 11
55.50400
 21
85.75000
  0
ARC
  8
Contour
 62
   7
 39
0.100
  6
CONTINUOUS
 10
37.50400
 20
85.75000
 30
 0
 40
0.50000
 50
180.00000
 51
270.00000
  0
LINE
  8
Contour
 62
   7
 39
0.100
  6
CONTINUOUS
 10
37.50400
 20
85.25000
 30
 0
 11
55.00400
 21
85.25000
  0
ARC
  8
Contour
 62
   7
 39
0.100
  6
CONTINUOUS
 10
55.00400
 20
85.75000
 30
 0
 40
0.50000
 50
270.00000
 51
360.00000
  0
LINE
  8
Contour
 62
   7
 39
0.100
  6
CONTINUOUS
 10
55.50400
 20
85.75000
 30
 0
 11
55.50400
 21
103.25000
  0
ARC
  8
Contour
 62
   7
 39
0.100
  6
CONTINUOUS
 10
55.00400
 20
103.25000
 30
 0
 40
0.50000
 50
0.00000
 51
90.00000
  0
LINE
  8
Contour
 62
   7
 39
0.100
  6
CONTINUOUS
 10
55.00400
 20
103.75000
 30
 0
 11
37.50400
 21
103.75000
  0
ARC
  8
Contour
 62
   7
 39
0.100
  6
CONTINUOUS
 10
37.50400
 20
103.25000
 30
 0
 40
0.50000
 50
90.00000
 51
180.00000
  0
LINE
  8
Contour
 62
   7
 39
0.100
  6
CONTINUOUS
 10
37.00400
 20
103.25000
 30
 0
 11
37.00400
 21
85.75000
  0
ARC
  8
Contour
 62
   7
 39
0.100
  6
CONTINUOUS
 10
19.00400
 20
85.75000
 30
 0
 40
0.50000
 50
180.00000
 51
270.00000
  0
LINE
  8
Contour
 62
   7
 39
0.100
  6
CONTINUOUS
 10
19.00400
 20
85.25000
 30
 0
 11
36.50400
 21
85.25000
  0
ARC
  8
Contour
 62
   7
 39
0.100
  6
CONTINUOUS
 10
36.50400
 20
85.75000
 30
 0
 40
0.50000
 50
270.00000
 51
360.00000
  0
LINE
  8
Contour
 62
   7
 39
0.100
  6
CONTINUOUS
 10
37.00400
 20
85.75000
 30
 0
 11
37.00400
 21
103.25000
  0
ARC
  8
Contour
 62
   7
 39
0.100
  6
CONTINUOUS
 10
36.50400
 20
103.25000
 30
 0
 40
0.50000
 50
0.00000
 51
90.00000
  0
LINE
  8
Contour
 62
   7
 39
0.100
  6
CONTINUOUS
 10
36.50400
 20
103.75000
 30
 0
 11
19.00400
 21
103.75000
  0
ARC
  8
Contour
 62
   7
 39
0.100
  6
CONTINUOUS
 10
19.00400
 20
103.25000
 30
 0
 40
0.50000
 50
90.00000
 51
180.00000
  0
LINE
  8
Contour
 62
   7
 39
0.100
  6
CONTINUOUS
 10
18.50400
 20
103.25000
 30
 0
 11
18.50400
 21
85.75000
  0
ARC
  8
Contour
 62
   7
 39
0.100
  6
CONTINUOUS
 10
0.50400
 20
85.75000
 30
 0
 40
0.50000
 50
180.00000
 51
270.00000
  0
LINE
  8
Contour
 62
   7
 39
0.100
  6
CONTINUOUS
 10
0.50400
 20
85.25000
 30
 0
 11
18.00400
 21
85.25000
  0
ARC
  8
Contour
 62
   7
 39
0.100
  6
CONTINUOUS
 10
18.00400
 20
85.75000
 30
 0
 40
0.50000
 50
270.00000
 51
360.00000
  0
LINE
  8
Contour
 62
   7
 39
0.100
  6
CONTINUOUS
 10
18.50400
 20
85.75000
 30
 0
 11
18.50400
 21
103.25000
  0
ARC
  8
Contour
 62
   7
 39
0.100
  6
CONTINUOUS
 10
18.00400
 20
103.25000
 30
 0
 40
0.50000
 50
0.00000
 51
90.00000
  0
LINE
  8
Contour
 62
   7
 39
0.100
  6
CONTINUOUS
 10
18.00400
 20
103.75000
 30
 0
 11
0.50400
 21
103.75000
  0
ARC
  8
Contour
 62
   7
 39
0.100
  6
CONTINUOUS
 10
0.50400
 20
103.25000
 30
 0
 40
0.50000
 50
90.00000
 51
180.00000
  0
LINE
  8
Contour
 62
   7
 39
0.100
  6
CONTINUOUS
 10
0.00400
 20
103.25000
 30
 0
 11
0.00400
 21
85.75000
  0
ARC
  8
Contour
 62
   7
 39
0.100
  6
CONTINUOUS
 10
213.25000
 20
168.49500
 30
 0
 40
0.50000
 50
180.00000
 51
270.00000
  0
LINE
  8
Contour
 62
   7
 39
0.100
  6
CONTINUOUS
 10
213.25000
 20
167.99500
 30
 0
 11
240.00000
 21
167.99500
  0
ARC
  8
Contour
 62
   7
 39
0.100
  6
CONTINUOUS
 10
240.00000
 20
168.49500
 30
 0
 40
0.50000
 50
270.00000
 51
360.00000
  0
LINE
  8
Contour
 62
   7
 39
0.100
  6
CONTINUOUS
 10
240.50000
 20
168.49500
 30
 0
 11
240.50000
 21
195.49500
  0
ARC
  8
Contour
 62
   7
 39
0.100
  6
CONTINUOUS
 10
240.00000
 20
195.49500
 30
 0
 40
0.50000
 50
0.00000
 51
90.00000
  0
LINE
  8
Contour
 62
   7
 39
0.100
  6
CONTINUOUS
 10
240.00000
 20
195.99500
 30
 0
 11
213.25000
 21
195.99500
  0
ARC
  8
Contour
 62
   7
 39
0.100
  6
CONTINUOUS
 10
213.25000
 20
195.49500
 30
 0
 40
0.50000
 50
90.00000
 51
180.00000
  0
LINE
  8
Contour
 62
   7
 39
0.100
  6
CONTINUOUS
 10
212.75000
 20
195.49500
 30
 0
 11
212.75000
 21
168.49500
  0
ARC
  8
Contour
 62
   7
 39
0.100
  6
CONTINUOUS
 10
185.49100
 20
168.49500
 30
 0
 40
0.50000
 50
180.00000
 51
270.00000
  0
LINE
  8
Contour
 62
   7
 39
0.100
  6
CONTINUOUS
 10
185.49100
 20
167.99500
 30
 0
 11
212.24100
 21
167.99500
  0
ARC
  8
Contour
 62
   7
 39
0.100
  6
CONTINUOUS
 10
212.24100
 20
168.49500
 30
 0
 40
0.50000
 50
270.00000
 51
360.00000
  0
LINE
  8
Contour
 62
   7
 39
0.100
  6
CONTINUOUS
 10
212.74100
 20
168.49500
 30
 0
 11
212.74100
 21
195.49500
  0
ARC
  8
Contour
 62
   7
 39
0.100
  6
CONTINUOUS
 10
212.24100
 20
195.49500
 30
 0
 40
0.50000
 50
0.00000
 51
90.00000
  0
LINE
  8
Contour
 62
   7
 39
0.100
  6
CONTINUOUS
 10
212.24100
 20
195.99500
 30
 0
 11
185.49100
 21
195.99500
  0
ARC
  8
Contour
 62
   7
 39
0.100
  6
CONTINUOUS
 10
185.49100
 20
195.49500
 30
 0
 40
0.50000
 50
90.00000
 51
180.00000
  0
LINE
  8
Contour
 62
   7
 39
0.100
  6
CONTINUOUS
 10
184.99100
 20
195.49500
 30
 0
 11
184.99100
 21
168.49500
  0
ARC
  8
Contour
 62
   7
 39
0.100
  6
CONTINUOUS
 10
268.75000
 20
168.49500
 30
 0
 40
0.50000
 50
180.00000
 51
270.00000
  0
LINE
  8
Contour
 62
   7
 39
0.100
  6
CONTINUOUS
 10
268.75000
 20
167.99500
 30
 0
 11
295.50000
 21
167.99500
  0
ARC
  8
Contour
 62
   7
 39
0.100
  6
CONTINUOUS
 10
295.50000
 20
168.49500
 30
 0
 40
0.50000
 50
270.00000
 51
360.00000
  0
LINE
  8
Contour
 62
   7
 39
0.100
  6
CONTINUOUS
 10
296.00000
 20
168.49500
 30
 0
 11
296.00000
 21
195.49500
  0
ARC
  8
Contour
 62
   7
 39
0.100
  6
CONTINUOUS
 10
295.50000
 20
195.49500
 30
 0
 40
0.50000
 50
0.00000
 51
90.00000
  0
LINE
  8
Contour
 62
   7
 39
0.100
  6
CONTINUOUS
 10
295.50000
 20
195.99500
 30
 0
 11
268.75000
 21
195.99500
  0
ARC
  8
Contour
 62
   7
 39
0.100
  6
CONTINUOUS
 10
268.75000
 20
195.49500
 30
 0
 40
0.50000
 50
90.00000
 51
180.00000
  0
LINE
  8
Contour
 62
   7
 39
0.100
  6
CONTINUOUS
 10
268.25000
 20
195.49500
 30
 0
 11
268.25000
 21
168.49500
  0
ARC
  8
Contour
 62
   7
 39
0.100
  6
CONTINUOUS
 10
240.99100
 20
168.49500
 30
 0
 40
0.50000
 50
180.00000
 51
270.00000
  0
LINE
  8
Contour
 62
   7
 39
0.100
  6
CONTINUOUS
 10
240.99100
 20
167.99500
 30
 0
 11
267.74100
 21
167.99500
  0
ARC
  8
Contour
 62
   7
 39
0.100
  6
CONTINUOUS
 10
267.74100
 20
168.49500
 30
 0
 40
0.50000
 50
270.00000
 51
360.00000
  0
LINE
  8
Contour
 62
   7
 39
0.100
  6
CONTINUOUS
 10
268.24100
 20
168.49500
 30
 0
 11
268.24100
 21
195.49500
  0
ARC
  8
Contour
 62
   7
 39
0.100
  6
CONTINUOUS
 10
267.74100
 20
195.49500
 30
 0
 40
0.50000
 50
0.00000
 51
90.00000
  0
LINE
  8
Contour
 62
   7
 39
0.100
  6
CONTINUOUS
 10
267.74100
 20
195.99500
 30
 0
 11
240.99100
 21
195.99500
  0
ARC
  8
Contour
 62
   7
 39
0.100
  6
CONTINUOUS
 10
240.99100
 20
195.49500
 30
 0
 40
0.50000
 50
90.00000
 51
180.00000
  0
LINE
  8
Contour
 62
   7
 39
0.100
  6
CONTINUOUS
 10
240.49100
 20
195.49500
 30
 0
 11
240.49100
 21
168.49500
  0
ARC
  8
Contour
 62
   7
 39
0.100
  6
CONTINUOUS
 10
268.75000
 20
105.99500
 30
 0
 40
0.50000
 50
180.00000
 51
270.00000
  0
LINE
  8
Contour
 62
   7
 39
0.100
  6
CONTINUOUS
 10
268.75000
 20
105.49500
 30
 0
 11
295.50000
 21
105.49500
  0
ARC
  8
Contour
 62
   7
 39
0.100
  6
CONTINUOUS
 10
295.50000
 20
105.99500
 30
 0
 40
0.50000
 50
270.00000
 51
360.00000
  0
LINE
  8
Contour
 62
   7
 39
0.100
  6
CONTINUOUS
 10
296.00000
 20
105.99500
 30
 0
 11
296.00000
 21
132.99500
  0
ARC
  8
Contour
 62
   7
 39
0.100
  6
CONTINUOUS
 10
295.50000
 20
132.99500
 30
 0
 40
0.50000
 50
0.00000
 51
90.00000
  0
LINE
  8
Contour
 62
   7
 39
0.100
  6
CONTINUOUS
 10
295.50000
 20
133.49500
 30
 0
 11
268.75000
 21
133.49500
  0
ARC
  8
Contour
 62
   7
 39
0.100
  6
CONTINUOUS
 10
268.75000
 20
132.99500
 30
 0
 40
0.50000
 50
90.00000
 51
180.00000
  0
LINE
  8
Contour
 62
   7
 39
0.100
  6
CONTINUOUS
 10
268.25000
 20
132.99500
 30
 0
 11
268.25000
 21
105.99500
  0
ARC
  8
Contour
 62
   7
 39
0.100
  6
CONTINUOUS
 10
240.99100
 20
105.99500
 30
 0
 40
0.50000
 50
180.00000
 51
270.00000
  0
LINE
  8
Contour
 62
   7
 39
0.100
  6
CONTINUOUS
 10
240.99100
 20
105.49500
 30
 0
 11
267.74100
 21
105.49500
  0
ARC
  8
Contour
 62
   7
 39
0.100
  6
CONTINUOUS
 10
267.74100
 20
105.99500
 30
 0
 40
0.50000
 50
270.00000
 51
360.00000
  0
LINE
  8
Contour
 62
   7
 39
0.100
  6
CONTINUOUS
 10
268.24100
 20
105.99500
 30
 0
 11
268.24100
 21
132.99500
  0
ARC
  8
Contour
 62
   7
 39
0.100
  6
CONTINUOUS
 10
267.74100
 20
132.99500
 30
 0
 40
0.50000
 50
0.00000
 51
90.00000
  0
LINE
  8
Contour
 62
   7
 39
0.100
  6
CONTINUOUS
 10
267.74100
 20
133.49500
 30
 0
 11
240.99100
 21
133.49500
  0
ARC
  8
Contour
 62
   7
 39
0.100
  6
CONTINUOUS
 10
240.99100
 20
132.99500
 30
 0
 40
0.50000
 50
90.00000
 51
180.00000
  0
LINE
  8
Contour
 62
   7
 39
0.100
  6
CONTINUOUS
 10
240.49100
 20
132.99500
 30
 0
 11
240.49100
 21
105.99500
  0
ARC
  8
Contour
 62
   7
 39
0.100
  6
CONTINUOUS
 10
176.78900
 20
4.85600
 30
 0
 40
2.50000
 50
0.00000
 51
90.00000
  0
LINE
  8
Contour
 62
   7
 39
0.100
  6
CONTINUOUS
 10
176.78900
 20
7.35600
 30
 0
 11
119.28900
 21
7.35600
  0
ARC
  8
Contour
 62
   7
 39
0.100
  6
CONTINUOUS
 10
119.28900
 20
4.85600
 30
 0
 40
2.50000
 50
90.00000
 51
180.00000
  0
LINE
  8
Contour
 62
   7
 39
0.100
  6
CONTINUOUS
 10
116.78900
 20
4.85600
 30
 0
 11
116.78900
 21
3.35600
  0
ARC
  8
Contour
 62
   7
 39
0.100
  6
CONTINUOUS
 10
119.28900
 20
3.35600
 30
 0
 40
2.50000
 50
180.00000
 51
270.00000
  0
LINE
  8
Contour
 62
   7
 39
0.100
  6
CONTINUOUS
 10
119.28900
 20
0.85600
 30
 0
 11
176.78900
 21
0.85600
  0
ARC
  8
Contour
 62
   7
 39
0.100
  6
CONTINUOUS
 10
176.78900
 20
3.35600
 30
 0
 40
2.50000
 50
270.00000
 51
360.00000
  0
LINE
  8
Contour
 62
   7
 39
0.100
  6
CONTINUOUS
 10
179.28900
 20
3.35600
 30
 0
 11
179.28900
 21
4.85600
  0
ARC
  8
Contour
 62
   7
 39
0.100
  6
CONTINUOUS
 10
176.78000
 20
81.00000
 30
 0
 40
2.50000
 50
0.00000
 51
90.00000
  0
LINE
  8
Contour
 62
   7
 39
0.100
  6
CONTINUOUS
 10
176.78000
 20
83.50000
 30
 0
 11
119.28000
 21
83.50000
  0
ARC
  8
Contour
 62
   7
 39
0.100
  6
CONTINUOUS
 10
119.28000
 20
81.00000
 30
 0
 40
2.50000
 50
90.00000
 51
180.00000
  0
LINE
  8
Contour
 62
   7
 39
0.100
  6
CONTINUOUS
 10
116.78000
 20
81.00000
 30
 0
 11
116.78000
 21
79.50000
  0
ARC
  8
Contour
 62
   7
 39
0.100
  6
CONTINUOUS
 10
119.28000
 20
79.50000
 30
 0
 40
2.50000
 50
180.00000
 51
270.00000
  0
LINE
  8
Contour
 62
   7
 39
0.100
  6
CONTINUOUS
 10
119.28000
 20
77.00000
 30
 0
 11
176.78000
 21
77.00000
  0
ARC
  8
Contour
 62
   7
 39
0.100
  6
CONTINUOUS
 10
176.78000
 20
79.50000
 30
 0
 40
2.50000
 50
270.00000
 51
360.00000
  0
LINE
  8
Contour
 62
   7
 39
0.100
  6
CONTINUOUS
 10
179.28000
 20
79.50000
 30
 0
 11
179.28000
 21
81.00000
  0
ARC
  8
Contour
 62
   7
 39
0.100
  6
CONTINUOUS
 10
274.83900
 20
141.31000
 30
 0
 40
0.50000
 50
180.00000
 51
270.00000
  0
LINE
  8
Contour
 62
   7
 39
0.100
  6
CONTINUOUS
 10
274.83900
 20
140.81000
 30
 0
 11
289.43900
 21
140.81000
  0
ARC
  8
Contour
 62
   7
 39
0.100
  6
CONTINUOUS
 10
289.43900
 20
141.31000
 30
 0
 40
0.50000
 50
270.00000
 51
360.00000
  0
LINE
  8
Contour
 62
   7
 39
0.100
  6
CONTINUOUS
 10
289.93900
 20
141.31000
 30
 0
 11
289.93900
 21
159.71000
  0
ARC
  8
Contour
 62
   7
 39
0.100
  6
CONTINUOUS
 10
289.43900
 20
159.71000
 30
 0
 40
0.50000
 50
0.00000
 51
90.00000
  0
LINE
  8
Contour
 62
   7
 39
0.100
  6
CONTINUOUS
 10
289.43900
 20
160.21000
 30
 0
 11
274.83900
 21
160.21000
  0
ARC
  8
Contour
 62
   7
 39
0.100
  6
CONTINUOUS
 10
274.83900
 20
159.71000
 30
 0
 40
0.50000
 50
90.00000
 51
180.00000
  0
LINE
  8
Contour
 62
   7
 39
0.100
  6
CONTINUOUS
 10
274.33900
 20
159.71000
 30
 0
 11
274.33900
 21
141.31000
  0
ARC
  8
Contour
 62
   7
 39
0.100
  6
CONTINUOUS
 10
247.13600
 20
141.30000
 30
 0
 40
0.50000
 50
180.00000
 51
270.00000
  0
LINE
  8
Contour
 62
   7
 39
0.100
  6
CONTINUOUS
 10
247.13600
 20
140.80000
 30
 0
 11
261.73600
 21
140.80000
  0
ARC
  8
Contour
 62
   7
 39
0.100
  6
CONTINUOUS
 10
261.73600
 20
141.30000
 30
 0
 40
0.50000
 50
270.00000
 51
360.00000
  0
LINE
  8
Contour
 62
   7
 39
0.100
  6
CONTINUOUS
 10
262.23600
 20
141.30000
 30
 0
 11
262.23600
 21
159.70000
  0
ARC
  8
Contour
 62
   7
 39
0.100
  6
CONTINUOUS
 10
261.73600
 20
159.70000
 30
 0
 40
0.50000
 50
0.00000
 51
90.00000
  0
LINE
  8
Contour
 62
   7
 39
0.100
  6
CONTINUOUS
 10
261.73600
 20
160.20000
 30
 0
 11
247.13600
 21
160.20000
  0
ARC
  8
Contour
 62
   7
 39
0.100
  6
CONTINUOUS
 10
247.13600
 20
159.70000
 30
 0
 40
0.50000
 50
90.00000
 51
180.00000
  0
LINE
  8
Contour
 62
   7
 39
0.100
  6
CONTINUOUS
 10
246.63600
 20
159.70000
 30
 0
 11
246.63600
 21
141.30000
  0
ARC
  8
Contour
 62
   7
 39
0.100
  6
CONTINUOUS
 10
219.33900
 20
141.29800
 30
 0
 40
0.50000
 50
180.00000
 51
270.00000
  0
LINE
  8
Contour
 62
   7
 39
0.100
  6
CONTINUOUS
 10
219.33900
 20
140.79800
 30
 0
 11
233.93900
 21
140.79800
  0
ARC
  8
Contour
 62
   7
 39
0.100
  6
CONTINUOUS
 10
233.93900
 20
141.29800
 30
 0
 40
0.50000
 50
270.00000
 51
360.00000
  0
LINE
  8
Contour
 62
   7
 39
0.100
  6
CONTINUOUS
 10
234.43900
 20
141.29800
 30
 0
 11
234.43900
 21
159.69800
  0
ARC
  8
Contour
 62
   7
 39
0.100
  6
CONTINUOUS
 10
233.93900
 20
159.69800
 30
 0
 40
0.50000
 50
0.00000
 51
90.00000
  0
LINE
  8
Contour
 62
   7
 39
0.100
  6
CONTINUOUS
 10
233.93900
 20
160.19800
 30
 0
 11
219.33900
 21
160.19800
  0
ARC
  8
Contour
 62
   7
 39
0.100
  6
CONTINUOUS
 10
219.33900
 20
159.69800
 30
 0
 40
0.50000
 50
90.00000
 51
180.00000
  0
LINE
  8
Contour
 62
   7
 39
0.100
  6
CONTINUOUS
 10
218.83900
 20
159.69800
 30
 0
 11
218.83900
 21
141.29800
  0
ARC
  8
Contour
 62
   7
 39
0.100
  6
CONTINUOUS
 10
191.63600
 20
141.28800
 30
 0
 40
0.50000
 50
180.00000
 51
270.00000
  0
LINE
  8
Contour
 62
   7
 39
0.100
  6
CONTINUOUS
 10
191.63600
 20
140.78800
 30
 0
 11
206.23600
 21
140.78800
  0
ARC
  8
Contour
 62
   7
 39
0.100
  6
CONTINUOUS
 10
206.23600
 20
141.28800
 30
 0
 40
0.50000
 50
270.00000
 51
360.00000
  0
LINE
  8
Contour
 62
   7
 39
0.100
  6
CONTINUOUS
 10
206.73600
 20
141.28800
 30
 0
 11
206.73600
 21
159.68800
  0
ARC
  8
Contour
 62
   7
 39
0.100
  6
CONTINUOUS
 10
206.23600
 20
159.68800
 30
 0
 40
0.50000
 50
0.00000
 51
90.00000
  0
LINE
  8
Contour
 62
   7
 39
0.100
  6
CONTINUOUS
 10
206.23600
 20
160.18800
 30
 0
 11
191.63600
 21
160.18800
  0
ARC
  8
Contour
 62
   7
 39
0.100
  6
CONTINUOUS
 10
191.63600
 20
159.68800
 30
 0
 40
0.50000
 50
90.00000
 51
180.00000
  0
LINE
  8
Contour
 62
   7
 39
0.100
  6
CONTINUOUS
 10
191.13600
 20
159.68800
 30
 0
 11
191.13600
 21
141.28800
  0
ARC
  8
Contour
 62
   7
 39
0.100
  6
CONTINUOUS
 10
89.64100
 20
141.29500
 30
 0
 40
0.50000
 50
180.00000
 51
270.00000
  0
LINE
  8
Contour
 62
   7
 39
0.100
  6
CONTINUOUS
 10
89.64100
 20
140.79500
 30
 0
 11
104.24100
 21
140.79500
  0
ARC
  8
Contour
 62
   7
 39
0.100
  6
CONTINUOUS
 10
104.24100
 20
141.29500
 30
 0
 40
0.50000
 50
270.00000
 51
360.00000
  0
LINE
  8
Contour
 62
   7
 39
0.100
  6
CONTINUOUS
 10
104.74100
 20
141.29500
 30
 0
 11
104.74100
 21
159.69500
  0
ARC
  8
Contour
 62
   7
 39
0.100
  6
CONTINUOUS
 10
104.24100
 20
159.69500
 30
 0
 40
0.50000
 50
0.00000
 51
90.00000
  0
LINE
  8
Contour
 62
   7
 39
0.100
  6
CONTINUOUS
 10
104.24100
 20
160.19500
 30
 0
 11
89.64100
 21
160.19500
  0
ARC
  8
Contour
 62
   7
 39
0.100
  6
CONTINUOUS
 10
89.64100
 20
159.69500
 30
 0
 40
0.50000
 50
90.00000
 51
180.00000
  0
LINE
  8
Contour
 62
   7
 39
0.100
  6
CONTINUOUS
 10
89.14100
 20
159.69500
 30
 0
 11
89.14100
 21
141.29500
  0
ARC
  8
Contour
 62
   7
 39
0.100
  6
CONTINUOUS
 10
61.93800
 20
141.28500
 30
 0
 40
0.50000
 50
180.00000
 51
270.00000
  0
LINE
  8
Contour
 62
   7
 39
0.100
  6
CONTINUOUS
 10
61.93800
 20
140.78500
 30
 0
 11
76.53800
 21
140.78500
  0
ARC
  8
Contour
 62
   7
 39
0.100
  6
CONTINUOUS
 10
76.53800
 20
141.28500
 30
 0
 40
0.50000
 50
270.00000
 51
360.00000
  0
LINE
  8
Contour
 62
   7
 39
0.100
  6
CONTINUOUS
 10
77.03800
 20
141.28500
 30
 0
 11
77.03800
 21
159.68500
  0
ARC
  8
Contour
 62
   7
 39
0.100
  6
CONTINUOUS
 10
76.53800
 20
159.68500
 30
 0
 40
0.50000
 50
0.00000
 51
90.00000
  0
LINE
  8
Contour
 62
   7
 39
0.100
  6
CONTINUOUS
 10
76.53800
 20
160.18500
 30
 0
 11
61.93800
 21
160.18500
  0
ARC
  8
Contour
 62
   7
 39
0.100
  6
CONTINUOUS
 10
61.93800
 20
159.68500
 30
 0
 40
0.50000
 50
90.00000
 51
180.00000
  0
LINE
  8
Contour
 62
   7
 39
0.100
  6
CONTINUOUS
 10
61.43800
 20
159.68500
 30
 0
 11
61.43800
 21
141.28500
  0
ARC
  8
Contour
 62
   7
 39
0.100
  6
CONTINUOUS
 10
34.14100
 20
141.28300
 30
 0
 40
0.50000
 50
180.00000
 51
270.00000
  0
LINE
  8
Contour
 62
   7
 39
0.100
  6
CONTINUOUS
 10
34.14100
 20
140.78300
 30
 0
 11
48.74100
 21
140.78300
  0
ARC
  8
Contour
 62
   7
 39
0.100
  6
CONTINUOUS
 10
48.74100
 20
141.28300
 30
 0
 40
0.50000
 50
270.00000
 51
360.00000
  0
LINE
  8
Contour
 62
   7
 39
0.100
  6
CONTINUOUS
 10
49.24100
 20
141.28300
 30
 0
 11
49.24100
 21
159.68300
  0
ARC
  8
Contour
 62
   7
 39
0.100
  6
CONTINUOUS
 10
48.74100
 20
159.68300
 30
 0
 40
0.50000
 50
0.00000
 51
90.00000
  0
LINE
  8
Contour
 62
   7
 39
0.100
  6
CONTINUOUS
 10
48.74100
 20
160.18300
 30
 0
 11
34.14100
 21
160.18300
  0
ARC
  8
Contour
 62
   7
 39
0.100
  6
CONTINUOUS
 10
34.14100
 20
159.68300
 30
 0
 40
0.50000
 50
90.00000
 51
180.00000
  0
LINE
  8
Contour
 62
   7
 39
0.100
  6
CONTINUOUS
 10
33.64100
 20
159.68300
 30
 0
 11
33.64100
 21
141.28300
  0
ARC
  8
Contour
 62
   7
 39
0.100
  6
CONTINUOUS
 10
6.43800
 20
141.27300
 30
 0
 40
0.50000
 50
180.00000
 51
270.00000
  0
LINE
  8
Contour
 62
   7
 39
0.100
  6
CONTINUOUS
 10
6.43800
 20
140.77300
 30
 0
 11
21.03800
 21
140.77300
  0
ARC
  8
Contour
 62
   7
 39
0.100
  6
CONTINUOUS
 10
21.03800
 20
141.27300
 30
 0
 40
0.50000
 50
270.00000
 51
360.00000
  0
LINE
  8
Contour
 62
   7
 39
0.100
  6
CONTINUOUS
 10
21.53800
 20
141.27300
 30
 0
 11
21.53800
 21
159.67300
  0
ARC
  8
Contour
 62
   7
 39
0.100
  6
CONTINUOUS
 10
21.03800
 20
159.67300
 30
 0
 40
0.50000
 50
0.00000
 51
90.00000
  0
LINE
  8
Contour
 62
   7
 39
0.100
  6
CONTINUOUS
 10
21.03800
 20
160.17300
 30
 0
 11
6.43800
 21
160.17300
  0
ARC
  8
Contour
 62
   7
 39
0.100
  6
CONTINUOUS
 10
6.43800
 20
159.67300
 30
 0
 40
0.50000
 50
90.00000
 51
180.00000
  0
LINE
  8
Contour
 62
   7
 39
0.100
  6
CONTINUOUS
 10
5.93800
 20
159.67300
 30
 0
 11
5.93800
 21
141.27300
  0
ARC
  8
Contour
 62
   7
 39
0.100
  6
CONTINUOUS
 10
187.19400
 20
107.79400
 30
 0
 40
1.00000
 50
180.00000
 51
270.00000
  0
LINE
  8
Contour
 62
   7
 39
0.100
  6
CONTINUOUS
 10
187.19400
 20
106.79400
 30
 0
 11
210.59400
 21
106.79400
  0
ARC
  8
Contour
 62
   7
 39
0.100
  6
CONTINUOUS
 10
210.59400
 20
107.79400
 30
 0
 40
1.00000
 50
270.00000
 51
360.00000
  0
LINE
  8
Contour
 62
   7
 39
0.100
  6
CONTINUOUS
 10
211.59400
 20
107.79400
 30
 0
 11
211.59400
 21
131.19400
  0
ARC
  8
Contour
 62
   7
 39
0.100
  6
CONTINUOUS
 10
210.59400
 20
131.19400
 30
 0
 40
1.00000
 50
0.00000
 51
90.00000
  0
LINE
  8
Contour
 62
   7
 39
0.100
  6
CONTINUOUS
 10
210.59400
 20
132.19400
 30
 0
 11
187.19400
 21
132.19400
  0
ARC
  8
Contour
 62
   7
 39
0.100
  6
CONTINUOUS
 10
187.19400
 20
131.19400
 30
 0
 40
1.00000
 50
90.00000
 51
180.00000
  0
LINE
  8
Contour
 62
   7
 39
0.100
  6
CONTINUOUS
 10
186.19400
 20
131.19400
 30
 0
 11
186.19400
 21
107.79400
  0
ARC
  8
Contour
 62
   7
 39
0.100
  6
CONTINUOUS
 10
214.99600
 20
107.81500
 30
 0
 40
1.00000
 50
180.00000
 51
270.00000
  0
LINE
  8
Contour
 62
   7
 39
0.100
  6
CONTINUOUS
 10
214.99600
 20
106.81500
 30
 0
 11
238.39600
 21
106.81500
  0
ARC
  8
Contour
 62
   7
 39
0.100
  6
CONTINUOUS
 10
238.39600
 20
107.81500
 30
 0
 40
1.00000
 50
270.00000
 51
360.00000
  0
LINE
  8
Contour
 62
   7
 39
0.100
  6
CONTINUOUS
 10
239.39600
 20
107.81500
 30
 0
 11
239.39600
 21
131.21500
  0
ARC
  8
Contour
 62
   7
 39
0.100
  6
CONTINUOUS
 10
238.39600
 20
131.21500
 30
 0
 40
1.00000
 50
0.00000
 51
90.00000
  0
LINE
  8
Contour
 62
   7
 39
0.100
  6
CONTINUOUS
 10
238.39600
 20
132.21500
 30
 0
 11
214.99600
 21
132.21500
  0
ARC
  8
Contour
 62
   7
 39
0.100
  6
CONTINUOUS
 10
214.99600
 20
131.21500
 30
 0
 40
1.00000
 50
90.00000
 51
180.00000
  0
LINE
  8
Contour
 62
   7
 39
0.100
  6
CONTINUOUS
 10
213.99600
 20
131.21500
 30
 0
 11
213.99600
 21
107.81500
  0
ARC
  8
Contour
 62
   7
 39
0.100
  6
CONTINUOUS
 10
57.61300
 20
107.79800
 30
 0
 40
1.00000
 50
180.00000
 51
270.00000
  0
LINE
  8
Contour
 62
   7
 39
0.100
  6
CONTINUOUS
 10
57.61300
 20
106.79800
 30
 0
 11
81.01300
 21
106.79800
  0
ARC
  8
Contour
 62
   7
 39
0.100
  6
CONTINUOUS
 10
81.01300
 20
107.79800
 30
 0
 40
1.00000
 50
270.00000
 51
360.00000
  0
LINE
  8
Contour
 62
   7
 39
0.100
  6
CONTINUOUS
 10
82.01300
 20
107.79800
 30
 0
 11
82.01300
 21
131.19800
  0
ARC
  8
Contour
 62
   7
 39
0.100
  6
CONTINUOUS
 10
81.01300
 20
131.19800
 30
 0
 40
1.00000
 50
0.00000
 51
90.00000
  0
LINE
  8
Contour
 62
   7
 39
0.100
  6
CONTINUOUS
 10
81.01300
 20
132.19800
 30
 0
 11
57.61300
 21
132.19800
  0
ARC
  8
Contour
 62
   7
 39
0.100
  6
CONTINUOUS
 10
57.61300
 20
131.19800
 30
 0
 40
1.00000
 50
90.00000
 51
180.00000
  0
LINE
  8
Contour
 62
   7
 39
0.100
  6
CONTINUOUS
 10
56.61300
 20
131.19800
 30
 0
 11
56.61300
 21
107.79800
  0
ARC
  8
Contour
 62
   7
 39
0.100
  6
CONTINUOUS
 10
85.41500
 20
107.81900
 30
 0
 40
1.00000
 50
180.00000
 51
270.00000
  0
LINE
  8
Contour
 62
   7
 39
0.100
  6
CONTINUOUS
 10
85.41500
 20
106.81900
 30
 0
 11
108.81500
 21
106.81900
  0
ARC
  8
Contour
 62
   7
 39
0.100
  6
CONTINUOUS
 10
108.81500
 20
107.81900
 30
 0
 40
1.00000
 50
270.00000
 51
360.00000
  0
LINE
  8
Contour
 62
   7
 39
0.100
  6
CONTINUOUS
 10
109.81500
 20
107.81900
 30
 0
 11
109.81500
 21
131.21900
  0
ARC
  8
Contour
 62
   7
 39
0.100
  6
CONTINUOUS
 10
108.81500
 20
131.21900
 30
 0
 40
1.00000
 50
0.00000
 51
90.00000
  0
LINE
  8
Contour
 62
   7
 39
0.100
  6
CONTINUOUS
 10
108.81500
 20
132.21900
 30
 0
 11
85.41500
 21
132.21900
  0
ARC
  8
Contour
 62
   7
 39
0.100
  6
CONTINUOUS
 10
85.41500
 20
131.21900
 30
 0
 40
1.00000
 50
90.00000
 51
180.00000
  0
LINE
  8
Contour
 62
   7
 39
0.100
  6
CONTINUOUS
 10
84.41500
 20
131.21900
 30
 0
 11
84.41500
 21
107.81900
  0
ARC
  8
Contour
 62
   7
 39
0.100
  6
CONTINUOUS
 10
121.48600
 20
117.56300
 30
 0
 40
0.50000
 50
180.00000
 51
270.00000
  0
LINE
  8
Contour
 62
   7
 39
0.100
  6
CONTINUOUS
 10
121.48600
 20
117.06300
 30
 0
 11
123.48600
 21
117.06300
  0
ARC
  8
Contour
 62
   7
 39
0.100
  6
CONTINUOUS
 10
123.48600
 20
117.56300
 30
 0
 40
0.50000
 50
270.00000
 51
360.00000
  0
LINE
  8
Contour
 62
   7
 39
0.100
  6
CONTINUOUS
 10
123.98600
 20
117.56300
 30
 0
 11
123.98600
 21
183.56300
  0
ARC
  8
Contour
 62
   7
 39
0.100
  6
CONTINUOUS
 10
123.48600
 20
183.56300
 30
 0
 40
0.50000
 50
0.00000
 51
90.00000
  0
LINE
  8
Contour
 62
   7
 39
0.100
  6
CONTINUOUS
 10
123.48600
 20
184.06300
 30
 0
 11
121.48600
 21
184.06300
  0
ARC
  8
Contour
 62
   7
 39
0.100
  6
CONTINUOUS
 10
121.48600
 20
183.56300
 30
 0
 40
0.50000
 50
90.00000
 51
180.00000
  0
LINE
  8
Contour
 62
   7
 39
0.100
  6
CONTINUOUS
 10
120.98600
 20
183.56300
 30
 0
 11
120.98600
 21
117.56300
  0
CIRCLE
  8
Contour
 62
   7
 39
0.100
  6
CONTINUOUS
 10
286.75400
 20
94.50000
 30
 0
 40
6.00000
  0
CIRCLE
  8
Contour
 62
   7
 39
0.100
  6
CONTINUOUS
 10
268.25400
 20
94.50000
 30
 0
 40
6.00000
  0
CIRCLE
  8
Contour
 62
   7
 39
0.100
  6
CONTINUOUS
 10
249.75400
 20
94.50000
 30
 0
 40
6.00000
  0
CIRCLE
  8
Contour
 62
   7
 39
0.100
  6
CONTINUOUS
 10
231.25400
 20
94.50000
 30
 0
 40
6.00000
  0
CIRCLE
  8
Contour
 62
   7
 39
0.100
  6
CONTINUOUS
 10
212.75400
 20
94.50000
 30
 0
 40
6.00000
  0
CIRCLE
  8
Contour
 62
   7
 39
0.100
  6
CONTINUOUS
 10
194.25400
 20
94.50000
 30
 0
 40
6.00000
  0
CIRCLE
  8
Contour
 62
   7
 39
0.100
  6
CONTINUOUS
 10
175.75400
 20
94.50000
 30
 0
 40
6.00000
  0
CIRCLE
  8
Contour
 62
   7
 39
0.100
  6
CONTINUOUS
 10
157.25400
 20
94.50000
 30
 0
 40
6.00000
  0
CIRCLE
  8
Contour
 62
   7
 39
0.100
  6
CONTINUOUS
 10
138.75400
 20
94.50000
 30
 0
 40
6.00000
  0
CIRCLE
  8
Contour
 62
   7
 39
0.100
  6
CONTINUOUS
 10
120.25400
 20
94.50000
 30
 0
 40
6.00000
  0
CIRCLE
  8
Contour
 62
   7
 39
0.100
  6
CONTINUOUS
 10
101.75400
 20
94.50000
 30
 0
 40
6.00000
  0
CIRCLE
  8
Contour
 62
   7
 39
0.100
  6
CONTINUOUS
 10
83.25400
 20
94.50000
 30
 0
 40
6.00000
  0
CIRCLE
  8
Contour
 62
   7
 39
0.100
  6
CONTINUOUS
 10
282.12500
 20
13.99500
 30
 0
 40
9.50000
  0
CIRCLE
  8
Contour
 62
   7
 39
0.100
  6
CONTINUOUS
 10
282.12500
 20
41.99500
 30
 0
 40
9.50000
  0
CIRCLE
  8
Contour
 62
   7
 39
0.100
  6
CONTINUOUS
 10
282.12500
 20
69.99500
 30
 0
 40
9.50000
  0
CIRCLE
  8
Contour
 62
   7
 39
0.100
  6
CONTINUOUS
 10
254.36600
 20
13.99500
 30
 0
 40
9.50000
  0
CIRCLE
  8
Contour
 62
   7
 39
0.100
  6
CONTINUOUS
 10
254.36600
 20
41.99500
 30
 0
 40
9.50000
  0
CIRCLE
  8
Contour
 62
   7
 39
0.100
  6
CONTINUOUS
 10
254.36600
 20
69.99500
 30
 0
 40
9.50000
  0
CIRCLE
  8
Contour
 62
   7
 39
0.100
  6
CONTINUOUS
 10
226.62500
 20
13.99500
 30
 0
 40
9.50000
  0
CIRCLE
  8
Contour
 62
   7
 39
0.100
  6
CONTINUOUS
 10
226.62500
 20
41.99500
 30
 0
 40
9.50000
  0
CIRCLE
  8
Contour
 62
   7
 39
0.100
  6
CONTINUOUS
 10
226.62500
 20
69.99500
 30
 0
 40
9.50000
  0
CIRCLE
  8
Contour
 62
   7
 39
0.100
  6
CONTINUOUS
 10
198.86600
 20
13.99500
 30
 0
 40
9.50000
  0
CIRCLE
  8
Contour
 62
   7
 39
0.100
  6
CONTINUOUS
 10
198.86600
 20
41.99500
 30
 0
 40
9.50000
  0
CIRCLE
  8
Contour
 62
   7
 39
0.100
  6
CONTINUOUS
 10
198.86600
 20
69.99500
 30
 0
 40
9.50000
  0
CIRCLE
  8
Contour
 62
   7
 39
0.100
  6
CONTINUOUS
 10
97.12500
 20
13.99500
 30
 0
 40
9.50000
  0
CIRCLE
  8
Contour
 62
   7
 39
0.100
  6
CONTINUOUS
 10
97.12500
 20
41.99500
 30
 0
 40
9.50000
  0
CIRCLE
  8
Contour
 62
   7
 39
0.100
  6
CONTINUOUS
 10
97.12500
 20
69.99500
 30
 0
 40
9.50000
  0
CIRCLE
  8
Contour
 62
   7
 39
0.100
  6
CONTINUOUS
 10
69.36600
 20
13.99500
 30
 0
 40
9.50000
  0
CIRCLE
  8
Contour
 62
   7
 39
0.100
  6
CONTINUOUS
 10
69.36600
 20
41.99500
 30
 0
 40
9.50000
  0
CIRCLE
  8
Contour
 62
   7
 39
0.100
  6
CONTINUOUS
 10
69.36600
 20
69.99500
 30
 0
 40
9.50000
  0
CIRCLE
  8
Contour
 62
   7
 39
0.100
  6
CONTINUOUS
 10
41.62500
 20
13.99500
 30
 0
 40
9.50000
  0
CIRCLE
  8
Contour
 62
   7
 39
0.100
  6
CONTINUOUS
 10
41.62500
 20
41.99500
 30
 0
 40
9.50000
  0
CIRCLE
  8
Contour
 62
   7
 39
0.100
  6
CONTINUOUS
 10
41.62500
 20
69.99500
 30
 0
 40
9.50000
  0
CIRCLE
  8
Contour
 62
   7
 39
0.100
  6
CONTINUOUS
 10
13.86600
 20
13.99500
 30
 0
 40
9.50000
  0
CIRCLE
  8
Contour
 62
   7
 39
0.100
  6
CONTINUOUS
 10
13.86600
 20
41.99500
 30
 0
 40
9.50000
  0
CIRCLE
  8
Contour
 62
   7
 39
0.100
  6
CONTINUOUS
 10
13.86600
 20
69.99500
 30
 0
 40
9.50000
  0
CIRCLE
  8
Contour
 62
   7
 39
0.100
  6
CONTINUOUS
 10
41.62500
 20
119.49500
 30
 0
 40
9.50000
  0
CIRCLE
  8
Contour
 62
   7
 39
0.100
  6
CONTINUOUS
 10
13.86600
 20
119.49500
 30
 0
 40
9.50000
  0
ARC
  8
Contour
 62
   7
 39
0.100
  6
CONTINUOUS
 10
146.98600
 20
117.56300
 30
 0
 40
0.50000
 50
180.00000
 51
270.00000
  0
LINE
  8
Contour
 62
   7
 39
0.100
  6
CONTINUOUS
 10
146.98600
 20
117.06300
 30
 0
 11
148.98600
 21
117.06300
  0
ARC
  8
Contour
 62
   7
 39
0.100
  6
CONTINUOUS
 10
148.98600
 20
117.56300
 30
 0
 40
0.50000
 50
270.00000
 51
360.00000
  0
LINE
  8
Contour
 62
   7
 39
0.100
  6
CONTINUOUS
 10
149.48600
 20
117.56300
 30
 0
 11
149.48600
 21
183.56300
  0
ARC
  8
Contour
 62
   7
 39
0.100
  6
CONTINUOUS
 10
148.98600
 20
183.56300
 30
 0
 40
0.50000
 50
0.00000
 51
90.00000
  0
LINE
  8
Contour
 62
   7
 39
0.100
  6
CONTINUOUS
 10
148.98600
 20
184.06300
 30
 0
 11
146.98600
 21
184.06300
  0
ARC
  8
Contour
 62
   7
 39
0.100
  6
CONTINUOUS
 10
146.98600
 20
183.56300
 30
 0
 40
0.50000
 50
90.00000
 51
180.00000
  0
LINE
  8
Contour
 62
   7
 39
0.100
  6
CONTINUOUS
 10
146.48600
 20
183.56300
 30
 0
 11
146.48600
 21
117.56300
  0
ARC
  8
Contour
 62
   7
 39
0.100
  6
CONTINUOUS
 10
172.48600
 20
117.56300
 30
 0
 40
0.50000
 50
180.00000
 51
270.00000
  0
LINE
  8
Contour
 62
   7
 39
0.100
  6
CONTINUOUS
 10
172.48600
 20
117.06300
 30
 0
 11
174.48600
 21
117.06300
  0
ARC
  8
Contour
 62
   7
 39
0.100
  6
CONTINUOUS
 10
174.48600
 20
117.56300
 30
 0
 40
0.50000
 50
270.00000
 51
360.00000
  0
LINE
  8
Contour
 62
   7
 39
0.100
  6
CONTINUOUS
 10
174.98600
 20
117.56300
 30
 0
 11
174.98600
 21
183.56300
  0
ARC
  8
Contour
 62
   7
 39
0.100
  6
CONTINUOUS
 10
174.48600
 20
183.56300
 30
 0
 40
0.50000
 50
0.00000
 51
90.00000
  0
LINE
  8
Contour
 62
   7
 39
0.100
  6
CONTINUOUS
 10
174.48600
 20
184.06300
 30
 0
 11
172.48600
 21
184.06300
  0
ARC
  8
Contour
 62
   7
 39
0.100
  6
CONTINUOUS
 10
172.48600
 20
183.56300
 30
 0
 40
0.50000
 50
90.00000
 51
180.00000
  0
LINE
  8
Contour
 62
   7
 39
0.100
  6
CONTINUOUS
 10
171.98600
 20
183.56300
 30
 0
 11
171.98600
 21
117.56300
  0
CIRCLE
  8
Contour
 62
   7
 39
0.100
  6
CONTINUOUS
 10
97.12500
 20
181.99500
 30
 0
 40
8.00000
  0
CIRCLE
  8
Contour
 62
   7
 39
0.100
  6
CONTINUOUS
 10
69.36600
 20
181.99500
 30
 0
 40
8.00000
  0
CIRCLE
  8
Contour
 62
   7
 39
0.100
  6
CONTINUOUS
 10
41.62500
 20
181.99500
 30
 0
 40
8.00000
  0
CIRCLE
  8
Contour
 62
   7
 39
0.100
  6
CONTINUOUS
 10
13.86600
 20
181.99500
 30
 0
 40
8.00000
  0
CIRCLE
  8
Contour
 62
   7
 39
0.100
  6
CONTINUOUS
 10
64.75400
 20
94.50000
 30
 0
 40
6.00000
  0
CIRCLE
  8
Contour
 62
   7
 39
0.100
  6
CONTINUOUS
 10
46.25400
 20
94.50000
 30
 0
 40
6.00000
  0
CIRCLE
  8
Contour
 62
   7
 39
0.100
  6
CONTINUOUS
 10
27.75400
 20
94.50000
 30
 0
 40
6.00000
  0
CIRCLE
  8
Contour
 62
   7
 39
0.100
  6
CONTINUOUS
 10
9.25400
 20
94.50000
 30
 0
 40
6.00000
  0
CIRCLE
  8
Contour
 62
   7
 39
0.100
  6
CONTINUOUS
 10
282.12500
 20
119.49500
 30
 0
 40
9.50000
  0
CIRCLE
  8
Contour
 62
   7
 39
0.100
  6
CONTINUOUS
 10
254.36600
 20
119.49500
 30
 0
 40
9.50000
  0
CIRCLE
  8
Contour
 62
   7
 39
0.100
  6
CONTINUOUS
 10
226.62500
 20
181.99500
 30
 0
 40
8.00000
  0
CIRCLE
  8
Contour
 62
   7
 39
0.100
  6
CONTINUOUS
 10
198.86600
 20
181.99500
 30
 0
 40
8.00000
  0
CIRCLE
  8
Contour
 62
   7
 39
0.100
  6
CONTINUOUS
 10
282.12500
 20
181.99500
 30
 0
 40
8.00000
  0
CIRCLE
  8
Contour
 62
   7
 39
0.100
  6
CONTINUOUS
 10
254.36600
 20
181.99500
 30
 0
 40
8.00000
  0
ARC
  8
Contour
 62
   7
 39
0.100
  6
CONTINUOUS
 10
169.12800
 20
75.49900
 30
 0
 40
1.50000
 50
0.00000
 51
90.00000
  0
LINE
  8
Contour
 62
   7
 39
0.100
  6
CONTINUOUS
 10
169.12800
 20
76.99900
 30
 0
 11
126.92800
 21
76.99900
  0
ARC
  8
Contour
 62
   7
 39
0.100
  6
CONTINUOUS
 10
126.92800
 20
75.49900
 30
 0
 40
1.50000
 50
90.00000
 51
180.00000
  0
LINE
  8
Contour
 62
   7
 39
0.100
  6
CONTINUOUS
 10
125.42800
 20
75.49900
 30
 0
 11
125.42800
 21
8.89900
  0
ARC
  8
Contour
 62
   7
 39
0.100
  6
CONTINUOUS
 10
126.92800
 20
8.89900
 30
 0
 40
1.50000
 50
180.00000
 51
270.00000
  0
LINE
  8
Contour
 62
   7
 39
0.100
  6
CONTINUOUS
 10
126.92800
 20
7.39900
 30
 0
 11
169.12800
 21
7.39900
  0
ARC
  8
Contour
 62
   7
 39
0.100
  6
CONTINUOUS
 10
169.12800
 20
8.89900
 30
 0
 40
1.50000
 50
270.00000
 51
360.00000
  0
LINE
  8
Contour
 62
   7
 39
0.100
  6
CONTINUOUS
 10
170.62800
 20
8.89900
 30
 0
 11
170.62800
 21
75.49900
  0
ARC
  8
Contour
 62
   7
 39
0.100
  6
CONTINUOUS
 10
276.58900
 20
143.31000
 30
 0
 40
0.50000
 50
180.00000
 51
270.00000
  0
LINE
  8
Contour
 62
   7
 39
0.100
  6
CONTINUOUS
 10
276.58900
 20
142.81000
 30
 0
 11
287.68900
 21
142.81000
  0
ARC
  8
Contour
 62
   7
 39
0.100
  6
CONTINUOUS
 10
287.68900
 20
143.31000
 30
 0
 40
0.50000
 50
270.00000
 51
360.00000
  0
LINE
  8
Contour
 62
   7
 39
0.100
  6
CONTINUOUS
 10
288.18900
 20
143.31000
 30
 0
 11
288.18900
 21
157.71000
  0
ARC
  8
Contour
 62
   7
 39
0.100
  6
CONTINUOUS
 10
287.68900
 20
157.71000
 30
 0
 40
0.50000
 50
0.00000
 51
90.00000
  0
LINE
  8
Contour
 62
   7
 39
0.100
  6
CONTINUOUS
 10
287.68900
 20
158.21000
 30
 0
 11
276.58900
 21
158.21000
  0
ARC
  8
Contour
 62
   7
 39
0.100
  6
CONTINUOUS
 10
276.58900
 20
157.71000
 30
 0
 40
0.50000
 50
90.00000
 51
180.00000
  0
LINE
  8
Contour
 62
   7
 39
0.100
  6
CONTINUOUS
 10
276.08900
 20
157.71000
 30
 0
 11
276.08900
 21
143.31000
  0
ARC
  8
Contour
 62
   7
 39
0.100
  6
CONTINUOUS
 10
248.88600
 20
143.30000
 30
 0
 40
0.50000
 50
180.00000
 51
270.00000
  0
LINE
  8
Contour
 62
   7
 39
0.100
  6
CONTINUOUS
 10
248.88600
 20
142.80000
 30
 0
 11
259.98600
 21
142.80000
  0
ARC
  8
Contour
 62
   7
 39
0.100
  6
CONTINUOUS
 10
259.98600
 20
143.30000
 30
 0
 40
0.50000
 50
270.00000
 51
360.00000
  0
LINE
  8
Contour
 62
   7
 39
0.100
  6
CONTINUOUS
 10
260.48600
 20
143.30000
 30
 0
 11
260.48600
 21
157.70000
  0
ARC
  8
Contour
 62
   7
 39
0.100
  6
CONTINUOUS
 10
259.98600
 20
157.70000
 30
 0
 40
0.50000
 50
0.00000
 51
90.00000
  0
LINE
  8
Contour
 62
   7
 39
0.100
  6
CONTINUOUS
 10
259.98600
 20
158.20000
 30
 0
 11
248.88600
 21
158.20000
  0
ARC
  8
Contour
 62
   7
 39
0.100
  6
CONTINUOUS
 10
248.88600
 20
157.70000
 30
 0
 40
0.50000
 50
90.00000
 51
180.00000
  0
LINE
  8
Contour
 62
   7
 39
0.100
  6
CONTINUOUS
 10
248.38600
 20
157.70000
 30
 0
 11
248.38600
 21
143.30000
  0
ARC
  8
Contour
 62
   7
 39
0.100
  6
CONTINUOUS
 10
221.08900
 20
143.29800
 30
 0
 40
0.50000
 50
180.00000
 51
270.00000
  0
LINE
  8
Contour
 62
   7
 39
0.100
  6
CONTINUOUS
 10
221.08900
 20
142.79800
 30
 0
 11
232.18900
 21
142.79800
  0
ARC
  8
Contour
 62
   7
 39
0.100
  6
CONTINUOUS
 10
232.18900
 20
143.29800
 30
 0
 40
0.50000
 50
270.00000
 51
360.00000
  0
LINE
  8
Contour
 62
   7
 39
0.100
  6
CONTINUOUS
 10
232.68900
 20
143.29800
 30
 0
 11
232.68900
 21
157.69800
  0
ARC
  8
Contour
 62
   7
 39
0.100
  6
CONTINUOUS
 10
232.18900
 20
157.69800
 30
 0
 40
0.50000
 50
0.00000
 51
90.00000
  0
LINE
  8
Contour
 62
   7
 39
0.100
  6
CONTINUOUS
 10
232.18900
 20
158.19800
 30
 0
 11
221.08900
 21
158.19800
  0
ARC
  8
Contour
 62
   7
 39
0.100
  6
CONTINUOUS
 10
221.08900
 20
157.69800
 30
 0
 40
0.50000
 50
90.00000
 51
180.00000
  0
LINE
  8
Contour
 62
   7
 39
0.100
  6
CONTINUOUS
 10
220.58900
 20
157.69800
 30
 0
 11
220.58900
 21
143.29800
  0
ARC
  8
Contour
 62
   7
 39
0.100
  6
CONTINUOUS
 10
193.38600
 20
143.28800
 30
 0
 40
0.50000
 50
180.00000
 51
270.00000
  0
LINE
  8
Contour
 62
   7
 39
0.100
  6
CONTINUOUS
 10
193.38600
 20
142.78800
 30
 0
 11
204.48600
 21
142.78800
  0
ARC
  8
Contour
 62
   7
 39
0.100
  6
CONTINUOUS
 10
204.48600
 20
143.28800
 30
 0
 40
0.50000
 50
270.00000
 51
360.00000
  0
LINE
  8
Contour
 62
   7
 39
0.100
  6
CONTINUOUS
 10
204.98600
 20
143.28800
 30
 0
 11
204.98600
 21
157.68800
  0
ARC
  8
Contour
 62
   7
 39
0.100
  6
CONTINUOUS
 10
204.48600
 20
157.68800
 30
 0
 40
0.50000
 50
0.00000
 51
90.00000
  0
LINE
  8
Contour
 62
   7
 39
0.100
  6
CONTINUOUS
 10
204.48600
 20
158.18800
 30
 0
 11
193.38600
 21
158.18800
  0
ARC
  8
Contour
 62
   7
 39
0.100
  6
CONTINUOUS
 10
193.38600
 20
157.68800
 30
 0
 40
0.50000
 50
90.00000
 51
180.00000
  0
LINE
  8
Contour
 62
   7
 39
0.100
  6
CONTINUOUS
 10
192.88600
 20
157.68800
 30
 0
 11
192.88600
 21
143.28800
  0
ARC
  8
Contour
 62
   7
 39
0.100
  6
CONTINUOUS
 10
91.39100
 20
143.29500
 30
 0
 40
0.50000
 50
180.00000
 51
270.00000
  0
LINE
  8
Contour
 62
   7
 39
0.100
  6
CONTINUOUS
 10
91.39100
 20
142.79500
 30
 0
 11
102.49100
 21
142.79500
  0
ARC
  8
Contour
 62
   7
 39
0.100
  6
CONTINUOUS
 10
102.49100
 20
143.29500
 30
 0
 40
0.50000
 50
270.00000
 51
360.00000
  0
LINE
  8
Contour
 62
   7
 39
0.100
  6
CONTINUOUS
 10
102.99100
 20
143.29500
 30
 0
 11
102.99100
 21
157.69500
  0
ARC
  8
Contour
 62
   7
 39
0.100
  6
CONTINUOUS
 10
102.49100
 20
157.69500
 30
 0
 40
0.50000
 50
0.00000
 51
90.00000
  0
LINE
  8
Contour
 62
   7
 39
0.100
  6
CONTINUOUS
 10
102.49100
 20
158.19500
 30
 0
 11
91.39100
 21
158.19500
  0
ARC
  8
Contour
 62
   7
 39
0.100
  6
CONTINUOUS
 10
91.39100
 20
157.69500
 30
 0
 40
0.50000
 50
90.00000
 51
180.00000
  0
LINE
  8
Contour
 62
   7
 39
0.100
  6
CONTINUOUS
 10
90.89100
 20
157.69500
 30
 0
 11
90.89100
 21
143.29500
  0
ARC
  8
Contour
 62
   7
 39
0.100
  6
CONTINUOUS
 10
63.68800
 20
143.28500
 30
 0
 40
0.50000
 50
180.00000
 51
270.00000
  0
LINE
  8
Contour
 62
   7
 39
0.100
  6
CONTINUOUS
 10
63.68800
 20
142.78500
 30
 0
 11
74.78800
 21
142.78500
  0
ARC
  8
Contour
 62
   7
 39
0.100
  6
CONTINUOUS
 10
74.78800
 20
143.28500
 30
 0
 40
0.50000
 50
270.00000
 51
360.00000
  0
LINE
  8
Contour
 62
   7
 39
0.100
  6
CONTINUOUS
 10
75.28800
 20
143.28500
 30
 0
 11
75.28800
 21
157.68500
  0
ARC
  8
Contour
 62
   7
 39
0.100
  6
CONTINUOUS
 10
74.78800
 20
157.68500
 30
 0
 40
0.50000
 50
0.00000
 51
90.00000
  0
LINE
  8
Contour
 62
   7
 39
0.100
  6
CONTINUOUS
 10
74.78800
 20
158.18500
 30
 0
 11
63.68800
 21
158.18500
  0
ARC
  8
Contour
 62
   7
 39
0.100
  6
CONTINUOUS
 10
63.68800
 20
157.68500
 30
 0
 40
0.50000
 50
90.00000
 51
180.00000
  0
LINE
  8
Contour
 62
   7
 39
0.100
  6
CONTINUOUS
 10
63.18800
 20
157.68500
 30
 0
 11
63.18800
 21
143.28500
  0
ARC
  8
Contour
 62
   7
 39
0.100
  6
CONTINUOUS
 10
35.89100
 20
143.28300
 30
 0
 40
0.50000
 50
180.00000
 51
270.00000
  0
LINE
  8
Contour
 62
   7
 39
0.100
  6
CONTINUOUS
 10
35.89100
 20
142.78300
 30
 0
 11
46.99100
 21
142.78300
  0
ARC
  8
Contour
 62
   7
 39
0.100
  6
CONTINUOUS
 10
46.99100
 20
143.28300
 30
 0
 40
0.50000
 50
270.00000
 51
360.00000
  0
LINE
  8
Contour
 62
   7
 39
0.100
  6
CONTINUOUS
 10
47.49100
 20
143.28300
 30
 0
 11
47.49100
 21
157.68300
  0
ARC
  8
Contour
 62
   7
 39
0.100
  6
CONTINUOUS
 10
46.99100
 20
157.68300
 30
 0
 40
0.50000
 50
0.00000
 51
90.00000
  0
LINE
  8
Contour
 62
   7
 39
0.100
  6
CONTINUOUS
 10
46.99100
 20
158.18300
 30
 0
 11
35.89100
 21
158.18300
  0
ARC
  8
Contour
 62
   7
 39
0.100
  6
CONTINUOUS
 10
35.89100
 20
157.68300
 30
 0
 40
0.50000
 50
90.00000
 51
180.00000
  0
LINE
  8
Contour
 62
   7
 39
0.100
  6
CONTINUOUS
 10
35.39100
 20
157.68300
 30
 0
 11
35.39100
 21
143.28300
  0
ARC
  8
Contour
 62
   7
 39
0.100
  6
CONTINUOUS
 10
8.18800
 20
143.27300
 30
 0
 40
0.50000
 50
180.00000
 51
270.00000
  0
LINE
  8
Contour
 62
   7
 39
0.100
  6
CONTINUOUS
 10
8.18800
 20
142.77300
 30
 0
 11
19.28800
 21
142.77300
  0
ARC
  8
Contour
 62
   7
 39
0.100
  6
CONTINUOUS
 10
19.28800
 20
143.27300
 30
 0
 40
0.50000
 50
270.00000
 51
360.00000
  0
LINE
  8
Contour
 62
   7
 39
0.100
  6
CONTINUOUS
 10
19.78800
 20
143.27300
 30
 0
 11
19.78800
 21
157.67300
  0
ARC
  8
Contour
 62
   7
 39
0.100
  6
CONTINUOUS
 10
19.28800
 20
157.67300
 30
 0
 40
0.50000
 50
0.00000
 51
90.00000
  0
LINE
  8
Contour
 62
   7
 39
0.100
  6
CONTINUOUS
 10
19.28800
 20
158.17300
 30
 0
 11
8.18800
 21
158.17300
  0
ARC
  8
Contour
 62
   7
 39
0.100
  6
CONTINUOUS
 10
8.18800
 20
157.67300
 30
 0
 40
0.50000
 50
90.00000
 51
180.00000
  0
LINE
  8
Contour
 62
   7
 39
0.100
  6
CONTINUOUS
 10
7.68800
 20
157.67300
 30
 0
 11
7.68800
 21
143.27300
  0
CIRCLE
  8
Contour
 62
   7
 39
0.100
  6
CONTINUOUS
 10
198.89000
 20
119.50100
 30
 0
 40
3.50000
  0
CIRCLE
  8
Contour
 62
   7
 39
0.100
  6
CONTINUOUS
 10
209.04600
 20
129.66900
 30
 0
 40
1.25000
  0
CIRCLE
  8
Contour
 62
   7
 39
0.100
  6
CONTINUOUS
 10
188.71500
 20
129.66900
 30
 0
 40
1.25000
  0
CIRCLE
  8
Contour
 62
   7
 39
0.100
  6
CONTINUOUS
 10
188.71500
 20
109.34300
 30
 0
 40
1.25000
  0
CIRCLE
  8
Contour
 62
   7
 39
0.100
  6
CONTINUOUS
 10
209.04600
 20
109.34300
 30
 0
 40
1.25000
  0
CIRCLE
  8
Contour
 62
   7
 39
0.100
  6
CONTINUOUS
 10
198.87500
 20
109.33900
 30
 0
 40
2.25000
  0
CIRCLE
  8
Contour
 62
   7
 39
0.100
  6
CONTINUOUS
 10
226.69200
 20
119.52200
 30
 0
 40
3.50000
  0
CIRCLE
  8
Contour
 62
   7
 39
0.100
  6
CONTINUOUS
 10
236.84800
 20
129.69000
 30
 0
 40
1.25000
  0
CIRCLE
  8
Contour
 62
   7
 39
0.100
  6
CONTINUOUS
 10
216.51700
 20
129.69000
 30
 0
 40
1.25000
  0
CIRCLE
  8
Contour
 62
   7
 39
0.100
  6
CONTINUOUS
 10
216.51700
 20
109.36400
 30
 0
 40
1.25000
  0
CIRCLE
  8
Contour
 62
   7
 39
0.100
  6
CONTINUOUS
 10
236.84800
 20
109.36400
 30
 0
 40
1.25000
  0
CIRCLE
  8
Contour
 62
   7
 39
0.100
  6
CONTINUOUS
 10
226.67700
 20
109.36000
 30
 0
 40
2.25000
  0
CIRCLE
  8
Contour
 62
   7
 39
0.100
  6
CONTINUOUS
 10
69.30900
 20
119.50500
 30
 0
 40
3.50000
  0
CIRCLE
  8
Contour
 62
   7
 39
0.100
  6
CONTINUOUS
 10
79.46500
 20
129.67300
 30
 0
 40
1.25000
  0
CIRCLE
  8
Contour
 62
   7
 39
0.100
  6
CONTINUOUS
 10
59.13400
 20
129.67300
 30
 0
 40
1.25000
  0
CIRCLE
  8
Contour
 62
   7
 39
0.100
  6
CONTINUOUS
 10
59.13400
 20
109.34700
 30
 0
 40
1.25000
  0
CIRCLE
  8
Contour
 62
   7
 39
0.100
  6
CONTINUOUS
 10
79.46500
 20
109.34700
 30
 0
 40
1.25000
  0
CIRCLE
  8
Contour
 62
   7
 39
0.100
  6
CONTINUOUS
 10
69.29400
 20
109.34300
 30
 0
 40
2.25000
  0
CIRCLE
  8
Contour
 62
   7
 39
0.100
  6
CONTINUOUS
 10
97.11100
 20
119.52600
 30
 0
 40
3.50000
  0
CIRCLE
  8
Contour
 62
   7
 39
0.100
  6
CONTINUOUS
 10
107.26700
 20
129.69400
 30
 0
 40
1.25000
  0
CIRCLE
  8
Contour
 62
   7
 39
0.100
  6
CONTINUOUS
 10
86.93600
 20
129.69400
 30
 0
 40
1.25000
  0
CIRCLE
  8
Contour
 62
   7
 39
0.100
  6
CONTINUOUS
 10
86.93600
 20
109.36800
 30
 0
 40
1.25000
  0
CIRCLE
  8
Contour
 62
   7
 39
0.100
  6
CONTINUOUS
 10
107.26700
 20
109.36800
 30
 0
 40
1.25000
  0
CIRCLE
  8
Contour
 62
   7
 39
0.100
  6
CONTINUOUS
 10
97.09600
 20
109.36400
 30
 0
 40
2.25000
  0
CIRCLE
  8
Contour
 62
   7
 39
0.100
  6
CONTINUOUS
 10
176.59800
 20
80.25700
 30
 0
 40
2.57800
  0
CIRCLE
  8
Contour
 62
   7
 39
0.100
  6
CONTINUOUS
 10
176.59800
 20
80.25700
 30
 0
 40
1.35000
  0
CIRCLE
  8
Contour
 62
   7
 39
0.100
  6
CONTINUOUS
 10
176.59800
 20
80.25700
 30
 0
 40
2.57800
  0
CIRCLE
  8
Contour
 62
   7
 39
0.100
  6
CONTINUOUS
 10
176.59800
 20
80.25700
 30
 0
 40
1.35000
  0
CIRCLE
  8
Contour
 62
   7
 39
0.100
  6
CONTINUOUS
 10
119.39200
 20
80.24800
 30
 0
 40
2.57800
  0
CIRCLE
  8
Contour
 62
   7
 39
0.100
  6
CONTINUOUS
 10
119.39200
 20
80.24800
 30
 0
 40
1.35000
  0
CIRCLE
  8
Contour
 62
   7
 39
0.100
  6
CONTINUOUS
 10
119.39200
 20
80.24800
 30
 0
 40
2.57800
  0
CIRCLE
  8
Contour
 62
   7
 39
0.100
  6
CONTINUOUS
 10
119.39200
 20
80.24800
 30
 0
 40
1.35000
  0
CIRCLE
  8
Contour
 62
   7
 39
0.100
  6
CONTINUOUS
 10
119.38200
 20
4.04200
 30
 0
 40
2.57800
  0
CIRCLE
  8
Contour
 62
   7
 39
0.100
  6
CONTINUOUS
 10
119.38200
 20
4.04200
 30
 0
 40
1.35000
  0
CIRCLE
  8
Contour
 62
   7
 39
0.100
  6
CONTINUOUS
 10
119.38200
 20
4.04200
 30
 0
 40
2.57800
  0
CIRCLE
  8
Contour
 62
   7
 39
0.100
  6
CONTINUOUS
 10
119.38200
 20
4.04200
 30
 0
 40
1.35000
  0
CIRCLE
  8
Contour
 62
   7
 39
0.100
  6
CONTINUOUS
 10
176.59700
 20
4.05600
 30
 0
 40
2.57800
  0
CIRCLE
  8
Contour
 62
   7
 39
0.100
  6
CONTINUOUS
 10
176.59700
 20
4.05600
 30
 0
 40
1.35000
  0
CIRCLE
  8
Contour
 62
   7
 39
0.100
  6
CONTINUOUS
 10
176.59700
 20
4.05600
 30
 0
 40
2.57800
  0
CIRCLE
  8
Contour
 62
   7
 39
0.100
  6
CONTINUOUS
 10
176.59700
 20
4.05600
 30
 0
 40
1.35000
  0
CIRCLE
  8
Contour
 62
   7
 39
0.100
  6
CONTINUOUS
 10
114.24000
 20
131.50600
 30
 0
 40
2.57800
  0
CIRCLE
  8
Contour
 62
   7
 39
0.100
  6
CONTINUOUS
 10
114.24000
 20
131.50600
 30
 0
 40
1.35000
  0
CIRCLE
  8
Contour
 62
   7
 39
0.100
  6
CONTINUOUS
 10
114.24000
 20
131.50600
 30
 0
 40
2.57800
  0
CIRCLE
  8
Contour
 62
   7
 39
0.100
  6
CONTINUOUS
 10
114.24000
 20
131.50600
 30
 0
 40
1.35000
  0
CIRCLE
  8
Contour
 62
   7
 39
0.100
  6
CONTINUOUS
 10
114.24400
 20
169.60900
 30
 0
 40
2.57800
  0
CIRCLE
  8
Contour
 62
   7
 39
0.100
  6
CONTINUOUS
 10
114.24400
 20
169.60900
 30
 0
 40
1.35000
  0
CIRCLE
  8
Contour
 62
   7
 39
0.100
  6
CONTINUOUS
 10
114.24400
 20
169.60900
 30
 0
 40
2.57800
  0
CIRCLE
  8
Contour
 62
   7
 39
0.100
  6
CONTINUOUS
 10
114.24400
 20
169.60900
 30
 0
 40
1.35000
  0
CIRCLE
  8
Contour
 62
   7
 39
0.100
  6
CONTINUOUS
 10
130.73400
 20
169.61000
 30
 0
 40
2.57800
  0
CIRCLE
  8
Contour
 62
   7
 39
0.100
  6
CONTINUOUS
 10
130.73400
 20
169.61000
 30
 0
 40
1.35000
  0
CIRCLE
  8
Contour
 62
   7
 39
0.100
  6
CONTINUOUS
 10
130.73400
 20
169.61000
 30
 0
 40
2.57800
  0
CIRCLE
  8
Contour
 62
   7
 39
0.100
  6
CONTINUOUS
 10
130.73400
 20
169.61000
 30
 0
 40
1.35000
  0
CIRCLE
  8
Contour
 62
   7
 39
0.100
  6
CONTINUOUS
 10
130.73400
 20
131.50600
 30
 0
 40
2.57800
  0
CIRCLE
  8
Contour
 62
   7
 39
0.100
  6
CONTINUOUS
 10
130.73400
 20
131.50600
 30
 0
 40
1.35000
  0
CIRCLE
  8
Contour
 62
   7
 39
0.100
  6
CONTINUOUS
 10
130.73400
 20
131.50600
 30
 0
 40
2.57800
  0
CIRCLE
  8
Contour
 62
   7
 39
0.100
  6
CONTINUOUS
 10
130.73400
 20
131.50600
 30
 0
 40
1.35000
  0
CIRCLE
  8
Contour
 62
   7
 39
0.100
  6
CONTINUOUS
 10
139.73700
 20
131.50500
 30
 0
 40
2.57800
  0
CIRCLE
  8
Contour
 62
   7
 39
0.100
  6
CONTINUOUS
 10
139.73700
 20
131.50500
 30
 0
 40
1.35000
  0
CIRCLE
  8
Contour
 62
   7
 39
0.100
  6
CONTINUOUS
 10
139.73700
 20
131.50500
 30
 0
 40
2.57800
  0
CIRCLE
  8
Contour
 62
   7
 39
0.100
  6
CONTINUOUS
 10
139.73700
 20
131.50500
 30
 0
 40
1.35000
  0
CIRCLE
  8
Contour
 62
   7
 39
0.100
  6
CONTINUOUS
 10
139.74100
 20
169.60800
 30
 0
 40
2.57800
  0
CIRCLE
  8
Contour
 62
   7
 39
0.100
  6
CONTINUOUS
 10
139.74100
 20
169.60800
 30
 0
 40
1.35000
  0
CIRCLE
  8
Contour
 62
   7
 39
0.100
  6
CONTINUOUS
 10
139.74100
 20
169.60800
 30
 0
 40
2.57800
  0
CIRCLE
  8
Contour
 62
   7
 39
0.100
  6
CONTINUOUS
 10
139.74100
 20
169.60800
 30
 0
 40
1.35000
  0
CIRCLE
  8
Contour
 62
   7
 39
0.100
  6
CONTINUOUS
 10
156.23100
 20
169.60900
 30
 0
 40
2.57800
  0
CIRCLE
  8
Contour
 62
   7
 39
0.100
  6
CONTINUOUS
 10
156.23100
 20
169.60900
 30
 0
 40
1.35000
  0
CIRCLE
  8
Contour
 62
   7
 39
0.100
  6
CONTINUOUS
 10
156.23100
 20
169.60900
 30
 0
 40
2.57800
  0
CIRCLE
  8
Contour
 62
   7
 39
0.100
  6
CONTINUOUS
 10
156.23100
 20
169.60900
 30
 0
 40
1.35000
  0
CIRCLE
  8
Contour
 62
   7
 39
0.100
  6
CONTINUOUS
 10
156.23100
 20
131.50500
 30
 0
 40
2.57800
  0
CIRCLE
  8
Contour
 62
   7
 39
0.100
  6
CONTINUOUS
 10
156.23100
 20
131.50500
 30
 0
 40
1.35000
  0
CIRCLE
  8
Contour
 62
   7
 39
0.100
  6
CONTINUOUS
 10
156.23100
 20
131.50500
 30
 0
 40
2.57800
  0
CIRCLE
  8
Contour
 62
   7
 39
0.100
  6
CONTINUOUS
 10
156.23100
 20
131.50500
 30
 0
 40
1.35000
  0
CIRCLE
  8
Contour
 62
   7
 39
0.100
  6
CONTINUOUS
 10
165.23500
 20
131.50400
 30
 0
 40
2.57800
  0
CIRCLE
  8
Contour
 62
   7
 39
0.100
  6
CONTINUOUS
 10
165.23500
 20
131.50400
 30
 0
 40
1.35000
  0
CIRCLE
  8
Contour
 62
   7
 39
0.100
  6
CONTINUOUS
 10
165.23500
 20
131.50400
 30
 0
 40
2.57800
  0
CIRCLE
  8
Contour
 62
   7
 39
0.100
  6
CONTINUOUS
 10
165.23500
 20
131.50400
 30
 0
 40
1.35000
  0
CIRCLE
  8
Contour
 62
   7
 39
0.100
  6
CONTINUOUS
 10
165.23900
 20
169.60700
 30
 0
 40
2.57800
  0
CIRCLE
  8
Contour
 62
   7
 39
0.100
  6
CONTINUOUS
 10
165.23900
 20
169.60700
 30
 0
 40
1.35000
  0
CIRCLE
  8
Contour
 62
   7
 39
0.100
  6
CONTINUOUS
 10
165.23900
 20
169.60700
 30
 0
 40
2.57800
  0
CIRCLE
  8
Contour
 62
   7
 39
0.100
  6
CONTINUOUS
 10
165.23900
 20
169.60700
 30
 0
 40
1.35000
  0
CIRCLE
  8
Contour
 62
   7
 39
0.100
  6
CONTINUOUS
 10
181.72900
 20
169.60800
 30
 0
 40
2.57800
  0
CIRCLE
  8
Contour
 62
   7
 39
0.100
  6
CONTINUOUS
 10
181.72900
 20
169.60800
 30
 0
 40
1.35000
  0
CIRCLE
  8
Contour
 62
   7
 39
0.100
  6
CONTINUOUS
 10
181.72900
 20
169.60800
 30
 0
 40
2.57800
  0
CIRCLE
  8
Contour
 62
   7
 39
0.100
  6
CONTINUOUS
 10
181.72900
 20
169.60800
 30
 0
 40
1.35000
  0
CIRCLE
  8
Contour
 62
   7
 39
0.100
  6
CONTINUOUS
 10
181.72900
 20
131.50400
 30
 0
 40
2.57800
  0
CIRCLE
  8
Contour
 62
   7
 39
0.100
  6
CONTINUOUS
 10
181.72900
 20
131.50400
 30
 0
 40
1.35000
  0
CIRCLE
  8
Contour
 62
   7
 39
0.100
  6
CONTINUOUS
 10
181.72900
 20
131.50400
 30
 0
 40
2.57800
  0
CIRCLE
  8
Contour
 62
   7
 39
0.100
  6
CONTINUOUS
 10
181.72900
 20
131.50400
 30
 0
 40
1.35000
  0
LINE
  8
Reference_points
 62
   1
 39
0.100
  6
CONTINUOUS
 10
-0.82000
 20
0.00000
 30
 0
 11
0.82000
 21
0.00000
  0
LINE
  8
Reference_points
 62
   1
 39
0.100
  6
CONTINUOUS
 10
0.00000
 20
-0.82000
 30
 0
 11
0.00000
 21
0.82000
  0
LINE
  8
Reference_points
 62
   1
 39
0.100
  6
CONTINUOUS
 10
147.18000
 20
105.00000
 30
 0
 11
148.82000
 21
105.00000
  0
LINE
  8
Reference_points
 62
   1
 39
0.100
  6
CONTINUOUS
 10
148.00000
 20
104.18000
 30
 0
 11
148.00000
 21
105.82000
  0
LINE
  8
Reference_points
 62
   1
 39
0.100
  6
CONTINUOUS
 10
121.66600
 20
150.56300
 30
 0
 11
123.30600
 21
150.56300
  0
LINE
  8
Reference_points
 62
   1
 39
0.100
  6
CONTINUOUS
 10
122.48600
 20
149.74300
 30
 0
 11
122.48600
 21
151.38300
  0
LINE
  8
Reference_points
 62
   1
 39
0.100
  6
CONTINUOUS
 10
121.66600
 20
150.56300
 30
 0
 11
123.30600
 21
150.56300
  0
LINE
  8
Reference_points
 62
   1
 39
0.100
  6
CONTINUOUS
 10
122.48600
 20
149.74300
 30
 0
 11
122.48600
 21
151.38300
  0
LINE
  8
Reference_points
 62
   1
 39
0.100
  6
CONTINUOUS
 10
285.93400
 20
94.50000
 30
 0
 11
287.57400
 21
94.50000
  0
LINE
  8
Reference_points
 62
   1
 39
0.100
  6
CONTINUOUS
 10
286.75400
 20
93.68000
 30
 0
 11
286.75400
 21
95.32000
  0
LINE
  8
Reference_points
 62
   1
 39
0.100
  6
CONTINUOUS
 10
285.93400
 20
94.50000
 30
 0
 11
287.57400
 21
94.50000
  0
LINE
  8
Reference_points
 62
   1
 39
0.100
  6
CONTINUOUS
 10
286.75400
 20
93.68000
 30
 0
 11
286.75400
 21
95.32000
  0
LINE
  8
Reference_points
 62
   1
 39
0.100
  6
CONTINUOUS
 10
267.43400
 20
94.50000
 30
 0
 11
269.07400
 21
94.50000
  0
LINE
  8
Reference_points
 62
   1
 39
0.100
  6
CONTINUOUS
 10
268.25400
 20
93.68000
 30
 0
 11
268.25400
 21
95.32000
  0
LINE
  8
Reference_points
 62
   1
 39
0.100
  6
CONTINUOUS
 10
267.43400
 20
94.50000
 30
 0
 11
269.07400
 21
94.50000
  0
LINE
  8
Reference_points
 62
   1
 39
0.100
  6
CONTINUOUS
 10
268.25400
 20
93.68000
 30
 0
 11
268.25400
 21
95.32000
  0
LINE
  8
Reference_points
 62
   1
 39
0.100
  6
CONTINUOUS
 10
248.93400
 20
94.50000
 30
 0
 11
250.57400
 21
94.50000
  0
LINE
  8
Reference_points
 62
   1
 39
0.100
  6
CONTINUOUS
 10
249.75400
 20
93.68000
 30
 0
 11
249.75400
 21
95.32000
  0
LINE
  8
Reference_points
 62
   1
 39
0.100
  6
CONTINUOUS
 10
248.93400
 20
94.50000
 30
 0
 11
250.57400
 21
94.50000
  0
LINE
  8
Reference_points
 62
   1
 39
0.100
  6
CONTINUOUS
 10
249.75400
 20
93.68000
 30
 0
 11
249.75400
 21
95.32000
  0
LINE
  8
Reference_points
 62
   1
 39
0.100
  6
CONTINUOUS
 10
230.43400
 20
94.50000
 30
 0
 11
232.07400
 21
94.50000
  0
LINE
  8
Reference_points
 62
   1
 39
0.100
  6
CONTINUOUS
 10
231.25400
 20
93.68000
 30
 0
 11
231.25400
 21
95.32000
  0
LINE
  8
Reference_points
 62
   1
 39
0.100
  6
CONTINUOUS
 10
230.43400
 20
94.50000
 30
 0
 11
232.07400
 21
94.50000
  0
LINE
  8
Reference_points
 62
   1
 39
0.100
  6
CONTINUOUS
 10
231.25400
 20
93.68000
 30
 0
 11
231.25400
 21
95.32000
  0
LINE
  8
Reference_points
 62
   1
 39
0.100
  6
CONTINUOUS
 10
211.93400
 20
94.50000
 30
 0
 11
213.57400
 21
94.50000
  0
LINE
  8
Reference_points
 62
   1
 39
0.100
  6
CONTINUOUS
 10
212.75400
 20
93.68000
 30
 0
 11
212.75400
 21
95.32000
  0
LINE
  8
Reference_points
 62
   1
 39
0.100
  6
CONTINUOUS
 10
211.93400
 20
94.50000
 30
 0
 11
213.57400
 21
94.50000
  0
LINE
  8
Reference_points
 62
   1
 39
0.100
  6
CONTINUOUS
 10
212.75400
 20
93.68000
 30
 0
 11
212.75400
 21
95.32000
  0
LINE
  8
Reference_points
 62
   1
 39
0.100
  6
CONTINUOUS
 10
193.43400
 20
94.50000
 30
 0
 11
195.07400
 21
94.50000
  0
LINE
  8
Reference_points
 62
   1
 39
0.100
  6
CONTINUOUS
 10
194.25400
 20
93.68000
 30
 0
 11
194.25400
 21
95.32000
  0
LINE
  8
Reference_points
 62
   1
 39
0.100
  6
CONTINUOUS
 10
193.43400
 20
94.50000
 30
 0
 11
195.07400
 21
94.50000
  0
LINE
  8
Reference_points
 62
   1
 39
0.100
  6
CONTINUOUS
 10
194.25400
 20
93.68000
 30
 0
 11
194.25400
 21
95.32000
  0
LINE
  8
Reference_points
 62
   1
 39
0.100
  6
CONTINUOUS
 10
174.93400
 20
94.50000
 30
 0
 11
176.57400
 21
94.50000
  0
LINE
  8
Reference_points
 62
   1
 39
0.100
  6
CONTINUOUS
 10
175.75400
 20
93.68000
 30
 0
 11
175.75400
 21
95.32000
  0
LINE
  8
Reference_points
 62
   1
 39
0.100
  6
CONTINUOUS
 10
174.93400
 20
94.50000
 30
 0
 11
176.57400
 21
94.50000
  0
LINE
  8
Reference_points
 62
   1
 39
0.100
  6
CONTINUOUS
 10
175.75400
 20
93.68000
 30
 0
 11
175.75400
 21
95.32000
  0
LINE
  8
Reference_points
 62
   1
 39
0.100
  6
CONTINUOUS
 10
156.43400
 20
94.50000
 30
 0
 11
158.07400
 21
94.50000
  0
LINE
  8
Reference_points
 62
   1
 39
0.100
  6
CONTINUOUS
 10
157.25400
 20
93.68000
 30
 0
 11
157.25400
 21
95.32000
  0
LINE
  8
Reference_points
 62
   1
 39
0.100
  6
CONTINUOUS
 10
156.43400
 20
94.50000
 30
 0
 11
158.07400
 21
94.50000
  0
LINE
  8
Reference_points
 62
   1
 39
0.100
  6
CONTINUOUS
 10
157.25400
 20
93.68000
 30
 0
 11
157.25400
 21
95.32000
  0
LINE
  8
Reference_points
 62
   1
 39
0.100
  6
CONTINUOUS
 10
137.93400
 20
94.50000
 30
 0
 11
139.57400
 21
94.50000
  0
LINE
  8
Reference_points
 62
   1
 39
0.100
  6
CONTINUOUS
 10
138.75400
 20
93.68000
 30
 0
 11
138.75400
 21
95.32000
  0
LINE
  8
Reference_points
 62
   1
 39
0.100
  6
CONTINUOUS
 10
137.93400
 20
94.50000
 30
 0
 11
139.57400
 21
94.50000
  0
LINE
  8
Reference_points
 62
   1
 39
0.100
  6
CONTINUOUS
 10
138.75400
 20
93.68000
 30
 0
 11
138.75400
 21
95.32000
  0
LINE
  8
Reference_points
 62
   1
 39
0.100
  6
CONTINUOUS
 10
119.43400
 20
94.50000
 30
 0
 11
121.07400
 21
94.50000
  0
LINE
  8
Reference_points
 62
   1
 39
0.100
  6
CONTINUOUS
 10
120.25400
 20
93.68000
 30
 0
 11
120.25400
 21
95.32000
  0
LINE
  8
Reference_points
 62
   1
 39
0.100
  6
CONTINUOUS
 10
119.43400
 20
94.50000
 30
 0
 11
121.07400
 21
94.50000
  0
LINE
  8
Reference_points
 62
   1
 39
0.100
  6
CONTINUOUS
 10
120.25400
 20
93.68000
 30
 0
 11
120.25400
 21
95.32000
  0
LINE
  8
Reference_points
 62
   1
 39
0.100
  6
CONTINUOUS
 10
100.93400
 20
94.50000
 30
 0
 11
102.57400
 21
94.50000
  0
LINE
  8
Reference_points
 62
   1
 39
0.100
  6
CONTINUOUS
 10
101.75400
 20
93.68000
 30
 0
 11
101.75400
 21
95.32000
  0
LINE
  8
Reference_points
 62
   1
 39
0.100
  6
CONTINUOUS
 10
100.93400
 20
94.50000
 30
 0
 11
102.57400
 21
94.50000
  0
LINE
  8
Reference_points
 62
   1
 39
0.100
  6
CONTINUOUS
 10
101.75400
 20
93.68000
 30
 0
 11
101.75400
 21
95.32000
  0
LINE
  8
Reference_points
 62
   1
 39
0.100
  6
CONTINUOUS
 10
82.43400
 20
94.50000
 30
 0
 11
84.07400
 21
94.50000
  0
LINE
  8
Reference_points
 62
   1
 39
0.100
  6
CONTINUOUS
 10
83.25400
 20
93.68000
 30
 0
 11
83.25400
 21
95.32000
  0
LINE
  8
Reference_points
 62
   1
 39
0.100
  6
CONTINUOUS
 10
82.43400
 20
94.50000
 30
 0
 11
84.07400
 21
94.50000
  0
LINE
  8
Reference_points
 62
   1
 39
0.100
  6
CONTINUOUS
 10
83.25400
 20
93.68000
 30
 0
 11
83.25400
 21
95.32000
  0
LINE
  8
Reference_points
 62
   1
 39
0.100
  6
CONTINUOUS
 10
281.30500
 20
13.99500
 30
 0
 11
282.94500
 21
13.99500
  0
LINE
  8
Reference_points
 62
   1
 39
0.100
  6
CONTINUOUS
 10
282.12500
 20
13.17500
 30
 0
 11
282.12500
 21
14.81500
  0
LINE
  8
Reference_points
 62
   1
 39
0.100
  6
CONTINUOUS
 10
281.30500
 20
13.99500
 30
 0
 11
282.94500
 21
13.99500
  0
LINE
  8
Reference_points
 62
   1
 39
0.100
  6
CONTINUOUS
 10
282.12500
 20
13.17500
 30
 0
 11
282.12500
 21
14.81500
  0
LINE
  8
Reference_points
 62
   1
 39
0.100
  6
CONTINUOUS
 10
281.30500
 20
41.99500
 30
 0
 11
282.94500
 21
41.99500
  0
LINE
  8
Reference_points
 62
   1
 39
0.100
  6
CONTINUOUS
 10
282.12500
 20
41.17500
 30
 0
 11
282.12500
 21
42.81500
  0
LINE
  8
Reference_points
 62
   1
 39
0.100
  6
CONTINUOUS
 10
281.30500
 20
41.99500
 30
 0
 11
282.94500
 21
41.99500
  0
LINE
  8
Reference_points
 62
   1
 39
0.100
  6
CONTINUOUS
 10
282.12500
 20
41.17500
 30
 0
 11
282.12500
 21
42.81500
  0
LINE
  8
Reference_points
 62
   1
 39
0.100
  6
CONTINUOUS
 10
281.30500
 20
69.99500
 30
 0
 11
282.94500
 21
69.99500
  0
LINE
  8
Reference_points
 62
   1
 39
0.100
  6
CONTINUOUS
 10
282.12500
 20
69.17500
 30
 0
 11
282.12500
 21
70.81500
  0
LINE
  8
Reference_points
 62
   1
 39
0.100
  6
CONTINUOUS
 10
281.30500
 20
69.99500
 30
 0
 11
282.94500
 21
69.99500
  0
LINE
  8
Reference_points
 62
   1
 39
0.100
  6
CONTINUOUS
 10
282.12500
 20
69.17500
 30
 0
 11
282.12500
 21
70.81500
  0
LINE
  8
Reference_points
 62
   1
 39
0.100
  6
CONTINUOUS
 10
253.54600
 20
13.99500
 30
 0
 11
255.18600
 21
13.99500
  0
LINE
  8
Reference_points
 62
   1
 39
0.100
  6
CONTINUOUS
 10
254.36600
 20
13.17500
 30
 0
 11
254.36600
 21
14.81500
  0
LINE
  8
Reference_points
 62
   1
 39
0.100
  6
CONTINUOUS
 10
253.54600
 20
13.99500
 30
 0
 11
255.18600
 21
13.99500
  0
LINE
  8
Reference_points
 62
   1
 39
0.100
  6
CONTINUOUS
 10
254.36600
 20
13.17500
 30
 0
 11
254.36600
 21
14.81500
  0
LINE
  8
Reference_points
 62
   1
 39
0.100
  6
CONTINUOUS
 10
253.54600
 20
41.99500
 30
 0
 11
255.18600
 21
41.99500
  0
LINE
  8
Reference_points
 62
   1
 39
0.100
  6
CONTINUOUS
 10
254.36600
 20
41.17500
 30
 0
 11
254.36600
 21
42.81500
  0
LINE
  8
Reference_points
 62
   1
 39
0.100
  6
CONTINUOUS
 10
253.54600
 20
41.99500
 30
 0
 11
255.18600
 21
41.99500
  0
LINE
  8
Reference_points
 62
   1
 39
0.100
  6
CONTINUOUS
 10
254.36600
 20
41.17500
 30
 0
 11
254.36600
 21
42.81500
  0
LINE
  8
Reference_points
 62
   1
 39
0.100
  6
CONTINUOUS
 10
253.54600
 20
69.99500
 30
 0
 11
255.18600
 21
69.99500
  0
LINE
  8
Reference_points
 62
   1
 39
0.100
  6
CONTINUOUS
 10
254.36600
 20
69.17500
 30
 0
 11
254.36600
 21
70.81500
  0
LINE
  8
Reference_points
 62
   1
 39
0.100
  6
CONTINUOUS
 10
253.54600
 20
69.99500
 30
 0
 11
255.18600
 21
69.99500
  0
LINE
  8
Reference_points
 62
   1
 39
0.100
  6
CONTINUOUS
 10
254.36600
 20
69.17500
 30
 0
 11
254.36600
 21
70.81500
  0
LINE
  8
Reference_points
 62
   1
 39
0.100
  6
CONTINUOUS
 10
225.80500
 20
13.99500
 30
 0
 11
227.44500
 21
13.99500
  0
LINE
  8
Reference_points
 62
   1
 39
0.100
  6
CONTINUOUS
 10
226.62500
 20
13.17500
 30
 0
 11
226.62500
 21
14.81500
  0
LINE
  8
Reference_points
 62
   1
 39
0.100
  6
CONTINUOUS
 10
225.80500
 20
13.99500
 30
 0
 11
227.44500
 21
13.99500
  0
LINE
  8
Reference_points
 62
   1
 39
0.100
  6
CONTINUOUS
 10
226.62500
 20
13.17500
 30
 0
 11
226.62500
 21
14.81500
  0
LINE
  8
Reference_points
 62
   1
 39
0.100
  6
CONTINUOUS
 10
225.80500
 20
41.99500
 30
 0
 11
227.44500
 21
41.99500
  0
LINE
  8
Reference_points
 62
   1
 39
0.100
  6
CONTINUOUS
 10
226.62500
 20
41.17500
 30
 0
 11
226.62500
 21
42.81500
  0
LINE
  8
Reference_points
 62
   1
 39
0.100
  6
CONTINUOUS
 10
225.80500
 20
41.99500
 30
 0
 11
227.44500
 21
41.99500
  0
LINE
  8
Reference_points
 62
   1
 39
0.100
  6
CONTINUOUS
 10
226.62500
 20
41.17500
 30
 0
 11
226.62500
 21
42.81500
  0
LINE
  8
Reference_points
 62
   1
 39
0.100
  6
CONTINUOUS
 10
225.80500
 20
69.99500
 30
 0
 11
227.44500
 21
69.99500
  0
LINE
  8
Reference_points
 62
   1
 39
0.100
  6
CONTINUOUS
 10
226.62500
 20
69.17500
 30
 0
 11
226.62500
 21
70.81500
  0
LINE
  8
Reference_points
 62
   1
 39
0.100
  6
CONTINUOUS
 10
225.80500
 20
69.99500
 30
 0
 11
227.44500
 21
69.99500
  0
LINE
  8
Reference_points
 62
   1
 39
0.100
  6
CONTINUOUS
 10
226.62500
 20
69.17500
 30
 0
 11
226.62500
 21
70.81500
  0
LINE
  8
Reference_points
 62
   1
 39
0.100
  6
CONTINUOUS
 10
198.04600
 20
13.99500
 30
 0
 11
199.68600
 21
13.99500
  0
LINE
  8
Reference_points
 62
   1
 39
0.100
  6
CONTINUOUS
 10
198.86600
 20
13.17500
 30
 0
 11
198.86600
 21
14.81500
  0
LINE
  8
Reference_points
 62
   1
 39
0.100
  6
CONTINUOUS
 10
198.04600
 20
13.99500
 30
 0
 11
199.68600
 21
13.99500
  0
LINE
  8
Reference_points
 62
   1
 39
0.100
  6
CONTINUOUS
 10
198.86600
 20
13.17500
 30
 0
 11
198.86600
 21
14.81500
  0
LINE
  8
Reference_points
 62
   1
 39
0.100
  6
CONTINUOUS
 10
198.04600
 20
41.99500
 30
 0
 11
199.68600
 21
41.99500
  0
LINE
  8
Reference_points
 62
   1
 39
0.100
  6
CONTINUOUS
 10
198.86600
 20
41.17500
 30
 0
 11
198.86600
 21
42.81500
  0
LINE
  8
Reference_points
 62
   1
 39
0.100
  6
CONTINUOUS
 10
198.04600
 20
41.99500
 30
 0
 11
199.68600
 21
41.99500
  0
LINE
  8
Reference_points
 62
   1
 39
0.100
  6
CONTINUOUS
 10
198.86600
 20
41.17500
 30
 0
 11
198.86600
 21
42.81500
  0
LINE
  8
Reference_points
 62
   1
 39
0.100
  6
CONTINUOUS
 10
198.04600
 20
69.99500
 30
 0
 11
199.68600
 21
69.99500
  0
LINE
  8
Reference_points
 62
   1
 39
0.100
  6
CONTINUOUS
 10
198.86600
 20
69.17500
 30
 0
 11
198.86600
 21
70.81500
  0
LINE
  8
Reference_points
 62
   1
 39
0.100
  6
CONTINUOUS
 10
198.04600
 20
69.99500
 30
 0
 11
199.68600
 21
69.99500
  0
LINE
  8
Reference_points
 62
   1
 39
0.100
  6
CONTINUOUS
 10
198.86600
 20
69.17500
 30
 0
 11
198.86600
 21
70.81500
  0
LINE
  8
Reference_points
 62
   1
 39
0.100
  6
CONTINUOUS
 10
96.30500
 20
13.99500
 30
 0
 11
97.94500
 21
13.99500
  0
LINE
  8
Reference_points
 62
   1
 39
0.100
  6
CONTINUOUS
 10
97.12500
 20
13.17500
 30
 0
 11
97.12500
 21
14.81500
  0
LINE
  8
Reference_points
 62
   1
 39
0.100
  6
CONTINUOUS
 10
96.30500
 20
13.99500
 30
 0
 11
97.94500
 21
13.99500
  0
LINE
  8
Reference_points
 62
   1
 39
0.100
  6
CONTINUOUS
 10
97.12500
 20
13.17500
 30
 0
 11
97.12500
 21
14.81500
  0
LINE
  8
Reference_points
 62
   1
 39
0.100
  6
CONTINUOUS
 10
96.30500
 20
41.99500
 30
 0
 11
97.94500
 21
41.99500
  0
LINE
  8
Reference_points
 62
   1
 39
0.100
  6
CONTINUOUS
 10
97.12500
 20
41.17500
 30
 0
 11
97.12500
 21
42.81500
  0
LINE
  8
Reference_points
 62
   1
 39
0.100
  6
CONTINUOUS
 10
96.30500
 20
41.99500
 30
 0
 11
97.94500
 21
41.99500
  0
LINE
  8
Reference_points
 62
   1
 39
0.100
  6
CONTINUOUS
 10
97.12500
 20
41.17500
 30
 0
 11
97.12500
 21
42.81500
  0
LINE
  8
Reference_points
 62
   1
 39
0.100
  6
CONTINUOUS
 10
96.30500
 20
69.99500
 30
 0
 11
97.94500
 21
69.99500
  0
LINE
  8
Reference_points
 62
   1
 39
0.100
  6
CONTINUOUS
 10
97.12500
 20
69.17500
 30
 0
 11
97.12500
 21
70.81500
  0
LINE
  8
Reference_points
 62
   1
 39
0.100
  6
CONTINUOUS
 10
96.30500
 20
69.99500
 30
 0
 11
97.94500
 21
69.99500
  0
LINE
  8
Reference_points
 62
   1
 39
0.100
  6
CONTINUOUS
 10
97.12500
 20
69.17500
 30
 0
 11
97.12500
 21
70.81500
  0
LINE
  8
Reference_points
 62
   1
 39
0.100
  6
CONTINUOUS
 10
68.54600
 20
13.99500
 30
 0
 11
70.18600
 21
13.99500
  0
LINE
  8
Reference_points
 62
   1
 39
0.100
  6
CONTINUOUS
 10
69.36600
 20
13.17500
 30
 0
 11
69.36600
 21
14.81500
  0
LINE
  8
Reference_points
 62
   1
 39
0.100
  6
CONTINUOUS
 10
68.54600
 20
13.99500
 30
 0
 11
70.18600
 21
13.99500
  0
LINE
  8
Reference_points
 62
   1
 39
0.100
  6
CONTINUOUS
 10
69.36600
 20
13.17500
 30
 0
 11
69.36600
 21
14.81500
  0
LINE
  8
Reference_points
 62
   1
 39
0.100
  6
CONTINUOUS
 10
68.54600
 20
41.99500
 30
 0
 11
70.18600
 21
41.99500
  0
LINE
  8
Reference_points
 62
   1
 39
0.100
  6
CONTINUOUS
 10
69.36600
 20
41.17500
 30
 0
 11
69.36600
 21
42.81500
  0
LINE
  8
Reference_points
 62
   1
 39
0.100
  6
CONTINUOUS
 10
68.54600
 20
41.99500
 30
 0
 11
70.18600
 21
41.99500
  0
LINE
  8
Reference_points
 62
   1
 39
0.100
  6
CONTINUOUS
 10
69.36600
 20
41.17500
 30
 0
 11
69.36600
 21
42.81500
  0
LINE
  8
Reference_points
 62
   1
 39
0.100
  6
CONTINUOUS
 10
68.54600
 20
69.99500
 30
 0
 11
70.18600
 21
69.99500
  0
LINE
  8
Reference_points
 62
   1
 39
0.100
  6
CONTINUOUS
 10
69.36600
 20
69.17500
 30
 0
 11
69.36600
 21
70.81500
  0
LINE
  8
Reference_points
 62
   1
 39
0.100
  6
CONTINUOUS
 10
68.54600
 20
69.99500
 30
 0
 11
70.18600
 21
69.99500
  0
LINE
  8
Reference_points
 62
   1
 39
0.100
  6
CONTINUOUS
 10
69.36600
 20
69.17500
 30
 0
 11
69.36600
 21
70.81500
  0
LINE
  8
Reference_points
 62
   1
 39
0.100
  6
CONTINUOUS
 10
40.80500
 20
13.99500
 30
 0
 11
42.44500
 21
13.99500
  0
LINE
  8
Reference_points
 62
   1
 39
0.100
  6
CONTINUOUS
 10
41.62500
 20
13.17500
 30
 0
 11
41.62500
 21
14.81500
  0
LINE
  8
Reference_points
 62
   1
 39
0.100
  6
CONTINUOUS
 10
40.80500
 20
13.99500
 30
 0
 11
42.44500
 21
13.99500
  0
LINE
  8
Reference_points
 62
   1
 39
0.100
  6
CONTINUOUS
 10
41.62500
 20
13.17500
 30
 0
 11
41.62500
 21
14.81500
  0
LINE
  8
Reference_points
 62
   1
 39
0.100
  6
CONTINUOUS
 10
40.80500
 20
41.99500
 30
 0
 11
42.44500
 21
41.99500
  0
LINE
  8
Reference_points
 62
   1
 39
0.100
  6
CONTINUOUS
 10
41.62500
 20
41.17500
 30
 0
 11
41.62500
 21
42.81500
  0
LINE
  8
Reference_points
 62
   1
 39
0.100
  6
CONTINUOUS
 10
40.80500
 20
41.99500
 30
 0
 11
42.44500
 21
41.99500
  0
LINE
  8
Reference_points
 62
   1
 39
0.100
  6
CONTINUOUS
 10
41.62500
 20
41.17500
 30
 0
 11
41.62500
 21
42.81500
  0
LINE
  8
Reference_points
 62
   1
 39
0.100
  6
CONTINUOUS
 10
40.80500
 20
69.99500
 30
 0
 11
42.44500
 21
69.99500
  0
LINE
  8
Reference_points
 62
   1
 39
0.100
  6
CONTINUOUS
 10
41.62500
 20
69.17500
 30
 0
 11
41.62500
 21
70.81500
  0
LINE
  8
Reference_points
 62
   1
 39
0.100
  6
CONTINUOUS
 10
40.80500
 20
69.99500
 30
 0
 11
42.44500
 21
69.99500
  0
LINE
  8
Reference_points
 62
   1
 39
0.100
  6
CONTINUOUS
 10
41.62500
 20
69.17500
 30
 0
 11
41.62500
 21
70.81500
  0
LINE
  8
Reference_points
 62
   1
 39
0.100
  6
CONTINUOUS
 10
13.04600
 20
13.99500
 30
 0
 11
14.68600
 21
13.99500
  0
LINE
  8
Reference_points
 62
   1
 39
0.100
  6
CONTINUOUS
 10
13.86600
 20
13.17500
 30
 0
 11
13.86600
 21
14.81500
  0
LINE
  8
Reference_points
 62
   1
 39
0.100
  6
CONTINUOUS
 10
13.04600
 20
13.99500
 30
 0
 11
14.68600
 21
13.99500
  0
LINE
  8
Reference_points
 62
   1
 39
0.100
  6
CONTINUOUS
 10
13.86600
 20
13.17500
 30
 0
 11
13.86600
 21
14.81500
  0
LINE
  8
Reference_points
 62
   1
 39
0.100
  6
CONTINUOUS
 10
13.04600
 20
41.99500
 30
 0
 11
14.68600
 21
41.99500
  0
LINE
  8
Reference_points
 62
   1
 39
0.100
  6
CONTINUOUS
 10
13.86600
 20
41.17500
 30
 0
 11
13.86600
 21
42.81500
  0
LINE
  8
Reference_points
 62
   1
 39
0.100
  6
CONTINUOUS
 10
13.04600
 20
41.99500
 30
 0
 11
14.68600
 21
41.99500
  0
LINE
  8
Reference_points
 62
   1
 39
0.100
  6
CONTINUOUS
 10
13.86600
 20
41.17500
 30
 0
 11
13.86600
 21
42.81500
  0
LINE
  8
Reference_points
 62
   1
 39
0.100
  6
CONTINUOUS
 10
13.04600
 20
69.99500
 30
 0
 11
14.68600
 21
69.99500
  0
LINE
  8
Reference_points
 62
   1
 39
0.100
  6
CONTINUOUS
 10
13.86600
 20
69.17500
 30
 0
 11
13.86600
 21
70.81500
  0
LINE
  8
Reference_points
 62
   1
 39
0.100
  6
CONTINUOUS
 10
13.04600
 20
69.99500
 30
 0
 11
14.68600
 21
69.99500
  0
LINE
  8
Reference_points
 62
   1
 39
0.100
  6
CONTINUOUS
 10
13.86600
 20
69.17500
 30
 0
 11
13.86600
 21
70.81500
  0
LINE
  8
Reference_points
 62
   1
 39
0.100
  6
CONTINUOUS
 10
40.80500
 20
119.49500
 30
 0
 11
42.44500
 21
119.49500
  0
LINE
  8
Reference_points
 62
   1
 39
0.100
  6
CONTINUOUS
 10
41.62500
 20
118.67500
 30
 0
 11
41.62500
 21
120.31500
  0
LINE
  8
Reference_points
 62
   1
 39
0.100
  6
CONTINUOUS
 10
40.80500
 20
119.49500
 30
 0
 11
42.44500
 21
119.49500
  0
LINE
  8
Reference_points
 62
   1
 39
0.100
  6
CONTINUOUS
 10
41.62500
 20
118.67500
 30
 0
 11
41.62500
 21
120.31500
  0
LINE
  8
Reference_points
 62
   1
 39
0.100
  6
CONTINUOUS
 10
13.04600
 20
119.49500
 30
 0
 11
14.68600
 21
119.49500
  0
LINE
  8
Reference_points
 62
   1
 39
0.100
  6
CONTINUOUS
 10
13.86600
 20
118.67500
 30
 0
 11
13.86600
 21
120.31500
  0
LINE
  8
Reference_points
 62
   1
 39
0.100
  6
CONTINUOUS
 10
13.04600
 20
119.49500
 30
 0
 11
14.68600
 21
119.49500
  0
LINE
  8
Reference_points
 62
   1
 39
0.100
  6
CONTINUOUS
 10
13.86600
 20
118.67500
 30
 0
 11
13.86600
 21
120.31500
  0
LINE
  8
Reference_points
 62
   1
 39
0.100
  6
CONTINUOUS
 10
147.16600
 20
150.56300
 30
 0
 11
148.80600
 21
150.56300
  0
LINE
  8
Reference_points
 62
   1
 39
0.100
  6
CONTINUOUS
 10
147.98600
 20
149.74300
 30
 0
 11
147.98600
 21
151.38300
  0
LINE
  8
Reference_points
 62
   1
 39
0.100
  6
CONTINUOUS
 10
147.16600
 20
150.56300
 30
 0
 11
148.80600
 21
150.56300
  0
LINE
  8
Reference_points
 62
   1
 39
0.100
  6
CONTINUOUS
 10
147.98600
 20
149.74300
 30
 0
 11
147.98600
 21
151.38300
  0
LINE
  8
Reference_points
 62
   1
 39
0.100
  6
CONTINUOUS
 10
172.66600
 20
150.56300
 30
 0
 11
174.30600
 21
150.56300
  0
LINE
  8
Reference_points
 62
   1
 39
0.100
  6
CONTINUOUS
 10
173.48600
 20
149.74300
 30
 0
 11
173.48600
 21
151.38300
  0
LINE
  8
Reference_points
 62
   1
 39
0.100
  6
CONTINUOUS
 10
172.66600
 20
150.56300
 30
 0
 11
174.30600
 21
150.56300
  0
LINE
  8
Reference_points
 62
   1
 39
0.100
  6
CONTINUOUS
 10
173.48600
 20
149.74300
 30
 0
 11
173.48600
 21
151.38300
  0
LINE
  8
Reference_points
 62
   1
 39
0.100
  6
CONTINUOUS
 10
96.30500
 20
181.99500
 30
 0
 11
97.94500
 21
181.99500
  0
LINE
  8
Reference_points
 62
   1
 39
0.100
  6
CONTINUOUS
 10
97.12500
 20
181.17500
 30
 0
 11
97.12500
 21
182.81500
  0
LINE
  8
Reference_points
 62
   1
 39
0.100
  6
CONTINUOUS
 10
68.54600
 20
181.99500
 30
 0
 11
70.18600
 21
181.99500
  0
LINE
  8
Reference_points
 62
   1
 39
0.100
  6
CONTINUOUS
 10
69.36600
 20
181.17500
 30
 0
 11
69.36600
 21
182.81500
  0
LINE
  8
Reference_points
 62
   1
 39
0.100
  6
CONTINUOUS
 10
40.80500
 20
181.99500
 30
 0
 11
42.44500
 21
181.99500
  0
LINE
  8
Reference_points
 62
   1
 39
0.100
  6
CONTINUOUS
 10
41.62500
 20
181.17500
 30
 0
 11
41.62500
 21
182.81500
  0
LINE
  8
Reference_points
 62
   1
 39
0.100
  6
CONTINUOUS
 10
13.04600
 20
181.99500
 30
 0
 11
14.68600
 21
181.99500
  0
LINE
  8
Reference_points
 62
   1
 39
0.100
  6
CONTINUOUS
 10
13.86600
 20
181.17500
 30
 0
 11
13.86600
 21
182.81500
  0
LINE
  8
Reference_points
 62
   1
 39
0.100
  6
CONTINUOUS
 10
96.30500
 20
181.99500
 30
 0
 11
97.94500
 21
181.99500
  0
LINE
  8
Reference_points
 62
   1
 39
0.100
  6
CONTINUOUS
 10
97.12500
 20
181.17500
 30
 0
 11
97.12500
 21
182.81500
  0
LINE
  8
Reference_points
 62
   1
 39
0.100
  6
CONTINUOUS
 10
68.54600
 20
181.99500
 30
 0
 11
70.18600
 21
181.99500
  0
LINE
  8
Reference_points
 62
   1
 39
0.100
  6
CONTINUOUS
 10
69.36600
 20
181.17500
 30
 0
 11
69.36600
 21
182.81500
  0
LINE
  8
Reference_points
 62
   1
 39
0.100
  6
CONTINUOUS
 10
40.80500
 20
181.99500
 30
 0
 11
42.44500
 21
181.99500
  0
LINE
  8
Reference_points
 62
   1
 39
0.100
  6
CONTINUOUS
 10
41.62500
 20
181.17500
 30
 0
 11
41.62500
 21
182.81500
  0
LINE
  8
Reference_points
 62
   1
 39
0.100
  6
CONTINUOUS
 10
13.04600
 20
181.99500
 30
 0
 11
14.68600
 21
181.99500
  0
LINE
  8
Reference_points
 62
   1
 39
0.100
  6
CONTINUOUS
 10
13.86600
 20
181.17500
 30
 0
 11
13.86600
 21
182.81500
  0
LINE
  8
Reference_points
 62
   1
 39
0.100
  6
CONTINUOUS
 10
63.93400
 20
94.50000
 30
 0
 11
65.57400
 21
94.50000
  0
LINE
  8
Reference_points
 62
   1
 39
0.100
  6
CONTINUOUS
 10
64.75400
 20
93.68000
 30
 0
 11
64.75400
 21
95.32000
  0
LINE
  8
Reference_points
 62
   1
 39
0.100
  6
CONTINUOUS
 10
45.43400
 20
94.50000
 30
 0
 11
47.07400
 21
94.50000
  0
LINE
  8
Reference_points
 62
   1
 39
0.100
  6
CONTINUOUS
 10
46.25400
 20
93.68000
 30
 0
 11
46.25400
 21
95.32000
  0
LINE
  8
Reference_points
 62
   1
 39
0.100
  6
CONTINUOUS
 10
26.93400
 20
94.50000
 30
 0
 11
28.57400
 21
94.50000
  0
LINE
  8
Reference_points
 62
   1
 39
0.100
  6
CONTINUOUS
 10
27.75400
 20
93.68000
 30
 0
 11
27.75400
 21
95.32000
  0
LINE
  8
Reference_points
 62
   1
 39
0.100
  6
CONTINUOUS
 10
8.43400
 20
94.50000
 30
 0
 11
10.07400
 21
94.50000
  0
LINE
  8
Reference_points
 62
   1
 39
0.100
  6
CONTINUOUS
 10
9.25400
 20
93.68000
 30
 0
 11
9.25400
 21
95.32000
  0
LINE
  8
Reference_points
 62
   1
 39
0.100
  6
CONTINUOUS
 10
63.93400
 20
94.50000
 30
 0
 11
65.57400
 21
94.50000
  0
LINE
  8
Reference_points
 62
   1
 39
0.100
  6
CONTINUOUS
 10
64.75400
 20
93.68000
 30
 0
 11
64.75400
 21
95.32000
  0
LINE
  8
Reference_points
 62
   1
 39
0.100
  6
CONTINUOUS
 10
45.43400
 20
94.50000
 30
 0
 11
47.07400
 21
94.50000
  0
LINE
  8
Reference_points
 62
   1
 39
0.100
  6
CONTINUOUS
 10
46.25400
 20
93.68000
 30
 0
 11
46.25400
 21
95.32000
  0
LINE
  8
Reference_points
 62
   1
 39
0.100
  6
CONTINUOUS
 10
26.93400
 20
94.50000
 30
 0
 11
28.57400
 21
94.50000
  0
LINE
  8
Reference_points
 62
   1
 39
0.100
  6
CONTINUOUS
 10
27.75400
 20
93.68000
 30
 0
 11
27.75400
 21
95.32000
  0
LINE
  8
Reference_points
 62
   1
 39
0.100
  6
CONTINUOUS
 10
8.43400
 20
94.50000
 30
 0
 11
10.07400
 21
94.50000
  0
LINE
  8
Reference_points
 62
   1
 39
0.100
  6
CONTINUOUS
 10
9.25400
 20
93.68000
 30
 0
 11
9.25400
 21
95.32000
  0
LINE
  8
Reference_points
 62
   1
 39
0.100
  6
CONTINUOUS
 10
281.30500
 20
119.49500
 30
 0
 11
282.94500
 21
119.49500
  0
LINE
  8
Reference_points
 62
   1
 39
0.100
  6
CONTINUOUS
 10
282.12500
 20
118.67500
 30
 0
 11
282.12500
 21
120.31500
  0
LINE
  8
Reference_points
 62
   1
 39
0.100
  6
CONTINUOUS
 10
253.54600
 20
119.49500
 30
 0
 11
255.18600
 21
119.49500
  0
LINE
  8
Reference_points
 62
   1
 39
0.100
  6
CONTINUOUS
 10
254.36600
 20
118.67500
 30
 0
 11
254.36600
 21
120.31500
  0
LINE
  8
Reference_points
 62
   1
 39
0.100
  6
CONTINUOUS
 10
225.80500
 20
181.99500
 30
 0
 11
227.44500
 21
181.99500
  0
LINE
  8
Reference_points
 62
   1
 39
0.100
  6
CONTINUOUS
 10
226.62500
 20
181.17500
 30
 0
 11
226.62500
 21
182.81500
  0
LINE
  8
Reference_points
 62
   1
 39
0.100
  6
CONTINUOUS
 10
198.04600
 20
181.99500
 30
 0
 11
199.68600
 21
181.99500
  0
LINE
  8
Reference_points
 62
   1
 39
0.100
  6
CONTINUOUS
 10
198.86600
 20
181.17500
 30
 0
 11
198.86600
 21
182.81500
  0
LINE
  8
Reference_points
 62
   1
 39
0.100
  6
CONTINUOUS
 10
281.30500
 20
181.99500
 30
 0
 11
282.94500
 21
181.99500
  0
LINE
  8
Reference_points
 62
   1
 39
0.100
  6
CONTINUOUS
 10
282.12500
 20
181.17500
 30
 0
 11
282.12500
 21
182.81500
  0
LINE
  8
Reference_points
 62
   1
 39
0.100
  6
CONTINUOUS
 10
253.54600
 20
181.99500
 30
 0
 11
255.18600
 21
181.99500
  0
LINE
  8
Reference_points
 62
   1
 39
0.100
  6
CONTINUOUS
 10
254.36600
 20
181.17500
 30
 0
 11
254.36600
 21
182.81500
  0
LINE
  8
Reference_points
 62
   1
 39
0.100
  6
CONTINUOUS
 10
225.80500
 20
181.99500
 30
 0
 11
227.44500
 21
181.99500
  0
LINE
  8
Reference_points
 62
   1
 39
0.100
  6
CONTINUOUS
 10
226.62500
 20
181.17500
 30
 0
 11
226.62500
 21
182.81500
  0
LINE
  8
Reference_points
 62
   1
 39
0.100
  6
CONTINUOUS
 10
198.04600
 20
181.99500
 30
 0
 11
199.68600
 21
181.99500
  0
LINE
  8
Reference_points
 62
   1
 39
0.100
  6
CONTINUOUS
 10
198.86600
 20
181.17500
 30
 0
 11
198.86600
 21
182.81500
  0
LINE
  8
Reference_points
 62
   1
 39
0.100
  6
CONTINUOUS
 10
281.30500
 20
181.99500
 30
 0
 11
282.94500
 21
181.99500
  0
LINE
  8
Reference_points
 62
   1
 39
0.100
  6
CONTINUOUS
 10
282.12500
 20
181.17500
 30
 0
 11
282.12500
 21
182.81500
  0
LINE
  8
Reference_points
 62
   1
 39
0.100
  6
CONTINUOUS
 10
253.54600
 20
181.99500
 30
 0
 11
255.18600
 21
181.99500
  0
LINE
  8
Reference_points
 62
   1
 39
0.100
  6
CONTINUOUS
 10
254.36600
 20
181.17500
 30
 0
 11
254.36600
 21
182.81500
  0
LINE
  8
Reference_points
 62
   1
 39
0.100
  6
CONTINUOUS
 10
281.30500
 20
119.49500
 30
 0
 11
282.94500
 21
119.49500
  0
LINE
  8
Reference_points
 62
   1
 39
0.100
  6
CONTINUOUS
 10
282.12500
 20
118.67500
 30
 0
 11
282.12500
 21
120.31500
  0
LINE
  8
Reference_points
 62
   1
 39
0.100
  6
CONTINUOUS
 10
253.54600
 20
119.49500
 30
 0
 11
255.18600
 21
119.49500
  0
LINE
  8
Reference_points
 62
   1
 39
0.100
  6
CONTINUOUS
 10
254.36600
 20
118.67500
 30
 0
 11
254.36600
 21
120.31500
  0
LINE
  8
Reference_points
 62
   1
 39
0.100
  6
CONTINUOUS
 10
147.20800
 20
42.19900
 30
 0
 11
148.84800
 21
42.19900
  0
LINE
  8
Reference_points
 62
   1
 39
0.100
  6
CONTINUOUS
 10
148.02800
 20
41.37900
 30
 0
 11
148.02800
 21
43.01900
  0
LINE
  8
Reference_points
 62
   1
 39
0.100
  6
CONTINUOUS
 10
147.21900
 20
4.10600
 30
 0
 11
148.85900
 21
4.10600
  0
LINE
  8
Reference_points
 62
   1
 39
0.100
  6
CONTINUOUS
 10
148.03900
 20
3.28600
 30
 0
 11
148.03900
 21
4.92600
  0
LINE
  8
Reference_points
 62
   1
 39
0.100
  6
CONTINUOUS
 10
147.21000
 20
80.25000
 30
 0
 11
148.85000
 21
80.25000
  0
LINE
  8
Reference_points
 62
   1
 39
0.100
  6
CONTINUOUS
 10
148.03000
 20
79.43000
 30
 0
 11
148.03000
 21
81.07000
  0
LINE
  8
Reference_points
 62
   1
 39
0.100
  6
CONTINUOUS
 10
281.31900
 20
150.51000
 30
 0
 11
282.95900
 21
150.51000
  0
LINE
  8
Reference_points
 62
   1
 39
0.100
  6
CONTINUOUS
 10
282.13900
 20
149.69000
 30
 0
 11
282.13900
 21
151.33000
  0
LINE
  8
Reference_points
 62
   1
 39
0.100
  6
CONTINUOUS
 10
281.31900
 20
150.51000
 30
 0
 11
282.95900
 21
150.51000
  0
LINE
  8
Reference_points
 62
   1
 39
0.100
  6
CONTINUOUS
 10
282.13900
 20
149.69000
 30
 0
 11
282.13900
 21
151.33000
  0
LINE
  8
Reference_points
 62
   1
 39
0.100
  6
CONTINUOUS
 10
253.61600
 20
150.50000
 30
 0
 11
255.25600
 21
150.50000
  0
LINE
  8
Reference_points
 62
   1
 39
0.100
  6
CONTINUOUS
 10
254.43600
 20
149.68000
 30
 0
 11
254.43600
 21
151.32000
  0
LINE
  8
Reference_points
 62
   1
 39
0.100
  6
CONTINUOUS
 10
253.61600
 20
150.50000
 30
 0
 11
255.25600
 21
150.50000
  0
LINE
  8
Reference_points
 62
   1
 39
0.100
  6
CONTINUOUS
 10
254.43600
 20
149.68000
 30
 0
 11
254.43600
 21
151.32000
  0
LINE
  8
Reference_points
 62
   1
 39
0.100
  6
CONTINUOUS
 10
225.81900
 20
150.49800
 30
 0
 11
227.45900
 21
150.49800
  0
LINE
  8
Reference_points
 62
   1
 39
0.100
  6
CONTINUOUS
 10
226.63900
 20
149.67800
 30
 0
 11
226.63900
 21
151.31800
  0
LINE
  8
Reference_points
 62
   1
 39
0.100
  6
CONTINUOUS
 10
225.81900
 20
150.49800
 30
 0
 11
227.45900
 21
150.49800
  0
LINE
  8
Reference_points
 62
   1
 39
0.100
  6
CONTINUOUS
 10
226.63900
 20
149.67800
 30
 0
 11
226.63900
 21
151.31800
  0
LINE
  8
Reference_points
 62
   1
 39
0.100
  6
CONTINUOUS
 10
198.11600
 20
150.48800
 30
 0
 11
199.75600
 21
150.48800
  0
LINE
  8
Reference_points
 62
   1
 39
0.100
  6
CONTINUOUS
 10
198.93600
 20
149.66800
 30
 0
 11
198.93600
 21
151.30800
  0
LINE
  8
Reference_points
 62
   1
 39
0.100
  6
CONTINUOUS
 10
198.11600
 20
150.48800
 30
 0
 11
199.75600
 21
150.48800
  0
LINE
  8
Reference_points
 62
   1
 39
0.100
  6
CONTINUOUS
 10
198.93600
 20
149.66800
 30
 0
 11
198.93600
 21
151.30800
  0
LINE
  8
Reference_points
 62
   1
 39
0.100
  6
CONTINUOUS
 10
96.12100
 20
150.49500
 30
 0
 11
97.76100
 21
150.49500
  0
LINE
  8
Reference_points
 62
   1
 39
0.100
  6
CONTINUOUS
 10
96.94100
 20
149.67500
 30
 0
 11
96.94100
 21
151.31500
  0
LINE
  8
Reference_points
 62
   1
 39
0.100
  6
CONTINUOUS
 10
96.12100
 20
150.49500
 30
 0
 11
97.76100
 21
150.49500
  0
LINE
  8
Reference_points
 62
   1
 39
0.100
  6
CONTINUOUS
 10
96.94100
 20
149.67500
 30
 0
 11
96.94100
 21
151.31500
  0
LINE
  8
Reference_points
 62
   1
 39
0.100
  6
CONTINUOUS
 10
68.41800
 20
150.48500
 30
 0
 11
70.05800
 21
150.48500
  0
LINE
  8
Reference_points
 62
   1
 39
0.100
  6
CONTINUOUS
 10
69.23800
 20
149.66500
 30
 0
 11
69.23800
 21
151.30500
  0
LINE
  8
Reference_points
 62
   1
 39
0.100
  6
CONTINUOUS
 10
68.41800
 20
150.48500
 30
 0
 11
70.05800
 21
150.48500
  0
LINE
  8
Reference_points
 62
   1
 39
0.100
  6
CONTINUOUS
 10
69.23800
 20
149.66500
 30
 0
 11
69.23800
 21
151.30500
  0
LINE
  8
Reference_points
 62
   1
 39
0.100
  6
CONTINUOUS
 10
40.62100
 20
150.48300
 30
 0
 11
42.26100
 21
150.48300
  0
LINE
  8
Reference_points
 62
   1
 39
0.100
  6
CONTINUOUS
 10
41.44100
 20
149.66300
 30
 0
 11
41.44100
 21
151.30300
  0
LINE
  8
Reference_points
 62
   1
 39
0.100
  6
CONTINUOUS
 10
40.62100
 20
150.48300
 30
 0
 11
42.26100
 21
150.48300
  0
LINE
  8
Reference_points
 62
   1
 39
0.100
  6
CONTINUOUS
 10
41.44100
 20
149.66300
 30
 0
 11
41.44100
 21
151.30300
  0
LINE
  8
Reference_points
 62
   1
 39
0.100
  6
CONTINUOUS
 10
12.91800
 20
150.47300
 30
 0
 11
14.55800
 21
150.47300
  0
LINE
  8
Reference_points
 62
   1
 39
0.100
  6
CONTINUOUS
 10
13.73800
 20
149.65300
 30
 0
 11
13.73800
 21
151.29300
  0
LINE
  8
Reference_points
 62
   1
 39
0.100
  6
CONTINUOUS
 10
12.91800
 20
150.47300
 30
 0
 11
14.55800
 21
150.47300
  0
LINE
  8
Reference_points
 62
   1
 39
0.100
  6
CONTINUOUS
 10
13.73800
 20
149.65300
 30
 0
 11
13.73800
 21
151.29300
  0
LINE
  8
Reference_points
 62
   1
 39
0.100
  6
CONTINUOUS
 10
198.07000
 20
119.50100
 30
 0
 11
199.71000
 21
119.50100
  0
LINE
  8
Reference_points
 62
   1
 39
0.100
  6
CONTINUOUS
 10
198.89000
 20
118.68100
 30
 0
 11
198.89000
 21
120.32100
  0
LINE
  8
Reference_points
 62
   1
 39
0.100
  6
CONTINUOUS
 10
208.22600
 20
129.66900
 30
 0
 11
209.86600
 21
129.66900
  0
LINE
  8
Reference_points
 62
   1
 39
0.100
  6
CONTINUOUS
 10
209.04600
 20
128.84900
 30
 0
 11
209.04600
 21
130.48900
  0
LINE
  8
Reference_points
 62
   1
 39
0.100
  6
CONTINUOUS
 10
187.89500
 20
129.66900
 30
 0
 11
189.53500
 21
129.66900
  0
LINE
  8
Reference_points
 62
   1
 39
0.100
  6
CONTINUOUS
 10
188.71500
 20
128.84900
 30
 0
 11
188.71500
 21
130.48900
  0
LINE
  8
Reference_points
 62
   1
 39
0.100
  6
CONTINUOUS
 10
187.89500
 20
109.34300
 30
 0
 11
189.53500
 21
109.34300
  0
LINE
  8
Reference_points
 62
   1
 39
0.100
  6
CONTINUOUS
 10
188.71500
 20
108.52300
 30
 0
 11
188.71500
 21
110.16300
  0
LINE
  8
Reference_points
 62
   1
 39
0.100
  6
CONTINUOUS
 10
208.22600
 20
109.34300
 30
 0
 11
209.86600
 21
109.34300
  0
LINE
  8
Reference_points
 62
   1
 39
0.100
  6
CONTINUOUS
 10
209.04600
 20
108.52300
 30
 0
 11
209.04600
 21
110.16300
  0
LINE
  8
Reference_points
 62
   1
 39
0.100
  6
CONTINUOUS
 10
198.05500
 20
109.33900
 30
 0
 11
199.69500
 21
109.33900
  0
LINE
  8
Reference_points
 62
   1
 39
0.100
  6
CONTINUOUS
 10
198.87500
 20
108.51900
 30
 0
 11
198.87500
 21
110.15900
  0
LINE
  8
Reference_points
 62
   1
 39
0.100
  6
CONTINUOUS
 10
198.07400
 20
119.49400
 30
 0
 11
199.71400
 21
119.49400
  0
LINE
  8
Reference_points
 62
   1
 39
0.100
  6
CONTINUOUS
 10
198.89400
 20
118.67400
 30
 0
 11
198.89400
 21
120.31400
  0
LINE
  8
Reference_points
 62
   1
 39
0.100
  6
CONTINUOUS
 10
225.87200
 20
119.52200
 30
 0
 11
227.51200
 21
119.52200
  0
LINE
  8
Reference_points
 62
   1
 39
0.100
  6
CONTINUOUS
 10
226.69200
 20
118.70200
 30
 0
 11
226.69200
 21
120.34200
  0
LINE
  8
Reference_points
 62
   1
 39
0.100
  6
CONTINUOUS
 10
236.02800
 20
129.69000
 30
 0
 11
237.66800
 21
129.69000
  0
LINE
  8
Reference_points
 62
   1
 39
0.100
  6
CONTINUOUS
 10
236.84800
 20
128.87000
 30
 0
 11
236.84800
 21
130.51000
  0
LINE
  8
Reference_points
 62
   1
 39
0.100
  6
CONTINUOUS
 10
215.69700
 20
129.69000
 30
 0
 11
217.33700
 21
129.69000
  0
LINE
  8
Reference_points
 62
   1
 39
0.100
  6
CONTINUOUS
 10
216.51700
 20
128.87000
 30
 0
 11
216.51700
 21
130.51000
  0
LINE
  8
Reference_points
 62
   1
 39
0.100
  6
CONTINUOUS
 10
215.69700
 20
109.36400
 30
 0
 11
217.33700
 21
109.36400
  0
LINE
  8
Reference_points
 62
   1
 39
0.100
  6
CONTINUOUS
 10
216.51700
 20
108.54400
 30
 0
 11
216.51700
 21
110.18400
  0
LINE
  8
Reference_points
 62
   1
 39
0.100
  6
CONTINUOUS
 10
236.02800
 20
109.36400
 30
 0
 11
237.66800
 21
109.36400
  0
LINE
  8
Reference_points
 62
   1
 39
0.100
  6
CONTINUOUS
 10
236.84800
 20
108.54400
 30
 0
 11
236.84800
 21
110.18400
  0
LINE
  8
Reference_points
 62
   1
 39
0.100
  6
CONTINUOUS
 10
225.85700
 20
109.36000
 30
 0
 11
227.49700
 21
109.36000
  0
LINE
  8
Reference_points
 62
   1
 39
0.100
  6
CONTINUOUS
 10
226.67700
 20
108.54000
 30
 0
 11
226.67700
 21
110.18000
  0
LINE
  8
Reference_points
 62
   1
 39
0.100
  6
CONTINUOUS
 10
225.87600
 20
119.51500
 30
 0
 11
227.51600
 21
119.51500
  0
LINE
  8
Reference_points
 62
   1
 39
0.100
  6
CONTINUOUS
 10
226.69600
 20
118.69500
 30
 0
 11
226.69600
 21
120.33500
  0
LINE
  8
Reference_points
 62
   1
 39
0.100
  6
CONTINUOUS
 10
68.48900
 20
119.50500
 30
 0
 11
70.12900
 21
119.50500
  0
LINE
  8
Reference_points
 62
   1
 39
0.100
  6
CONTINUOUS
 10
69.30900
 20
118.68500
 30
 0
 11
69.30900
 21
120.32500
  0
LINE
  8
Reference_points
 62
   1
 39
0.100
  6
CONTINUOUS
 10
78.64500
 20
129.67300
 30
 0
 11
80.28500
 21
129.67300
  0
LINE
  8
Reference_points
 62
   1
 39
0.100
  6
CONTINUOUS
 10
79.46500
 20
128.85300
 30
 0
 11
79.46500
 21
130.49300
  0
LINE
  8
Reference_points
 62
   1
 39
0.100
  6
CONTINUOUS
 10
58.31400
 20
129.67300
 30
 0
 11
59.95400
 21
129.67300
  0
LINE
  8
Reference_points
 62
   1
 39
0.100
  6
CONTINUOUS
 10
59.13400
 20
128.85300
 30
 0
 11
59.13400
 21
130.49300
  0
LINE
  8
Reference_points
 62
   1
 39
0.100
  6
CONTINUOUS
 10
58.31400
 20
109.34700
 30
 0
 11
59.95400
 21
109.34700
  0
LINE
  8
Reference_points
 62
   1
 39
0.100
  6
CONTINUOUS
 10
59.13400
 20
108.52700
 30
 0
 11
59.13400
 21
110.16700
  0
LINE
  8
Reference_points
 62
   1
 39
0.100
  6
CONTINUOUS
 10
78.64500
 20
109.34700
 30
 0
 11
80.28500
 21
109.34700
  0
LINE
  8
Reference_points
 62
   1
 39
0.100
  6
CONTINUOUS
 10
79.46500
 20
108.52700
 30
 0
 11
79.46500
 21
110.16700
  0
LINE
  8
Reference_points
 62
   1
 39
0.100
  6
CONTINUOUS
 10
68.47400
 20
109.34300
 30
 0
 11
70.11400
 21
109.34300
  0
LINE
  8
Reference_points
 62
   1
 39
0.100
  6
CONTINUOUS
 10
69.29400
 20
108.52300
 30
 0
 11
69.29400
 21
110.16300
  0
LINE
  8
Reference_points
 62
   1
 39
0.100
  6
CONTINUOUS
 10
68.49300
 20
119.49800
 30
 0
 11
70.13300
 21
119.49800
  0
LINE
  8
Reference_points
 62
   1
 39
0.100
  6
CONTINUOUS
 10
69.31300
 20
118.67800
 30
 0
 11
69.31300
 21
120.31800
  0
LINE
  8
Reference_points
 62
   1
 39
0.100
  6
CONTINUOUS
 10
96.29100
 20
119.52600
 30
 0
 11
97.93100
 21
119.52600
  0
LINE
  8
Reference_points
 62
   1
 39
0.100
  6
CONTINUOUS
 10
97.11100
 20
118.70600
 30
 0
 11
97.11100
 21
120.34600
  0
LINE
  8
Reference_points
 62
   1
 39
0.100
  6
CONTINUOUS
 10
106.44700
 20
129.69400
 30
 0
 11
108.08700
 21
129.69400
  0
LINE
  8
Reference_points
 62
   1
 39
0.100
  6
CONTINUOUS
 10
107.26700
 20
128.87400
 30
 0
 11
107.26700
 21
130.51400
  0
LINE
  8
Reference_points
 62
   1
 39
0.100
  6
CONTINUOUS
 10
86.11600
 20
129.69400
 30
 0
 11
87.75600
 21
129.69400
  0
LINE
  8
Reference_points
 62
   1
 39
0.100
  6
CONTINUOUS
 10
86.93600
 20
128.87400
 30
 0
 11
86.93600
 21
130.51400
  0
LINE
  8
Reference_points
 62
   1
 39
0.100
  6
CONTINUOUS
 10
86.11600
 20
109.36800
 30
 0
 11
87.75600
 21
109.36800
  0
LINE
  8
Reference_points
 62
   1
 39
0.100
  6
CONTINUOUS
 10
86.93600
 20
108.54800
 30
 0
 11
86.93600
 21
110.18800
  0
LINE
  8
Reference_points
 62
   1
 39
0.100
  6
CONTINUOUS
 10
106.44700
 20
109.36800
 30
 0
 11
108.08700
 21
109.36800
  0
LINE
  8
Reference_points
 62
   1
 39
0.100
  6
CONTINUOUS
 10
107.26700
 20
108.54800
 30
 0
 11
107.26700
 21
110.18800
  0
LINE
  8
Reference_points
 62
   1
 39
0.100
  6
CONTINUOUS
 10
96.27600
 20
109.36400
 30
 0
 11
97.91600
 21
109.36400
  0
LINE
  8
Reference_points
 62
   1
 39
0.100
  6
CONTINUOUS
 10
97.09600
 20
108.54400
 30
 0
 11
97.09600
 21
110.18400
  0
LINE
  8
Reference_points
 62
   1
 39
0.100
  6
CONTINUOUS
 10
96.29500
 20
119.51900
 30
 0
 11
97.93500
 21
119.51900
  0
LINE
  8
Reference_points
 62
   1
 39
0.100
  6
CONTINUOUS
 10
97.11500
 20
118.69900
 30
 0
 11
97.11500
 21
120.33900
  0
LINE
  8
Reference_points
 62
   1
 39
0.100
  6
CONTINUOUS
 10
175.77800
 20
80.25700
 30
 0
 11
177.41800
 21
80.25700
  0
LINE
  8
Reference_points
 62
   1
 39
0.100
  6
CONTINUOUS
 10
176.59800
 20
79.43700
 30
 0
 11
176.59800
 21
81.07700
  0
LINE
  8
Reference_points
 62
   1
 39
0.100
  6
CONTINUOUS
 10
118.57200
 20
80.24800
 30
 0
 11
120.21200
 21
80.24800
  0
LINE
  8
Reference_points
 62
   1
 39
0.100
  6
CONTINUOUS
 10
119.39200
 20
79.42800
 30
 0
 11
119.39200
 21
81.06800
  0
LINE
  8
Reference_points
 62
   1
 39
0.100
  6
CONTINUOUS
 10
118.56200
 20
4.04200
 30
 0
 11
120.20200
 21
4.04200
  0
LINE
  8
Reference_points
 62
   1
 39
0.100
  6
CONTINUOUS
 10
119.38200
 20
3.22200
 30
 0
 11
119.38200
 21
4.86200
  0
LINE
  8
Reference_points
 62
   1
 39
0.100
  6
CONTINUOUS
 10
175.77700
 20
4.05600
 30
 0
 11
177.41700
 21
4.05600
  0
LINE
  8
Reference_points
 62
   1
 39
0.100
  6
CONTINUOUS
 10
176.59700
 20
3.23600
 30
 0
 11
176.59700
 21
4.87600
  0
LINE
  8
Reference_points
 62
   1
 39
0.100
  6
CONTINUOUS
 10
113.42000
 20
131.50600
 30
 0
 11
115.06000
 21
131.50600
  0
LINE
  8
Reference_points
 62
   1
 39
0.100
  6
CONTINUOUS
 10
114.24000
 20
130.68600
 30
 0
 11
114.24000
 21
132.32600
  0
LINE
  8
Reference_points
 62
   1
 39
0.100
  6
CONTINUOUS
 10
113.42400
 20
169.60900
 30
 0
 11
115.06400
 21
169.60900
  0
LINE
  8
Reference_points
 62
   1
 39
0.100
  6
CONTINUOUS
 10
114.24400
 20
168.78900
 30
 0
 11
114.24400
 21
170.42900
  0
LINE
  8
Reference_points
 62
   1
 39
0.100
  6
CONTINUOUS
 10
129.91400
 20
169.61000
 30
 0
 11
131.55400
 21
169.61000
  0
LINE
  8
Reference_points
 62
   1
 39
0.100
  6
CONTINUOUS
 10
130.73400
 20
168.79000
 30
 0
 11
130.73400
 21
170.43000
  0
LINE
  8
Reference_points
 62
   1
 39
0.100
  6
CONTINUOUS
 10
129.91400
 20
131.50600
 30
 0
 11
131.55400
 21
131.50600
  0
LINE
  8
Reference_points
 62
   1
 39
0.100
  6
CONTINUOUS
 10
130.73400
 20
130.68600
 30
 0
 11
130.73400
 21
132.32600
  0
LINE
  8
Reference_points
 62
   1
 39
0.100
  6
CONTINUOUS
 10
138.91700
 20
131.50500
 30
 0
 11
140.55700
 21
131.50500
  0
LINE
  8
Reference_points
 62
   1
 39
0.100
  6
CONTINUOUS
 10
139.73700
 20
130.68500
 30
 0
 11
139.73700
 21
132.32500
  0
LINE
  8
Reference_points
 62
   1
 39
0.100
  6
CONTINUOUS
 10
138.92100
 20
169.60800
 30
 0
 11
140.56100
 21
169.60800
  0
LINE
  8
Reference_points
 62
   1
 39
0.100
  6
CONTINUOUS
 10
139.74100
 20
168.78800
 30
 0
 11
139.74100
 21
170.42800
  0
LINE
  8
Reference_points
 62
   1
 39
0.100
  6
CONTINUOUS
 10
155.41100
 20
169.60900
 30
 0
 11
157.05100
 21
169.60900
  0
LINE
  8
Reference_points
 62
   1
 39
0.100
  6
CONTINUOUS
 10
156.23100
 20
168.78900
 30
 0
 11
156.23100
 21
170.42900
  0
LINE
  8
Reference_points
 62
   1
 39
0.100
  6
CONTINUOUS
 10
155.41100
 20
131.50500
 30
 0
 11
157.05100
 21
131.50500
  0
LINE
  8
Reference_points
 62
   1
 39
0.100
  6
CONTINUOUS
 10
156.23100
 20
130.68500
 30
 0
 11
156.23100
 21
132.32500
  0
LINE
  8
Reference_points
 62
   1
 39
0.100
  6
CONTINUOUS
 10
164.41500
 20
131.50400
 30
 0
 11
166.05500
 21
131.50400
  0
LINE
  8
Reference_points
 62
   1
 39
0.100
  6
CONTINUOUS
 10
165.23500
 20
130.68400
 30
 0
 11
165.23500
 21
132.32400
  0
LINE
  8
Reference_points
 62
   1
 39
0.100
  6
CONTINUOUS
 10
164.41900
 20
169.60700
 30
 0
 11
166.05900
 21
169.60700
  0
LINE
  8
Reference_points
 62
   1
 39
0.100
  6
CONTINUOUS
 10
165.23900
 20
168.78700
 30
 0
 11
165.23900
 21
170.42700
  0
LINE
  8
Reference_points
 62
   1
 39
0.100
  6
CONTINUOUS
 10
180.90900
 20
169.60800
 30
 0
 11
182.54900
 21
169.60800
  0
LINE
  8
Reference_points
 62
   1
 39
0.100
  6
CONTINUOUS
 10
181.72900
 20
168.78800
 30
 0
 11
181.72900
 21
170.42800
  0
LINE
  8
Reference_points
 62
   1
 39
0.100
  6
CONTINUOUS
 10
180.90900
 20
131.50400
 30
 0
 11
182.54900
 21
131.50400
  0
LINE
  8
Reference_points
 62
   1
 39
0.100
  6
CONTINUOUS
 10
181.72900
 20
130.68400
 30
 0
 11
181.72900
 21
132.32400
  0
ENDSEC
  0
EOF
