  0
SECTION
  2
HEADER
  9
$MEASUREMENT
  70
  1
  9
$INSUNITS
  70
  4
  0
ENDSEC
  0
SECTION
  2
TABLES
  0
TABLE
  2
LTYPE
 70
     1
  0
LTYPE
  2
CONTINUOUS
 70
    64
  3
Ausgezogene Linie
 72
    65
 73
     0
 40
0.0
  0
ENDTAB
  0
TABLE
  2
LAYER
 70
     3
  0
LAYER
  2
Contour
 70
    64
 62
     7
  6
CONTINUOUS
  0
LAYER
  2
Engraving
 70
    64
 62
     7
  6
CONTINUOUS
  0
LAYER
  2
Reference_points
 70
    64
 62
     1
  6
CONTINUOUS
  0
ENDTAB
  0
TABLE
  2
STYLE
 70
     1
  0
STYLE
  2
TXT
 70
    64
 40
0.0
 41
1.0
 50
0.0
 71
     0
 42
3.500000
  3
TXT
  0
ENDTAB
  0
ENDSEC
  0
SECTION
  2
BLOCKS
  0
ENDSEC
  0
SECTION
  2
ENTITIES
  0
ARC
  8
Contour
 62
   7
 39
0.100
  6
CONTINUOUS
 10
193.00000
 20
114.00000
 30
 0
 40
5.00000
 50
0.00000
 51
90.00000
  0
LINE
  8
Contour
 62
   7
 39
0.100
  6
CONTINUOUS
 10
198.00000
 20
114.00000
 30
 0
 11
198.00000
 21
5.00000
  0
ARC
  8
Contour
 62
   7
 39
0.100
  6
CONTINUOUS
 10
193.00000
 20
5.00000
 30
 0
 40
5.00000
 50
-90.00000
 51
0.00000
  0
LINE
  8
Contour
 62
   7
 39
0.100
  6
CONTINUOUS
 10
193.00000
 20
0.00000
 30
 0
 11
5.00000
 21
0.00000
  0
ARC
  8
Contour
 62
   7
 39
0.100
  6
CONTINUOUS
 10
5.00000
 20
5.00000
 30
 0
 40
5.00000
 50
180.00000
 51
270.00000
  0
LINE
  8
Contour
 62
   7
 39
0.100
  6
CONTINUOUS
 10
0.00000
 20
5.00000
 30
 0
 11
0.00000
 21
114.00000
  0
ARC
  8
Contour
 62
   7
 39
0.100
  6
CONTINUOUS
 10
5.00000
 20
114.00000
 30
 0
 40
5.00000
 50
90.00000
 51
180.00000
  0
LINE
  8
Contour
 62
   7
 39
0.100
  6
CONTINUOUS
 10
5.00000
 20
119.00000
 30
 0
 11
193.00000
 21
119.00000
  0
ARC
  8
Contour
 62
   7
 39
0.100
  6
CONTINUOUS
 10
193.00000
 20
114.00000
 30
 0
 40
5.00000
 50
0.00000
 51
90.00000
  0
LINE
  8
Contour
 62
   7
 39
0.100
  6
CONTINUOUS
 10
198.00000
 20
114.00000
 30
 0
 11
198.00000
 21
5.00000
  0
ARC
  8
Contour
 62
   7
 39
0.100
  6
CONTINUOUS
 10
193.00000
 20
5.00000
 30
 0
 40
5.00000
 50
-90.00000
 51
0.00000
  0
LINE
  8
Contour
 62
   7
 39
0.100
  6
CONTINUOUS
 10
193.00000
 20
0.00000
 30
 0
 11
5.00000
 21
0.00000
  0
ARC
  8
Contour
 62
   7
 39
0.100
  6
CONTINUOUS
 10
5.00000
 20
5.00000
 30
 0
 40
5.00000
 50
180.00000
 51
270.00000
  0
LINE
  8
Contour
 62
   7
 39
0.100
  6
CONTINUOUS
 10
0.00000
 20
5.00000
 30
 0
 11
0.00000
 21
114.00000
  0
ARC
  8
Contour
 62
   7
 39
0.100
  6
CONTINUOUS
 10
5.00000
 20
114.00000
 30
 0
 40
5.00000
 50
90.00000
 51
180.00000
  0
LINE
  8
Contour
 62
   7
 39
0.100
  6
CONTINUOUS
 10
5.00000
 20
119.00000
 30
 0
 11
193.00000
 21
119.00000
  0
ARC
  8
Contour
 62
   7
 39
0.100
  6
CONTINUOUS
 10
5.00000
 20
114.00000
 30
 0
 40
4.00000
 50
90.00000
 51
180.00000
  0
LINE
  8
Contour
 62
   7
 39
0.100
  6
CONTINUOUS
 10
1.00000
 20
114.00000
 30
 0
 11
1.00000
 21
114.00000
  0
LINE
  8
Contour
 62
   7
 39
0.100
  6
CONTINUOUS
 10
1.00000
 20
114.00000
 30
 0
 11
1.00000
 21
5.00000
  0
LINE
  8
Contour
 62
   7
 39
0.100
  6
CONTINUOUS
 10
1.00000
 20
5.00000
 30
 0
 11
1.00000
 21
5.00000
  0
LINE
  8
Contour
 62
   7
 39
0.100
  6
CONTINUOUS
 10
1.00000
 20
5.00000
 30
 0
 11
1.00000
 21
5.00000
  0
LINE
  8
Contour
 62
   7
 39
0.100
  6
CONTINUOUS
 10
1.00000
 20
5.00000
 30
 0
 11
1.00000
 21
5.00000
  0
ARC
  8
Contour
 62
   7
 39
0.100
  6
CONTINUOUS
 10
5.00000
 20
5.00000
 30
 0
 40
4.00000
 50
180.00000
 51
270.00000
  0
LINE
  8
Contour
 62
   7
 39
0.100
  6
CONTINUOUS
 10
5.00000
 20
1.00000
 30
 0
 11
5.00000
 21
1.00000
  0
LINE
  8
Contour
 62
   7
 39
0.100
  6
CONTINUOUS
 10
5.00000
 20
1.00000
 30
 0
 11
193.00000
 21
1.00000
  0
LINE
  8
Contour
 62
   7
 39
0.100
  6
CONTINUOUS
 10
193.00000
 20
1.00000
 30
 0
 11
193.00000
 21
1.00000
  0
ARC
  8
Contour
 62
   7
 39
0.100
  6
CONTINUOUS
 10
193.00000
 20
5.00000
 30
 0
 40
4.00000
 50
270.00000
 51
360.00000
  0
LINE
  8
Contour
 62
   7
 39
0.100
  6
CONTINUOUS
 10
197.00000
 20
5.00000
 30
 0
 11
197.00000
 21
5.00000
  0
LINE
  8
Contour
 62
   7
 39
0.100
  6
CONTINUOUS
 10
197.00000
 20
5.00000
 30
 0
 11
197.00000
 21
114.00000
  0
LINE
  8
Contour
 62
   7
 39
0.100
  6
CONTINUOUS
 10
197.00000
 20
114.00000
 30
 0
 11
197.00000
 21
114.00000
  0
ARC
  8
Contour
 62
   7
 39
0.100
  6
CONTINUOUS
 10
193.00000
 20
114.00000
 30
 0
 40
4.00000
 50
0.00000
 51
90.00000
  0
LINE
  8
Contour
 62
   7
 39
0.100
  6
CONTINUOUS
 10
193.00000
 20
118.00000
 30
 0
 11
5.00000
 21
118.00000
  0
ARC
  8
Contour
 62
   7
 39
0.100
  6
CONTINUOUS
 10
193.00000
 20
114.00000
 30
 0
 40
5.00000
 50
0.00000
 51
90.00000
  0
LINE
  8
Contour
 62
   7
 39
0.100
  6
CONTINUOUS
 10
198.00000
 20
114.00000
 30
 0
 11
198.00000
 21
5.00000
  0
ARC
  8
Contour
 62
   7
 39
0.100
  6
CONTINUOUS
 10
193.00000
 20
5.00000
 30
 0
 40
5.00000
 50
-90.00000
 51
0.00000
  0
LINE
  8
Contour
 62
   7
 39
0.100
  6
CONTINUOUS
 10
193.00000
 20
0.00000
 30
 0
 11
5.00000
 21
0.00000
  0
ARC
  8
Contour
 62
   7
 39
0.100
  6
CONTINUOUS
 10
5.00000
 20
5.00000
 30
 0
 40
5.00000
 50
180.00000
 51
270.00000
  0
LINE
  8
Contour
 62
   7
 39
0.100
  6
CONTINUOUS
 10
0.00000
 20
5.00000
 30
 0
 11
0.00000
 21
114.00000
  0
ARC
  8
Contour
 62
   7
 39
0.100
  6
CONTINUOUS
 10
5.00000
 20
114.00000
 30
 0
 40
5.00000
 50
90.00000
 51
180.00000
  0
LINE
  8
Contour
 62
   7
 39
0.100
  6
CONTINUOUS
 10
5.00000
 20
119.00000
 30
 0
 11
193.00000
 21
119.00000
  0
LINE
  8
Engraving
 62
   153
 39
0.400
  6
CONTINUOUS
 10
3.94109
 20
22.99700
 30
 0
 11
3.94491
 21
95.99700
  0
LINE
  8
Engraving
 62
   153
 39
0.400
  6
CONTINUOUS
 10
183.96800
 20
115.04700
 30
 0
 11
13.96800
 21
115.04700
  0
LINE
  8
Engraving
 62
   153
 39
0.400
  6
CONTINUOUS
 10
183.77700
 20
4.03800
 30
 0
 11
13.77700
 21
4.03800
  0
LINE
  8
Engraving
 62
   153
 39
0.400
  6
CONTINUOUS
 10
193.90900
 20
95.99500
 30
 0
 11
193.90900
 21
22.99500
  0
LINE
  8
Engraving
 62
   153
 39
0.400
  6
CONTINUOUS
 10
13.95600
 20
95.99400
 30
 0
 11
13.95600
 21
114.99400
  0
LINE
  8
Engraving
 62
   153
 39
0.400
  6
CONTINUOUS
 10
13.95100
 20
96.02900
 30
 0
 11
3.95100
 21
96.02900
  0
LINE
  8
Engraving
 62
   153
 39
0.400
  6
CONTINUOUS
 10
183.98300
 20
96.03100
 30
 0
 11
193.98300
 21
96.03100
  0
LINE
  8
Engraving
 62
   153
 39
0.400
  6
CONTINUOUS
 10
3.94700
 20
23.02800
 30
 0
 11
13.94500
 21
23.02800
  0
LINE
  8
Engraving
 62
   153
 39
0.400
  6
CONTINUOUS
 10
183.95400
 20
23.01900
 30
 0
 11
193.95400
 21
23.01900
  0
LINE
  8
Engraving
 62
   153
 39
0.400
  6
CONTINUOUS
 10
183.94500
 20
96.03000
 30
 0
 11
183.94500
 21
115.02800
  0
LINE
  8
Engraving
 62
   153
 39
0.400
  6
CONTINUOUS
 10
13.94800
 20
22.98100
 30
 0
 11
13.94800
 21
3.98100
  0
LINE
  8
Engraving
 62
   153
 39
0.400
  6
CONTINUOUS
 10
183.92500
 20
22.95300
 30
 0
 11
183.92500
 21
3.95300
  0
LINE
  8
Engraving
 62
   153
 39
0.200
  6
CONTINUOUS
 10
41.94500
 20
115.02800
 30
 0
 11
41.94500
 21
4.02800
  0
LINE
  8
Engraving
 62
   153
 39
0.200
  6
CONTINUOUS
 10
159.94500
 20
115.02800
 30
 0
 11
159.94500
 21
4.02800
  0
LINE
  8
Engraving
 62
   153
 39
0.200
  6
CONTINUOUS
 10
133.94500
 20
115.02800
 30
 0
 11
133.94500
 21
4.02800
  0
LINE
  8
Engraving
 62
   153
 39
0.200
  6
CONTINUOUS
 10
107.94500
 20
115.02800
 30
 0
 11
107.94500
 21
4.02800
  0
LINE
  8
Engraving
 62
   153
 39
0.200
  6
CONTINUOUS
 10
81.94500
 20
115.02800
 30
 0
 11
81.94500
 21
4.02800
  0
LINE
  8
Engraving
 62
   153
 39
0.200
  6
CONTINUOUS
 10
11.94100
 20
41.03000
 30
 0
 11
81.94500
 21
41.03000
  0
LINE
  8
Engraving
 62
   153
 39
0.200
  6
CONTINUOUS
 10
11.92900
 20
78.03600
 30
 0
 11
81.92900
 21
78.03600
  0
LINE
  8
Engraving
 62
   153
 39
0.200
  6
CONTINUOUS
 10
185.92300
 20
87.32400
 30
 0
 11
81.92300
 21
87.32400
  0
LINE
  8
Engraving
 62
   153
 39
0.200
  6
CONTINUOUS
 10
186.11100
 20
59.50900
 30
 0
 11
82.11100
 21
59.50900
  0
LINE
  8
Engraving
 62
   153
 39
0.200
  6
CONTINUOUS
 10
185.94500
 20
31.78900
 30
 0
 11
81.94500
 21
31.78900
  0
LINE
  8
Engraving
 62
   153
 39
0.200
  6
CONTINUOUS
 10
185.87272
 20
95.96098
 30
 0
 11
185.94528
 21
23.02902
  0
LINE
  8
Engraving
 62
   153
 39
0.200
  6
CONTINUOUS
 10
11.94109
 20
22.96600
 30
 0
 11
11.94491
 21
96.02800
  0
ARC
  8
Contour
 62
   7
 39
0.100
  6
CONTINUOUS
 10
15.25000
 20
10.78400
 30
 0
 40
1.00000
 50
180.00000
 51
270.00000
  0
LINE
  8
Contour
 62
   7
 39
0.100
  6
CONTINUOUS
 10
15.25000
 20
9.78400
 30
 0
 11
38.65000
 21
9.78400
  0
ARC
  8
Contour
 62
   7
 39
0.100
  6
CONTINUOUS
 10
38.65000
 20
10.78400
 30
 0
 40
1.00000
 50
270.00000
 51
360.00000
  0
LINE
  8
Contour
 62
   7
 39
0.100
  6
CONTINUOUS
 10
39.65000
 20
10.78400
 30
 0
 11
39.65000
 21
34.18400
  0
ARC
  8
Contour
 62
   7
 39
0.100
  6
CONTINUOUS
 10
38.65000
 20
34.18400
 30
 0
 40
1.00000
 50
0.00000
 51
90.00000
  0
LINE
  8
Contour
 62
   7
 39
0.100
  6
CONTINUOUS
 10
38.65000
 20
35.18400
 30
 0
 11
15.25000
 21
35.18400
  0
ARC
  8
Contour
 62
   7
 39
0.100
  6
CONTINUOUS
 10
15.25000
 20
34.18400
 30
 0
 40
1.00000
 50
90.00000
 51
180.00000
  0
LINE
  8
Contour
 62
   7
 39
0.100
  6
CONTINUOUS
 10
14.25000
 20
34.18400
 30
 0
 11
14.25000
 21
10.78400
  0
ARC
  8
Contour
 62
   7
 39
0.100
  6
CONTINUOUS
 10
15.24900
 20
47.78700
 30
 0
 40
1.00000
 50
180.00000
 51
270.00000
  0
LINE
  8
Contour
 62
   7
 39
0.100
  6
CONTINUOUS
 10
15.24900
 20
46.78700
 30
 0
 11
38.64900
 21
46.78700
  0
ARC
  8
Contour
 62
   7
 39
0.100
  6
CONTINUOUS
 10
38.64900
 20
47.78700
 30
 0
 40
1.00000
 50
270.00000
 51
360.00000
  0
LINE
  8
Contour
 62
   7
 39
0.100
  6
CONTINUOUS
 10
39.64900
 20
47.78700
 30
 0
 11
39.64900
 21
71.18700
  0
ARC
  8
Contour
 62
   7
 39
0.100
  6
CONTINUOUS
 10
38.64900
 20
71.18700
 30
 0
 40
1.00000
 50
0.00000
 51
90.00000
  0
LINE
  8
Contour
 62
   7
 39
0.100
  6
CONTINUOUS
 10
38.64900
 20
72.18700
 30
 0
 11
15.24900
 21
72.18700
  0
ARC
  8
Contour
 62
   7
 39
0.100
  6
CONTINUOUS
 10
15.24900
 20
71.18700
 30
 0
 40
1.00000
 50
90.00000
 51
180.00000
  0
LINE
  8
Contour
 62
   7
 39
0.100
  6
CONTINUOUS
 10
14.24900
 20
71.18700
 30
 0
 11
14.24900
 21
47.78700
  0
ARC
  8
Contour
 62
   7
 39
0.100
  6
CONTINUOUS
 10
45.37100
 20
44.75900
 30
 0
 40
3.00000
 50
180.00000
 51
270.00000
  0
LINE
  8
Contour
 62
   7
 39
0.100
  6
CONTINUOUS
 10
45.37100
 20
41.75900
 30
 0
 11
77.47100
 21
41.75900
  0
ARC
  8
Contour
 62
   7
 39
0.100
  6
CONTINUOUS
 10
77.47100
 20
44.75900
 30
 0
 40
3.00000
 50
270.00000
 51
360.00000
  0
LINE
  8
Contour
 62
   7
 39
0.100
  6
CONTINUOUS
 10
80.47100
 20
44.75900
 30
 0
 11
80.47100
 21
74.31900
  0
ARC
  8
Contour
 62
   7
 39
0.100
  6
CONTINUOUS
 10
77.47100
 20
74.31900
 30
 0
 40
3.00000
 50
0.00000
 51
90.00000
  0
LINE
  8
Contour
 62
   7
 39
0.100
  6
CONTINUOUS
 10
77.47100
 20
77.31900
 30
 0
 11
45.37100
 21
77.31900
  0
ARC
  8
Contour
 62
   7
 39
0.100
  6
CONTINUOUS
 10
45.37100
 20
74.31900
 30
 0
 40
3.00000
 50
90.00000
 51
180.00000
  0
LINE
  8
Contour
 62
   7
 39
0.100
  6
CONTINUOUS
 10
42.37100
 20
74.31900
 30
 0
 11
42.37100
 21
44.75900
  0
ARC
  8
Contour
 62
   7
 39
0.100
  6
CONTINUOUS
 10
15.24800
 20
84.79200
 30
 0
 40
1.00000
 50
180.00000
 51
270.00000
  0
LINE
  8
Contour
 62
   7
 39
0.100
  6
CONTINUOUS
 10
15.24800
 20
83.79200
 30
 0
 11
38.64800
 21
83.79200
  0
ARC
  8
Contour
 62
   7
 39
0.100
  6
CONTINUOUS
 10
38.64800
 20
84.79200
 30
 0
 40
1.00000
 50
270.00000
 51
360.00000
  0
LINE
  8
Contour
 62
   7
 39
0.100
  6
CONTINUOUS
 10
39.64800
 20
84.79200
 30
 0
 11
39.64800
 21
108.19200
  0
ARC
  8
Contour
 62
   7
 39
0.100
  6
CONTINUOUS
 10
38.64800
 20
108.19200
 30
 0
 40
1.00000
 50
0.00000
 51
90.00000
  0
LINE
  8
Contour
 62
   7
 39
0.100
  6
CONTINUOUS
 10
38.64800
 20
109.19200
 30
 0
 11
15.24800
 21
109.19200
  0
ARC
  8
Contour
 62
   7
 39
0.100
  6
CONTINUOUS
 10
15.24800
 20
108.19200
 30
 0
 40
1.00000
 50
90.00000
 51
180.00000
  0
LINE
  8
Contour
 62
   7
 39
0.100
  6
CONTINUOUS
 10
14.24800
 20
108.19200
 30
 0
 11
14.24800
 21
84.79200
  0
ARC
  8
Contour
 62
   7
 39
0.100
  6
CONTINUOUS
 10
40.05700
 20
79.03800
 30
 0
 40
1.00000
 50
180.00000
 51
270.00000
  0
LINE
  8
Contour
 62
   7
 39
0.100
  6
CONTINUOUS
 10
40.05700
 20
78.03800
 30
 0
 11
83.85700
 21
78.03800
  0
ARC
  8
Contour
 62
   7
 39
0.100
  6
CONTINUOUS
 10
83.85700
 20
79.03800
 30
 0
 40
1.00000
 50
270.00000
 51
360.00000
  0
LINE
  8
Contour
 62
   7
 39
0.100
  6
CONTINUOUS
 10
84.85700
 20
79.03800
 30
 0
 11
84.85700
 21
113.83800
  0
ARC
  8
Contour
 62
   7
 39
0.100
  6
CONTINUOUS
 10
83.85700
 20
113.83800
 30
 0
 40
1.00000
 50
0.00000
 51
90.00000
  0
LINE
  8
Contour
 62
   7
 39
0.100
  6
CONTINUOUS
 10
83.85700
 20
114.83800
 30
 0
 11
40.05700
 21
114.83800
  0
ARC
  8
Contour
 62
   7
 39
0.100
  6
CONTINUOUS
 10
40.05700
 20
113.83800
 30
 0
 40
1.00000
 50
90.00000
 51
180.00000
  0
LINE
  8
Contour
 62
   7
 39
0.100
  6
CONTINUOUS
 10
39.05700
 20
113.83800
 30
 0
 11
39.05700
 21
79.03800
  0
CIRCLE
  8
Contour
 62
   7
 39
0.100
  6
CONTINUOUS
 10
4.69500
 20
5.27800
 30
 0
 40
4.00000
  0
CIRCLE
  8
Contour
 62
   7
 39
0.100
  6
CONTINUOUS
 10
4.69500
 20
5.27800
 30
 0
 40
2.15000
  0
CIRCLE
  8
Contour
 62
   7
 39
0.100
  6
CONTINUOUS
 10
4.69500
 20
5.27800
 30
 0
 40
4.00000
  0
CIRCLE
  8
Contour
 62
   7
 39
0.100
  6
CONTINUOUS
 10
4.69500
 20
5.27800
 30
 0
 40
2.15000
  0
CIRCLE
  8
Contour
 62
   7
 39
0.100
  6
CONTINUOUS
 10
4.69500
 20
113.77800
 30
 0
 40
4.00000
  0
CIRCLE
  8
Contour
 62
   7
 39
0.100
  6
CONTINUOUS
 10
4.69500
 20
113.77800
 30
 0
 40
2.15000
  0
CIRCLE
  8
Contour
 62
   7
 39
0.100
  6
CONTINUOUS
 10
4.69500
 20
113.77800
 30
 0
 40
4.00000
  0
CIRCLE
  8
Contour
 62
   7
 39
0.100
  6
CONTINUOUS
 10
4.69500
 20
113.77800
 30
 0
 40
2.15000
  0
CIRCLE
  8
Contour
 62
   7
 39
0.100
  6
CONTINUOUS
 10
193.19500
 20
113.77800
 30
 0
 40
4.00000
  0
CIRCLE
  8
Contour
 62
   7
 39
0.100
  6
CONTINUOUS
 10
193.19500
 20
113.77800
 30
 0
 40
2.15000
  0
CIRCLE
  8
Contour
 62
   7
 39
0.100
  6
CONTINUOUS
 10
193.19500
 20
113.77800
 30
 0
 40
4.00000
  0
CIRCLE
  8
Contour
 62
   7
 39
0.100
  6
CONTINUOUS
 10
193.19500
 20
113.77800
 30
 0
 40
2.15000
  0
CIRCLE
  8
Contour
 62
   7
 39
0.100
  6
CONTINUOUS
 10
193.19500
 20
5.27800
 30
 0
 40
4.00000
  0
CIRCLE
  8
Contour
 62
   7
 39
0.100
  6
CONTINUOUS
 10
193.19500
 20
5.27800
 30
 0
 40
2.15000
  0
CIRCLE
  8
Contour
 62
   7
 39
0.100
  6
CONTINUOUS
 10
193.19500
 20
5.27800
 30
 0
 40
4.00000
  0
CIRCLE
  8
Contour
 62
   7
 39
0.100
  6
CONTINUOUS
 10
193.19500
 20
5.27800
 30
 0
 40
2.15000
  0
CIRCLE
  8
Contour
 62
   7
 39
0.100
  6
CONTINUOUS
 10
26.94500
 20
59.49400
 30
 0
 40
3.50000
  0
CIRCLE
  8
Contour
 62
   7
 39
0.100
  6
CONTINUOUS
 10
93.94000
 20
17.84700
 30
 0
 40
8.00000
  0
CIRCLE
  8
Contour
 62
   7
 39
0.100
  6
CONTINUOUS
 10
119.94000
 20
17.84700
 30
 0
 40
8.00000
  0
CIRCLE
  8
Contour
 62
   7
 39
0.100
  6
CONTINUOUS
 10
145.94000
 20
17.84700
 30
 0
 40
8.00000
  0
CIRCLE
  8
Contour
 62
   7
 39
0.100
  6
CONTINUOUS
 10
172.94000
 20
17.84700
 30
 0
 40
8.00000
  0
CIRCLE
  8
Contour
 62
   7
 39
0.100
  6
CONTINUOUS
 10
93.95100
 20
45.62700
 30
 0
 40
8.00000
  0
CIRCLE
  8
Contour
 62
   7
 39
0.100
  6
CONTINUOUS
 10
119.95100
 20
45.62700
 30
 0
 40
8.00000
  0
CIRCLE
  8
Contour
 62
   7
 39
0.100
  6
CONTINUOUS
 10
145.95100
 20
45.62700
 30
 0
 40
8.00000
  0
CIRCLE
  8
Contour
 62
   7
 39
0.100
  6
CONTINUOUS
 10
172.95100
 20
45.62700
 30
 0
 40
8.00000
  0
CIRCLE
  8
Contour
 62
   7
 39
0.100
  6
CONTINUOUS
 10
94.94000
 20
101.18800
 30
 0
 40
3.00000
  0
CIRCLE
  8
Contour
 62
   7
 39
0.100
  6
CONTINUOUS
 10
120.94000
 20
101.18800
 30
 0
 40
3.00000
  0
CIRCLE
  8
Contour
 62
   7
 39
0.100
  6
CONTINUOUS
 10
146.94000
 20
101.18800
 30
 0
 40
3.00000
  0
CIRCLE
  8
Contour
 62
   7
 39
0.100
  6
CONTINUOUS
 10
172.94000
 20
101.18800
 30
 0
 40
3.00000
  0
CIRCLE
  8
Contour
 62
   7
 39
0.100
  6
CONTINUOUS
 10
93.94500
 20
73.43800
 30
 0
 40
8.00000
  0
CIRCLE
  8
Contour
 62
   7
 39
0.100
  6
CONTINUOUS
 10
120.94500
 20
73.43800
 30
 0
 40
8.00000
  0
CIRCLE
  8
Contour
 62
   7
 39
0.100
  6
CONTINUOUS
 10
146.94500
 20
73.43800
 30
 0
 40
8.00000
  0
CIRCLE
  8
Contour
 62
   7
 39
0.100
  6
CONTINUOUS
 10
172.94500
 20
73.43800
 30
 0
 40
8.00000
  0
CIRCLE
  8
Contour
 62
   7
 39
0.100
  6
CONTINUOUS
 10
61.89200
 20
22.47900
 30
 0
 40
15.00000
  0
CIRCLE
  8
Contour
 62
   7
 39
0.100
  6
CONTINUOUS
 10
61.91700
 20
59.53900
 30
 0
 40
17.25000
  0
ARC
  8
Contour
 62
   7
 39
0.100
  6
CONTINUOUS
 10
47.40500
 20
85.89400
 30
 0
 40
4.50000
 50
180.00000
 51
270.00000
  0
LINE
  8
Contour
 62
   7
 39
0.100
  6
CONTINUOUS
 10
47.40500
 20
81.39400
 30
 0
 11
76.50500
 21
81.39400
  0
ARC
  8
Contour
 62
   7
 39
0.100
  6
CONTINUOUS
 10
76.50500
 20
85.89400
 30
 0
 40
4.50000
 50
270.00000
 51
360.00000
  0
LINE
  8
Contour
 62
   7
 39
0.100
  6
CONTINUOUS
 10
81.00500
 20
85.89400
 30
 0
 11
81.00500
 21
106.99400
  0
ARC
  8
Contour
 62
   7
 39
0.100
  6
CONTINUOUS
 10
76.50500
 20
106.99400
 30
 0
 40
4.50000
 50
0.00000
 51
90.00000
  0
LINE
  8
Contour
 62
   7
 39
0.100
  6
CONTINUOUS
 10
76.50500
 20
111.49400
 30
 0
 11
47.40500
 21
111.49400
  0
ARC
  8
Contour
 62
   7
 39
0.100
  6
CONTINUOUS
 10
47.40500
 20
106.99400
 30
 0
 40
4.50000
 50
90.00000
 51
180.00000
  0
LINE
  8
Contour
 62
   7
 39
0.100
  6
CONTINUOUS
 10
42.90500
 20
106.99400
 30
 0
 11
42.90500
 21
85.89400
  0
CIRCLE
  8
Contour
 62
   7
 39
0.100
  6
CONTINUOUS
 10
37.10100
 20
69.66200
 30
 0
 40
1.50000
  0
CIRCLE
  8
Contour
 62
   7
 39
0.100
  6
CONTINUOUS
 10
16.77000
 20
69.66200
 30
 0
 40
1.50000
  0
CIRCLE
  8
Contour
 62
   7
 39
0.100
  6
CONTINUOUS
 10
16.77000
 20
49.33600
 30
 0
 40
1.50000
  0
CIRCLE
  8
Contour
 62
   7
 39
0.100
  6
CONTINUOUS
 10
37.10100
 20
49.33600
 30
 0
 40
1.50000
  0
CIRCLE
  8
Contour
 62
   7
 39
0.100
  6
CONTINUOUS
 10
16.77400
 20
59.48700
 30
 0
 40
2.00000
  0
CIRCLE
  8
Contour
 62
   7
 39
0.100
  6
CONTINUOUS
 10
26.94400
 20
96.49900
 30
 0
 40
3.50000
  0
CIRCLE
  8
Contour
 62
   7
 39
0.100
  6
CONTINUOUS
 10
37.10000
 20
106.66700
 30
 0
 40
1.50000
  0
CIRCLE
  8
Contour
 62
   7
 39
0.100
  6
CONTINUOUS
 10
16.76900
 20
106.66700
 30
 0
 40
1.50000
  0
CIRCLE
  8
Contour
 62
   7
 39
0.100
  6
CONTINUOUS
 10
16.76900
 20
86.34100
 30
 0
 40
1.50000
  0
CIRCLE
  8
Contour
 62
   7
 39
0.100
  6
CONTINUOUS
 10
37.10000
 20
86.34100
 30
 0
 40
1.50000
  0
CIRCLE
  8
Contour
 62
   7
 39
0.100
  6
CONTINUOUS
 10
16.77300
 20
96.49200
 30
 0
 40
2.00000
  0
CIRCLE
  8
Contour
 62
   7
 39
0.100
  6
CONTINUOUS
 10
26.94600
 20
22.49100
 30
 0
 40
3.50000
  0
CIRCLE
  8
Contour
 62
   7
 39
0.100
  6
CONTINUOUS
 10
37.10200
 20
32.65900
 30
 0
 40
1.50000
  0
CIRCLE
  8
Contour
 62
   7
 39
0.100
  6
CONTINUOUS
 10
16.77100
 20
32.65900
 30
 0
 40
1.50000
  0
CIRCLE
  8
Contour
 62
   7
 39
0.100
  6
CONTINUOUS
 10
16.77100
 20
12.33300
 30
 0
 40
1.50000
  0
CIRCLE
  8
Contour
 62
   7
 39
0.100
  6
CONTINUOUS
 10
37.10200
 20
12.33300
 30
 0
 40
1.50000
  0
CIRCLE
  8
Contour
 62
   7
 39
0.100
  6
CONTINUOUS
 10
16.77500
 20
22.48400
 30
 0
 40
2.00000
  0
CIRCLE
  8
Contour
 62
   7
 39
0.100
  6
CONTINUOUS
 10
42.58100
 20
112.32200
 30
 0
 40
1.50000
  0
CIRCLE
  8
Contour
 62
   7
 39
0.100
  6
CONTINUOUS
 10
81.32200
 20
112.32800
 30
 0
 40
1.50000
  0
CIRCLE
  8
Contour
 62
   7
 39
0.100
  6
CONTINUOUS
 10
81.31900
 20
80.56500
 30
 0
 40
1.50000
  0
CIRCLE
  8
Contour
 62
   7
 39
0.100
  6
CONTINUOUS
 10
42.57600
 20
80.56200
 30
 0
 40
1.50000
  0
CIRCLE
  8
Contour
 62
   7
 39
0.100
  6
CONTINUOUS
 10
46.18100
 20
74.78500
 30
 0
 40
1.50000
  0
CIRCLE
  8
Contour
 62
   7
 39
0.100
  6
CONTINUOUS
 10
76.67100
 20
74.78100
 30
 0
 40
1.50000
  0
CIRCLE
  8
Contour
 62
   7
 39
0.100
  6
CONTINUOUS
 10
76.66500
 20
44.30200
 30
 0
 40
1.50000
  0
CIRCLE
  8
Contour
 62
   7
 39
0.100
  6
CONTINUOUS
 10
46.18600
 20
44.30100
 30
 0
 40
1.50000
  0
LINE
  8
Reference_points
 62
   1
 39
0.100
  6
CONTINUOUS
 10
-0.49800
 20
0.00000
 30
 0
 11
0.49800
 21
0.00000
  0
LINE
  8
Reference_points
 62
   1
 39
0.100
  6
CONTINUOUS
 10
0.00000
 20
-0.49800
 30
 0
 11
0.00000
 21
0.49800
  0
LINE
  8
Reference_points
 62
   1
 39
0.100
  6
CONTINUOUS
 10
4.19700
 20
5.27800
 30
 0
 11
5.19300
 21
5.27800
  0
LINE
  8
Reference_points
 62
   1
 39
0.100
  6
CONTINUOUS
 10
4.69500
 20
4.78000
 30
 0
 11
4.69500
 21
5.77600
  0
LINE
  8
Reference_points
 62
   1
 39
0.100
  6
CONTINUOUS
 10
4.19700
 20
113.77800
 30
 0
 11
5.19300
 21
113.77800
  0
LINE
  8
Reference_points
 62
   1
 39
0.100
  6
CONTINUOUS
 10
4.69500
 20
113.28000
 30
 0
 11
4.69500
 21
114.27600
  0
LINE
  8
Reference_points
 62
   1
 39
0.100
  6
CONTINUOUS
 10
192.69700
 20
113.77800
 30
 0
 11
193.69300
 21
113.77800
  0
LINE
  8
Reference_points
 62
   1
 39
0.100
  6
CONTINUOUS
 10
193.19500
 20
113.28000
 30
 0
 11
193.19500
 21
114.27600
  0
LINE
  8
Reference_points
 62
   1
 39
0.100
  6
CONTINUOUS
 10
192.69700
 20
5.27800
 30
 0
 11
193.69300
 21
5.27800
  0
LINE
  8
Reference_points
 62
   1
 39
0.100
  6
CONTINUOUS
 10
193.19500
 20
4.78000
 30
 0
 11
193.19500
 21
5.77600
  0
LINE
  8
Reference_points
 62
   1
 39
0.100
  6
CONTINUOUS
 10
3.44500
 20
59.49700
 30
 0
 11
4.44100
 21
59.49700
  0
LINE
  8
Reference_points
 62
   1
 39
0.100
  6
CONTINUOUS
 10
3.94300
 20
58.99900
 30
 0
 11
3.94300
 21
59.99500
  0
LINE
  8
Reference_points
 62
   1
 39
0.100
  6
CONTINUOUS
 10
98.47000
 20
115.04700
 30
 0
 11
99.46600
 21
115.04700
  0
LINE
  8
Reference_points
 62
   1
 39
0.100
  6
CONTINUOUS
 10
98.96800
 20
114.54900
 30
 0
 11
98.96800
 21
115.54500
  0
LINE
  8
Reference_points
 62
   1
 39
0.100
  6
CONTINUOUS
 10
98.27900
 20
4.03800
 30
 0
 11
99.27500
 21
4.03800
  0
LINE
  8
Reference_points
 62
   1
 39
0.100
  6
CONTINUOUS
 10
98.77700
 20
3.54000
 30
 0
 11
98.77700
 21
4.53600
  0
LINE
  8
Reference_points
 62
   1
 39
0.100
  6
CONTINUOUS
 10
193.41100
 20
59.49500
 30
 0
 11
194.40700
 21
59.49500
  0
LINE
  8
Reference_points
 62
   1
 39
0.100
  6
CONTINUOUS
 10
193.90900
 20
58.99700
 30
 0
 11
193.90900
 21
59.99300
  0
LINE
  8
Reference_points
 62
   1
 39
0.100
  6
CONTINUOUS
 10
13.45800
 20
105.49400
 30
 0
 11
14.45400
 21
105.49400
  0
LINE
  8
Reference_points
 62
   1
 39
0.100
  6
CONTINUOUS
 10
13.95600
 20
104.99600
 30
 0
 11
13.95600
 21
105.99200
  0
LINE
  8
Reference_points
 62
   1
 39
0.100
  6
CONTINUOUS
 10
8.45300
 20
96.02900
 30
 0
 11
9.44900
 21
96.02900
  0
LINE
  8
Reference_points
 62
   1
 39
0.100
  6
CONTINUOUS
 10
8.95100
 20
95.53100
 30
 0
 11
8.95100
 21
96.52700
  0
LINE
  8
Reference_points
 62
   1
 39
0.100
  6
CONTINUOUS
 10
188.48500
 20
96.03100
 30
 0
 11
189.48100
 21
96.03100
  0
LINE
  8
Reference_points
 62
   1
 39
0.100
  6
CONTINUOUS
 10
188.98300
 20
95.53300
 30
 0
 11
188.98300
 21
96.52900
  0
LINE
  8
Reference_points
 62
   1
 39
0.100
  6
CONTINUOUS
 10
8.44800
 20
23.02800
 30
 0
 11
9.44400
 21
23.02800
  0
LINE
  8
Reference_points
 62
   1
 39
0.100
  6
CONTINUOUS
 10
8.94600
 20
22.53000
 30
 0
 11
8.94600
 21
23.52600
  0
LINE
  8
Reference_points
 62
   1
 39
0.100
  6
CONTINUOUS
 10
188.45600
 20
23.01900
 30
 0
 11
189.45200
 21
23.01900
  0
LINE
  8
Reference_points
 62
   1
 39
0.100
  6
CONTINUOUS
 10
188.95400
 20
22.52100
 30
 0
 11
188.95400
 21
23.51700
  0
LINE
  8
Reference_points
 62
   1
 39
0.100
  6
CONTINUOUS
 10
183.44700
 20
105.52900
 30
 0
 11
184.44300
 21
105.52900
  0
LINE
  8
Reference_points
 62
   1
 39
0.100
  6
CONTINUOUS
 10
183.94500
 20
105.03100
 30
 0
 11
183.94500
 21
106.02700
  0
LINE
  8
Reference_points
 62
   1
 39
0.100
  6
CONTINUOUS
 10
13.45000
 20
13.48100
 30
 0
 11
14.44600
 21
13.48100
  0
LINE
  8
Reference_points
 62
   1
 39
0.100
  6
CONTINUOUS
 10
13.94800
 20
12.98300
 30
 0
 11
13.94800
 21
13.97900
  0
LINE
  8
Reference_points
 62
   1
 39
0.100
  6
CONTINUOUS
 10
183.42700
 20
13.45300
 30
 0
 11
184.42300
 21
13.45300
  0
LINE
  8
Reference_points
 62
   1
 39
0.100
  6
CONTINUOUS
 10
183.92500
 20
12.95500
 30
 0
 11
183.92500
 21
13.95100
  0
LINE
  8
Reference_points
 62
   1
 39
0.100
  6
CONTINUOUS
 10
41.44700
 20
59.52800
 30
 0
 11
42.44300
 21
59.52800
  0
LINE
  8
Reference_points
 62
   1
 39
0.100
  6
CONTINUOUS
 10
41.94500
 20
59.03000
 30
 0
 11
41.94500
 21
60.02600
  0
LINE
  8
Reference_points
 62
   1
 39
0.100
  6
CONTINUOUS
 10
159.44700
 20
59.52800
 30
 0
 11
160.44300
 21
59.52800
  0
LINE
  8
Reference_points
 62
   1
 39
0.100
  6
CONTINUOUS
 10
159.94500
 20
59.03000
 30
 0
 11
159.94500
 21
60.02600
  0
LINE
  8
Reference_points
 62
   1
 39
0.100
  6
CONTINUOUS
 10
133.44700
 20
59.52800
 30
 0
 11
134.44300
 21
59.52800
  0
LINE
  8
Reference_points
 62
   1
 39
0.100
  6
CONTINUOUS
 10
133.94500
 20
59.03000
 30
 0
 11
133.94500
 21
60.02600
  0
LINE
  8
Reference_points
 62
   1
 39
0.100
  6
CONTINUOUS
 10
107.44700
 20
59.52800
 30
 0
 11
108.44300
 21
59.52800
  0
LINE
  8
Reference_points
 62
   1
 39
0.100
  6
CONTINUOUS
 10
107.94500
 20
59.03000
 30
 0
 11
107.94500
 21
60.02600
  0
LINE
  8
Reference_points
 62
   1
 39
0.100
  6
CONTINUOUS
 10
81.44700
 20
59.52800
 30
 0
 11
82.44300
 21
59.52800
  0
LINE
  8
Reference_points
 62
   1
 39
0.100
  6
CONTINUOUS
 10
81.94500
 20
59.03000
 30
 0
 11
81.94500
 21
60.02600
  0
LINE
  8
Reference_points
 62
   1
 39
0.100
  6
CONTINUOUS
 10
46.44500
 20
41.03000
 30
 0
 11
47.44100
 21
41.03000
  0
LINE
  8
Reference_points
 62
   1
 39
0.100
  6
CONTINUOUS
 10
46.94300
 20
40.53200
 30
 0
 11
46.94300
 21
41.52800
  0
LINE
  8
Reference_points
 62
   1
 39
0.100
  6
CONTINUOUS
 10
46.43100
 20
78.03600
 30
 0
 11
47.42700
 21
78.03600
  0
LINE
  8
Reference_points
 62
   1
 39
0.100
  6
CONTINUOUS
 10
46.92900
 20
77.53800
 30
 0
 11
46.92900
 21
78.53400
  0
LINE
  8
Reference_points
 62
   1
 39
0.100
  6
CONTINUOUS
 10
26.44700
 20
59.49400
 30
 0
 11
27.44300
 21
59.49400
  0
LINE
  8
Reference_points
 62
   1
 39
0.100
  6
CONTINUOUS
 10
26.94500
 20
58.99600
 30
 0
 11
26.94500
 21
59.99200
  0
LINE
  8
Reference_points
 62
   1
 39
0.100
  6
CONTINUOUS
 10
133.42500
 20
87.32400
 30
 0
 11
134.42100
 21
87.32400
  0
LINE
  8
Reference_points
 62
   1
 39
0.100
  6
CONTINUOUS
 10
133.92300
 20
86.82600
 30
 0
 11
133.92300
 21
87.82200
  0
LINE
  8
Reference_points
 62
   1
 39
0.100
  6
CONTINUOUS
 10
133.61300
 20
59.50900
 30
 0
 11
134.60900
 21
59.50900
  0
LINE
  8
Reference_points
 62
   1
 39
0.100
  6
CONTINUOUS
 10
134.11100
 20
59.01100
 30
 0
 11
134.11100
 21
60.00700
  0
LINE
  8
Reference_points
 62
   1
 39
0.100
  6
CONTINUOUS
 10
133.44700
 20
31.78900
 30
 0
 11
134.44300
 21
31.78900
  0
LINE
  8
Reference_points
 62
   1
 39
0.100
  6
CONTINUOUS
 10
133.94500
 20
31.29100
 30
 0
 11
133.94500
 21
32.28700
  0
LINE
  8
Reference_points
 62
   1
 39
0.100
  6
CONTINUOUS
 10
93.44200
 20
17.84700
 30
 0
 11
94.43800
 21
17.84700
  0
LINE
  8
Reference_points
 62
   1
 39
0.100
  6
CONTINUOUS
 10
93.94000
 20
17.34900
 30
 0
 11
93.94000
 21
18.34500
  0
LINE
  8
Reference_points
 62
   1
 39
0.100
  6
CONTINUOUS
 10
119.44200
 20
17.84700
 30
 0
 11
120.43800
 21
17.84700
  0
LINE
  8
Reference_points
 62
   1
 39
0.100
  6
CONTINUOUS
 10
119.94000
 20
17.34900
 30
 0
 11
119.94000
 21
18.34500
  0
LINE
  8
Reference_points
 62
   1
 39
0.100
  6
CONTINUOUS
 10
145.44200
 20
17.84700
 30
 0
 11
146.43800
 21
17.84700
  0
LINE
  8
Reference_points
 62
   1
 39
0.100
  6
CONTINUOUS
 10
145.94000
 20
17.34900
 30
 0
 11
145.94000
 21
18.34500
  0
LINE
  8
Reference_points
 62
   1
 39
0.100
  6
CONTINUOUS
 10
172.44200
 20
17.84700
 30
 0
 11
173.43800
 21
17.84700
  0
LINE
  8
Reference_points
 62
   1
 39
0.100
  6
CONTINUOUS
 10
172.94000
 20
17.34900
 30
 0
 11
172.94000
 21
18.34500
  0
LINE
  8
Reference_points
 62
   1
 39
0.100
  6
CONTINUOUS
 10
93.45300
 20
45.62700
 30
 0
 11
94.44900
 21
45.62700
  0
LINE
  8
Reference_points
 62
   1
 39
0.100
  6
CONTINUOUS
 10
93.95100
 20
45.12900
 30
 0
 11
93.95100
 21
46.12500
  0
LINE
  8
Reference_points
 62
   1
 39
0.100
  6
CONTINUOUS
 10
119.45300
 20
45.62700
 30
 0
 11
120.44900
 21
45.62700
  0
LINE
  8
Reference_points
 62
   1
 39
0.100
  6
CONTINUOUS
 10
119.95100
 20
45.12900
 30
 0
 11
119.95100
 21
46.12500
  0
LINE
  8
Reference_points
 62
   1
 39
0.100
  6
CONTINUOUS
 10
145.45300
 20
45.62700
 30
 0
 11
146.44900
 21
45.62700
  0
LINE
  8
Reference_points
 62
   1
 39
0.100
  6
CONTINUOUS
 10
145.95100
 20
45.12900
 30
 0
 11
145.95100
 21
46.12500
  0
LINE
  8
Reference_points
 62
   1
 39
0.100
  6
CONTINUOUS
 10
172.45300
 20
45.62700
 30
 0
 11
173.44900
 21
45.62700
  0
LINE
  8
Reference_points
 62
   1
 39
0.100
  6
CONTINUOUS
 10
172.95100
 20
45.12900
 30
 0
 11
172.95100
 21
46.12500
  0
LINE
  8
Reference_points
 62
   1
 39
0.100
  6
CONTINUOUS
 10
94.44200
 20
101.18800
 30
 0
 11
95.43800
 21
101.18800
  0
LINE
  8
Reference_points
 62
   1
 39
0.100
  6
CONTINUOUS
 10
94.94000
 20
100.69000
 30
 0
 11
94.94000
 21
101.68600
  0
LINE
  8
Reference_points
 62
   1
 39
0.100
  6
CONTINUOUS
 10
120.44200
 20
101.18800
 30
 0
 11
121.43800
 21
101.18800
  0
LINE
  8
Reference_points
 62
   1
 39
0.100
  6
CONTINUOUS
 10
120.94000
 20
100.69000
 30
 0
 11
120.94000
 21
101.68600
  0
LINE
  8
Reference_points
 62
   1
 39
0.100
  6
CONTINUOUS
 10
146.44200
 20
101.18800
 30
 0
 11
147.43800
 21
101.18800
  0
LINE
  8
Reference_points
 62
   1
 39
0.100
  6
CONTINUOUS
 10
146.94000
 20
100.69000
 30
 0
 11
146.94000
 21
101.68600
  0
LINE
  8
Reference_points
 62
   1
 39
0.100
  6
CONTINUOUS
 10
172.44200
 20
101.18800
 30
 0
 11
173.43800
 21
101.18800
  0
LINE
  8
Reference_points
 62
   1
 39
0.100
  6
CONTINUOUS
 10
172.94000
 20
100.69000
 30
 0
 11
172.94000
 21
101.68600
  0
LINE
  8
Reference_points
 62
   1
 39
0.100
  6
CONTINUOUS
 10
93.44700
 20
73.43800
 30
 0
 11
94.44300
 21
73.43800
  0
LINE
  8
Reference_points
 62
   1
 39
0.100
  6
CONTINUOUS
 10
93.94500
 20
72.94000
 30
 0
 11
93.94500
 21
73.93600
  0
LINE
  8
Reference_points
 62
   1
 39
0.100
  6
CONTINUOUS
 10
120.44700
 20
73.43800
 30
 0
 11
121.44300
 21
73.43800
  0
LINE
  8
Reference_points
 62
   1
 39
0.100
  6
CONTINUOUS
 10
120.94500
 20
72.94000
 30
 0
 11
120.94500
 21
73.93600
  0
LINE
  8
Reference_points
 62
   1
 39
0.100
  6
CONTINUOUS
 10
146.44700
 20
73.43800
 30
 0
 11
147.44300
 21
73.43800
  0
LINE
  8
Reference_points
 62
   1
 39
0.100
  6
CONTINUOUS
 10
146.94500
 20
72.94000
 30
 0
 11
146.94500
 21
73.93600
  0
LINE
  8
Reference_points
 62
   1
 39
0.100
  6
CONTINUOUS
 10
172.44700
 20
73.43800
 30
 0
 11
173.44300
 21
73.43800
  0
LINE
  8
Reference_points
 62
   1
 39
0.100
  6
CONTINUOUS
 10
172.94500
 20
72.94000
 30
 0
 11
172.94500
 21
73.93600
  0
LINE
  8
Reference_points
 62
   1
 39
0.100
  6
CONTINUOUS
 10
185.41100
 20
59.49500
 30
 0
 11
186.40700
 21
59.49500
  0
LINE
  8
Reference_points
 62
   1
 39
0.100
  6
CONTINUOUS
 10
185.90900
 20
58.99700
 30
 0
 11
185.90900
 21
59.99300
  0
LINE
  8
Reference_points
 62
   1
 39
0.100
  6
CONTINUOUS
 10
11.44500
 20
59.49700
 30
 0
 11
12.44100
 21
59.49700
  0
LINE
  8
Reference_points
 62
   1
 39
0.100
  6
CONTINUOUS
 10
11.94300
 20
58.99900
 30
 0
 11
11.94300
 21
59.99500
  0
LINE
  8
Reference_points
 62
   1
 39
0.100
  6
CONTINUOUS
 10
61.39400
 20
22.47900
 30
 0
 11
62.39000
 21
22.47900
  0
LINE
  8
Reference_points
 62
   1
 39
0.100
  6
CONTINUOUS
 10
61.89200
 20
21.98100
 30
 0
 11
61.89200
 21
22.97700
  0
LINE
  8
Reference_points
 62
   1
 39
0.100
  6
CONTINUOUS
 10
61.41900
 20
59.53900
 30
 0
 11
62.41500
 21
59.53900
  0
LINE
  8
Reference_points
 62
   1
 39
0.100
  6
CONTINUOUS
 10
61.91700
 20
59.04100
 30
 0
 11
61.91700
 21
60.03700
  0
LINE
  8
Reference_points
 62
   1
 39
0.100
  6
CONTINUOUS
 10
61.45700
 20
96.44400
 30
 0
 11
62.45300
 21
96.44400
  0
LINE
  8
Reference_points
 62
   1
 39
0.100
  6
CONTINUOUS
 10
61.95500
 20
95.94600
 30
 0
 11
61.95500
 21
96.94200
  0
LINE
  8
Reference_points
 62
   1
 39
0.100
  6
CONTINUOUS
 10
36.60300
 20
69.66200
 30
 0
 11
37.59900
 21
69.66200
  0
LINE
  8
Reference_points
 62
   1
 39
0.100
  6
CONTINUOUS
 10
37.10100
 20
69.16400
 30
 0
 11
37.10100
 21
70.16000
  0
LINE
  8
Reference_points
 62
   1
 39
0.100
  6
CONTINUOUS
 10
16.27200
 20
69.66200
 30
 0
 11
17.26800
 21
69.66200
  0
LINE
  8
Reference_points
 62
   1
 39
0.100
  6
CONTINUOUS
 10
16.77000
 20
69.16400
 30
 0
 11
16.77000
 21
70.16000
  0
LINE
  8
Reference_points
 62
   1
 39
0.100
  6
CONTINUOUS
 10
16.27200
 20
49.33600
 30
 0
 11
17.26800
 21
49.33600
  0
LINE
  8
Reference_points
 62
   1
 39
0.100
  6
CONTINUOUS
 10
16.77000
 20
48.83800
 30
 0
 11
16.77000
 21
49.83400
  0
LINE
  8
Reference_points
 62
   1
 39
0.100
  6
CONTINUOUS
 10
36.60300
 20
49.33600
 30
 0
 11
37.59900
 21
49.33600
  0
LINE
  8
Reference_points
 62
   1
 39
0.100
  6
CONTINUOUS
 10
37.10100
 20
48.83800
 30
 0
 11
37.10100
 21
49.83400
  0
LINE
  8
Reference_points
 62
   1
 39
0.100
  6
CONTINUOUS
 10
16.27600
 20
59.48700
 30
 0
 11
17.27200
 21
59.48700
  0
LINE
  8
Reference_points
 62
   1
 39
0.100
  6
CONTINUOUS
 10
16.77400
 20
58.98900
 30
 0
 11
16.77400
 21
59.98500
  0
LINE
  8
Reference_points
 62
   1
 39
0.100
  6
CONTINUOUS
 10
26.44600
 20
96.49900
 30
 0
 11
27.44200
 21
96.49900
  0
LINE
  8
Reference_points
 62
   1
 39
0.100
  6
CONTINUOUS
 10
26.94400
 20
96.00100
 30
 0
 11
26.94400
 21
96.99700
  0
LINE
  8
Reference_points
 62
   1
 39
0.100
  6
CONTINUOUS
 10
36.60200
 20
106.66700
 30
 0
 11
37.59800
 21
106.66700
  0
LINE
  8
Reference_points
 62
   1
 39
0.100
  6
CONTINUOUS
 10
37.10000
 20
106.16900
 30
 0
 11
37.10000
 21
107.16500
  0
LINE
  8
Reference_points
 62
   1
 39
0.100
  6
CONTINUOUS
 10
16.27100
 20
106.66700
 30
 0
 11
17.26700
 21
106.66700
  0
LINE
  8
Reference_points
 62
   1
 39
0.100
  6
CONTINUOUS
 10
16.76900
 20
106.16900
 30
 0
 11
16.76900
 21
107.16500
  0
LINE
  8
Reference_points
 62
   1
 39
0.100
  6
CONTINUOUS
 10
16.27100
 20
86.34100
 30
 0
 11
17.26700
 21
86.34100
  0
LINE
  8
Reference_points
 62
   1
 39
0.100
  6
CONTINUOUS
 10
16.76900
 20
85.84300
 30
 0
 11
16.76900
 21
86.83900
  0
LINE
  8
Reference_points
 62
   1
 39
0.100
  6
CONTINUOUS
 10
36.60200
 20
86.34100
 30
 0
 11
37.59800
 21
86.34100
  0
LINE
  8
Reference_points
 62
   1
 39
0.100
  6
CONTINUOUS
 10
37.10000
 20
85.84300
 30
 0
 11
37.10000
 21
86.83900
  0
LINE
  8
Reference_points
 62
   1
 39
0.100
  6
CONTINUOUS
 10
16.27500
 20
96.49200
 30
 0
 11
17.27100
 21
96.49200
  0
LINE
  8
Reference_points
 62
   1
 39
0.100
  6
CONTINUOUS
 10
16.77300
 20
95.99400
 30
 0
 11
16.77300
 21
96.99000
  0
LINE
  8
Reference_points
 62
   1
 39
0.100
  6
CONTINUOUS
 10
26.44800
 20
22.49100
 30
 0
 11
27.44400
 21
22.49100
  0
LINE
  8
Reference_points
 62
   1
 39
0.100
  6
CONTINUOUS
 10
26.94600
 20
21.99300
 30
 0
 11
26.94600
 21
22.98900
  0
LINE
  8
Reference_points
 62
   1
 39
0.100
  6
CONTINUOUS
 10
36.60400
 20
32.65900
 30
 0
 11
37.60000
 21
32.65900
  0
LINE
  8
Reference_points
 62
   1
 39
0.100
  6
CONTINUOUS
 10
37.10200
 20
32.16100
 30
 0
 11
37.10200
 21
33.15700
  0
LINE
  8
Reference_points
 62
   1
 39
0.100
  6
CONTINUOUS
 10
16.27300
 20
32.65900
 30
 0
 11
17.26900
 21
32.65900
  0
LINE
  8
Reference_points
 62
   1
 39
0.100
  6
CONTINUOUS
 10
16.77100
 20
32.16100
 30
 0
 11
16.77100
 21
33.15700
  0
LINE
  8
Reference_points
 62
   1
 39
0.100
  6
CONTINUOUS
 10
16.27300
 20
12.33300
 30
 0
 11
17.26900
 21
12.33300
  0
LINE
  8
Reference_points
 62
   1
 39
0.100
  6
CONTINUOUS
 10
16.77100
 20
11.83500
 30
 0
 11
16.77100
 21
12.83100
  0
LINE
  8
Reference_points
 62
   1
 39
0.100
  6
CONTINUOUS
 10
36.60400
 20
12.33300
 30
 0
 11
37.60000
 21
12.33300
  0
LINE
  8
Reference_points
 62
   1
 39
0.100
  6
CONTINUOUS
 10
37.10200
 20
11.83500
 30
 0
 11
37.10200
 21
12.83100
  0
LINE
  8
Reference_points
 62
   1
 39
0.100
  6
CONTINUOUS
 10
16.27700
 20
22.48400
 30
 0
 11
17.27300
 21
22.48400
  0
LINE
  8
Reference_points
 62
   1
 39
0.100
  6
CONTINUOUS
 10
16.77500
 20
21.98600
 30
 0
 11
16.77500
 21
22.98200
  0
LINE
  8
Reference_points
 62
   1
 39
0.100
  6
CONTINUOUS
 10
42.08300
 20
112.32200
 30
 0
 11
43.07900
 21
112.32200
  0
LINE
  8
Reference_points
 62
   1
 39
0.100
  6
CONTINUOUS
 10
42.58100
 20
111.82400
 30
 0
 11
42.58100
 21
112.82000
  0
LINE
  8
Reference_points
 62
   1
 39
0.100
  6
CONTINUOUS
 10
80.82400
 20
112.32800
 30
 0
 11
81.82000
 21
112.32800
  0
LINE
  8
Reference_points
 62
   1
 39
0.100
  6
CONTINUOUS
 10
81.32200
 20
111.83000
 30
 0
 11
81.32200
 21
112.82600
  0
LINE
  8
Reference_points
 62
   1
 39
0.100
  6
CONTINUOUS
 10
80.82100
 20
80.56500
 30
 0
 11
81.81700
 21
80.56500
  0
LINE
  8
Reference_points
 62
   1
 39
0.100
  6
CONTINUOUS
 10
81.31900
 20
80.06700
 30
 0
 11
81.31900
 21
81.06300
  0
LINE
  8
Reference_points
 62
   1
 39
0.100
  6
CONTINUOUS
 10
42.07800
 20
80.56200
 30
 0
 11
43.07400
 21
80.56200
  0
LINE
  8
Reference_points
 62
   1
 39
0.100
  6
CONTINUOUS
 10
42.57600
 20
80.06400
 30
 0
 11
42.57600
 21
81.06000
  0
LINE
  8
Reference_points
 62
   1
 39
0.100
  6
CONTINUOUS
 10
45.68300
 20
74.78500
 30
 0
 11
46.67900
 21
74.78500
  0
LINE
  8
Reference_points
 62
   1
 39
0.100
  6
CONTINUOUS
 10
46.18100
 20
74.28700
 30
 0
 11
46.18100
 21
75.28300
  0
LINE
  8
Reference_points
 62
   1
 39
0.100
  6
CONTINUOUS
 10
76.17300
 20
74.78100
 30
 0
 11
77.16900
 21
74.78100
  0
LINE
  8
Reference_points
 62
   1
 39
0.100
  6
CONTINUOUS
 10
76.67100
 20
74.28300
 30
 0
 11
76.67100
 21
75.27900
  0
LINE
  8
Reference_points
 62
   1
 39
0.100
  6
CONTINUOUS
 10
76.16700
 20
44.30200
 30
 0
 11
77.16300
 21
44.30200
  0
LINE
  8
Reference_points
 62
   1
 39
0.100
  6
CONTINUOUS
 10
76.66500
 20
43.80400
 30
 0
 11
76.66500
 21
44.80000
  0
LINE
  8
Reference_points
 62
   1
 39
0.100
  6
CONTINUOUS
 10
45.68800
 20
44.30100
 30
 0
 11
46.68400
 21
44.30100
  0
LINE
  8
Reference_points
 62
   1
 39
0.100
  6
CONTINUOUS
 10
46.18600
 20
43.80300
 30
 0
 11
46.18600
 21
44.79900
  0
LINE
  8
Reference_points
 62
   1
 39
0.100
  6
CONTINUOUS
 10
26.45200
 20
22.48400
 30
 0
 11
27.44800
 21
22.48400
  0
LINE
  8
Reference_points
 62
   1
 39
0.100
  6
CONTINUOUS
 10
26.95000
 20
21.98600
 30
 0
 11
26.95000
 21
22.98200
  0
LINE
  8
Reference_points
 62
   1
 39
0.100
  6
CONTINUOUS
 10
26.45100
 20
59.48700
 30
 0
 11
27.44700
 21
59.48700
  0
LINE
  8
Reference_points
 62
   1
 39
0.100
  6
CONTINUOUS
 10
26.94900
 20
58.98900
 30
 0
 11
26.94900
 21
59.98500
  0
LINE
  8
Reference_points
 62
   1
 39
0.100
  6
CONTINUOUS
 10
60.92300
 20
59.53900
 30
 0
 11
61.91900
 21
59.53900
  0
LINE
  8
Reference_points
 62
   1
 39
0.100
  6
CONTINUOUS
 10
61.42100
 20
59.04100
 30
 0
 11
61.42100
 21
60.03700
  0
LINE
  8
Reference_points
 62
   1
 39
0.100
  6
CONTINUOUS
 10
26.45000
 20
96.49200
 30
 0
 11
27.44600
 21
96.49200
  0
LINE
  8
Reference_points
 62
   1
 39
0.100
  6
CONTINUOUS
 10
26.94800
 20
95.99400
 30
 0
 11
26.94800
 21
96.99000
  0
LINE
  8
Reference_points
 62
   1
 39
0.100
  6
CONTINUOUS
 10
61.45900
 20
96.43800
 30
 0
 11
62.45500
 21
96.43800
  0
LINE
  8
Reference_points
 62
   1
 39
0.100
  6
CONTINUOUS
 10
61.95700
 20
95.94000
 30
 0
 11
61.95700
 21
96.93600
  0
ENDSEC
  0
EOF
