<?xml version="1.0" standalone="no"?>
<!DOCTYPE svg PUBLIC "-//W3C//DTD SVG 1.1//EN" 
  "http://www.w3.org/Graphics/SVG/1.1/DTD/svg11.dtd">
<svg width="198.000mm" height="119.000mm" version="1.1"
     viewBox="0 0 198.000 119.000"
     xmlns="http://www.w3.org/2000/svg"  xmlns:xlink="http://www.w3.org/1999/xlink" 
     xmlns:fpd="http://www.schaeffer-ag.de">
  <desc>Created with the Front Panel Designer by the export of the file 'front_panel.fpd'.</desc>
  <defs>
    <pattern id="revside-fill" x="1" y="1" width="1.980" height="1.980" patternUnits="userSpaceOnUse">
      <line x1="0" y1="0" x2="1.980" y2="1.980" style="stroke-width:0.198; stroke:black; stroke-dasharray:none;" />
      <line x1="0" y1="1.980" x2="1.980" y2="0" style="stroke-width:0.198; stroke:black; stroke-dasharray:none;" />
    </pattern>
    <pattern id="revside-fill-silver" x="1" y="1" width="1.980" height="1.980" patternUnits="userSpaceOnUse">
      <line x1="0" y1="0" x2="1.980" y2="1.980" style="stroke-width:0.198; stroke:#e0e0e0; stroke-dasharray:none;" />
      <line x1="0" y1="1.980" x2="1.980" y2="0" style="stroke-width:0.198; stroke:#e0e0e0; stroke-dasharray:none;" />
    </pattern>
  </defs>
<g transform="scale(1,-1) translate( -0.000, -119.000)" 
   fill-rule="evenodd"
   style="stroke-linecap:round; stroke-linejoin:round; stroke-opacity:1.0; stroke-opacity:1.0;">
<path d="
M193.000 119.000
A5.000,5.000 0 0,0 198.000,114.000
L198.000 5.000
A5.000,5.000 0 0,0 193.000,0.000
L5.000 0.000
A5.000,5.000 0 0,0 0.000,5.000
L0.000 114.000
A5.000,5.000 0 0,0 5.000,119.000
L193.000 119.000
" 
fill="#0f0f0f" fill-opacity="1.000000" vector-effect="non-scaling-stroke" stroke="#000000" stroke-width="0.100mm" stroke-opacity="1.000000" fpd:visible="front back" />
<path d="
M193.000 119.000
A5.000,5.000 0 0,0 198.000,114.000
L198.000 5.000
A5.000,5.000 0 0,0 193.000,0.000
L5.000 0.000
A5.000,5.000 0 0,0 0.000,5.000
L0.000 114.000
A5.000,5.000 0 0,0 5.000,119.000
L193.000 119.000
M5.000 118.000
A4.000,4.000 0 0,1 1.000,114.000
L1.000 114.000
L1.000 5.000
L1.000 5.000
L1.000 5.000
L1.000 5.000
A4.000,4.000 0 0,1 5.000,1.000
L5.000 1.000
L193.000 1.000
L193.000 1.000
A4.000,4.000 0 0,1 197.000,5.000
L197.000 5.000
L197.000 114.000
L197.000 114.000
A4.000,4.000 0 0,1 193.000,118.000
L5.000 118.000
" 
fill="#e0e0e0" fill-opacity="1.000000" vector-effect="non-scaling-stroke" stroke="#0000ff" stroke-width="0.100mm" stroke-opacity="1.000000" fpd:visible="front" />
<path d="
M193.000 119.000
A5.000,5.000 0 0,0 198.000,114.000
L198.000 5.000
A5.000,5.000 0 0,0 193.000,0.000
L5.000 0.000
A5.000,5.000 0 0,0 0.000,5.000
L0.000 114.000
A5.000,5.000 0 0,0 5.000,119.000
L193.000 119.000
" 
fill="none" vector-effect="non-scaling-stroke" stroke="#0000ff" stroke-width="0.100mm" stroke-opacity="1.000000" fpd:visible="front" />
<path d="
M3.941 22.997
L3.945 95.997
" 
fill="none" vector-effect="non-scaling-stroke" stroke="#6c85b8" stroke-width="0.400mm" stroke-opacity="1.000000" fpd:visible="front" fpd:print_element="0" fpd:engraving="1" />
<path d="
M183.968 115.047
L13.968 115.047
" 
fill="none" vector-effect="non-scaling-stroke" stroke="#6c85b8" stroke-width="0.400mm" stroke-opacity="1.000000" fpd:visible="front" fpd:print_element="0" fpd:engraving="1" />
<path d="
M183.777 4.038
L13.777 4.038
" 
fill="none" vector-effect="non-scaling-stroke" stroke="#6c85b8" stroke-width="0.400mm" stroke-opacity="1.000000" fpd:visible="front" fpd:print_element="0" fpd:engraving="1" />
<path d="
M193.909 95.995
L193.909 22.995
" 
fill="none" vector-effect="non-scaling-stroke" stroke="#6c85b8" stroke-width="0.400mm" stroke-opacity="1.000000" fpd:visible="front" fpd:print_element="0" fpd:engraving="1" />
<path d="
M13.956 95.994
L13.956 114.994
" 
fill="none" vector-effect="non-scaling-stroke" stroke="#6c85b8" stroke-width="0.400mm" stroke-opacity="1.000000" fpd:visible="front" fpd:print_element="0" fpd:engraving="1" />
<path d="
M13.951 96.029
L3.951 96.029
" 
fill="none" vector-effect="non-scaling-stroke" stroke="#6c85b8" stroke-width="0.400mm" stroke-opacity="1.000000" fpd:visible="front" fpd:print_element="0" fpd:engraving="1" />
<path d="
M183.983 96.031
L193.983 96.031
" 
fill="none" vector-effect="non-scaling-stroke" stroke="#6c85b8" stroke-width="0.400mm" stroke-opacity="1.000000" fpd:visible="front" fpd:print_element="0" fpd:engraving="1" />
<path d="
M3.947 23.028
L13.945 23.028
" 
fill="none" vector-effect="non-scaling-stroke" stroke="#6c85b8" stroke-width="0.400mm" stroke-opacity="1.000000" fpd:visible="front" fpd:print_element="0" fpd:engraving="1" />
<path d="
M183.954 23.019
L193.954 23.019
" 
fill="none" vector-effect="non-scaling-stroke" stroke="#6c85b8" stroke-width="0.400mm" stroke-opacity="1.000000" fpd:visible="front" fpd:print_element="0" fpd:engraving="1" />
<path d="
M183.945 96.030
L183.945 115.028
" 
fill="none" vector-effect="non-scaling-stroke" stroke="#6c85b8" stroke-width="0.400mm" stroke-opacity="1.000000" fpd:visible="front" fpd:print_element="0" fpd:engraving="1" />
<path d="
M13.948 22.981
L13.948 3.981
" 
fill="none" vector-effect="non-scaling-stroke" stroke="#6c85b8" stroke-width="0.400mm" stroke-opacity="1.000000" fpd:visible="front" fpd:print_element="0" fpd:engraving="1" />
<path d="
M183.925 22.953
L183.925 3.953
" 
fill="none" vector-effect="non-scaling-stroke" stroke="#6c85b8" stroke-width="0.400mm" stroke-opacity="1.000000" fpd:visible="front" fpd:print_element="0" fpd:engraving="1" />
<path d="
M41.945 115.028
L41.945 4.028
" 
fill="none" vector-effect="non-scaling-stroke" stroke="#6c85b8" stroke-width="0.200mm" stroke-opacity="1.000000" fpd:visible="front" fpd:print_element="0" fpd:engraving="1" />
<path d="
M159.945 115.028
L159.945 4.028
" 
fill="none" vector-effect="non-scaling-stroke" stroke="#6c85b8" stroke-width="0.200mm" stroke-opacity="1.000000" fpd:visible="front" fpd:print_element="0" fpd:engraving="1" />
<path d="
M133.945 115.028
L133.945 4.028
" 
fill="none" vector-effect="non-scaling-stroke" stroke="#6c85b8" stroke-width="0.200mm" stroke-opacity="1.000000" fpd:visible="front" fpd:print_element="0" fpd:engraving="1" />
<path d="
M107.945 115.028
L107.945 4.028
" 
fill="none" vector-effect="non-scaling-stroke" stroke="#6c85b8" stroke-width="0.200mm" stroke-opacity="1.000000" fpd:visible="front" fpd:print_element="0" fpd:engraving="1" />
<path d="
M81.945 115.028
L81.945 4.028
" 
fill="none" vector-effect="non-scaling-stroke" stroke="#6c85b8" stroke-width="0.200mm" stroke-opacity="1.000000" fpd:visible="front" fpd:print_element="0" fpd:engraving="1" />
<path d="
M11.941 41.030
L81.945 41.030
" 
fill="none" vector-effect="non-scaling-stroke" stroke="#6c85b8" stroke-width="0.200mm" stroke-opacity="1.000000" fpd:visible="front" fpd:print_element="0" fpd:engraving="1" />
<path d="
M11.929 78.036
L81.929 78.036
" 
fill="none" vector-effect="non-scaling-stroke" stroke="#6c85b8" stroke-width="0.200mm" stroke-opacity="1.000000" fpd:visible="front" fpd:print_element="0" fpd:engraving="1" />
<path d="
M185.923 87.324
L81.923 87.324
" 
fill="none" vector-effect="non-scaling-stroke" stroke="#6c85b8" stroke-width="0.200mm" stroke-opacity="1.000000" fpd:visible="front" fpd:print_element="0" fpd:engraving="1" />
<path d="
M186.111 59.509
L82.111 59.509
" 
fill="none" vector-effect="non-scaling-stroke" stroke="#6c85b8" stroke-width="0.200mm" stroke-opacity="1.000000" fpd:visible="front" fpd:print_element="0" fpd:engraving="1" />
<path d="
M185.945 31.789
L81.945 31.789
" 
fill="none" vector-effect="non-scaling-stroke" stroke="#6c85b8" stroke-width="0.200mm" stroke-opacity="1.000000" fpd:visible="front" fpd:print_element="0" fpd:engraving="1" />
<path d="
M185.873 95.961
L185.945 23.029
" 
fill="none" vector-effect="non-scaling-stroke" stroke="#6c85b8" stroke-width="0.200mm" stroke-opacity="1.000000" fpd:visible="front" fpd:print_element="0" fpd:engraving="1" />
<path d="
M11.941 22.966
L11.945 96.028
" 
fill="none" vector-effect="non-scaling-stroke" stroke="#6c85b8" stroke-width="0.200mm" stroke-opacity="1.000000" fpd:visible="front" fpd:print_element="0" fpd:engraving="1" />
<path d="
M0.695 5.278
A4.000,4.000 0 1,0 8.695,5.278
A4.000,4.000 0 1,0 0.695,5.278
M2.545 5.278
A2.150,2.150 0 1,0 6.845,5.278
A2.150,2.150 0 1,0 2.545,5.278
" 
fill="#e0e0e0" fill-opacity="1.000000" vector-effect="non-scaling-stroke" stroke="#000000" stroke-width="0.100mm" stroke-opacity="1.000000" fpd:visible="front" />
<path d="
M0.695 5.278
A4.000,4.000 0 1,0 8.695,5.278
A4.000,4.000 0 1,0 0.695,5.278
" 
fill="none" vector-effect="non-scaling-stroke" stroke="#000000" stroke-width="0.100mm" stroke-opacity="1.000000" fpd:visible="front" />
<path d="
M2.545 5.278
A2.150,2.150 0 1,0 6.845,5.278
A2.150,2.150 0 1,0 2.545,5.278
" 
fill="#ffffff" fill-opacity="1.000000" vector-effect="non-scaling-stroke" stroke="#000000" stroke-width="0.100mm" stroke-opacity="1.000000" fpd:visible="front back" fpd:print_element="0" />
<path d="
M0.695 113.778
A4.000,4.000 0 1,0 8.695,113.778
A4.000,4.000 0 1,0 0.695,113.778
M2.545 113.778
A2.150,2.150 0 1,0 6.845,113.778
A2.150,2.150 0 1,0 2.545,113.778
" 
fill="#e0e0e0" fill-opacity="1.000000" vector-effect="non-scaling-stroke" stroke="#000000" stroke-width="0.100mm" stroke-opacity="1.000000" fpd:visible="front" />
<path d="
M0.695 113.778
A4.000,4.000 0 1,0 8.695,113.778
A4.000,4.000 0 1,0 0.695,113.778
" 
fill="none" vector-effect="non-scaling-stroke" stroke="#000000" stroke-width="0.100mm" stroke-opacity="1.000000" fpd:visible="front" />
<path d="
M2.545 113.778
A2.150,2.150 0 1,0 6.845,113.778
A2.150,2.150 0 1,0 2.545,113.778
" 
fill="#ffffff" fill-opacity="1.000000" vector-effect="non-scaling-stroke" stroke="#000000" stroke-width="0.100mm" stroke-opacity="1.000000" fpd:visible="front back" fpd:print_element="0" />
<path d="
M189.195 113.778
A4.000,4.000 0 1,0 197.195,113.778
A4.000,4.000 0 1,0 189.195,113.778
M191.045 113.778
A2.150,2.150 0 1,0 195.345,113.778
A2.150,2.150 0 1,0 191.045,113.778
" 
fill="#e0e0e0" fill-opacity="1.000000" vector-effect="non-scaling-stroke" stroke="#000000" stroke-width="0.100mm" stroke-opacity="1.000000" fpd:visible="front" />
<path d="
M189.195 113.778
A4.000,4.000 0 1,0 197.195,113.778
A4.000,4.000 0 1,0 189.195,113.778
" 
fill="none" vector-effect="non-scaling-stroke" stroke="#000000" stroke-width="0.100mm" stroke-opacity="1.000000" fpd:visible="front" />
<path d="
M191.045 113.778
A2.150,2.150 0 1,0 195.345,113.778
A2.150,2.150 0 1,0 191.045,113.778
" 
fill="#ffffff" fill-opacity="1.000000" vector-effect="non-scaling-stroke" stroke="#000000" stroke-width="0.100mm" stroke-opacity="1.000000" fpd:visible="front back" fpd:print_element="0" />
<path d="
M189.195 5.278
A4.000,4.000 0 1,0 197.195,5.278
A4.000,4.000 0 1,0 189.195,5.278
M191.045 5.278
A2.150,2.150 0 1,0 195.345,5.278
A2.150,2.150 0 1,0 191.045,5.278
" 
fill="#e0e0e0" fill-opacity="1.000000" vector-effect="non-scaling-stroke" stroke="#000000" stroke-width="0.100mm" stroke-opacity="1.000000" fpd:visible="front" />
<path d="
M189.195 5.278
A4.000,4.000 0 1,0 197.195,5.278
A4.000,4.000 0 1,0 189.195,5.278
" 
fill="none" vector-effect="non-scaling-stroke" stroke="#000000" stroke-width="0.100mm" stroke-opacity="1.000000" fpd:visible="front" />
<path d="
M191.045 5.278
A2.150,2.150 0 1,0 195.345,5.278
A2.150,2.150 0 1,0 191.045,5.278
" 
fill="#ffffff" fill-opacity="1.000000" vector-effect="non-scaling-stroke" stroke="#000000" stroke-width="0.100mm" stroke-opacity="1.000000" fpd:visible="front back" fpd:print_element="0" />
<path d="
M23.445 22.494
A3.500,3.500 0 1,0 30.445,22.494
A3.500,3.500 0 1,0 23.445,22.494
" 
fill="#ffffff" fill-opacity="1.000000" vector-effect="non-scaling-stroke" stroke="#000000" stroke-width="0.100mm" stroke-opacity="1.000000" fpd:visible="front back" fpd:print_element="0" />
<path d="
M23.445 96.494
A3.500,3.500 0 1,0 30.445,96.494
A3.500,3.500 0 1,0 23.445,96.494
" 
fill="#ffffff" fill-opacity="1.000000" vector-effect="non-scaling-stroke" stroke="#000000" stroke-width="0.100mm" stroke-opacity="1.000000" fpd:visible="front back" fpd:print_element="0" />
<path d="
M23.445 59.494
A3.500,3.500 0 1,0 30.445,59.494
A3.500,3.500 0 1,0 23.445,59.494
" 
fill="#ffffff" fill-opacity="1.000000" vector-effect="non-scaling-stroke" stroke="#000000" stroke-width="0.100mm" stroke-opacity="1.000000" fpd:visible="front back" fpd:print_element="0" />
<path d="
M85.940 17.847
A8.000,8.000 0 1,0 101.940,17.847
A8.000,8.000 0 1,0 85.940,17.847
" 
fill="#ffffff" fill-opacity="1.000000" vector-effect="non-scaling-stroke" stroke="#000000" stroke-width="0.100mm" stroke-opacity="1.000000" fpd:visible="front back" fpd:print_element="0" />
<path d="
M111.940 17.847
A8.000,8.000 0 1,0 127.940,17.847
A8.000,8.000 0 1,0 111.940,17.847
" 
fill="#ffffff" fill-opacity="1.000000" vector-effect="non-scaling-stroke" stroke="#000000" stroke-width="0.100mm" stroke-opacity="1.000000" fpd:visible="front back" fpd:print_element="0" />
<path d="
M137.940 17.847
A8.000,8.000 0 1,0 153.940,17.847
A8.000,8.000 0 1,0 137.940,17.847
" 
fill="#ffffff" fill-opacity="1.000000" vector-effect="non-scaling-stroke" stroke="#000000" stroke-width="0.100mm" stroke-opacity="1.000000" fpd:visible="front back" fpd:print_element="0" />
<path d="
M164.940 17.847
A8.000,8.000 0 1,0 180.940,17.847
A8.000,8.000 0 1,0 164.940,17.847
" 
fill="#ffffff" fill-opacity="1.000000" vector-effect="non-scaling-stroke" stroke="#000000" stroke-width="0.100mm" stroke-opacity="1.000000" fpd:visible="front back" fpd:print_element="0" />
<path d="
M85.951 45.627
A8.000,8.000 0 1,0 101.951,45.627
A8.000,8.000 0 1,0 85.951,45.627
" 
fill="#ffffff" fill-opacity="1.000000" vector-effect="non-scaling-stroke" stroke="#000000" stroke-width="0.100mm" stroke-opacity="1.000000" fpd:visible="front back" fpd:print_element="0" />
<path d="
M111.951 45.627
A8.000,8.000 0 1,0 127.951,45.627
A8.000,8.000 0 1,0 111.951,45.627
" 
fill="#ffffff" fill-opacity="1.000000" vector-effect="non-scaling-stroke" stroke="#000000" stroke-width="0.100mm" stroke-opacity="1.000000" fpd:visible="front back" fpd:print_element="0" />
<path d="
M137.951 45.627
A8.000,8.000 0 1,0 153.951,45.627
A8.000,8.000 0 1,0 137.951,45.627
" 
fill="#ffffff" fill-opacity="1.000000" vector-effect="non-scaling-stroke" stroke="#000000" stroke-width="0.100mm" stroke-opacity="1.000000" fpd:visible="front back" fpd:print_element="0" />
<path d="
M164.951 45.627
A8.000,8.000 0 1,0 180.951,45.627
A8.000,8.000 0 1,0 164.951,45.627
" 
fill="#ffffff" fill-opacity="1.000000" vector-effect="non-scaling-stroke" stroke="#000000" stroke-width="0.100mm" stroke-opacity="1.000000" fpd:visible="front back" fpd:print_element="0" />
<path d="
M91.940 101.188
A3.000,3.000 0 1,0 97.940,101.188
A3.000,3.000 0 1,0 91.940,101.188
" 
fill="#ffffff" fill-opacity="1.000000" vector-effect="non-scaling-stroke" stroke="#000000" stroke-width="0.100mm" stroke-opacity="1.000000" fpd:visible="front back" fpd:print_element="0" />
<path d="
M117.940 101.188
A3.000,3.000 0 1,0 123.940,101.188
A3.000,3.000 0 1,0 117.940,101.188
" 
fill="#ffffff" fill-opacity="1.000000" vector-effect="non-scaling-stroke" stroke="#000000" stroke-width="0.100mm" stroke-opacity="1.000000" fpd:visible="front back" fpd:print_element="0" />
<path d="
M143.940 101.188
A3.000,3.000 0 1,0 149.940,101.188
A3.000,3.000 0 1,0 143.940,101.188
" 
fill="#ffffff" fill-opacity="1.000000" vector-effect="non-scaling-stroke" stroke="#000000" stroke-width="0.100mm" stroke-opacity="1.000000" fpd:visible="front back" fpd:print_element="0" />
<path d="
M169.940 101.188
A3.000,3.000 0 1,0 175.940,101.188
A3.000,3.000 0 1,0 169.940,101.188
" 
fill="#ffffff" fill-opacity="1.000000" vector-effect="non-scaling-stroke" stroke="#000000" stroke-width="0.100mm" stroke-opacity="1.000000" fpd:visible="front back" fpd:print_element="0" />
<path d="
M85.945 73.438
A8.000,8.000 0 1,0 101.945,73.438
A8.000,8.000 0 1,0 85.945,73.438
" 
fill="#ffffff" fill-opacity="1.000000" vector-effect="non-scaling-stroke" stroke="#000000" stroke-width="0.100mm" stroke-opacity="1.000000" fpd:visible="front back" fpd:print_element="0" />
<path d="
M112.945 73.438
A8.000,8.000 0 1,0 128.945,73.438
A8.000,8.000 0 1,0 112.945,73.438
" 
fill="#ffffff" fill-opacity="1.000000" vector-effect="non-scaling-stroke" stroke="#000000" stroke-width="0.100mm" stroke-opacity="1.000000" fpd:visible="front back" fpd:print_element="0" />
<path d="
M138.945 73.438
A8.000,8.000 0 1,0 154.945,73.438
A8.000,8.000 0 1,0 138.945,73.438
" 
fill="#ffffff" fill-opacity="1.000000" vector-effect="non-scaling-stroke" stroke="#000000" stroke-width="0.100mm" stroke-opacity="1.000000" fpd:visible="front back" fpd:print_element="0" />
<path d="
M164.945 73.438
A8.000,8.000 0 1,0 180.945,73.438
A8.000,8.000 0 1,0 164.945,73.438
" 
fill="#ffffff" fill-opacity="1.000000" vector-effect="non-scaling-stroke" stroke="#000000" stroke-width="0.100mm" stroke-opacity="1.000000" fpd:visible="front back" fpd:print_element="0" />
<path d="
M46.892 22.479
A15.000,15.000 0 1,0 76.892,22.479
A15.000,15.000 0 1,0 46.892,22.479
" 
fill="#ffffff" fill-opacity="1.000000" vector-effect="non-scaling-stroke" stroke="#000000" stroke-width="0.100mm" stroke-opacity="1.000000" fpd:visible="front back" fpd:print_element="0" />
<path d="
M44.667 59.539
A17.250,17.250 0 1,0 79.167,59.539
A17.250,17.250 0 1,0 44.667,59.539
" 
fill="#ffffff" fill-opacity="1.000000" vector-effect="non-scaling-stroke" stroke="#000000" stroke-width="0.100mm" stroke-opacity="1.000000" fpd:visible="front back" fpd:print_element="0" />
<path d="
M42.905 85.894
A4.500,4.500 0 0,1 47.405,81.394
L76.505 81.394
A4.500,4.500 0 0,1 81.005,85.894
L81.005 106.994
A4.500,4.500 0 0,1 76.505,111.494
L47.405 111.494
A4.500,4.500 0 0,1 42.905,106.994
L42.905 85.894
" 
fill="#ffffff" fill-opacity="1.000000" vector-effect="non-scaling-stroke" stroke="#000000" stroke-width="0.100mm" stroke-opacity="1.000000" fpd:visible="front back" fpd:print_element="0" />
<path d="
M193.000 119.000
A5.000,5.000 0 0,0 198.000,114.000
L198.000 5.000
A5.000,5.000 0 0,0 193.000,0.000
L5.000 0.000
A5.000,5.000 0 0,0 0.000,5.000
L0.000 114.000
A5.000,5.000 0 0,0 5.000,119.000
L193.000 119.000
" 
fill="none" vector-effect="non-scaling-stroke" stroke="#000000" stroke-width="0.100mm" stroke-opacity="1.000000" fpd:visible="front back" />
<path d="
M193.000 119.000
A5.000,5.000 0 0,0 198.000,114.000
L198.000 5.000
A5.000,5.000 0 0,0 193.000,0.000
L5.000 0.000
A5.000,5.000 0 0,0 0.000,5.000
L0.000 114.000
A5.000,5.000 0 0,0 5.000,119.000
L193.000 119.000
M5.000 118.000
A4.000,4.000 0 0,1 1.000,114.000
L1.000 114.000
L1.000 5.000
L1.000 5.000
L1.000 5.000
L1.000 5.000
A4.000,4.000 0 0,1 5.000,1.000
L5.000 1.000
L193.000 1.000
L193.000 1.000
A4.000,4.000 0 0,1 197.000,5.000
L197.000 5.000
L197.000 114.000
L197.000 114.000
A4.000,4.000 0 0,1 193.000,118.000
L5.000 118.000
" 
fill="#e0e0e0" fill-opacity="1.000000" vector-effect="non-scaling-stroke" stroke="#0000ff" stroke-width="0.100mm" stroke-opacity="1.000000" fpd:visible="front" />
<path d="
M193.000 119.000
A5.000,5.000 0 0,0 198.000,114.000
L198.000 5.000
A5.000,5.000 0 0,0 193.000,0.000
L5.000 0.000
A5.000,5.000 0 0,0 0.000,5.000
L0.000 114.000
A5.000,5.000 0 0,0 5.000,119.000
L193.000 119.000
" 
fill="none" vector-effect="non-scaling-stroke" stroke="#0000ff" stroke-width="0.100mm" stroke-opacity="1.000000" fpd:visible="front" />
<path d="
M-0.658 0.000
L0.658 0.000
M0.000 -0.658
L0.000 0.658
" 
fill="none" vector-effect="non-scaling-stroke" stroke="#ff0000" stroke-width="0.100mm" stroke-opacity="1.000000" />
<path d="
M4.037 5.278
L5.353 5.278
M4.695 4.620
L4.695 5.936
" 
fill="none" vector-effect="non-scaling-stroke" stroke="#ff0000" stroke-width="0.100mm" stroke-opacity="1.000000" />
<path d="
M4.037 113.778
L5.353 113.778
M4.695 113.120
L4.695 114.436
" 
fill="none" vector-effect="non-scaling-stroke" stroke="#ff0000" stroke-width="0.100mm" stroke-opacity="1.000000" />
<path d="
M192.537 113.778
L193.853 113.778
M193.195 113.120
L193.195 114.436
" 
fill="none" vector-effect="non-scaling-stroke" stroke="#ff0000" stroke-width="0.100mm" stroke-opacity="1.000000" />
<path d="
M192.537 5.278
L193.853 5.278
M193.195 4.620
L193.195 5.936
" 
fill="none" vector-effect="non-scaling-stroke" stroke="#ff0000" stroke-width="0.100mm" stroke-opacity="1.000000" />
<path d="
M3.285 59.497
L4.601 59.497
M3.943 58.839
L3.943 60.155
" 
fill="none" vector-effect="non-scaling-stroke" stroke="#ff0000" stroke-width="0.100mm" stroke-opacity="1.000000" />
<path d="
M98.310 115.047
L99.626 115.047
M98.968 114.389
L98.968 115.705
" 
fill="none" vector-effect="non-scaling-stroke" stroke="#ff0000" stroke-width="0.100mm" stroke-opacity="1.000000" />
<path d="
M98.119 4.038
L99.435 4.038
M98.777 3.380
L98.777 4.696
" 
fill="none" vector-effect="non-scaling-stroke" stroke="#ff0000" stroke-width="0.100mm" stroke-opacity="1.000000" />
<path d="
M193.251 59.495
L194.567 59.495
M193.909 58.837
L193.909 60.153
" 
fill="none" vector-effect="non-scaling-stroke" stroke="#ff0000" stroke-width="0.100mm" stroke-opacity="1.000000" />
<path d="
M13.298 105.494
L14.614 105.494
M13.956 104.836
L13.956 106.152
" 
fill="none" vector-effect="non-scaling-stroke" stroke="#ff0000" stroke-width="0.100mm" stroke-opacity="1.000000" />
<path d="
M8.293 96.029
L9.609 96.029
M8.951 95.371
L8.951 96.687
" 
fill="none" vector-effect="non-scaling-stroke" stroke="#ff0000" stroke-width="0.100mm" stroke-opacity="1.000000" />
<path d="
M188.325 96.031
L189.641 96.031
M188.983 95.373
L188.983 96.689
" 
fill="none" vector-effect="non-scaling-stroke" stroke="#ff0000" stroke-width="0.100mm" stroke-opacity="1.000000" />
<path d="
M8.288 23.028
L9.604 23.028
M8.946 22.370
L8.946 23.686
" 
fill="none" vector-effect="non-scaling-stroke" stroke="#ff0000" stroke-width="0.100mm" stroke-opacity="1.000000" />
<path d="
M188.296 23.019
L189.612 23.019
M188.954 22.361
L188.954 23.677
" 
fill="none" vector-effect="non-scaling-stroke" stroke="#ff0000" stroke-width="0.100mm" stroke-opacity="1.000000" />
<path d="
M183.287 105.529
L184.603 105.529
M183.945 104.871
L183.945 106.187
" 
fill="none" vector-effect="non-scaling-stroke" stroke="#ff0000" stroke-width="0.100mm" stroke-opacity="1.000000" />
<path d="
M13.290 13.481
L14.606 13.481
M13.948 12.823
L13.948 14.139
" 
fill="none" vector-effect="non-scaling-stroke" stroke="#ff0000" stroke-width="0.100mm" stroke-opacity="1.000000" />
<path d="
M183.267 13.453
L184.583 13.453
M183.925 12.795
L183.925 14.111
" 
fill="none" vector-effect="non-scaling-stroke" stroke="#ff0000" stroke-width="0.100mm" stroke-opacity="1.000000" />
<path d="
M41.287 59.528
L42.603 59.528
M41.945 58.870
L41.945 60.186
" 
fill="none" vector-effect="non-scaling-stroke" stroke="#ff0000" stroke-width="0.100mm" stroke-opacity="1.000000" />
<path d="
M159.287 59.528
L160.603 59.528
M159.945 58.870
L159.945 60.186
" 
fill="none" vector-effect="non-scaling-stroke" stroke="#ff0000" stroke-width="0.100mm" stroke-opacity="1.000000" />
<path d="
M133.287 59.528
L134.603 59.528
M133.945 58.870
L133.945 60.186
" 
fill="none" vector-effect="non-scaling-stroke" stroke="#ff0000" stroke-width="0.100mm" stroke-opacity="1.000000" />
<path d="
M107.287 59.528
L108.603 59.528
M107.945 58.870
L107.945 60.186
" 
fill="none" vector-effect="non-scaling-stroke" stroke="#ff0000" stroke-width="0.100mm" stroke-opacity="1.000000" />
<path d="
M81.287 59.528
L82.603 59.528
M81.945 58.870
L81.945 60.186
" 
fill="none" vector-effect="non-scaling-stroke" stroke="#ff0000" stroke-width="0.100mm" stroke-opacity="1.000000" />
<path d="
M46.285 41.030
L47.601 41.030
M46.943 40.372
L46.943 41.688
" 
fill="none" vector-effect="non-scaling-stroke" stroke="#ff0000" stroke-width="0.100mm" stroke-opacity="1.000000" />
<path d="
M46.271 78.036
L47.587 78.036
M46.929 77.378
L46.929 78.694
" 
fill="none" vector-effect="non-scaling-stroke" stroke="#ff0000" stroke-width="0.100mm" stroke-opacity="1.000000" />
<path d="
M26.287 22.494
L27.603 22.494
M26.945 21.836
L26.945 23.152
" 
fill="none" vector-effect="non-scaling-stroke" stroke="#ff0000" stroke-width="0.100mm" stroke-opacity="1.000000" />
<path d="
M26.287 96.494
L27.603 96.494
M26.945 95.836
L26.945 97.152
" 
fill="none" vector-effect="non-scaling-stroke" stroke="#ff0000" stroke-width="0.100mm" stroke-opacity="1.000000" />
<path d="
M26.287 59.494
L27.603 59.494
M26.945 58.836
L26.945 60.152
" 
fill="none" vector-effect="non-scaling-stroke" stroke="#ff0000" stroke-width="0.100mm" stroke-opacity="1.000000" />
<path d="
M133.265 87.324
L134.581 87.324
M133.923 86.666
L133.923 87.982
" 
fill="none" vector-effect="non-scaling-stroke" stroke="#ff0000" stroke-width="0.100mm" stroke-opacity="1.000000" />
<path d="
M133.453 59.509
L134.769 59.509
M134.111 58.851
L134.111 60.167
" 
fill="none" vector-effect="non-scaling-stroke" stroke="#ff0000" stroke-width="0.100mm" stroke-opacity="1.000000" />
<path d="
M133.287 31.789
L134.603 31.789
M133.945 31.131
L133.945 32.447
" 
fill="none" vector-effect="non-scaling-stroke" stroke="#ff0000" stroke-width="0.100mm" stroke-opacity="1.000000" />
<path d="
M93.282 17.847
L94.598 17.847
M93.940 17.189
L93.940 18.505
" 
fill="none" vector-effect="non-scaling-stroke" stroke="#ff0000" stroke-width="0.100mm" stroke-opacity="1.000000" />
<path d="
M119.282 17.847
L120.598 17.847
M119.940 17.189
L119.940 18.505
" 
fill="none" vector-effect="non-scaling-stroke" stroke="#ff0000" stroke-width="0.100mm" stroke-opacity="1.000000" />
<path d="
M145.282 17.847
L146.598 17.847
M145.940 17.189
L145.940 18.505
" 
fill="none" vector-effect="non-scaling-stroke" stroke="#ff0000" stroke-width="0.100mm" stroke-opacity="1.000000" />
<path d="
M172.282 17.847
L173.598 17.847
M172.940 17.189
L172.940 18.505
" 
fill="none" vector-effect="non-scaling-stroke" stroke="#ff0000" stroke-width="0.100mm" stroke-opacity="1.000000" />
<path d="
M93.293 45.627
L94.609 45.627
M93.951 44.969
L93.951 46.285
" 
fill="none" vector-effect="non-scaling-stroke" stroke="#ff0000" stroke-width="0.100mm" stroke-opacity="1.000000" />
<path d="
M119.293 45.627
L120.609 45.627
M119.951 44.969
L119.951 46.285
" 
fill="none" vector-effect="non-scaling-stroke" stroke="#ff0000" stroke-width="0.100mm" stroke-opacity="1.000000" />
<path d="
M145.293 45.627
L146.609 45.627
M145.951 44.969
L145.951 46.285
" 
fill="none" vector-effect="non-scaling-stroke" stroke="#ff0000" stroke-width="0.100mm" stroke-opacity="1.000000" />
<path d="
M172.293 45.627
L173.609 45.627
M172.951 44.969
L172.951 46.285
" 
fill="none" vector-effect="non-scaling-stroke" stroke="#ff0000" stroke-width="0.100mm" stroke-opacity="1.000000" />
<path d="
M94.282 101.188
L95.598 101.188
M94.940 100.530
L94.940 101.846
" 
fill="none" vector-effect="non-scaling-stroke" stroke="#ff0000" stroke-width="0.100mm" stroke-opacity="1.000000" />
<path d="
M120.282 101.188
L121.598 101.188
M120.940 100.530
L120.940 101.846
" 
fill="none" vector-effect="non-scaling-stroke" stroke="#ff0000" stroke-width="0.100mm" stroke-opacity="1.000000" />
<path d="
M146.282 101.188
L147.598 101.188
M146.940 100.530
L146.940 101.846
" 
fill="none" vector-effect="non-scaling-stroke" stroke="#ff0000" stroke-width="0.100mm" stroke-opacity="1.000000" />
<path d="
M172.282 101.188
L173.598 101.188
M172.940 100.530
L172.940 101.846
" 
fill="none" vector-effect="non-scaling-stroke" stroke="#ff0000" stroke-width="0.100mm" stroke-opacity="1.000000" />
<path d="
M93.287 73.438
L94.603 73.438
M93.945 72.780
L93.945 74.096
" 
fill="none" vector-effect="non-scaling-stroke" stroke="#ff0000" stroke-width="0.100mm" stroke-opacity="1.000000" />
<path d="
M120.287 73.438
L121.603 73.438
M120.945 72.780
L120.945 74.096
" 
fill="none" vector-effect="non-scaling-stroke" stroke="#ff0000" stroke-width="0.100mm" stroke-opacity="1.000000" />
<path d="
M146.287 73.438
L147.603 73.438
M146.945 72.780
L146.945 74.096
" 
fill="none" vector-effect="non-scaling-stroke" stroke="#ff0000" stroke-width="0.100mm" stroke-opacity="1.000000" />
<path d="
M172.287 73.438
L173.603 73.438
M172.945 72.780
L172.945 74.096
" 
fill="none" vector-effect="non-scaling-stroke" stroke="#ff0000" stroke-width="0.100mm" stroke-opacity="1.000000" />
<path d="
M185.251 59.495
L186.567 59.495
M185.909 58.837
L185.909 60.153
" 
fill="none" vector-effect="non-scaling-stroke" stroke="#ff0000" stroke-width="0.100mm" stroke-opacity="1.000000" />
<path d="
M11.285 59.497
L12.601 59.497
M11.943 58.839
L11.943 60.155
" 
fill="none" vector-effect="non-scaling-stroke" stroke="#ff0000" stroke-width="0.100mm" stroke-opacity="1.000000" />
<path d="
M61.234 22.479
L62.550 22.479
M61.892 21.821
L61.892 23.137
" 
fill="none" vector-effect="non-scaling-stroke" stroke="#ff0000" stroke-width="0.100mm" stroke-opacity="1.000000" />
<path d="
M61.259 59.539
L62.575 59.539
M61.917 58.881
L61.917 60.197
" 
fill="none" vector-effect="non-scaling-stroke" stroke="#ff0000" stroke-width="0.100mm" stroke-opacity="1.000000" />
<path d="
M61.297 96.444
L62.613 96.444
M61.955 95.786
L61.955 97.102
" 
fill="none" vector-effect="non-scaling-stroke" stroke="#ff0000" stroke-width="0.100mm" stroke-opacity="1.000000" />
</g>
</svg>
