<?xml version="1.0" standalone="no"?>
<!DOCTYPE svg PUBLIC "-//W3C//DTD SVG 1.1//EN" 
  "http://www.w3.org/Graphics/SVG/1.1/DTD/svg11.dtd">
<svg width="198.000mm" height="119.000mm" version="1.1"
     viewBox="0 0 198.000 119.000"
     xmlns="http://www.w3.org/2000/svg"  xmlns:xlink="http://www.w3.org/1999/xlink" 
     xmlns:fpd="http://www.schaeffer-ag.de">
  <desc>Created with the Front Panel Designer by the export of the file 'front_panel.fpd'.</desc>
  <defs>
    <pattern id="revside-fill" x="1" y="1" width="1.980" height="1.980" patternUnits="userSpaceOnUse">
      <line x1="0" y1="0" x2="1.980" y2="1.980" style="stroke-width:0.198; stroke:black; stroke-dasharray:none;" />
      <line x1="0" y1="1.980" x2="1.980" y2="0" style="stroke-width:0.198; stroke:black; stroke-dasharray:none;" />
    </pattern>
    <pattern id="revside-fill-silver" x="1" y="1" width="1.980" height="1.980" patternUnits="userSpaceOnUse">
      <line x1="0" y1="0" x2="1.980" y2="1.980" style="stroke-width:0.198; stroke:#e0e0e0; stroke-dasharray:none;" />
      <line x1="0" y1="1.980" x2="1.980" y2="0" style="stroke-width:0.198; stroke:#e0e0e0; stroke-dasharray:none;" />
    </pattern>
  </defs>
<g transform="scale(1,-1) translate( -0.000, -119.000)" 
   fill-rule="evenodd"
   style="stroke-linecap:round; stroke-linejoin:round; stroke-opacity:1.0; stroke-opacity:1.0;">
<path d="
M193.000 119.000
A5.000,5.000 0 0,0 198.000,114.000
L198.000 5.000
A5.000,5.000 0 0,0 193.000,0.000
L5.000 0.000
A5.000,5.000 0 0,0 0.000,5.000
L0.000 114.000
A5.000,5.000 0 0,0 5.000,119.000
L193.000 119.000
" 
fill="#0f0f0f" fill-opacity="1.000000" vector-effect="non-scaling-stroke" stroke="#000000" stroke-width="0.100mm" stroke-opacity="1.000000" fpd:visible="front back" />
<path d="
M193.000 119.000
A5.000,5.000 0 0,0 198.000,114.000
L198.000 5.000
A5.000,5.000 0 0,0 193.000,0.000
L5.000 0.000
A5.000,5.000 0 0,0 0.000,5.000
L0.000 114.000
A5.000,5.000 0 0,0 5.000,119.000
L193.000 119.000
M5.000 118.000
A4.000,4.000 0 0,1 1.000,114.000
L1.000 114.000
L1.000 5.000
L1.000 5.000
L1.000 5.000
L1.000 5.000
A4.000,4.000 0 0,1 5.000,1.000
L5.000 1.000
L193.000 1.000
L193.000 1.000
A4.000,4.000 0 0,1 197.000,5.000
L197.000 5.000
L197.000 114.000
L197.000 114.000
A4.000,4.000 0 0,1 193.000,118.000
L5.000 118.000
" 
fill="#e0e0e0" fill-opacity="1.000000" vector-effect="non-scaling-stroke" stroke="#0000ff" stroke-width="0.100mm" stroke-opacity="1.000000" fpd:visible="front" />
<path d="
M193.000 119.000
A5.000,5.000 0 0,0 198.000,114.000
L198.000 5.000
A5.000,5.000 0 0,0 193.000,0.000
L5.000 0.000
A5.000,5.000 0 0,0 0.000,5.000
L0.000 114.000
A5.000,5.000 0 0,0 5.000,119.000
L193.000 119.000
" 
fill="none" vector-effect="non-scaling-stroke" stroke="#0000ff" stroke-width="0.100mm" stroke-opacity="1.000000" fpd:visible="front" />
<path d="
M3.941 22.997
L3.945 95.997
" 
fill="none" vector-effect="non-scaling-stroke" stroke="#6c85b8" stroke-width="0.400mm" stroke-opacity="1.000000" fpd:visible="front" fpd:print_element="0" fpd:engraving="1" />
<path d="
M183.968 115.047
L13.968 115.047
" 
fill="none" vector-effect="non-scaling-stroke" stroke="#6c85b8" stroke-width="0.400mm" stroke-opacity="1.000000" fpd:visible="front" fpd:print_element="0" fpd:engraving="1" />
<path d="
M183.777 4.038
L13.777 4.038
" 
fill="none" vector-effect="non-scaling-stroke" stroke="#6c85b8" stroke-width="0.400mm" stroke-opacity="1.000000" fpd:visible="front" fpd:print_element="0" fpd:engraving="1" />
<path d="
M193.909 95.995
L193.909 22.995
" 
fill="none" vector-effect="non-scaling-stroke" stroke="#6c85b8" stroke-width="0.400mm" stroke-opacity="1.000000" fpd:visible="front" fpd:print_element="0" fpd:engraving="1" />
<path d="
M13.956 95.994
L13.956 114.994
" 
fill="none" vector-effect="non-scaling-stroke" stroke="#6c85b8" stroke-width="0.400mm" stroke-opacity="1.000000" fpd:visible="front" fpd:print_element="0" fpd:engraving="1" />
<path d="
M13.951 96.029
L3.951 96.029
" 
fill="none" vector-effect="non-scaling-stroke" stroke="#6c85b8" stroke-width="0.400mm" stroke-opacity="1.000000" fpd:visible="front" fpd:print_element="0" fpd:engraving="1" />
<path d="
M183.983 96.031
L193.983 96.031
" 
fill="none" vector-effect="non-scaling-stroke" stroke="#6c85b8" stroke-width="0.400mm" stroke-opacity="1.000000" fpd:visible="front" fpd:print_element="0" fpd:engraving="1" />
<path d="
M3.947 23.028
L13.945 23.028
" 
fill="none" vector-effect="non-scaling-stroke" stroke="#6c85b8" stroke-width="0.400mm" stroke-opacity="1.000000" fpd:visible="front" fpd:print_element="0" fpd:engraving="1" />
<path d="
M183.954 23.019
L193.954 23.019
" 
fill="none" vector-effect="non-scaling-stroke" stroke="#6c85b8" stroke-width="0.400mm" stroke-opacity="1.000000" fpd:visible="front" fpd:print_element="0" fpd:engraving="1" />
<path d="
M183.945 96.030
L183.945 115.028
" 
fill="none" vector-effect="non-scaling-stroke" stroke="#6c85b8" stroke-width="0.400mm" stroke-opacity="1.000000" fpd:visible="front" fpd:print_element="0" fpd:engraving="1" />
<path d="
M13.948 22.981
L13.948 3.981
" 
fill="none" vector-effect="non-scaling-stroke" stroke="#6c85b8" stroke-width="0.400mm" stroke-opacity="1.000000" fpd:visible="front" fpd:print_element="0" fpd:engraving="1" />
<path d="
M183.925 22.953
L183.925 3.953
" 
fill="none" vector-effect="non-scaling-stroke" stroke="#6c85b8" stroke-width="0.400mm" stroke-opacity="1.000000" fpd:visible="front" fpd:print_element="0" fpd:engraving="1" />
<path d="
M41.945 115.028
L41.945 4.028
" 
fill="none" vector-effect="non-scaling-stroke" stroke="#6c85b8" stroke-width="0.200mm" stroke-opacity="1.000000" fpd:visible="front" fpd:print_element="0" fpd:engraving="1" />
<path d="
M159.945 115.028
L159.945 4.028
" 
fill="none" vector-effect="non-scaling-stroke" stroke="#6c85b8" stroke-width="0.200mm" stroke-opacity="1.000000" fpd:visible="front" fpd:print_element="0" fpd:engraving="1" />
<path d="
M133.945 115.028
L133.945 4.028
" 
fill="none" vector-effect="non-scaling-stroke" stroke="#6c85b8" stroke-width="0.200mm" stroke-opacity="1.000000" fpd:visible="front" fpd:print_element="0" fpd:engraving="1" />
<path d="
M107.945 115.028
L107.945 4.028
" 
fill="none" vector-effect="non-scaling-stroke" stroke="#6c85b8" stroke-width="0.200mm" stroke-opacity="1.000000" fpd:visible="front" fpd:print_element="0" fpd:engraving="1" />
<path d="
M81.945 115.028
L81.945 4.028
" 
fill="none" vector-effect="non-scaling-stroke" stroke="#6c85b8" stroke-width="0.200mm" stroke-opacity="1.000000" fpd:visible="front" fpd:print_element="0" fpd:engraving="1" />
<path d="
M11.941 41.030
L81.945 41.030
" 
fill="none" vector-effect="non-scaling-stroke" stroke="#6c85b8" stroke-width="0.200mm" stroke-opacity="1.000000" fpd:visible="front" fpd:print_element="0" fpd:engraving="1" />
<path d="
M11.929 78.036
L81.929 78.036
" 
fill="none" vector-effect="non-scaling-stroke" stroke="#6c85b8" stroke-width="0.200mm" stroke-opacity="1.000000" fpd:visible="front" fpd:print_element="0" fpd:engraving="1" />
<path d="
M185.923 87.324
L81.923 87.324
" 
fill="none" vector-effect="non-scaling-stroke" stroke="#6c85b8" stroke-width="0.200mm" stroke-opacity="1.000000" fpd:visible="front" fpd:print_element="0" fpd:engraving="1" />
<path d="
M186.111 59.509
L82.111 59.509
" 
fill="none" vector-effect="non-scaling-stroke" stroke="#6c85b8" stroke-width="0.200mm" stroke-opacity="1.000000" fpd:visible="front" fpd:print_element="0" fpd:engraving="1" />
<path d="
M185.945 31.789
L81.945 31.789
" 
fill="none" vector-effect="non-scaling-stroke" stroke="#6c85b8" stroke-width="0.200mm" stroke-opacity="1.000000" fpd:visible="front" fpd:print_element="0" fpd:engraving="1" />
<path d="
M185.873 95.961
L185.945 23.029
" 
fill="none" vector-effect="non-scaling-stroke" stroke="#6c85b8" stroke-width="0.200mm" stroke-opacity="1.000000" fpd:visible="front" fpd:print_element="0" fpd:engraving="1" />
<path d="
M11.941 22.966
L11.945 96.028
" 
fill="none" vector-effect="non-scaling-stroke" stroke="#6c85b8" stroke-width="0.200mm" stroke-opacity="1.000000" fpd:visible="front" fpd:print_element="0" fpd:engraving="1" />
<path d="
M14.249 47.787
A1.000,1.000 0 0,1 15.249,46.787
L38.649 46.787
A1.000,1.000 0 0,1 39.649,47.787
L39.649 71.187
A1.000,1.000 0 0,1 38.649,72.187
L15.249 72.187
A1.000,1.000 0 0,1 14.249,71.187
L14.249 47.787
" 
fill="#d4dff2" fill-opacity="1.000000" vector-effect="non-scaling-stroke" stroke="#2952a3" stroke-width="0.100mm" stroke-opacity="1.000000" fpd:visible="front" fpd:print_element="0" />
<path d="
M14.248 84.792
A1.000,1.000 0 0,1 15.248,83.792
L38.648 83.792
A1.000,1.000 0 0,1 39.648,84.792
L39.648 108.192
A1.000,1.000 0 0,1 38.648,109.192
L15.248 109.192
A1.000,1.000 0 0,1 14.248,108.192
L14.248 84.792
" 
fill="#d4dff2" fill-opacity="1.000000" vector-effect="non-scaling-stroke" stroke="#2952a3" stroke-width="0.100mm" stroke-opacity="1.000000" fpd:visible="front" fpd:print_element="0" />
<path d="
M14.250 10.784
A1.000,1.000 0 0,1 15.250,9.784
L38.650 9.784
A1.000,1.000 0 0,1 39.650,10.784
L39.650 34.184
A1.000,1.000 0 0,1 38.650,35.184
L15.250 35.184
A1.000,1.000 0 0,1 14.250,34.184
L14.250 10.784
" 
fill="#d4dff2" fill-opacity="1.000000" vector-effect="non-scaling-stroke" stroke="#2952a3" stroke-width="0.100mm" stroke-opacity="1.000000" fpd:visible="front" fpd:print_element="0" />
<path d="
M39.057 79.038
A1.000,1.000 0 0,1 40.057,78.038
L83.857 78.038
A1.000,1.000 0 0,1 84.857,79.038
L84.857 113.838
A1.000,1.000 0 0,1 83.857,114.838
L40.057 114.838
A1.000,1.000 0 0,1 39.057,113.838
L39.057 79.038
" 
fill="#d4dff2" fill-opacity="1.000000" vector-effect="non-scaling-stroke" stroke="#2952a3" stroke-width="0.100mm" stroke-opacity="1.000000" fpd:visible="front" fpd:print_element="0" />
<path d="
M41.871 44.759
A3.000,3.000 0 0,1 44.871,41.759
L76.971 41.759
A3.000,3.000 0 0,1 79.971,44.759
L79.971 74.319
A3.000,3.000 0 0,1 76.971,77.319
L44.871 77.319
A3.000,3.000 0 0,1 41.871,74.319
L41.871 44.759
" 
fill="#d4dff2" fill-opacity="1.000000" vector-effect="non-scaling-stroke" stroke="#2952a3" stroke-width="0.100mm" stroke-opacity="1.000000" fpd:visible="front" fpd:print_element="0" />
<path d="
M0.695 5.278
A4.000,4.000 0 1,0 8.695,5.278
A4.000,4.000 0 1,0 0.695,5.278
M2.545 5.278
A2.150,2.150 0 1,0 6.845,5.278
A2.150,2.150 0 1,0 2.545,5.278
" 
fill="#e0e0e0" fill-opacity="1.000000" vector-effect="non-scaling-stroke" stroke="#000000" stroke-width="0.100mm" stroke-opacity="1.000000" fpd:visible="front" />
<path d="
M0.695 5.278
A4.000,4.000 0 1,0 8.695,5.278
A4.000,4.000 0 1,0 0.695,5.278
" 
fill="none" vector-effect="non-scaling-stroke" stroke="#000000" stroke-width="0.100mm" stroke-opacity="1.000000" fpd:visible="front" />
<path d="
M2.545 5.278
A2.150,2.150 0 1,0 6.845,5.278
A2.150,2.150 0 1,0 2.545,5.278
" 
fill="#ffffff" fill-opacity="1.000000" vector-effect="non-scaling-stroke" stroke="#000000" stroke-width="0.100mm" stroke-opacity="1.000000" fpd:visible="front back" fpd:print_element="0" />
<path d="
M0.695 113.778
A4.000,4.000 0 1,0 8.695,113.778
A4.000,4.000 0 1,0 0.695,113.778
M2.545 113.778
A2.150,2.150 0 1,0 6.845,113.778
A2.150,2.150 0 1,0 2.545,113.778
" 
fill="#e0e0e0" fill-opacity="1.000000" vector-effect="non-scaling-stroke" stroke="#000000" stroke-width="0.100mm" stroke-opacity="1.000000" fpd:visible="front" />
<path d="
M0.695 113.778
A4.000,4.000 0 1,0 8.695,113.778
A4.000,4.000 0 1,0 0.695,113.778
" 
fill="none" vector-effect="non-scaling-stroke" stroke="#000000" stroke-width="0.100mm" stroke-opacity="1.000000" fpd:visible="front" />
<path d="
M2.545 113.778
A2.150,2.150 0 1,0 6.845,113.778
A2.150,2.150 0 1,0 2.545,113.778
" 
fill="#ffffff" fill-opacity="1.000000" vector-effect="non-scaling-stroke" stroke="#000000" stroke-width="0.100mm" stroke-opacity="1.000000" fpd:visible="front back" fpd:print_element="0" />
<path d="
M189.195 113.778
A4.000,4.000 0 1,0 197.195,113.778
A4.000,4.000 0 1,0 189.195,113.778
M191.045 113.778
A2.150,2.150 0 1,0 195.345,113.778
A2.150,2.150 0 1,0 191.045,113.778
" 
fill="#e0e0e0" fill-opacity="1.000000" vector-effect="non-scaling-stroke" stroke="#000000" stroke-width="0.100mm" stroke-opacity="1.000000" fpd:visible="front" />
<path d="
M189.195 113.778
A4.000,4.000 0 1,0 197.195,113.778
A4.000,4.000 0 1,0 189.195,113.778
" 
fill="none" vector-effect="non-scaling-stroke" stroke="#000000" stroke-width="0.100mm" stroke-opacity="1.000000" fpd:visible="front" />
<path d="
M191.045 113.778
A2.150,2.150 0 1,0 195.345,113.778
A2.150,2.150 0 1,0 191.045,113.778
" 
fill="#ffffff" fill-opacity="1.000000" vector-effect="non-scaling-stroke" stroke="#000000" stroke-width="0.100mm" stroke-opacity="1.000000" fpd:visible="front back" fpd:print_element="0" />
<path d="
M189.195 5.278
A4.000,4.000 0 1,0 197.195,5.278
A4.000,4.000 0 1,0 189.195,5.278
M191.045 5.278
A2.150,2.150 0 1,0 195.345,5.278
A2.150,2.150 0 1,0 191.045,5.278
" 
fill="#e0e0e0" fill-opacity="1.000000" vector-effect="non-scaling-stroke" stroke="#000000" stroke-width="0.100mm" stroke-opacity="1.000000" fpd:visible="front" />
<path d="
M189.195 5.278
A4.000,4.000 0 1,0 197.195,5.278
A4.000,4.000 0 1,0 189.195,5.278
" 
fill="none" vector-effect="non-scaling-stroke" stroke="#000000" stroke-width="0.100mm" stroke-opacity="1.000000" fpd:visible="front" />
<path d="
M191.045 5.278
A2.150,2.150 0 1,0 195.345,5.278
A2.150,2.150 0 1,0 191.045,5.278
" 
fill="#ffffff" fill-opacity="1.000000" vector-effect="non-scaling-stroke" stroke="#000000" stroke-width="0.100mm" stroke-opacity="1.000000" fpd:visible="front back" fpd:print_element="0" />
<path d="
M23.445 59.494
A3.500,3.500 0 1,0 30.445,59.494
A3.500,3.500 0 1,0 23.445,59.494
" 
fill="#ffffff" fill-opacity="1.000000" vector-effect="non-scaling-stroke" stroke="#000000" stroke-width="0.100mm" stroke-opacity="1.000000" fpd:visible="front back" fpd:print_element="0" />
<path d="
M85.940 17.847
A8.000,8.000 0 1,0 101.940,17.847
A8.000,8.000 0 1,0 85.940,17.847
" 
fill="#ffffff" fill-opacity="1.000000" vector-effect="non-scaling-stroke" stroke="#000000" stroke-width="0.100mm" stroke-opacity="1.000000" fpd:visible="front back" fpd:print_element="0" />
<path d="
M111.940 17.847
A8.000,8.000 0 1,0 127.940,17.847
A8.000,8.000 0 1,0 111.940,17.847
" 
fill="#ffffff" fill-opacity="1.000000" vector-effect="non-scaling-stroke" stroke="#000000" stroke-width="0.100mm" stroke-opacity="1.000000" fpd:visible="front back" fpd:print_element="0" />
<path d="
M137.940 17.847
A8.000,8.000 0 1,0 153.940,17.847
A8.000,8.000 0 1,0 137.940,17.847
" 
fill="#ffffff" fill-opacity="1.000000" vector-effect="non-scaling-stroke" stroke="#000000" stroke-width="0.100mm" stroke-opacity="1.000000" fpd:visible="front back" fpd:print_element="0" />
<path d="
M164.940 17.847
A8.000,8.000 0 1,0 180.940,17.847
A8.000,8.000 0 1,0 164.940,17.847
" 
fill="#ffffff" fill-opacity="1.000000" vector-effect="non-scaling-stroke" stroke="#000000" stroke-width="0.100mm" stroke-opacity="1.000000" fpd:visible="front back" fpd:print_element="0" />
<path d="
M85.951 45.627
A8.000,8.000 0 1,0 101.951,45.627
A8.000,8.000 0 1,0 85.951,45.627
" 
fill="#ffffff" fill-opacity="1.000000" vector-effect="non-scaling-stroke" stroke="#000000" stroke-width="0.100mm" stroke-opacity="1.000000" fpd:visible="front back" fpd:print_element="0" />
<path d="
M111.951 45.627
A8.000,8.000 0 1,0 127.951,45.627
A8.000,8.000 0 1,0 111.951,45.627
" 
fill="#ffffff" fill-opacity="1.000000" vector-effect="non-scaling-stroke" stroke="#000000" stroke-width="0.100mm" stroke-opacity="1.000000" fpd:visible="front back" fpd:print_element="0" />
<path d="
M137.951 45.627
A8.000,8.000 0 1,0 153.951,45.627
A8.000,8.000 0 1,0 137.951,45.627
" 
fill="#ffffff" fill-opacity="1.000000" vector-effect="non-scaling-stroke" stroke="#000000" stroke-width="0.100mm" stroke-opacity="1.000000" fpd:visible="front back" fpd:print_element="0" />
<path d="
M164.951 45.627
A8.000,8.000 0 1,0 180.951,45.627
A8.000,8.000 0 1,0 164.951,45.627
" 
fill="#ffffff" fill-opacity="1.000000" vector-effect="non-scaling-stroke" stroke="#000000" stroke-width="0.100mm" stroke-opacity="1.000000" fpd:visible="front back" fpd:print_element="0" />
<path d="
M91.940 101.188
A3.000,3.000 0 1,0 97.940,101.188
A3.000,3.000 0 1,0 91.940,101.188
" 
fill="#ffffff" fill-opacity="1.000000" vector-effect="non-scaling-stroke" stroke="#000000" stroke-width="0.100mm" stroke-opacity="1.000000" fpd:visible="front back" fpd:print_element="0" />
<path d="
M117.940 101.188
A3.000,3.000 0 1,0 123.940,101.188
A3.000,3.000 0 1,0 117.940,101.188
" 
fill="#ffffff" fill-opacity="1.000000" vector-effect="non-scaling-stroke" stroke="#000000" stroke-width="0.100mm" stroke-opacity="1.000000" fpd:visible="front back" fpd:print_element="0" />
<path d="
M143.940 101.188
A3.000,3.000 0 1,0 149.940,101.188
A3.000,3.000 0 1,0 143.940,101.188
" 
fill="#ffffff" fill-opacity="1.000000" vector-effect="non-scaling-stroke" stroke="#000000" stroke-width="0.100mm" stroke-opacity="1.000000" fpd:visible="front back" fpd:print_element="0" />
<path d="
M169.940 101.188
A3.000,3.000 0 1,0 175.940,101.188
A3.000,3.000 0 1,0 169.940,101.188
" 
fill="#ffffff" fill-opacity="1.000000" vector-effect="non-scaling-stroke" stroke="#000000" stroke-width="0.100mm" stroke-opacity="1.000000" fpd:visible="front back" fpd:print_element="0" />
<path d="
M85.945 73.438
A8.000,8.000 0 1,0 101.945,73.438
A8.000,8.000 0 1,0 85.945,73.438
" 
fill="#ffffff" fill-opacity="1.000000" vector-effect="non-scaling-stroke" stroke="#000000" stroke-width="0.100mm" stroke-opacity="1.000000" fpd:visible="front back" fpd:print_element="0" />
<path d="
M112.945 73.438
A8.000,8.000 0 1,0 128.945,73.438
A8.000,8.000 0 1,0 112.945,73.438
" 
fill="#ffffff" fill-opacity="1.000000" vector-effect="non-scaling-stroke" stroke="#000000" stroke-width="0.100mm" stroke-opacity="1.000000" fpd:visible="front back" fpd:print_element="0" />
<path d="
M138.945 73.438
A8.000,8.000 0 1,0 154.945,73.438
A8.000,8.000 0 1,0 138.945,73.438
" 
fill="#ffffff" fill-opacity="1.000000" vector-effect="non-scaling-stroke" stroke="#000000" stroke-width="0.100mm" stroke-opacity="1.000000" fpd:visible="front back" fpd:print_element="0" />
<path d="
M164.945 73.438
A8.000,8.000 0 1,0 180.945,73.438
A8.000,8.000 0 1,0 164.945,73.438
" 
fill="#ffffff" fill-opacity="1.000000" vector-effect="non-scaling-stroke" stroke="#000000" stroke-width="0.100mm" stroke-opacity="1.000000" fpd:visible="front back" fpd:print_element="0" />
<path d="
M46.892 22.479
A15.000,15.000 0 1,0 76.892,22.479
A15.000,15.000 0 1,0 46.892,22.479
" 
fill="#ffffff" fill-opacity="1.000000" vector-effect="non-scaling-stroke" stroke="#000000" stroke-width="0.100mm" stroke-opacity="1.000000" fpd:visible="front back" fpd:print_element="0" />
<path d="
M44.667 59.539
A17.250,17.250 0 1,0 79.167,59.539
A17.250,17.250 0 1,0 44.667,59.539
" 
fill="#ffffff" fill-opacity="1.000000" vector-effect="non-scaling-stroke" stroke="#000000" stroke-width="0.100mm" stroke-opacity="1.000000" fpd:visible="front back" fpd:print_element="0" />
<path d="
M42.905 85.894
A4.500,4.500 0 0,1 47.405,81.394
L76.505 81.394
A4.500,4.500 0 0,1 81.005,85.894
L81.005 106.994
A4.500,4.500 0 0,1 76.505,111.494
L47.405 111.494
A4.500,4.500 0 0,1 42.905,106.994
L42.905 85.894
" 
fill="#ffffff" fill-opacity="1.000000" vector-effect="non-scaling-stroke" stroke="#000000" stroke-width="0.100mm" stroke-opacity="1.000000" fpd:visible="front back" fpd:print_element="0" />
<path d="
M36.101 69.662
A1.000,1.000 0 1,0 38.101,69.662
A1.000,1.000 0 1,0 36.101,69.662
" 
fill="#ffffff" fill-opacity="1.000000" vector-effect="non-scaling-stroke" stroke="#000000" stroke-width="0.100mm" stroke-opacity="1.000000" fpd:visible="front back" fpd:print_element="0" />
<path d="
M15.770 69.662
A1.000,1.000 0 1,0 17.770,69.662
A1.000,1.000 0 1,0 15.770,69.662
" 
fill="#ffffff" fill-opacity="1.000000" vector-effect="non-scaling-stroke" stroke="#000000" stroke-width="0.100mm" stroke-opacity="1.000000" fpd:visible="front back" fpd:print_element="0" />
<path d="
M15.770 49.336
A1.000,1.000 0 1,0 17.770,49.336
A1.000,1.000 0 1,0 15.770,49.336
" 
fill="#ffffff" fill-opacity="1.000000" vector-effect="non-scaling-stroke" stroke="#000000" stroke-width="0.100mm" stroke-opacity="1.000000" fpd:visible="front back" fpd:print_element="0" />
<path d="
M36.101 49.336
A1.000,1.000 0 1,0 38.101,49.336
A1.000,1.000 0 1,0 36.101,49.336
" 
fill="#ffffff" fill-opacity="1.000000" vector-effect="non-scaling-stroke" stroke="#000000" stroke-width="0.100mm" stroke-opacity="1.000000" fpd:visible="front back" fpd:print_element="0" />
<path d="
M14.774 59.487
A2.000,2.000 0 1,0 18.774,59.487
A2.000,2.000 0 1,0 14.774,59.487
" 
fill="#ffffff" fill-opacity="1.000000" vector-effect="non-scaling-stroke" stroke="#000000" stroke-width="0.100mm" stroke-opacity="1.000000" fpd:visible="front back" fpd:print_element="0" />
<path d="
M23.444 96.499
A3.500,3.500 0 1,0 30.444,96.499
A3.500,3.500 0 1,0 23.444,96.499
" 
fill="#ffffff" fill-opacity="1.000000" vector-effect="non-scaling-stroke" stroke="#000000" stroke-width="0.100mm" stroke-opacity="1.000000" fpd:visible="front back" fpd:print_element="0" />
<path d="
M36.100 106.667
A1.000,1.000 0 1,0 38.100,106.667
A1.000,1.000 0 1,0 36.100,106.667
" 
fill="#ffffff" fill-opacity="1.000000" vector-effect="non-scaling-stroke" stroke="#000000" stroke-width="0.100mm" stroke-opacity="1.000000" fpd:visible="front back" fpd:print_element="0" />
<path d="
M15.769 106.667
A1.000,1.000 0 1,0 17.769,106.667
A1.000,1.000 0 1,0 15.769,106.667
" 
fill="#ffffff" fill-opacity="1.000000" vector-effect="non-scaling-stroke" stroke="#000000" stroke-width="0.100mm" stroke-opacity="1.000000" fpd:visible="front back" fpd:print_element="0" />
<path d="
M15.769 86.341
A1.000,1.000 0 1,0 17.769,86.341
A1.000,1.000 0 1,0 15.769,86.341
" 
fill="#ffffff" fill-opacity="1.000000" vector-effect="non-scaling-stroke" stroke="#000000" stroke-width="0.100mm" stroke-opacity="1.000000" fpd:visible="front back" fpd:print_element="0" />
<path d="
M36.100 86.341
A1.000,1.000 0 1,0 38.100,86.341
A1.000,1.000 0 1,0 36.100,86.341
" 
fill="#ffffff" fill-opacity="1.000000" vector-effect="non-scaling-stroke" stroke="#000000" stroke-width="0.100mm" stroke-opacity="1.000000" fpd:visible="front back" fpd:print_element="0" />
<path d="
M14.773 96.492
A2.000,2.000 0 1,0 18.773,96.492
A2.000,2.000 0 1,0 14.773,96.492
" 
fill="#ffffff" fill-opacity="1.000000" vector-effect="non-scaling-stroke" stroke="#000000" stroke-width="0.100mm" stroke-opacity="1.000000" fpd:visible="front back" fpd:print_element="0" />
<path d="
M23.446 22.491
A3.500,3.500 0 1,0 30.446,22.491
A3.500,3.500 0 1,0 23.446,22.491
" 
fill="#ffffff" fill-opacity="1.000000" vector-effect="non-scaling-stroke" stroke="#000000" stroke-width="0.100mm" stroke-opacity="1.000000" fpd:visible="front back" fpd:print_element="0" />
<path d="
M36.102 32.659
A1.000,1.000 0 1,0 38.102,32.659
A1.000,1.000 0 1,0 36.102,32.659
" 
fill="#ffffff" fill-opacity="1.000000" vector-effect="non-scaling-stroke" stroke="#000000" stroke-width="0.100mm" stroke-opacity="1.000000" fpd:visible="front back" fpd:print_element="0" />
<path d="
M15.771 32.659
A1.000,1.000 0 1,0 17.771,32.659
A1.000,1.000 0 1,0 15.771,32.659
" 
fill="#ffffff" fill-opacity="1.000000" vector-effect="non-scaling-stroke" stroke="#000000" stroke-width="0.100mm" stroke-opacity="1.000000" fpd:visible="front back" fpd:print_element="0" />
<path d="
M15.771 12.333
A1.000,1.000 0 1,0 17.771,12.333
A1.000,1.000 0 1,0 15.771,12.333
" 
fill="#ffffff" fill-opacity="1.000000" vector-effect="non-scaling-stroke" stroke="#000000" stroke-width="0.100mm" stroke-opacity="1.000000" fpd:visible="front back" fpd:print_element="0" />
<path d="
M36.102 12.333
A1.000,1.000 0 1,0 38.102,12.333
A1.000,1.000 0 1,0 36.102,12.333
" 
fill="#ffffff" fill-opacity="1.000000" vector-effect="non-scaling-stroke" stroke="#000000" stroke-width="0.100mm" stroke-opacity="1.000000" fpd:visible="front back" fpd:print_element="0" />
<path d="
M14.775 22.484
A2.000,2.000 0 1,0 18.775,22.484
A2.000,2.000 0 1,0 14.775,22.484
" 
fill="#ffffff" fill-opacity="1.000000" vector-effect="non-scaling-stroke" stroke="#000000" stroke-width="0.100mm" stroke-opacity="1.000000" fpd:visible="front back" fpd:print_element="0" />
<path d="
M41.581 112.322
A1.000,1.000 0 1,0 43.581,112.322
A1.000,1.000 0 1,0 41.581,112.322
" 
fill="#ffffff" fill-opacity="1.000000" vector-effect="non-scaling-stroke" stroke="#000000" stroke-width="0.100mm" stroke-opacity="1.000000" fpd:visible="front back" fpd:print_element="0" />
<path d="
M80.322 112.328
A1.000,1.000 0 1,0 82.322,112.328
A1.000,1.000 0 1,0 80.322,112.328
" 
fill="#ffffff" fill-opacity="1.000000" vector-effect="non-scaling-stroke" stroke="#000000" stroke-width="0.100mm" stroke-opacity="1.000000" fpd:visible="front back" fpd:print_element="0" />
<path d="
M80.319 80.565
A1.000,1.000 0 1,0 82.319,80.565
A1.000,1.000 0 1,0 80.319,80.565
" 
fill="#ffffff" fill-opacity="1.000000" vector-effect="non-scaling-stroke" stroke="#000000" stroke-width="0.100mm" stroke-opacity="1.000000" fpd:visible="front back" fpd:print_element="0" />
<path d="
M41.576 80.562
A1.000,1.000 0 1,0 43.576,80.562
A1.000,1.000 0 1,0 41.576,80.562
" 
fill="#ffffff" fill-opacity="1.000000" vector-effect="non-scaling-stroke" stroke="#000000" stroke-width="0.100mm" stroke-opacity="1.000000" fpd:visible="front back" fpd:print_element="0" />
<path d="
M44.681 74.785
A1.000,1.000 0 1,0 46.681,74.785
A1.000,1.000 0 1,0 44.681,74.785
" 
fill="#ffffff" fill-opacity="1.000000" vector-effect="non-scaling-stroke" stroke="#000000" stroke-width="0.100mm" stroke-opacity="1.000000" fpd:visible="front back" fpd:print_element="0" />
<path d="
M75.171 74.781
A1.000,1.000 0 1,0 77.171,74.781
A1.000,1.000 0 1,0 75.171,74.781
" 
fill="#ffffff" fill-opacity="1.000000" vector-effect="non-scaling-stroke" stroke="#000000" stroke-width="0.100mm" stroke-opacity="1.000000" fpd:visible="front back" fpd:print_element="0" />
<path d="
M75.165 44.302
A1.000,1.000 0 1,0 77.165,44.302
A1.000,1.000 0 1,0 75.165,44.302
" 
fill="#ffffff" fill-opacity="1.000000" vector-effect="non-scaling-stroke" stroke="#000000" stroke-width="0.100mm" stroke-opacity="1.000000" fpd:visible="front back" fpd:print_element="0" />
<path d="
M44.686 44.301
A1.000,1.000 0 1,0 46.686,44.301
A1.000,1.000 0 1,0 44.686,44.301
" 
fill="#ffffff" fill-opacity="1.000000" vector-effect="non-scaling-stroke" stroke="#000000" stroke-width="0.100mm" stroke-opacity="1.000000" fpd:visible="front back" fpd:print_element="0" />
<path d="
M193.000 119.000
A5.000,5.000 0 0,0 198.000,114.000
L198.000 5.000
A5.000,5.000 0 0,0 193.000,0.000
L5.000 0.000
A5.000,5.000 0 0,0 0.000,5.000
L0.000 114.000
A5.000,5.000 0 0,0 5.000,119.000
L193.000 119.000
" 
fill="none" vector-effect="non-scaling-stroke" stroke="#000000" stroke-width="0.100mm" stroke-opacity="1.000000" fpd:visible="front back" />
<path d="
M193.000 119.000
A5.000,5.000 0 0,0 198.000,114.000
L198.000 5.000
A5.000,5.000 0 0,0 193.000,0.000
L5.000 0.000
A5.000,5.000 0 0,0 0.000,5.000
L0.000 114.000
A5.000,5.000 0 0,0 5.000,119.000
L193.000 119.000
M5.000 118.000
A4.000,4.000 0 0,1 1.000,114.000
L1.000 114.000
L1.000 5.000
L1.000 5.000
L1.000 5.000
L1.000 5.000
A4.000,4.000 0 0,1 5.000,1.000
L5.000 1.000
L193.000 1.000
L193.000 1.000
A4.000,4.000 0 0,1 197.000,5.000
L197.000 5.000
L197.000 114.000
L197.000 114.000
A4.000,4.000 0 0,1 193.000,118.000
L5.000 118.000
" 
fill="#e0e0e0" fill-opacity="1.000000" vector-effect="non-scaling-stroke" stroke="#0000ff" stroke-width="0.100mm" stroke-opacity="1.000000" fpd:visible="front" />
<path d="
M193.000 119.000
A5.000,5.000 0 0,0 198.000,114.000
L198.000 5.000
A5.000,5.000 0 0,0 193.000,0.000
L5.000 0.000
A5.000,5.000 0 0,0 0.000,5.000
L0.000 114.000
A5.000,5.000 0 0,0 5.000,119.000
L193.000 119.000
" 
fill="none" vector-effect="non-scaling-stroke" stroke="#0000ff" stroke-width="0.100mm" stroke-opacity="1.000000" fpd:visible="front" />
<path d="
M-0.933 0.000
L0.933 0.000
M0.000 -0.933
L0.000 0.933
" 
fill="none" vector-effect="non-scaling-stroke" stroke="#ff0000" stroke-width="0.100mm" stroke-opacity="1.000000" />
<path d="
M3.762 5.278
L5.628 5.278
M4.695 4.345
L4.695 6.211
" 
fill="none" vector-effect="non-scaling-stroke" stroke="#ff0000" stroke-width="0.100mm" stroke-opacity="1.000000" />
<path d="
M3.762 113.778
L5.628 113.778
M4.695 112.845
L4.695 114.711
" 
fill="none" vector-effect="non-scaling-stroke" stroke="#ff0000" stroke-width="0.100mm" stroke-opacity="1.000000" />
<path d="
M192.262 113.778
L194.128 113.778
M193.195 112.845
L193.195 114.711
" 
fill="none" vector-effect="non-scaling-stroke" stroke="#ff0000" stroke-width="0.100mm" stroke-opacity="1.000000" />
<path d="
M192.262 5.278
L194.128 5.278
M193.195 4.345
L193.195 6.211
" 
fill="none" vector-effect="non-scaling-stroke" stroke="#ff0000" stroke-width="0.100mm" stroke-opacity="1.000000" />
<path d="
M3.010 59.497
L4.876 59.497
M3.943 58.564
L3.943 60.430
" 
fill="none" vector-effect="non-scaling-stroke" stroke="#ff0000" stroke-width="0.100mm" stroke-opacity="1.000000" />
<path d="
M98.035 115.047
L99.901 115.047
M98.968 114.114
L98.968 115.980
" 
fill="none" vector-effect="non-scaling-stroke" stroke="#ff0000" stroke-width="0.100mm" stroke-opacity="1.000000" />
<path d="
M97.844 4.038
L99.710 4.038
M98.777 3.105
L98.777 4.971
" 
fill="none" vector-effect="non-scaling-stroke" stroke="#ff0000" stroke-width="0.100mm" stroke-opacity="1.000000" />
<path d="
M192.976 59.495
L194.842 59.495
M193.909 58.562
L193.909 60.428
" 
fill="none" vector-effect="non-scaling-stroke" stroke="#ff0000" stroke-width="0.100mm" stroke-opacity="1.000000" />
<path d="
M13.023 105.494
L14.889 105.494
M13.956 104.561
L13.956 106.427
" 
fill="none" vector-effect="non-scaling-stroke" stroke="#ff0000" stroke-width="0.100mm" stroke-opacity="1.000000" />
<path d="
M8.018 96.029
L9.884 96.029
M8.951 95.096
L8.951 96.962
" 
fill="none" vector-effect="non-scaling-stroke" stroke="#ff0000" stroke-width="0.100mm" stroke-opacity="1.000000" />
<path d="
M188.050 96.031
L189.916 96.031
M188.983 95.098
L188.983 96.964
" 
fill="none" vector-effect="non-scaling-stroke" stroke="#ff0000" stroke-width="0.100mm" stroke-opacity="1.000000" />
<path d="
M8.013 23.028
L9.879 23.028
M8.946 22.095
L8.946 23.961
" 
fill="none" vector-effect="non-scaling-stroke" stroke="#ff0000" stroke-width="0.100mm" stroke-opacity="1.000000" />
<path d="
M188.021 23.019
L189.887 23.019
M188.954 22.086
L188.954 23.952
" 
fill="none" vector-effect="non-scaling-stroke" stroke="#ff0000" stroke-width="0.100mm" stroke-opacity="1.000000" />
<path d="
M183.012 105.529
L184.878 105.529
M183.945 104.596
L183.945 106.462
" 
fill="none" vector-effect="non-scaling-stroke" stroke="#ff0000" stroke-width="0.100mm" stroke-opacity="1.000000" />
<path d="
M13.015 13.481
L14.881 13.481
M13.948 12.548
L13.948 14.414
" 
fill="none" vector-effect="non-scaling-stroke" stroke="#ff0000" stroke-width="0.100mm" stroke-opacity="1.000000" />
<path d="
M182.992 13.453
L184.858 13.453
M183.925 12.520
L183.925 14.386
" 
fill="none" vector-effect="non-scaling-stroke" stroke="#ff0000" stroke-width="0.100mm" stroke-opacity="1.000000" />
<path d="
M41.012 59.528
L42.878 59.528
M41.945 58.595
L41.945 60.461
" 
fill="none" vector-effect="non-scaling-stroke" stroke="#ff0000" stroke-width="0.100mm" stroke-opacity="1.000000" />
<path d="
M159.012 59.528
L160.878 59.528
M159.945 58.595
L159.945 60.461
" 
fill="none" vector-effect="non-scaling-stroke" stroke="#ff0000" stroke-width="0.100mm" stroke-opacity="1.000000" />
<path d="
M133.012 59.528
L134.878 59.528
M133.945 58.595
L133.945 60.461
" 
fill="none" vector-effect="non-scaling-stroke" stroke="#ff0000" stroke-width="0.100mm" stroke-opacity="1.000000" />
<path d="
M107.012 59.528
L108.878 59.528
M107.945 58.595
L107.945 60.461
" 
fill="none" vector-effect="non-scaling-stroke" stroke="#ff0000" stroke-width="0.100mm" stroke-opacity="1.000000" />
<path d="
M81.012 59.528
L82.878 59.528
M81.945 58.595
L81.945 60.461
" 
fill="none" vector-effect="non-scaling-stroke" stroke="#ff0000" stroke-width="0.100mm" stroke-opacity="1.000000" />
<path d="
M46.010 41.030
L47.876 41.030
M46.943 40.097
L46.943 41.963
" 
fill="none" vector-effect="non-scaling-stroke" stroke="#ff0000" stroke-width="0.100mm" stroke-opacity="1.000000" />
<path d="
M45.996 78.036
L47.862 78.036
M46.929 77.103
L46.929 78.969
" 
fill="none" vector-effect="non-scaling-stroke" stroke="#ff0000" stroke-width="0.100mm" stroke-opacity="1.000000" />
<path d="
M26.012 59.494
L27.878 59.494
M26.945 58.561
L26.945 60.427
" 
fill="none" vector-effect="non-scaling-stroke" stroke="#ff0000" stroke-width="0.100mm" stroke-opacity="1.000000" />
<path d="
M132.990 87.324
L134.856 87.324
M133.923 86.391
L133.923 88.257
" 
fill="none" vector-effect="non-scaling-stroke" stroke="#ff0000" stroke-width="0.100mm" stroke-opacity="1.000000" />
<path d="
M133.178 59.509
L135.044 59.509
M134.111 58.576
L134.111 60.442
" 
fill="none" vector-effect="non-scaling-stroke" stroke="#ff0000" stroke-width="0.100mm" stroke-opacity="1.000000" />
<path d="
M133.012 31.789
L134.878 31.789
M133.945 30.856
L133.945 32.722
" 
fill="none" vector-effect="non-scaling-stroke" stroke="#ff0000" stroke-width="0.100mm" stroke-opacity="1.000000" />
<path d="
M93.007 17.847
L94.873 17.847
M93.940 16.914
L93.940 18.780
" 
fill="none" vector-effect="non-scaling-stroke" stroke="#ff0000" stroke-width="0.100mm" stroke-opacity="1.000000" />
<path d="
M119.007 17.847
L120.873 17.847
M119.940 16.914
L119.940 18.780
" 
fill="none" vector-effect="non-scaling-stroke" stroke="#ff0000" stroke-width="0.100mm" stroke-opacity="1.000000" />
<path d="
M145.007 17.847
L146.873 17.847
M145.940 16.914
L145.940 18.780
" 
fill="none" vector-effect="non-scaling-stroke" stroke="#ff0000" stroke-width="0.100mm" stroke-opacity="1.000000" />
<path d="
M172.007 17.847
L173.873 17.847
M172.940 16.914
L172.940 18.780
" 
fill="none" vector-effect="non-scaling-stroke" stroke="#ff0000" stroke-width="0.100mm" stroke-opacity="1.000000" />
<path d="
M93.018 45.627
L94.884 45.627
M93.951 44.694
L93.951 46.560
" 
fill="none" vector-effect="non-scaling-stroke" stroke="#ff0000" stroke-width="0.100mm" stroke-opacity="1.000000" />
<path d="
M119.018 45.627
L120.884 45.627
M119.951 44.694
L119.951 46.560
" 
fill="none" vector-effect="non-scaling-stroke" stroke="#ff0000" stroke-width="0.100mm" stroke-opacity="1.000000" />
<path d="
M145.018 45.627
L146.884 45.627
M145.951 44.694
L145.951 46.560
" 
fill="none" vector-effect="non-scaling-stroke" stroke="#ff0000" stroke-width="0.100mm" stroke-opacity="1.000000" />
<path d="
M172.018 45.627
L173.884 45.627
M172.951 44.694
L172.951 46.560
" 
fill="none" vector-effect="non-scaling-stroke" stroke="#ff0000" stroke-width="0.100mm" stroke-opacity="1.000000" />
<path d="
M94.007 101.188
L95.873 101.188
M94.940 100.255
L94.940 102.121
" 
fill="none" vector-effect="non-scaling-stroke" stroke="#ff0000" stroke-width="0.100mm" stroke-opacity="1.000000" />
<path d="
M120.007 101.188
L121.873 101.188
M120.940 100.255
L120.940 102.121
" 
fill="none" vector-effect="non-scaling-stroke" stroke="#ff0000" stroke-width="0.100mm" stroke-opacity="1.000000" />
<path d="
M146.007 101.188
L147.873 101.188
M146.940 100.255
L146.940 102.121
" 
fill="none" vector-effect="non-scaling-stroke" stroke="#ff0000" stroke-width="0.100mm" stroke-opacity="1.000000" />
<path d="
M172.007 101.188
L173.873 101.188
M172.940 100.255
L172.940 102.121
" 
fill="none" vector-effect="non-scaling-stroke" stroke="#ff0000" stroke-width="0.100mm" stroke-opacity="1.000000" />
<path d="
M93.012 73.438
L94.878 73.438
M93.945 72.505
L93.945 74.371
" 
fill="none" vector-effect="non-scaling-stroke" stroke="#ff0000" stroke-width="0.100mm" stroke-opacity="1.000000" />
<path d="
M120.012 73.438
L121.878 73.438
M120.945 72.505
L120.945 74.371
" 
fill="none" vector-effect="non-scaling-stroke" stroke="#ff0000" stroke-width="0.100mm" stroke-opacity="1.000000" />
<path d="
M146.012 73.438
L147.878 73.438
M146.945 72.505
L146.945 74.371
" 
fill="none" vector-effect="non-scaling-stroke" stroke="#ff0000" stroke-width="0.100mm" stroke-opacity="1.000000" />
<path d="
M172.012 73.438
L173.878 73.438
M172.945 72.505
L172.945 74.371
" 
fill="none" vector-effect="non-scaling-stroke" stroke="#ff0000" stroke-width="0.100mm" stroke-opacity="1.000000" />
<path d="
M184.976 59.495
L186.842 59.495
M185.909 58.562
L185.909 60.428
" 
fill="none" vector-effect="non-scaling-stroke" stroke="#ff0000" stroke-width="0.100mm" stroke-opacity="1.000000" />
<path d="
M11.010 59.497
L12.876 59.497
M11.943 58.564
L11.943 60.430
" 
fill="none" vector-effect="non-scaling-stroke" stroke="#ff0000" stroke-width="0.100mm" stroke-opacity="1.000000" />
<path d="
M60.959 22.479
L62.825 22.479
M61.892 21.546
L61.892 23.412
" 
fill="none" vector-effect="non-scaling-stroke" stroke="#ff0000" stroke-width="0.100mm" stroke-opacity="1.000000" />
<path d="
M60.984 59.539
L62.850 59.539
M61.917 58.606
L61.917 60.472
" 
fill="none" vector-effect="non-scaling-stroke" stroke="#ff0000" stroke-width="0.100mm" stroke-opacity="1.000000" />
<path d="
M61.022 96.444
L62.888 96.444
M61.955 95.511
L61.955 97.377
" 
fill="none" vector-effect="non-scaling-stroke" stroke="#ff0000" stroke-width="0.100mm" stroke-opacity="1.000000" />
<path d="
M26.016 59.487
L27.882 59.487
M26.949 58.554
L26.949 60.420
" 
fill="none" vector-effect="non-scaling-stroke" stroke="#ff0000" stroke-width="0.100mm" stroke-opacity="1.000000" />
<path d="
M36.168 69.662
L38.034 69.662
M37.101 68.729
L37.101 70.595
" 
fill="none" vector-effect="non-scaling-stroke" stroke="#ff0000" stroke-width="0.100mm" stroke-opacity="1.000000" />
<path d="
M15.837 69.662
L17.703 69.662
M16.770 68.729
L16.770 70.595
" 
fill="none" vector-effect="non-scaling-stroke" stroke="#ff0000" stroke-width="0.100mm" stroke-opacity="1.000000" />
<path d="
M15.837 49.336
L17.703 49.336
M16.770 48.403
L16.770 50.269
" 
fill="none" vector-effect="non-scaling-stroke" stroke="#ff0000" stroke-width="0.100mm" stroke-opacity="1.000000" />
<path d="
M36.168 49.336
L38.034 49.336
M37.101 48.403
L37.101 50.269
" 
fill="none" vector-effect="non-scaling-stroke" stroke="#ff0000" stroke-width="0.100mm" stroke-opacity="1.000000" />
<path d="
M15.841 59.487
L17.707 59.487
M16.774 58.554
L16.774 60.420
" 
fill="none" vector-effect="non-scaling-stroke" stroke="#ff0000" stroke-width="0.100mm" stroke-opacity="1.000000" />
<path d="
M26.011 96.499
L27.877 96.499
M26.944 95.566
L26.944 97.432
" 
fill="none" vector-effect="non-scaling-stroke" stroke="#ff0000" stroke-width="0.100mm" stroke-opacity="1.000000" />
<path d="
M26.015 96.492
L27.881 96.492
M26.948 95.559
L26.948 97.425
" 
fill="none" vector-effect="non-scaling-stroke" stroke="#ff0000" stroke-width="0.100mm" stroke-opacity="1.000000" />
<path d="
M36.167 106.667
L38.033 106.667
M37.100 105.734
L37.100 107.600
" 
fill="none" vector-effect="non-scaling-stroke" stroke="#ff0000" stroke-width="0.100mm" stroke-opacity="1.000000" />
<path d="
M15.836 106.667
L17.702 106.667
M16.769 105.734
L16.769 107.600
" 
fill="none" vector-effect="non-scaling-stroke" stroke="#ff0000" stroke-width="0.100mm" stroke-opacity="1.000000" />
<path d="
M15.836 86.341
L17.702 86.341
M16.769 85.408
L16.769 87.274
" 
fill="none" vector-effect="non-scaling-stroke" stroke="#ff0000" stroke-width="0.100mm" stroke-opacity="1.000000" />
<path d="
M36.167 86.341
L38.033 86.341
M37.100 85.408
L37.100 87.274
" 
fill="none" vector-effect="non-scaling-stroke" stroke="#ff0000" stroke-width="0.100mm" stroke-opacity="1.000000" />
<path d="
M15.840 96.492
L17.706 96.492
M16.773 95.559
L16.773 97.425
" 
fill="none" vector-effect="non-scaling-stroke" stroke="#ff0000" stroke-width="0.100mm" stroke-opacity="1.000000" />
<path d="
M26.013 22.491
L27.879 22.491
M26.946 21.558
L26.946 23.424
" 
fill="none" vector-effect="non-scaling-stroke" stroke="#ff0000" stroke-width="0.100mm" stroke-opacity="1.000000" />
<path d="
M26.017 22.484
L27.883 22.484
M26.950 21.551
L26.950 23.417
" 
fill="none" vector-effect="non-scaling-stroke" stroke="#ff0000" stroke-width="0.100mm" stroke-opacity="1.000000" />
<path d="
M36.169 32.659
L38.035 32.659
M37.102 31.726
L37.102 33.592
" 
fill="none" vector-effect="non-scaling-stroke" stroke="#ff0000" stroke-width="0.100mm" stroke-opacity="1.000000" />
<path d="
M15.838 32.659
L17.704 32.659
M16.771 31.726
L16.771 33.592
" 
fill="none" vector-effect="non-scaling-stroke" stroke="#ff0000" stroke-width="0.100mm" stroke-opacity="1.000000" />
<path d="
M15.838 12.333
L17.704 12.333
M16.771 11.400
L16.771 13.266
" 
fill="none" vector-effect="non-scaling-stroke" stroke="#ff0000" stroke-width="0.100mm" stroke-opacity="1.000000" />
<path d="
M36.169 12.333
L38.035 12.333
M37.102 11.400
L37.102 13.266
" 
fill="none" vector-effect="non-scaling-stroke" stroke="#ff0000" stroke-width="0.100mm" stroke-opacity="1.000000" />
<path d="
M15.842 22.484
L17.708 22.484
M16.775 21.551
L16.775 23.417
" 
fill="none" vector-effect="non-scaling-stroke" stroke="#ff0000" stroke-width="0.100mm" stroke-opacity="1.000000" />
<path d="
M61.024 96.438
L62.890 96.438
M61.957 95.505
L61.957 97.371
" 
fill="none" vector-effect="non-scaling-stroke" stroke="#ff0000" stroke-width="0.100mm" stroke-opacity="1.000000" />
<path d="
M41.648 112.322
L43.514 112.322
M42.581 111.389
L42.581 113.255
" 
fill="none" vector-effect="non-scaling-stroke" stroke="#ff0000" stroke-width="0.100mm" stroke-opacity="1.000000" />
<path d="
M80.389 112.328
L82.255 112.328
M81.322 111.395
L81.322 113.261
" 
fill="none" vector-effect="non-scaling-stroke" stroke="#ff0000" stroke-width="0.100mm" stroke-opacity="1.000000" />
<path d="
M80.386 80.565
L82.252 80.565
M81.319 79.632
L81.319 81.498
" 
fill="none" vector-effect="non-scaling-stroke" stroke="#ff0000" stroke-width="0.100mm" stroke-opacity="1.000000" />
<path d="
M41.643 80.562
L43.509 80.562
M42.576 79.629
L42.576 81.495
" 
fill="none" vector-effect="non-scaling-stroke" stroke="#ff0000" stroke-width="0.100mm" stroke-opacity="1.000000" />
<path d="
M59.988 59.539
L61.854 59.539
M60.921 58.606
L60.921 60.472
" 
fill="none" vector-effect="non-scaling-stroke" stroke="#ff0000" stroke-width="0.100mm" stroke-opacity="1.000000" />
<path d="
M44.748 74.785
L46.614 74.785
M45.681 73.852
L45.681 75.718
" 
fill="none" vector-effect="non-scaling-stroke" stroke="#ff0000" stroke-width="0.100mm" stroke-opacity="1.000000" />
<path d="
M75.238 74.781
L77.104 74.781
M76.171 73.848
L76.171 75.714
" 
fill="none" vector-effect="non-scaling-stroke" stroke="#ff0000" stroke-width="0.100mm" stroke-opacity="1.000000" />
<path d="
M75.232 44.302
L77.098 44.302
M76.165 43.369
L76.165 45.235
" 
fill="none" vector-effect="non-scaling-stroke" stroke="#ff0000" stroke-width="0.100mm" stroke-opacity="1.000000" />
<path d="
M44.753 44.301
L46.619 44.301
M45.686 43.368
L45.686 45.234
" 
fill="none" vector-effect="non-scaling-stroke" stroke="#ff0000" stroke-width="0.100mm" stroke-opacity="1.000000" />
</g>
</svg>
