<?xml version="1.0" standalone="no"?>
<!DOCTYPE svg PUBLIC "-//W3C//DTD SVG 1.1//EN" 
  "http://www.w3.org/Graphics/SVG/1.1/DTD/svg11.dtd">
<svg width="198.000mm" height="119.000mm" version="1.1"
     viewBox="0 0 198.000 119.000"
     xmlns="http://www.w3.org/2000/svg"  xmlns:xlink="http://www.w3.org/1999/xlink" 
     xmlns:fpd="http://www.schaeffer-ag.de">
  <desc>Created with the Front Panel Designer by the export of the file 'front_panel.fpd'.</desc>
  <defs>
    <pattern id="revside-fill" x="1" y="1" width="1.980" height="1.980" patternUnits="userSpaceOnUse">
      <line x1="0" y1="0" x2="1.980" y2="1.980" style="stroke-width:0.198; stroke:black; stroke-dasharray:none;" />
      <line x1="0" y1="1.980" x2="1.980" y2="0" style="stroke-width:0.198; stroke:black; stroke-dasharray:none;" />
    </pattern>
    <pattern id="revside-fill-silver" x="1" y="1" width="1.980" height="1.980" patternUnits="userSpaceOnUse">
      <line x1="0" y1="0" x2="1.980" y2="1.980" style="stroke-width:0.198; stroke:#e0e0e0; stroke-dasharray:none;" />
      <line x1="0" y1="1.980" x2="1.980" y2="0" style="stroke-width:0.198; stroke:#e0e0e0; stroke-dasharray:none;" />
    </pattern>
  </defs>
<g transform="scale(1,-1) translate( -0.000, -119.000)" 
   fill-rule="evenodd"
   style="stroke-linecap:round; stroke-linejoin:round; stroke-opacity:1.0; stroke-opacity:1.0;">
<path d="
M193.000 119.000
A5.000,5.000 0 0,0 198.000,114.000
L198.000 5.000
A5.000,5.000 0 0,0 193.000,0.000
L5.000 0.000
A5.000,5.000 0 0,0 0.000,5.000
L0.000 114.000
A5.000,5.000 0 0,0 5.000,119.000
L193.000 119.000
" 
fill="#0f0f0f" fill-opacity="1.000000" vector-effect="non-scaling-stroke" stroke="#000000" stroke-width="0.100mm" stroke-opacity="1.000000" fpd:visible="front back" />
<path d="
M193.000 119.000
A5.000,5.000 0 0,0 198.000,114.000
L198.000 5.000
A5.000,5.000 0 0,0 193.000,0.000
L5.000 0.000
A5.000,5.000 0 0,0 0.000,5.000
L0.000 114.000
A5.000,5.000 0 0,0 5.000,119.000
L193.000 119.000
M5.000 118.000
A4.000,4.000 0 0,1 1.000,114.000
L1.000 114.000
L1.000 5.000
L1.000 5.000
L1.000 5.000
L1.000 5.000
A4.000,4.000 0 0,1 5.000,1.000
L5.000 1.000
L193.000 1.000
L193.000 1.000
A4.000,4.000 0 0,1 197.000,5.000
L197.000 5.000
L197.000 114.000
L197.000 114.000
A4.000,4.000 0 0,1 193.000,118.000
L5.000 118.000
" 
fill="#e0e0e0" fill-opacity="1.000000" vector-effect="non-scaling-stroke" stroke="#0000ff" stroke-width="0.100mm" stroke-opacity="1.000000" fpd:visible="front" />
<path d="
M193.000 119.000
A5.000,5.000 0 0,0 198.000,114.000
L198.000 5.000
A5.000,5.000 0 0,0 193.000,0.000
L5.000 0.000
A5.000,5.000 0 0,0 0.000,5.000
L0.000 114.000
A5.000,5.000 0 0,0 5.000,119.000
L193.000 119.000
" 
fill="none" vector-effect="non-scaling-stroke" stroke="#0000ff" stroke-width="0.100mm" stroke-opacity="1.000000" fpd:visible="front" />
<path d="
M3.941 22.997
L3.945 95.997
" 
fill="none" vector-effect="non-scaling-stroke" stroke="#6c85b8" stroke-width="0.400mm" stroke-opacity="1.000000" fpd:visible="front" fpd:print_element="0" fpd:engraving="1" />
<path d="
M183.968 115.047
L13.968 115.047
" 
fill="none" vector-effect="non-scaling-stroke" stroke="#6c85b8" stroke-width="0.400mm" stroke-opacity="1.000000" fpd:visible="front" fpd:print_element="0" fpd:engraving="1" />
<path d="
M183.777 4.038
L13.777 4.038
" 
fill="none" vector-effect="non-scaling-stroke" stroke="#6c85b8" stroke-width="0.400mm" stroke-opacity="1.000000" fpd:visible="front" fpd:print_element="0" fpd:engraving="1" />
<path d="
M193.909 95.995
L193.909 22.995
" 
fill="none" vector-effect="non-scaling-stroke" stroke="#6c85b8" stroke-width="0.400mm" stroke-opacity="1.000000" fpd:visible="front" fpd:print_element="0" fpd:engraving="1" />
<path d="
M13.956 95.994
L13.956 114.994
" 
fill="none" vector-effect="non-scaling-stroke" stroke="#6c85b8" stroke-width="0.400mm" stroke-opacity="1.000000" fpd:visible="front" fpd:print_element="0" fpd:engraving="1" />
<path d="
M13.951 96.029
L3.951 96.029
" 
fill="none" vector-effect="non-scaling-stroke" stroke="#6c85b8" stroke-width="0.400mm" stroke-opacity="1.000000" fpd:visible="front" fpd:print_element="0" fpd:engraving="1" />
<path d="
M183.983 96.031
L193.983 96.031
" 
fill="none" vector-effect="non-scaling-stroke" stroke="#6c85b8" stroke-width="0.400mm" stroke-opacity="1.000000" fpd:visible="front" fpd:print_element="0" fpd:engraving="1" />
<path d="
M3.947 23.028
L13.945 23.028
" 
fill="none" vector-effect="non-scaling-stroke" stroke="#6c85b8" stroke-width="0.400mm" stroke-opacity="1.000000" fpd:visible="front" fpd:print_element="0" fpd:engraving="1" />
<path d="
M183.954 23.019
L193.954 23.019
" 
fill="none" vector-effect="non-scaling-stroke" stroke="#6c85b8" stroke-width="0.400mm" stroke-opacity="1.000000" fpd:visible="front" fpd:print_element="0" fpd:engraving="1" />
<path d="
M183.945 96.030
L183.945 115.028
" 
fill="none" vector-effect="non-scaling-stroke" stroke="#6c85b8" stroke-width="0.400mm" stroke-opacity="1.000000" fpd:visible="front" fpd:print_element="0" fpd:engraving="1" />
<path d="
M13.948 22.981
L13.948 3.981
" 
fill="none" vector-effect="non-scaling-stroke" stroke="#6c85b8" stroke-width="0.400mm" stroke-opacity="1.000000" fpd:visible="front" fpd:print_element="0" fpd:engraving="1" />
<path d="
M183.925 22.953
L183.925 3.953
" 
fill="none" vector-effect="non-scaling-stroke" stroke="#6c85b8" stroke-width="0.400mm" stroke-opacity="1.000000" fpd:visible="front" fpd:print_element="0" fpd:engraving="1" />
<path d="
M41.945 115.028
L41.945 4.028
" 
fill="none" vector-effect="non-scaling-stroke" stroke="#6c85b8" stroke-width="0.200mm" stroke-opacity="1.000000" fpd:visible="front" fpd:print_element="0" fpd:engraving="1" />
<path d="
M159.945 115.028
L159.945 4.028
" 
fill="none" vector-effect="non-scaling-stroke" stroke="#6c85b8" stroke-width="0.200mm" stroke-opacity="1.000000" fpd:visible="front" fpd:print_element="0" fpd:engraving="1" />
<path d="
M133.945 115.028
L133.945 4.028
" 
fill="none" vector-effect="non-scaling-stroke" stroke="#6c85b8" stroke-width="0.200mm" stroke-opacity="1.000000" fpd:visible="front" fpd:print_element="0" fpd:engraving="1" />
<path d="
M107.945 115.028
L107.945 4.028
" 
fill="none" vector-effect="non-scaling-stroke" stroke="#6c85b8" stroke-width="0.200mm" stroke-opacity="1.000000" fpd:visible="front" fpd:print_element="0" fpd:engraving="1" />
<path d="
M81.945 115.028
L81.945 4.028
" 
fill="none" vector-effect="non-scaling-stroke" stroke="#6c85b8" stroke-width="0.200mm" stroke-opacity="1.000000" fpd:visible="front" fpd:print_element="0" fpd:engraving="1" />
<path d="
M11.941 41.030
L81.945 41.030
" 
fill="none" vector-effect="non-scaling-stroke" stroke="#6c85b8" stroke-width="0.200mm" stroke-opacity="1.000000" fpd:visible="front" fpd:print_element="0" fpd:engraving="1" />
<path d="
M11.929 78.036
L81.929 78.036
" 
fill="none" vector-effect="non-scaling-stroke" stroke="#6c85b8" stroke-width="0.200mm" stroke-opacity="1.000000" fpd:visible="front" fpd:print_element="0" fpd:engraving="1" />
<path d="
M185.923 87.324
L81.923 87.324
" 
fill="none" vector-effect="non-scaling-stroke" stroke="#6c85b8" stroke-width="0.200mm" stroke-opacity="1.000000" fpd:visible="front" fpd:print_element="0" fpd:engraving="1" />
<path d="
M186.111 59.509
L82.111 59.509
" 
fill="none" vector-effect="non-scaling-stroke" stroke="#6c85b8" stroke-width="0.200mm" stroke-opacity="1.000000" fpd:visible="front" fpd:print_element="0" fpd:engraving="1" />
<path d="
M185.945 31.789
L81.945 31.789
" 
fill="none" vector-effect="non-scaling-stroke" stroke="#6c85b8" stroke-width="0.200mm" stroke-opacity="1.000000" fpd:visible="front" fpd:print_element="0" fpd:engraving="1" />
<path d="
M185.873 95.961
L185.945 23.029
" 
fill="none" vector-effect="non-scaling-stroke" stroke="#6c85b8" stroke-width="0.200mm" stroke-opacity="1.000000" fpd:visible="front" fpd:print_element="0" fpd:engraving="1" />
<path d="
M11.941 22.966
L11.945 96.028
" 
fill="none" vector-effect="non-scaling-stroke" stroke="#6c85b8" stroke-width="0.200mm" stroke-opacity="1.000000" fpd:visible="front" fpd:print_element="0" fpd:engraving="1" />
<path d="
M1.393 5.517
A4.000,4.000 0 1,0 9.393,5.517
A4.000,4.000 0 1,0 1.393,5.517
M3.243 5.517
A2.150,2.150 0 1,0 7.543,5.517
A2.150,2.150 0 1,0 3.243,5.517
" 
fill="#e0e0e0" fill-opacity="1.000000" vector-effect="non-scaling-stroke" stroke="#000000" stroke-width="0.100mm" stroke-opacity="1.000000" fpd:visible="front" />
<path d="
M1.393 5.517
A4.000,4.000 0 1,0 9.393,5.517
A4.000,4.000 0 1,0 1.393,5.517
" 
fill="none" vector-effect="non-scaling-stroke" stroke="#000000" stroke-width="0.100mm" stroke-opacity="1.000000" fpd:visible="front" />
<path d="
M3.243 5.517
A2.150,2.150 0 1,0 7.543,5.517
A2.150,2.150 0 1,0 3.243,5.517
" 
fill="#ffffff" fill-opacity="1.000000" vector-effect="non-scaling-stroke" stroke="#000000" stroke-width="0.100mm" stroke-opacity="1.000000" fpd:visible="front back" fpd:print_element="0" />
<path d="
M1.430 113.462
A4.000,4.000 0 1,0 9.430,113.462
A4.000,4.000 0 1,0 1.430,113.462
M3.280 113.462
A2.150,2.150 0 1,0 7.580,113.462
A2.150,2.150 0 1,0 3.280,113.462
" 
fill="#e0e0e0" fill-opacity="1.000000" vector-effect="non-scaling-stroke" stroke="#000000" stroke-width="0.100mm" stroke-opacity="1.000000" fpd:visible="front" />
<path d="
M1.430 113.462
A4.000,4.000 0 1,0 9.430,113.462
A4.000,4.000 0 1,0 1.430,113.462
" 
fill="none" vector-effect="non-scaling-stroke" stroke="#000000" stroke-width="0.100mm" stroke-opacity="1.000000" fpd:visible="front" />
<path d="
M3.280 113.462
A2.150,2.150 0 1,0 7.580,113.462
A2.150,2.150 0 1,0 3.280,113.462
" 
fill="#ffffff" fill-opacity="1.000000" vector-effect="non-scaling-stroke" stroke="#000000" stroke-width="0.100mm" stroke-opacity="1.000000" fpd:visible="front back" fpd:print_element="0" />
<path d="
M187.064 112.922
A4.000,4.000 0 1,0 195.064,112.922
A4.000,4.000 0 1,0 187.064,112.922
M188.914 112.922
A2.150,2.150 0 1,0 193.214,112.922
A2.150,2.150 0 1,0 188.914,112.922
" 
fill="#e0e0e0" fill-opacity="1.000000" vector-effect="non-scaling-stroke" stroke="#000000" stroke-width="0.100mm" stroke-opacity="1.000000" fpd:visible="front" />
<path d="
M187.064 112.922
A4.000,4.000 0 1,0 195.064,112.922
A4.000,4.000 0 1,0 187.064,112.922
" 
fill="none" vector-effect="non-scaling-stroke" stroke="#000000" stroke-width="0.100mm" stroke-opacity="1.000000" fpd:visible="front" />
<path d="
M188.914 112.922
A2.150,2.150 0 1,0 193.214,112.922
A2.150,2.150 0 1,0 188.914,112.922
" 
fill="#ffffff" fill-opacity="1.000000" vector-effect="non-scaling-stroke" stroke="#000000" stroke-width="0.100mm" stroke-opacity="1.000000" fpd:visible="front back" fpd:print_element="0" />
<path d="
M188.461 5.550
A4.000,4.000 0 1,0 196.461,5.550
A4.000,4.000 0 1,0 188.461,5.550
M190.311 5.550
A2.150,2.150 0 1,0 194.611,5.550
A2.150,2.150 0 1,0 190.311,5.550
" 
fill="#e0e0e0" fill-opacity="1.000000" vector-effect="non-scaling-stroke" stroke="#000000" stroke-width="0.100mm" stroke-opacity="1.000000" fpd:visible="front" />
<path d="
M188.461 5.550
A4.000,4.000 0 1,0 196.461,5.550
A4.000,4.000 0 1,0 188.461,5.550
" 
fill="none" vector-effect="non-scaling-stroke" stroke="#000000" stroke-width="0.100mm" stroke-opacity="1.000000" fpd:visible="front" />
<path d="
M190.311 5.550
A2.150,2.150 0 1,0 194.611,5.550
A2.150,2.150 0 1,0 190.311,5.550
" 
fill="#ffffff" fill-opacity="1.000000" vector-effect="non-scaling-stroke" stroke="#000000" stroke-width="0.100mm" stroke-opacity="1.000000" fpd:visible="front back" fpd:print_element="0" />
<path d="
M23.695 22.494
A3.250,3.250 0 1,0 30.195,22.494
A3.250,3.250 0 1,0 23.695,22.494
" 
fill="#ffffff" fill-opacity="1.000000" vector-effect="non-scaling-stroke" stroke="#000000" stroke-width="0.100mm" stroke-opacity="1.000000" fpd:visible="front back" fpd:print_element="0" />
<path d="
M23.695 96.494
A3.250,3.250 0 1,0 30.195,96.494
A3.250,3.250 0 1,0 23.695,96.494
" 
fill="#ffffff" fill-opacity="1.000000" vector-effect="non-scaling-stroke" stroke="#000000" stroke-width="0.100mm" stroke-opacity="1.000000" fpd:visible="front back" fpd:print_element="0" />
<path d="
M23.695 59.494
A3.250,3.250 0 1,0 30.195,59.494
A3.250,3.250 0 1,0 23.695,59.494
" 
fill="#ffffff" fill-opacity="1.000000" vector-effect="non-scaling-stroke" stroke="#000000" stroke-width="0.100mm" stroke-opacity="1.000000" fpd:visible="front back" fpd:print_element="0" />
<path d="
M85.940 17.847
A8.000,8.000 0 1,0 101.940,17.847
A8.000,8.000 0 1,0 85.940,17.847
" 
fill="#ffffff" fill-opacity="1.000000" vector-effect="non-scaling-stroke" stroke="#000000" stroke-width="0.100mm" stroke-opacity="1.000000" fpd:visible="front back" fpd:print_element="0" />
<path d="
M111.940 17.847
A8.000,8.000 0 1,0 127.940,17.847
A8.000,8.000 0 1,0 111.940,17.847
" 
fill="#ffffff" fill-opacity="1.000000" vector-effect="non-scaling-stroke" stroke="#000000" stroke-width="0.100mm" stroke-opacity="1.000000" fpd:visible="front back" fpd:print_element="0" />
<path d="
M137.940 17.847
A8.000,8.000 0 1,0 153.940,17.847
A8.000,8.000 0 1,0 137.940,17.847
" 
fill="#ffffff" fill-opacity="1.000000" vector-effect="non-scaling-stroke" stroke="#000000" stroke-width="0.100mm" stroke-opacity="1.000000" fpd:visible="front back" fpd:print_element="0" />
<path d="
M164.940 17.847
A8.000,8.000 0 1,0 180.940,17.847
A8.000,8.000 0 1,0 164.940,17.847
" 
fill="#ffffff" fill-opacity="1.000000" vector-effect="non-scaling-stroke" stroke="#000000" stroke-width="0.100mm" stroke-opacity="1.000000" fpd:visible="front back" fpd:print_element="0" />
<path d="
M85.951 45.627
A8.000,8.000 0 1,0 101.951,45.627
A8.000,8.000 0 1,0 85.951,45.627
" 
fill="#ffffff" fill-opacity="1.000000" vector-effect="non-scaling-stroke" stroke="#000000" stroke-width="0.100mm" stroke-opacity="1.000000" fpd:visible="front back" fpd:print_element="0" />
<path d="
M111.951 45.627
A8.000,8.000 0 1,0 127.951,45.627
A8.000,8.000 0 1,0 111.951,45.627
" 
fill="#ffffff" fill-opacity="1.000000" vector-effect="non-scaling-stroke" stroke="#000000" stroke-width="0.100mm" stroke-opacity="1.000000" fpd:visible="front back" fpd:print_element="0" />
<path d="
M137.951 45.627
A8.000,8.000 0 1,0 153.951,45.627
A8.000,8.000 0 1,0 137.951,45.627
" 
fill="#ffffff" fill-opacity="1.000000" vector-effect="non-scaling-stroke" stroke="#000000" stroke-width="0.100mm" stroke-opacity="1.000000" fpd:visible="front back" fpd:print_element="0" />
<path d="
M164.951 45.627
A8.000,8.000 0 1,0 180.951,45.627
A8.000,8.000 0 1,0 164.951,45.627
" 
fill="#ffffff" fill-opacity="1.000000" vector-effect="non-scaling-stroke" stroke="#000000" stroke-width="0.100mm" stroke-opacity="1.000000" fpd:visible="front back" fpd:print_element="0" />
<path d="
M91.940 101.188
A3.000,3.000 0 1,0 97.940,101.188
A3.000,3.000 0 1,0 91.940,101.188
" 
fill="#ffffff" fill-opacity="1.000000" vector-effect="non-scaling-stroke" stroke="#000000" stroke-width="0.100mm" stroke-opacity="1.000000" fpd:visible="front back" fpd:print_element="0" />
<path d="
M117.940 101.188
A3.000,3.000 0 1,0 123.940,101.188
A3.000,3.000 0 1,0 117.940,101.188
" 
fill="#ffffff" fill-opacity="1.000000" vector-effect="non-scaling-stroke" stroke="#000000" stroke-width="0.100mm" stroke-opacity="1.000000" fpd:visible="front back" fpd:print_element="0" />
<path d="
M143.940 101.188
A3.000,3.000 0 1,0 149.940,101.188
A3.000,3.000 0 1,0 143.940,101.188
" 
fill="#ffffff" fill-opacity="1.000000" vector-effect="non-scaling-stroke" stroke="#000000" stroke-width="0.100mm" stroke-opacity="1.000000" fpd:visible="front back" fpd:print_element="0" />
<path d="
M169.940 101.188
A3.000,3.000 0 1,0 175.940,101.188
A3.000,3.000 0 1,0 169.940,101.188
" 
fill="#ffffff" fill-opacity="1.000000" vector-effect="non-scaling-stroke" stroke="#000000" stroke-width="0.100mm" stroke-opacity="1.000000" fpd:visible="front back" fpd:print_element="0" />
<path d="
M85.945 73.438
A8.000,8.000 0 1,0 101.945,73.438
A8.000,8.000 0 1,0 85.945,73.438
" 
fill="#ffffff" fill-opacity="1.000000" vector-effect="non-scaling-stroke" stroke="#000000" stroke-width="0.100mm" stroke-opacity="1.000000" fpd:visible="front back" fpd:print_element="0" />
<path d="
M112.945 73.438
A8.000,8.000 0 1,0 128.945,73.438
A8.000,8.000 0 1,0 112.945,73.438
" 
fill="#ffffff" fill-opacity="1.000000" vector-effect="non-scaling-stroke" stroke="#000000" stroke-width="0.100mm" stroke-opacity="1.000000" fpd:visible="front back" fpd:print_element="0" />
<path d="
M138.945 73.438
A8.000,8.000 0 1,0 154.945,73.438
A8.000,8.000 0 1,0 138.945,73.438
" 
fill="#ffffff" fill-opacity="1.000000" vector-effect="non-scaling-stroke" stroke="#000000" stroke-width="0.100mm" stroke-opacity="1.000000" fpd:visible="front back" fpd:print_element="0" />
<path d="
M164.945 73.438
A8.000,8.000 0 1,0 180.945,73.438
A8.000,8.000 0 1,0 164.945,73.438
" 
fill="#ffffff" fill-opacity="1.000000" vector-effect="non-scaling-stroke" stroke="#000000" stroke-width="0.100mm" stroke-opacity="1.000000" fpd:visible="front back" fpd:print_element="0" />
<path d="
M46.892 22.479
A15.000,15.000 0 1,0 76.892,22.479
A15.000,15.000 0 1,0 46.892,22.479
" 
fill="#ffffff" fill-opacity="1.000000" vector-effect="non-scaling-stroke" stroke="#000000" stroke-width="0.100mm" stroke-opacity="1.000000" fpd:visible="front back" fpd:print_element="0" />
<path d="
M44.667 59.539
A17.250,17.250 0 1,0 79.167,59.539
A17.250,17.250 0 1,0 44.667,59.539
" 
fill="#ffffff" fill-opacity="1.000000" vector-effect="non-scaling-stroke" stroke="#000000" stroke-width="0.100mm" stroke-opacity="1.000000" fpd:visible="front back" fpd:print_element="0" />
<path d="
M42.905 85.894
A4.500,4.500 0 0,1 47.405,81.394
L76.505 81.394
A4.500,4.500 0 0,1 81.005,85.894
L81.005 106.994
A4.500,4.500 0 0,1 76.505,111.494
L47.405 111.494
A4.500,4.500 0 0,1 42.905,106.994
L42.905 85.894
" 
fill="#ffffff" fill-opacity="1.000000" vector-effect="non-scaling-stroke" stroke="#000000" stroke-width="0.100mm" stroke-opacity="1.000000" fpd:visible="front back" fpd:print_element="0" />
<path d="
M193.000 119.000
A5.000,5.000 0 0,0 198.000,114.000
L198.000 5.000
A5.000,5.000 0 0,0 193.000,0.000
L5.000 0.000
A5.000,5.000 0 0,0 0.000,5.000
L0.000 114.000
A5.000,5.000 0 0,0 5.000,119.000
L193.000 119.000
" 
fill="none" vector-effect="non-scaling-stroke" stroke="#000000" stroke-width="0.100mm" stroke-opacity="1.000000" fpd:visible="front back" />
<path d="
M193.000 119.000
A5.000,5.000 0 0,0 198.000,114.000
L198.000 5.000
A5.000,5.000 0 0,0 193.000,0.000
L5.000 0.000
A5.000,5.000 0 0,0 0.000,5.000
L0.000 114.000
A5.000,5.000 0 0,0 5.000,119.000
L193.000 119.000
M5.000 118.000
A4.000,4.000 0 0,1 1.000,114.000
L1.000 114.000
L1.000 5.000
L1.000 5.000
L1.000 5.000
L1.000 5.000
A4.000,4.000 0 0,1 5.000,1.000
L5.000 1.000
L193.000 1.000
L193.000 1.000
A4.000,4.000 0 0,1 197.000,5.000
L197.000 5.000
L197.000 114.000
L197.000 114.000
A4.000,4.000 0 0,1 193.000,118.000
L5.000 118.000
" 
fill="#e0e0e0" fill-opacity="1.000000" vector-effect="non-scaling-stroke" stroke="#0000ff" stroke-width="0.100mm" stroke-opacity="1.000000" fpd:visible="front" />
<path d="
M193.000 119.000
A5.000,5.000 0 0,0 198.000,114.000
L198.000 5.000
A5.000,5.000 0 0,0 193.000,0.000
L5.000 0.000
A5.000,5.000 0 0,0 0.000,5.000
L0.000 114.000
A5.000,5.000 0 0,0 5.000,119.000
L193.000 119.000
" 
fill="none" vector-effect="non-scaling-stroke" stroke="#0000ff" stroke-width="0.100mm" stroke-opacity="1.000000" fpd:visible="front" />
<path d="
M-0.653 0.000
L0.653 0.000
M0.000 -0.653
L0.000 0.653
" 
fill="none" vector-effect="non-scaling-stroke" stroke="#ff0000" stroke-width="0.100mm" stroke-opacity="1.000000" />
<path d="
M4.740 5.517
L6.046 5.517
M5.393 4.864
L5.393 6.170
" 
fill="none" vector-effect="non-scaling-stroke" stroke="#ff0000" stroke-width="0.100mm" stroke-opacity="1.000000" />
<path d="
M4.777 113.462
L6.083 113.462
M5.430 112.809
L5.430 114.115
" 
fill="none" vector-effect="non-scaling-stroke" stroke="#ff0000" stroke-width="0.100mm" stroke-opacity="1.000000" />
<path d="
M190.411 112.922
L191.717 112.922
M191.064 112.269
L191.064 113.575
" 
fill="none" vector-effect="non-scaling-stroke" stroke="#ff0000" stroke-width="0.100mm" stroke-opacity="1.000000" />
<path d="
M191.808 5.550
L193.114 5.550
M192.461 4.897
L192.461 6.203
" 
fill="none" vector-effect="non-scaling-stroke" stroke="#ff0000" stroke-width="0.100mm" stroke-opacity="1.000000" />
<path d="
M3.290 59.497
L4.596 59.497
M3.943 58.844
L3.943 60.150
" 
fill="none" vector-effect="non-scaling-stroke" stroke="#ff0000" stroke-width="0.100mm" stroke-opacity="1.000000" />
<path d="
M98.315 115.047
L99.621 115.047
M98.968 114.394
L98.968 115.700
" 
fill="none" vector-effect="non-scaling-stroke" stroke="#ff0000" stroke-width="0.100mm" stroke-opacity="1.000000" />
<path d="
M98.124 4.038
L99.430 4.038
M98.777 3.385
L98.777 4.691
" 
fill="none" vector-effect="non-scaling-stroke" stroke="#ff0000" stroke-width="0.100mm" stroke-opacity="1.000000" />
<path d="
M193.256 59.495
L194.562 59.495
M193.909 58.842
L193.909 60.148
" 
fill="none" vector-effect="non-scaling-stroke" stroke="#ff0000" stroke-width="0.100mm" stroke-opacity="1.000000" />
<path d="
M13.303 105.494
L14.609 105.494
M13.956 104.841
L13.956 106.147
" 
fill="none" vector-effect="non-scaling-stroke" stroke="#ff0000" stroke-width="0.100mm" stroke-opacity="1.000000" />
<path d="
M8.298 96.029
L9.604 96.029
M8.951 95.376
L8.951 96.682
" 
fill="none" vector-effect="non-scaling-stroke" stroke="#ff0000" stroke-width="0.100mm" stroke-opacity="1.000000" />
<path d="
M188.330 96.031
L189.636 96.031
M188.983 95.378
L188.983 96.684
" 
fill="none" vector-effect="non-scaling-stroke" stroke="#ff0000" stroke-width="0.100mm" stroke-opacity="1.000000" />
<path d="
M8.293 23.028
L9.599 23.028
M8.946 22.375
L8.946 23.681
" 
fill="none" vector-effect="non-scaling-stroke" stroke="#ff0000" stroke-width="0.100mm" stroke-opacity="1.000000" />
<path d="
M188.301 23.019
L189.607 23.019
M188.954 22.366
L188.954 23.672
" 
fill="none" vector-effect="non-scaling-stroke" stroke="#ff0000" stroke-width="0.100mm" stroke-opacity="1.000000" />
<path d="
M183.292 105.529
L184.598 105.529
M183.945 104.876
L183.945 106.182
" 
fill="none" vector-effect="non-scaling-stroke" stroke="#ff0000" stroke-width="0.100mm" stroke-opacity="1.000000" />
<path d="
M13.295 13.481
L14.601 13.481
M13.948 12.828
L13.948 14.134
" 
fill="none" vector-effect="non-scaling-stroke" stroke="#ff0000" stroke-width="0.100mm" stroke-opacity="1.000000" />
<path d="
M183.272 13.453
L184.578 13.453
M183.925 12.800
L183.925 14.106
" 
fill="none" vector-effect="non-scaling-stroke" stroke="#ff0000" stroke-width="0.100mm" stroke-opacity="1.000000" />
<path d="
M41.292 59.528
L42.598 59.528
M41.945 58.875
L41.945 60.181
" 
fill="none" vector-effect="non-scaling-stroke" stroke="#ff0000" stroke-width="0.100mm" stroke-opacity="1.000000" />
<path d="
M159.292 59.528
L160.598 59.528
M159.945 58.875
L159.945 60.181
" 
fill="none" vector-effect="non-scaling-stroke" stroke="#ff0000" stroke-width="0.100mm" stroke-opacity="1.000000" />
<path d="
M133.292 59.528
L134.598 59.528
M133.945 58.875
L133.945 60.181
" 
fill="none" vector-effect="non-scaling-stroke" stroke="#ff0000" stroke-width="0.100mm" stroke-opacity="1.000000" />
<path d="
M107.292 59.528
L108.598 59.528
M107.945 58.875
L107.945 60.181
" 
fill="none" vector-effect="non-scaling-stroke" stroke="#ff0000" stroke-width="0.100mm" stroke-opacity="1.000000" />
<path d="
M81.292 59.528
L82.598 59.528
M81.945 58.875
L81.945 60.181
" 
fill="none" vector-effect="non-scaling-stroke" stroke="#ff0000" stroke-width="0.100mm" stroke-opacity="1.000000" />
<path d="
M46.290 41.030
L47.596 41.030
M46.943 40.377
L46.943 41.683
" 
fill="none" vector-effect="non-scaling-stroke" stroke="#ff0000" stroke-width="0.100mm" stroke-opacity="1.000000" />
<path d="
M46.276 78.036
L47.582 78.036
M46.929 77.383
L46.929 78.689
" 
fill="none" vector-effect="non-scaling-stroke" stroke="#ff0000" stroke-width="0.100mm" stroke-opacity="1.000000" />
<path d="
M26.292 22.494
L27.598 22.494
M26.945 21.841
L26.945 23.147
" 
fill="none" vector-effect="non-scaling-stroke" stroke="#ff0000" stroke-width="0.100mm" stroke-opacity="1.000000" />
<path d="
M26.292 96.494
L27.598 96.494
M26.945 95.841
L26.945 97.147
" 
fill="none" vector-effect="non-scaling-stroke" stroke="#ff0000" stroke-width="0.100mm" stroke-opacity="1.000000" />
<path d="
M26.292 59.494
L27.598 59.494
M26.945 58.841
L26.945 60.147
" 
fill="none" vector-effect="non-scaling-stroke" stroke="#ff0000" stroke-width="0.100mm" stroke-opacity="1.000000" />
<path d="
M133.270 87.324
L134.576 87.324
M133.923 86.671
L133.923 87.977
" 
fill="none" vector-effect="non-scaling-stroke" stroke="#ff0000" stroke-width="0.100mm" stroke-opacity="1.000000" />
<path d="
M133.458 59.509
L134.764 59.509
M134.111 58.856
L134.111 60.162
" 
fill="none" vector-effect="non-scaling-stroke" stroke="#ff0000" stroke-width="0.100mm" stroke-opacity="1.000000" />
<path d="
M133.292 31.789
L134.598 31.789
M133.945 31.136
L133.945 32.442
" 
fill="none" vector-effect="non-scaling-stroke" stroke="#ff0000" stroke-width="0.100mm" stroke-opacity="1.000000" />
<path d="
M93.287 17.847
L94.593 17.847
M93.940 17.194
L93.940 18.500
" 
fill="none" vector-effect="non-scaling-stroke" stroke="#ff0000" stroke-width="0.100mm" stroke-opacity="1.000000" />
<path d="
M119.287 17.847
L120.593 17.847
M119.940 17.194
L119.940 18.500
" 
fill="none" vector-effect="non-scaling-stroke" stroke="#ff0000" stroke-width="0.100mm" stroke-opacity="1.000000" />
<path d="
M145.287 17.847
L146.593 17.847
M145.940 17.194
L145.940 18.500
" 
fill="none" vector-effect="non-scaling-stroke" stroke="#ff0000" stroke-width="0.100mm" stroke-opacity="1.000000" />
<path d="
M172.287 17.847
L173.593 17.847
M172.940 17.194
L172.940 18.500
" 
fill="none" vector-effect="non-scaling-stroke" stroke="#ff0000" stroke-width="0.100mm" stroke-opacity="1.000000" />
<path d="
M93.298 45.627
L94.604 45.627
M93.951 44.974
L93.951 46.280
" 
fill="none" vector-effect="non-scaling-stroke" stroke="#ff0000" stroke-width="0.100mm" stroke-opacity="1.000000" />
<path d="
M119.298 45.627
L120.604 45.627
M119.951 44.974
L119.951 46.280
" 
fill="none" vector-effect="non-scaling-stroke" stroke="#ff0000" stroke-width="0.100mm" stroke-opacity="1.000000" />
<path d="
M145.298 45.627
L146.604 45.627
M145.951 44.974
L145.951 46.280
" 
fill="none" vector-effect="non-scaling-stroke" stroke="#ff0000" stroke-width="0.100mm" stroke-opacity="1.000000" />
<path d="
M172.298 45.627
L173.604 45.627
M172.951 44.974
L172.951 46.280
" 
fill="none" vector-effect="non-scaling-stroke" stroke="#ff0000" stroke-width="0.100mm" stroke-opacity="1.000000" />
<path d="
M94.287 101.188
L95.593 101.188
M94.940 100.535
L94.940 101.841
" 
fill="none" vector-effect="non-scaling-stroke" stroke="#ff0000" stroke-width="0.100mm" stroke-opacity="1.000000" />
<path d="
M120.287 101.188
L121.593 101.188
M120.940 100.535
L120.940 101.841
" 
fill="none" vector-effect="non-scaling-stroke" stroke="#ff0000" stroke-width="0.100mm" stroke-opacity="1.000000" />
<path d="
M146.287 101.188
L147.593 101.188
M146.940 100.535
L146.940 101.841
" 
fill="none" vector-effect="non-scaling-stroke" stroke="#ff0000" stroke-width="0.100mm" stroke-opacity="1.000000" />
<path d="
M172.287 101.188
L173.593 101.188
M172.940 100.535
L172.940 101.841
" 
fill="none" vector-effect="non-scaling-stroke" stroke="#ff0000" stroke-width="0.100mm" stroke-opacity="1.000000" />
<path d="
M93.292 73.438
L94.598 73.438
M93.945 72.785
L93.945 74.091
" 
fill="none" vector-effect="non-scaling-stroke" stroke="#ff0000" stroke-width="0.100mm" stroke-opacity="1.000000" />
<path d="
M120.292 73.438
L121.598 73.438
M120.945 72.785
L120.945 74.091
" 
fill="none" vector-effect="non-scaling-stroke" stroke="#ff0000" stroke-width="0.100mm" stroke-opacity="1.000000" />
<path d="
M146.292 73.438
L147.598 73.438
M146.945 72.785
L146.945 74.091
" 
fill="none" vector-effect="non-scaling-stroke" stroke="#ff0000" stroke-width="0.100mm" stroke-opacity="1.000000" />
<path d="
M172.292 73.438
L173.598 73.438
M172.945 72.785
L172.945 74.091
" 
fill="none" vector-effect="non-scaling-stroke" stroke="#ff0000" stroke-width="0.100mm" stroke-opacity="1.000000" />
<path d="
M185.256 59.495
L186.562 59.495
M185.909 58.842
L185.909 60.148
" 
fill="none" vector-effect="non-scaling-stroke" stroke="#ff0000" stroke-width="0.100mm" stroke-opacity="1.000000" />
<path d="
M11.290 59.497
L12.596 59.497
M11.943 58.844
L11.943 60.150
" 
fill="none" vector-effect="non-scaling-stroke" stroke="#ff0000" stroke-width="0.100mm" stroke-opacity="1.000000" />
<path d="
M61.239 22.479
L62.545 22.479
M61.892 21.826
L61.892 23.132
" 
fill="none" vector-effect="non-scaling-stroke" stroke="#ff0000" stroke-width="0.100mm" stroke-opacity="1.000000" />
<path d="
M61.264 59.539
L62.570 59.539
M61.917 58.886
L61.917 60.192
" 
fill="none" vector-effect="non-scaling-stroke" stroke="#ff0000" stroke-width="0.100mm" stroke-opacity="1.000000" />
<path d="
M61.302 96.444
L62.608 96.444
M61.955 95.791
L61.955 97.097
" 
fill="none" vector-effect="non-scaling-stroke" stroke="#ff0000" stroke-width="0.100mm" stroke-opacity="1.000000" />
</g>
</svg>
